<?xml version="1.0" encoding="utf-8"?>
<!-- Generator: Adobe Illustrator 26.3.1, SVG Export Plug-In . SVG Version: 6.00 Build 0)  -->
<svg version="1.1" id="Layer_2_00000036232408975823608210000003950463576143464374_"
	 xmlns="http://www.w3.org/2000/svg" xmlns:xlink="http://www.w3.org/1999/xlink" x="0px" y="0px" viewBox="0 0 945 791.3"
	 enable-background="new 0 0 945 791.3" xml:space="preserve">
<g id="Layer_1-2">
	<g>
		<path fill="#FFFFFF" d="M533.7,314.2c-0.4,2.3-0.6,4.1-1.1,5.9c-0.3,1.3-0.8,2.6-2.4,3.1c-1.7,0.4-2.5-0.8-3.3-1.9
			c-0.8-0.9-1.2-2.8-2.6-2.2c-1.2,0.5-1.3,2.2-1.3,3.6c-0.2,5.4-1.3,10.1-6.7,12.8c-4.2,2.1-9,1.6-12.4-1.7
			c-5.4-5.1-8.6-11.6-11.3-18.3c-1-2.4-0.1-4.7,0.7-6.9c0.7-2,1-4-0.8-5.5c-6.3-5.4-12-11.5-19.3-15.9c-6.4-3.9-13.2-4.3-20.1-4.9
			c-10.5-0.9-21-0.2-31,3.4c-2.6,0.9-5.2,1.8-6.8,4.9c-1.2-4.5-3.9-4.4-7.3-3.4c-2.9,0.9-5.5,2-8,3.8c-4.1,2.9-8.9,4.5-13.5,6.4
			c-2.5,1-5.2,1.9-7.4,4.8c3.9-1.7,7.1-3.2,10.3-4.5c1.7-0.7,3.8-1.5,5.1,0.3c1.4,1.9-0.5,3.2-1.8,4.3c-0.9,0.8-1.2,1.9-1.5,2.9
			c-0.3,1-0.6,2.4,0.2,3.2c1,1,2-0.3,3.1-0.4c1.4-0.1,2.8-2.5,4.3,0.3c2,3.9,3.7,3.7,6.3-0.4c-0.9-0.7-1.6,0.3-2.4,0.4
			c-1.4,0.2-2.6-0.1-3.2-1.3c-0.8-1.5,0.8-1.8,1.6-2.4c1.6-1.1,3.3-2.2,5.1-3.1c0.8-0.4,1.6-2.6,2.7-0.5c0.5,1.1,1.6,2.8-0.8,3.6
			c-1.5,0.6-2.8,1.1-1,3.4c1.4,1.8,0.3,4.5-0.2,6.8c2.1,0,2.4-1.8,2.6-2.8c0.6-2.6,2.3-2.9,4.5-2.5c0.7,0.1,1.6,0,2.2,0.3
			c1.3,0.5,3.1-2.1,4,0.7c0.9,2.8,0,5.1-2.4,6.4c-2.4,1.2-2.6,2.3-0.3,4.3c1.8-3.2,4.1-5.9,7.2-7.6c1.3-0.7,2.6-1.4,4.1-1.5
			c2.5-0.2,4.9-1.3,4.4-3.9c-0.4-2.3-1.6-5.1-5.2-4.4c-0.4,0.1-0.8,0.1-1.1,0c-1.2-0.1-2.8,0.4-3.4-0.9c-0.5-1.1,0.8-1.7,1.6-2.2
			c1.2-0.8,2.1-3.3,3.9-1.6c2.9,2.8,5.9,2.5,9.2,1.2c0.8-0.3,1.7-0.2,2.6-0.2c0.6,0,1.3,0.2,1.6-0.5c0.4-0.8-0.3-1.4-0.8-1.9
			c-0.6-0.6-2.8-0.4-1.3-2.1c1.1-1.3,2.4-2.6,4.4-1.9c1,0.4,1.9,1.1,2.9,1.7c1-3-1-4.2-3.1-4.7c-1.8-0.4-2.8-1.4-2.4-2.9
			c0.6-1.8,2.2-0.3,3.2-0.3c2.3,0.1,4.7,0.6,7,1c1.4,0.3,3.1,0.2,3.6,2.1c0.1,0.2,0.4,0.6,0.5,0.5c4-1,4.4,2.9,6.4,4.6
			c1.6,1.3,3.1,2.1,1.7,4.4c-0.3,0.5,0.1,0.9,0.9,1.2c3.4,1.3,7.1,7.7,6.4,11.1c-0.5,2.4-2.2,2.3-4,1.3c-1.7-1-3.4-2-5.2-2.9
			c-0.6-0.3-1.4-0.3-2.7-0.4c1.7,2.7,2.9,5.2,3,8c0.1,1.6,0.2,3.1-2.1,3c-0.1,0-0.2,0-0.4,0.1c-3.5,0.9-6.4-0.1-8.8-2.9
			c-1.2-1.5-2.9-1.8-5.1-1.6c2.9,3,4.1,6.5,4.4,10.3c0,0.4,7.3,6.5,7.7,6.5c5.9-0.5,5.7-0.4,8.4,4.9c2.1,4.2,4.3,8.5,9.1,10.6
			c0.8,0.3,1.8,0.8,1.6,1.8c-0.2,1.1-1.3,0.9-2.1,1.2c-1.8,0.6-3.7,1-4.6,2.9c-2.6,5.4-7.5,6.9-12.9,7.5c-2.5,0.3-5,0.4-7.4,1
			c-3.2,0.9-4.5,0-4.2-3.3c0-0.4-0.2-0.9-0.4-1.5c-3.2,3.7-1.6,8.1,3,9.2c1.4,0.3,3.6-0.1,3.4,2.4c-0.1,1.3,0.4,3.1-0.8,3.9
			c-1.3,0.9-2.6-0.4-3.6-1.2c-2.4-1.9-4.6-1.6-7.2-0.2c-8.4,4.8-16.8,9.4-22.7,17.4c-1,1.4-2.6,3.1-4,3.2c-9.4,0.8-9,9.7-12.4,15.2
			c-1.9,3.1-1.1,7.1,2.3,9.7c1,0.8,2.4,1.4,2.6,3c-5,1-10.9-2.7-11.9-7.5c-1.1-5.7-3.6-6.6-7.9-2.5c-2.9,2.8-5.7,3.5-9.4,2.5
			c-2.8-0.7-5.7,0-8.4,1c-2.8,1-4.4,3-4.8,6.1c-0.7,5.3-0.5,10.5,0.3,15.7c0.8,5.7,6,9.1,11.7,9.1c4.4,0,7.5-1.4,10.6-4.2
			c4.4-4,6.3-3.3,8.7,1.9c1.4,3,2.8,5.9,4.2,8.8c2.5,5,5.2,6.2,10.6,4.4c2.6-0.9,5.1-2,7.6-3.2c10.1-5,20.1-5.1,29.9,0.9
			c5.4,3.3,11.7,4.3,17.7,5.7c4.6,1,8.4,3,10.8,7.3c2.2,4,5.8,5.6,10.3,5.7c3.1,0,6.3,0,9.4,0.2c2,0.1,4,0.2,5.7,1.4
			c4.7,3.2,5.1,7.9,0.3,13.3c-4.7,5.3-6.3,11.5-6.9,18.1c-0.3,3.9-2,7-5.5,8.2c-9.1,3-15.2,10.3-22.8,15.4
			c-3.8,2.6-7.3,5.6-11.8,7.1c-1.4,0.4-3.8,1-1.6,3.5c0.9,1.1-0.4,2-1.4,2.6c-2.3,1.6-5,2.3-7.5,3.3c-1.4,0.5-2.6,0.9-2.8,2.6
			c-0.3,3.5-1.1,6.9-0.9,10.4c0.3,4.4,2.5,6.6,7,6.5c5-0.1,10-0.4,15-0.5c1.4,0,3-0.3,4,0.6c3.2,2.7,6.2,1.6,9.4,0.2
			c7-3,14.6-3.2,22-4.3c1.5-0.2,2.4-0.3,2-2c-0.3-1.3,0.4-2,1.3-2.8c7.1-6.4,13.4-13.3,16.6-22.6c0.8-2.2,2-4.3,3.3-6.3
			c4.3-6.4,10.2-8,17.2-4.8c3.2,1.5,6.4,2.6,10.1,1.7c2.1-0.5,4.5-0.5,6.7,0.3c5.2,1.9,6,3.7,5.4,11.4c20.1-7.4,33.1-22.4,42.6-40.7
			c10.7-20.6,15.7-42.7,15.1-66c-0.1-5.9-0.9-11.7-2.3-17.4c-1.9-7.9-7-13.8-13-18.8c-8.3-7-12.6-16.2-15.7-26.2
			c-0.3-0.9-0.5-1.7-0.1-3c5.6,1.9,10.5,4.9,14.7,8.8c2,1.9,1.7,5.2,1.9,7.9c0.4,4.1,2.6,6.6,6.1,8.2c1.7,0.8,3.3,1.7,5,2.6
			c0.9,0.5,1.6,2,2.8,1.1c1-0.7,0.6-2.1,0.5-3.2c-0.4-5-1.4-9.9-2.2-14.9c4.2,8.6,7.6,17.4,9.2,26.8c5.1,29.2,1.9,57.6-8.5,85
			c-15,39.8-41.7,69.1-80.9,86.9c-22.4,10.2-45.5,15.9-70,16.1c-21.6,0.2-41.9-5.8-61.5-14.5c-20.2-8.9-37.6-21.7-51.7-38.7
			c-20.1-24.2-34.3-51.2-38.9-82.9c-2-13.8-2.8-27.6-1.8-41.4c1.3-17.1,6.2-33.6,12.6-49.4c9.4-23.4,23.1-43.8,43.6-58.8
			c21.6-15.8,45.7-25.8,72.2-30c16.7-2.7,33.2-3.6,50-0.8c16.5,2.8,32.2,7.9,47.3,14.8c1,0.5,2.8,0.6,1.4,2.8
			c-0.9,1.3,0.8,1.3,1.5,1.2c11.3-1.5,18.4,5.5,25.7,12.3c7.5,6.8,15.6,13,22.6,20.2c11.4,11.7,20.3,25.3,26.8,40.3
			c0.2,0.6,0.6,1,0,1.6c-3,2.8-9,3.6-12.7,1.5c-2.3-1.3-4.8-2.2-7.3-2.8c-3.2-0.7-4.2-2.7-4.1-5.7c0.1-2,0-4-0.1-6
			c-0.4-7.5-3.5-13.6-9.5-18.4c-2-1.6-4.7-3.1-2.7-6.6c0.8-1.3-1.3-1.9-2-2.8c-0.9-1.2-3-2.3,0.2-3.3c1.8-0.5,1.5-1.8,0.5-2.8
			c-3.1-3.3-6.4-6.3-10.2-8.7c-2.1-1.4-2.7-0.1-2.5,1.8c0.3,3.7,1.8,7.1,3.8,10c4.3,6.2,5.5,13.6,7.8,20.5c0.6,1.9-0.1,2.6-1.8,3.3
			c-5.3,2.2-5.6,2.1-9.1-2.4c-6.9-8.8-13-18-17.4-28.3c-0.5-1.1-1.1-2.2-1.8-3.3c-0.4-0.7-0.6-1.8-1.7-1.7c-0.9,0.1-0.9,1.1-1.2,1.7
			c-1,1.7-1.4,3.7-2.7,5.3c-1.6,1.9-3,2.4-4.7,0.2C536.1,316.6,535,315.6,533.7,314.2L533.7,314.2z M324.5,392.3
			c-1.7,10.3-2.5,20.1-3,30c-0.7,14.4-0.9,28.8,1.7,43c3.8,21,14.7,38.6,28.7,54.2c11.2,12.5,22.7,24.9,36.7,34.5
			c0.6,0.4,1,1.3,1.9,0.9c0.9-0.4,0.5-1.3,0.4-2c-0.6-4.8,1.3-8.5,4.7-11.6c2.2-2,4.6-3.8,6.9-5.7c3-2.5,6.5-2.9,10.2-2
			c4.7,1.2,9.5,2.2,14.1,3.7c3,1,4.2-0.1,4.7-2.8c0.2-1.2,0.4-2.5,0.4-3.7c-0.2-10-3-18.9-10.8-25.7c-5.9-5.2-9.3-11.9-11.2-19.5
			c-0.4-1.7-1.1-3.6,0.5-4.9c2.5-2.1,3.1-5,3.9-7.9c1-4.1,1.7-8.3,3.6-12.1c0.4-0.8,1.4-1.9,0.4-2.7c-1.2-1-2,0.3-2.9,0.9
			c-0.8,0.5-1.7,1.2-2.3,1.9c-2,2.5-4.6,3.1-7.7,2.9c-6.6-0.5-11.5-3.7-15.3-8.9c-2.2-2.9-5-4.3-8.5-4.7c-3.4-0.4-6.7-0.5-10.1-0.1
			c-9.7,1.2-16-2.5-19.4-11.5c-3.1-8.4-7.1-16.1-14.7-22c0.8,2.9,0.8,7.3,2.4,8c5.2,2.4,4.7,6.8,5.3,10.9c0.3,2.1-0.7,3.8-2.9,4.8
			c-0.1-3.8,0.2-7.4-1.1-10.9c-0.9-2.3-3.5-3-4.1-5.2c-1.6-6.1-4.8-11.4-8.3-16.6c-1.4-2-1.9-4.5-2.6-7
			C325.6,397.8,326.5,395,324.5,392.3L324.5,392.3z M433.7,302.4c1.6,1.9,3.1,2.8,4.7,3.7c1.1,0.6,1.9,1.5,1,2.7
			c-1.6,2.1-2.1,4.7-3.1,7.1c-0.7,1.8-1.4,2-3.2,1c-5.2-3-10.1-0.6-12,5.3c1.6,0.8,2.9-1.1,4.4-0.8c0.5,1.6-0.7,4.1,2.1,4
			c3.2-0.2,6,0,7.5,3.9c0.2-4.5,2.7-5.4,6-5.1c1.5,0.1,2-0.8,1.3-1.8c-2.9-4.2,0.4-6.2,2.7-8.6c0.6-0.6,2-1.1,1.5-1.8
			c-2.2-3.4,0.5-5.5,2.1-7.5c2.3-3,1.4-4.8-1.2-7C445,304,439.1,301.8,433.7,302.4L433.7,302.4z"/>
		<path fill="#FFFFFF" d="M284.7,557.8c-0.2-1.5-1.7-2-2.4-3.3c1.8-0.6,2.3,0.9,3,1.7c4.6,5.7,8.7,11.7,12.5,18
			c2.1,3.5,1.7,5.7-1.4,7.9c-0.8,0.6-1.4,1.3-2.2,2c-2,0.6-4.1,1-6,1.8c-1.8,0.8-2.7,0.2-3.6-1.3c-4.1-7-8.7-13.7-11.4-21.4
			c-0.2-0.6-0.5-1.3-1.1-1.2c-0.9,0.1-1,1-0.8,1.8c0.2,0.7,0.4,1.5,0.7,2.1c4,7,8.1,14.1,12.1,21.1c0.4,0.8,0.8,1.8,2.3,1.1
			c2.6-1.4,5.7-1.7,7.9-3.8c1.6,0.1,2.5-1.4,4.2-1.3c-3.6,2.7-7.5,4.9-11.9,6.4c-1.5,0.5-2.6-0.5-3.4-1.7
			c-4.8-7.1-9.1-14.5-12.8-22.2c-1-2.2-0.1-3.8,1.4-5.3c2.3-2.2,5.1-3.5,7.9-4.8c2.7-1.2,2.8,2.3,4.6,2.7
			c4.4,6.9,8.9,13.7,13.3,20.6C294.8,570.7,290.3,563.9,284.7,557.8L284.7,557.8z"/>
		<path fill="#FFFFFF" d="M450.4,232c-0.5,1.1-1,2.2-1.5,3.4c-2.3-4.8,1.9-15.5,6.2-16.1c-0.9-0.3-1.7-0.5-2.5-0.8
			c-0.5-0.2-0.8-0.6-0.7-1.1c0.2-0.6,0.7-0.7,1.2-0.6c6,0.2,12.4-0.8,17.8,1.1c3.6,1.3,6.9,1.8,10.4,1.9c0.5,0,1.3,0,1.4,0.3
			c1.4,3.2,1,6.5,0.8,9.8c-0.1,2-1.4,2.4-3,2.7c-8.6,1.2-17.4,1.2-26.1,1.4C452.9,233.9,451.9,232.5,450.4,232L450.4,232z"/>
		<path fill="#FFFFFF" d="M645.1,498c1-1.1,1.8-2,3-3.2c0.3,3.6-1.1,6.2-1.9,9c-1.6,6.2-4.2,12.1-2.7,19c0.8,3.5-2.3,6.9-4.4,9.9
			c-1,1.4-3.2,0.9-3.3-1c-0.3-3.5-1.6-3.7-4.8-3c-3.6,0.8-5.6-2.8-4.3-6.2c2.7-7.1,4-14.6,7.3-21.5c0.9-1.9,1.9-3.8,3.4-5.4
			c2.6-2.9,4.1-2.8,6.4,0.5C644.2,496.5,644.6,497.1,645.1,498L645.1,498z"/>
		<path fill="#FFFFFF" d="M580.8,192.7c3.1-0.6,5.2,1.7,7.1,3.2c5.3,3.9,11.2,7.1,14.8,12.9c0.7,1.2,2.1,1.3,3.1,1.7
			c1.9,0.8,3,2.3,3.3,4.2c0.2,2-1.6,2.7-3,3.3c-2.4,1.1-5,1.5-7.1,3.4c-1.1,0.9-2.7,1.1-4-0.2c0.7-0.1,1.6,0.3,2-0.1
			c-8.5-5.4-15.6-12.4-23.2-18.7c-1.5-1.2,0.1-2.1,0.9-3C576.8,197.2,580,196,580.8,192.7L580.8,192.7z"/>
		<path fill="#FFFFFF" d="M461.1,651.3c-1.2-4.9,1.8-9.1,2.3-13.7c0.1-1.3,1.6-1,2.5-0.8c8.3,1.4,16.6,3,25,4.2
			c2.5,0.4,2.4,1.8,2.1,3.4c-0.7,3.4-1.7,6.7-2.5,10.1c-0.4,1.9-1.7,1.8-3.1,1.7c-7.7-0.5-15.3-1.8-22.7-4
			C463.5,651.8,462.3,651.6,461.1,651.3L461.1,651.3L461.1,651.3z"/>
		<path fill="#FFFFFF" d="M667.5,375.4c-0.5-0.1-0.7-0.1-0.9-0.1c-9,2.6-9.4,3.3-6.1,12c2.2,5.8,4.6,11.5,6.9,17.3
			c0.5,1.4,1,2.7,1.6,4.6c-1.5-0.3-1.8-1.1-2.1-1.8c-3.4-8.6-6.7-17.1-10.2-25.7c-1.1-2.6-0.5-4,2.3-5c12.3-4.3,10.4-4.2,15.2,5.7
			c2.6,5.4,4.7,11,7.1,16.5c0.9,2.1,0.6,3.4-1.5,4.5c-2.3,1.2-4.5,2.7-6.6,4.2c-1.6,1.1-2.6,1.2-3.4-0.8c-2.7-7.5-6.6-14.4-8.7-22.2
			c-0.9-3.4-0.2-5.5,2.8-7C665,377,666.1,376.2,667.5,375.4L667.5,375.4z"/>
		<path fill="#FFFFFF" d="M682,304.6c-0.4,0.5-0.9,1.1-1.4,1.6c-2.3,2.3-4.5,4.6-6.8,7c-1.5,1.6-2.6,1.7-4.2-0.1
			c-3.9-4.7-8.1-9.2-12.1-13.8c-0.8-0.9-1.6-2.1-2.6-2.7c-3.4-1.8-3-4-1.4-6.9c2.6-4.8,6.2-5.8,10.6-2.5c5.2,4.1,9.6,9,14.3,13.6
			C679.5,302.2,681.5,302.5,682,304.6L682,304.6z"/>
		<path fill="#FFFFFF" d="M358.9,641.4c1.9-2.9,3.7-2,5.8-0.1c5,4.5,10.2,8.7,15.2,13.3c1.8,1.7,5.1,1.3,5.7,5
			c-1.7-1.8-2.7-1.4-3.8,0.4c-2,3.1-5.2,4.9-8.5,6.4c-1.7,0.8-3,0.1-4.4-1c-3.2-2.6-5.9-5.8-8.5-8.9c-2.5-3.1-5-6.3-7.4-9.4
			l-0.1,0.2C355.4,646,357.3,643.9,358.9,641.4L358.9,641.4z"/>
		<path fill="#FFFFFF" d="M247.3,334.2c-1.1-2.7,1.3-2.7,2.7-3.4c0.7-0.3,1.5-0.4,1.3-1.4c-0.1-0.7-0.9-0.7-1.4-1
			c-5.4-2.3-5.3-2.3-6.7,3.6c-0.6,2.8-1.3,5.6-2.4,8.2c-1.4,3.4-0.6,5.5,3,6.9c5.3,2,5.2,2.2,3.2,7.4c-1,2.5-2.1,5-3.2,7.5
			c-0.1,0.3-0.6,0.5-1.2,1c0.9-5,2.8-9.4,3.1-14.8c-3.5,3.6-3.9,7.8-5.4,11.5c-0.4,1-0.6,2.1-1.2,3.1c-0.6,1-1.7,0.9-2.7,0.8
			c-0.9-0.1-1.4-0.7-1.3-1.5c0.6-3.1-1.9-4-3.8-5.2c-2-1.2-4.1-2.2-6.4-3.4c1-1.3,2.1-2.2,2.7-3.8c3.1-8.9,8.3-16.7,12.7-24.9
			c1.3-2.3,2.6-3,5-1.3c2,1.4,4.3,2.6,6.6,3.5c3.3,1.3,2.7,2.7,0.7,4.7c-1.5,1.6-3.5,1.7-5.3,2.4L247.3,334.2L247.3,334.2z
			 M244,325.3c-0.1-0.2-0.4-0.8-0.9-1.1c-0.7-0.4-1.1,0.1-1.4,0.7c-2.5,5.3-5.7,10.2-7.8,15.7c-0.5,1.2-0.9,1.8,0.7,2.4
			c1.6,0.6,2.2,0.3,2.6-1.3c0.9-3.9,2.7-7.5,4.3-11.1C242.4,329,243.1,327.3,244,325.3z"/>
		<path fill="#FFFFFF" d="M444.5,436.7c-3.5,1.5-7,1.1-10.2,1.9c-0.7,0.2-1.7,0-2.2,0.4c-4.9,3.7-8.5,1.6-12.7-1.8
			c-4.9-4-10.9-6.5-17.3-7.6c-8.1-1.4-12.5,0.9-16,8.4c-0.5,1.1-1,2.5-2.6,2.3c-1.5-0.3-2.2-1.5-2.3-3c-0.1-3.7,0.5-7.2,1.5-10.7
			c0.7-2.3,4.2-3.7,5.7-2.2c1.5,1.5,3,1.3,4.4,1c6.4-1.5,12.6-0.6,18.1,2.6c9.1,5.3,19.1,6.1,29.2,7.2
			C441.7,435,443.2,435,444.5,436.7L444.5,436.7z"/>
		<path fill="#FFFFFF" d="M682.1,582.3c-1.5-1.4-3.4-2-5.3-2.6c-2.9-1-4.3-3-4.5-6.4c1.8,0.5,2.7,1.9,3.8,2.9c0.7,0.7,1.4,1,2.3,0.4
			c1.1-0.7,0.5-1.5,0-2.2c-0.4-0.5-0.7-1.1-1.2-1.4c-4.2-2.5-2.7-5.4-0.6-8.3c0.2-0.3,0.5-0.6,0.7-0.9c2.7-3.7,2.6-5-0.5-8.1
			c-0.5-0.5-0.9-1.2-1.3-1.8c1-0.9,1.3,0.2,1.9,0.5c1.2,0.5,2.1,2.9,3.5,1c1.1-1.5,3.8-3.6,0.5-5.7c-1.2-0.8-0.4-1.3,0.2-1.6
			c1.7-1.2,3.5-2,5.6-0.4c-1.9,3.2-3.4,6.6-5.6,9.6c-1.7,2.3-0.8,3.3,1.1,4.2c3.8,1.9,7.6,3.7,11.4,5.6c1.8,0.9,3.5,1.4,0.5,3.5
			c-3.4,2.4-4.2,7-6.4,10.4c-0.4,0.7-0.2,1.5,0.8,1.5c3.2,0.2,2.5,0.8,0.6,2.6c-1.9,1.8-3.1,4.4-4.8,6.6c-0.9,1.2-1.9,2.5-4.6,2.6
			c2.7-1.7,4.3-3.3,4.9-5.7c3.1-3.4,2.9-4.5-1.2-5.9C683.3,582.7,682.7,582.5,682.1,582.3L682.1,582.3z"/>
		<path fill="#FFFFFF" d="M445,636.9h14c-5-1.8-10.3-2.1-15.4-1.5c-2.1,0.3-2.2,0.2-2.3-1.6c-0.1-3-0.4-6-0.6-9
			c-0.1-1.2-0.1-2.5,1.5-2.4c4.4,0.3,6.4-1.9,6.8-6.2c3.2,1.6,6.4,2,9.5,2.5c0.9,0.1,2.4-0.3,2.2,1.3c-0.4,2.1-1.7,0.5-2.6,0.3
			c-2.5-0.4-4.9-1.6-7.6-1.4c0.2,1.9,1.4,2.4,2.8,2.7c1.3,0.3,2.7,0.6,4,0.8c3.3,0.5,5.8,1.2,4.4,5.6c-0.8,2.7-0.8,5.7-0.8,8.5
			c0,2.4-1,2.6-2.9,2.3c-4.3-0.6-8.6-1.1-12.9-1.7L445,636.9L445,636.9z"/>
		<path fill="#FFFFFF" d="M310.2,602.6c2.8,0.8,5.5,1.8,8.4,2.5c9.7,2.2,17.1,8.3,25.1,13.6c0.7,0.5,1.4,1.3,0.8,2.2
			c-0.8,1.3-1.5,0.1-2.1-0.3c-9.8-6.7-20.4-12-31.6-16c-1.4-0.5-3-1.1-2.5-3c0.6-2,2.3-1.2,3.7-1.2c7.5,0.4,15,0.5,22.7,0.1
			c-0.8-1.7-2.2-1.2-3.3-1.3c-7.8-0.4-15.7-1-23.5-0.3c-5.2,0.4-10.4,0.6-15.6-0.4c-4.8-0.9-5-0.6-5.9,5.1c-1.4-0.7-0.9-1.9-1-3
			c-0.1-1.1-0.1-2.2-0.2-3.4c2.7-1,5.5,0.3,8.2,0.7c4.4,0.6,8.9,1.2,13,0.2c9.1-2.3,18,0.3,27-0.1c1.4-0.1,2.3-0.8,3.4-1.2
			c2.4-0.9,5.6,0.8,6,3.3c0.4,2.6-1,4-4,3.8c-8.2-0.5-16.4-1.1-24.6-1.7c-1.3-0.1-2.6,0-3.9,0L310.2,602.6L310.2,602.6z"/>
		<path fill="#FFFFFF" d="M345.2,700.6c-2.2-0.4-1.9,2.1-3.3,2.7c-1.2,0.5-1.2-1-1.8-1.4c-2.6-1.5-3.9-4.1-5.7-6.4
			c-3.3-4.3-7.3-8.2-11.5-11.7c-7.2-6-11.9-14-17.5-21.3c-0.4-0.5-1-0.9-0.5-1.6c0.6-0.8,1.3-0.4,2-0.2c1.5,0.4,2.5,1.6,3.5,2.7
			c8.2,8.9,16.9,17.3,24.4,26.8c0.4,0.5,0.8,1,1.3,1.2c4.6,1.1,6.5,5,8.8,8.5C345.1,700,345.1,700.1,345.2,700.6L345.2,700.6z"/>
		<path fill="#FFFFFF" d="M427,699.6c-1.6-1.2-2.6-0.6-3.6-0.2c-6.8,2.4-13.6,4.8-20.4,7.2c-2.6,0.9-1.8,3.1-1.4,4.7
			c0.6,2.1,2.2,1,3.3,0.3c2.2-1.4,4.8-1.9,7.2-3c1.1-0.5,4.2,0,2.2-3.1c-0.2-0.4,2.3-0.8,3-0.9c3-0.3,5.1-2.1,7.2-4
			c0.5,1.6,0.8,3.1,1.4,4.4c0.5,1.1,0.1,1.9-0.8,2c-2,0.2-3.2,1.1-3.7,3c-0.1,0.3-0.5,0.5-0.8,0.8c-2.9-3.4-5.8,0.1-8.7,0.2
			c-3.4,0-6.3,2-9.5,3.1c-3.3,1.1-6.5,2.6-9.7,3.8c-1.6,0.6-3.3,1-5,1.6c-1,0.3-2.1,0.9-2.5-0.5c-0.3-1.2-0.8-2.6,0.9-3.6
			c2.4-1.4,5.1-1.8,7.7-2.7c2.5-0.9,5.1-1.6,4.8-5.1c-0.1-1.2,0.8-1.4,1.6-1.7c7.5-2.8,15.1-5.6,22.6-8.5
			C424.7,696.4,425.9,697.1,427,699.6L427,699.6z"/>
		<path fill="#FFFFFF" d="M290,303.9c-0.7,2.2-0.7,4.3,1.4,6.3c-2.2-1.5-3.3-0.6-3.6,1c-0.3,2-5.3,3.6-0.5,6.2
			c0.9,0.5,0.1,1.2-0.8,1.2c-1.1,0-2.2-0.1-3.7-0.2c2.9-8.1,6.3-15.7,10.7-22.9c1.7-2.7,2.7-5.6,4-8.4c0.4-0.9,0.8-1.9,2.1-1.5
			c1.7,0.5,3.4,1.2,4.2,2.8c0.5,1.1-0.6,1.5-1.8,1.7c-1.2,0.2,0,0.8-0.1,1.1c-0.2,1.7-1.9,2.5-2.7,3.9c-0.5,0.8-1.1-1.4-1.8-2.3
			c-0.9,1.7,1.5,5.6-3,4.2c-0.7,3.4,6.9,1.5,3.5,5.8c-1.9,2.4-3.9-1.2-6.6-1.2c0.5,2.2,2.2,3,3.8,3.5c7.5,2.4,15.2,3.8,23,4.6
			c6,0.6,12,1.8,17.9,2.9C328.7,314.5,298.9,308.7,290,303.9L290,303.9z"/>
		<path fill="#FFFFFF" d="M321.2,251.8c3.1-1.8,5.7-1.3,8.2-0.8c2.6,0.5,3.8-0.5,5-2.6c3.4-5.9,7-11.8,10.6-17.6
			c0.8-1.4,1.9-2.7,3.1-3.7c1.1-0.9,2.5-2.1,3.9-0.4c1.1,1.4,1.4,3,0.1,4.4c-4.9,5-8.1,11.4-13.1,16.3c-0.5,0.5-0.9,1.2-1.4,1.8
			c-1.4,1.6-1.2,2.8,1,2.7c5.5-0.2,10.2,3.2,15.9,2.5c2.9-0.4,3.5,1.8,1.6,6.2c-0.3-3.2-0.2-6.6-4.4-5.6c-2.8,0.7-6.9-2.4-8.6,2.8
			c0.6-3.6-1.5-4.3-4.2-4.3c-2.4,0-5-2.4-7.2,0.5c-0.2,0.3-0.3,0.3-0.6,0.1C329.2,252.8,325.8,252,321.2,251.8L321.2,251.8z"/>
		<path fill="#FFFFFF" d="M398.5,234.8c-1.7-4.1-1.3-4.4,2.2-4c6.2,0.7,12.4,1.1,18.6,1.6c2.2,0.2,4.5-0.1,7,1
			c-0.8-6.7,1.9-12.5,2.2-18.7c0.1-1.3,0.5-2.1,2.1-1.8c1.1,0.2,1.7,0.5,1.6,1.9c-0.7,6.7,0.9,13.4,0.7,20.1c0,1.2,1.2,3.2-1.3,3.6
			c-2,0.3-4.5,1.6-5.7-0.9c-1.4-2.9-3.8-3.3-6.4-3.5c-5.6-0.5-11.2-1.1-16.7-1.6C401,232.3,399,231.8,398.5,234.8L398.5,234.8z
			 M429.3,225.3l0.9,0.2c1-3.7,0.3-7.6,0.9-11.3l-0.9-0.1C429.9,217.8,429.6,221.5,429.3,225.3L429.3,225.3z"/>
		<path fill="#FFFFFF" d="M518.5,228.8c0.7-3.1-0.6-4.3-2.4-5.5c-2-1.3-3.7-2.9-5.5-4.4c-1.1-0.9-2.3-1.8-3.4-0.1
			c-1.3,2.1-2.3,1-3.6-0.1c-5.3-4.2-10.5-8.4-16-12.2c-3.8-2.6-7.4-5.5-11.1-8.2c-1.6-1.2-3.4-3.1-6.1-0.6c0.4-1.6-0.4-3,0.9-3.6
			c1-0.4,1.8,0.6,2.6,1.1c9,6,17.9,12.2,26.5,18.7c1.5,1.1,3.1,1.9,5,2.5c-1.7-4.2-6.1-5.6-9.4-8.5c1.8,0,2.8,0.9,3.8,1.7
			c10.4,7,20.8,14,31.3,21c1.4,0.9,2.6,1.8,1.8,3.9c-0.4,1-0.5,2-1.9,1.4c-0.2-0.1-2.8-0.2-0.5-1.6c0.5-0.3-0.2-1.1-0.9-1.2
			c-2.8-0.8-5-2.4-6.7-4.9C521.8,226.5,520.1,225,518.5,228.8L518.5,228.8z"/>
		<path fill="#FFFFFF" d="M590.5,384.9c0,1.2-0.3,2.2-1.3,2.6c-1.4,0.6-1.9-0.4-2.6-1.4c-2.6-3.8-5-7.7-7-11.8
			c-1.6-3.5-3.7-6.8-5.7-10c-1.1-1.8-0.5-2.8,0.9-4.1c1.7-1.5,2.6-0.4,3.7,0.7c2,1.9,3.4,4.3,4.6,6.8c2.3,4.8,4.4,9.7,6.6,14.6
			C590,383.1,590.2,384.1,590.5,384.9L590.5,384.9z"/>
		<path fill="#FFFFFF" d="M337.8,667.4c1.5,2,3.6,1.5,4.8,0.2c1.6-1.7-0.8-2.6-1.8-3.3c-4.1-3.1-7.3-6.9-10-11.8
			c2-0.1,2.4,1.7,3.7,2.1c1.4-1.6,2.9-3,5.4-3.3c-0.1,0.5-0.1,0.9-0.2,1c-4.8,3.9-5,4.2-0.3,8c4.6,3.7,7.5,8.9,11.8,13.1
			c-3.6-0.1-6.2,1.5-8.1,4.2c-0.8,1.1-1.4,1.9-2.3,0.2c-1.5-2.7-4.2-4-6.7-5.4c0.4-2.5,3.7-2.5,4-4.9L337.8,667.4L337.8,667.4z"/>
		<path fill="#FFFFFF" d="M619.5,576.9c2.8-0.5,6.3,0.3,6.7-4.2c0-0.2,0.8-0.4,1.3-0.5c4.9-1.2,9.9-0.8,14.8,0
			c0.4,0.1,1,0.5,1.1,0.8c0.1,0.7-0.5,1.2-1.1,1.2c-6.1-0.5-8.6,4.4-12.1,7.9c-0.7,0.7-0.9,2.1-2.8,1.6c3.3-4.3,6.5-8.1,11.5-10.9
			c-3.7-1.6-6.8,0.1-9.9,0.2c-1.3,0-0.8,1.3-0.8,2.1c0,1.1,0.4,2.3,0.2,3.3c-0.4,1.7-0.4,3-3.5,2.9c-6-0.1-12.1,1.5-18.1,2.4
			c-1.3,0.2-2.6,0.6-4.8-0.1c5.6-4.4,12.4-4.1,17.8-6.9L619.5,576.9L619.5,576.9z"/>
		<path fill="#FFFFFF" d="M405.3,291.5c-3.8,2.3-5.3,6.6-9.2,7.8c-0.8-2.7,0.4-5.7,3.2-6.6c3.6-1.1,7-2.6,10.4-4.2
			c1.7-0.8,3.3-0.2,4.3,1.1c1.1,1.4-0.2,2.5-0.9,3.7c-1.4,2.4-4,3.1-6.1,4.6c-3.5,2.6-6.9,5.3-10.5,7.7c-0.7,0.5-2.2,2.1-3.1,0.3
			c-0.7-1.3,0.1-2.6,1.4-3.5c2.5-1.8,4.9-3.7,7.3-5.7C403.5,295.5,404.9,294.3,405.3,291.5L405.3,291.5z"/>
		<path fill="#FFFFFF" d="M566.2,227.4c-2.9,0.8-9.5-4-9.2-6.8c0.2-1.7,1.8-2.7,3.2-2.8c2.1-0.2,3.9,1.9,3.9,3.3
			c-0.1,2.8,1.7,3.8,3.1,5.4c4.7,5.4,6,12.5,9,18.7c1.2,2.4,2.1,4.9,2.9,7.5c-4.4-4.4-7.8-9.4-10.1-15.1c-0.8-2-1.3-4.2-3-5.9
			C564.5,230.3,567.9,229,566.2,227.4L566.2,227.4z"/>
		<path fill="#FFFFFF" d="M575.7,269.6c-1.3,1.3-2.5,1.3-4.1,0.2c-2-1.4-3.2-3.5-4.6-5.3c-1.3-1.8-4.5-3.9,0.8-5.1
			c2.1-0.5,3-3.2,4.2-5.1c0.8-1.3-0.7-1.7-1.3-2.2c-11.2-8.7-20.2-19.6-30.5-29.2c-0.5-0.5-0.6-1-0.4-1.7c2.8,1.9,4.8,4.5,7.1,6.9
			c0.8,0.8,1.7,2.2,2.7,1.8c3.9-1.7,3.9,1.5,5.2,3.6c4.9,7.5,11.5,13.4,18.4,19c1.2,1,2.2,1.9,3.4,3.4c-5.1-2.1-6.6,2.4-7.3,4.6
			C567.8,265.4,573.9,266.2,575.7,269.6L575.7,269.6z"/>
		<path fill="#FFFFFF" d="M218.6,567.5c6.1,5.1,7.2,12.7,10.3,19.3c1.9,3.9,3.5,8,5.8,11.7c0.9,1.4,1.2,2.3-0.7,3
			c-1.2,0.4-2.3,1-3.3,1.6c-1,0.6-1.4,0.5-1.9-0.6c-1-2.1-1.7-4.4-3.2-6.3c-0.7-0.9-0.2-1.3,0.7-1.5c3-0.9,2.5-2.5,1.3-4.8
			C223.9,582.7,221.3,575,218.6,567.5L218.6,567.5z"/>
		<path fill="#FFFFFF" d="M213.4,527.6c3.8-2.8,4.9-0.8,5.9,2.3c1.1,3.3,2.5,6.5,3.9,9.6c0.4,1,0.7,2.2-0.6,2.4
			c-1.4,0.1-3.4,1.6-4,0.3c-0.8-1.9-2.8-3.1-2.6-5.7c0.1-2.1-1.6-4-3-5.8c-2-2.5-4-5-5.2-8.1c-0.4-1.2-0.7-2.1,0.6-2.8
			c1.1-0.6,2.2-1,3.4,0.2C213.8,522,214.7,524.4,213.4,527.6L213.4,527.6z"/>
		<path fill="#FFFFFF" d="M527.5,639.7c0.5,1,1.5,1.1,2.5,1.4c1.3,0.4,2.9,0.6,2.3,2.5c-0.6,1.8-2.1,1.9-3.7,1.2
			c-0.4-0.2-0.9-0.4-2.1-1.1c1.5,2,3.9,3.5,2.3,5.1c-1.5,1.5-2.7-1.4-4.8-1.7c0.5,1.7,1.8,2.3,2.7,3.3c0.8,0.9,2.2,1.4,1.1,3
			c-0.8,1.2-1.4,2.3-3.1,2.1c-1.9-0.2-3.7-0.6-5.2-1.7c-1.8-1.3-3.2-2.8-0.8-4.6c3.4-2.4,3.5-4.2-0.6-5.8c-0.6-0.2-1.1-0.6-1.1-1.4
			c2.6,0.2,8.4-1,10.7-2.3L527.5,639.7L527.5,639.7z"/>
		<path fill="#FFFFFF" d="M576.7,616.9c-1.6-0.7-2.2-2.2-3-3.4c-3.6-5.8-10.2-8.4-14-14c-0.6-0.9-1.6-1.3-3-0.8
			c-1.7,0.7-1.7-1.2-2.4-2c-0.7-1.1-0.8-2.1,0.3-3c1-0.8,2.2-2,3.3-0.9C565.2,599.9,574.8,605.3,576.7,616.9L576.7,616.9z"/>
		<path fill="#FFFFFF" d="M588.5,352c-0.2,2.5,0.4,5.6-2.1,6.2c-2.6,0.6-3.2-2.6-4.1-4.4c-2.3-4.4-1.3-9.3-1.3-13.9
			c0-2.3,1.5-1,2.2-0.3C586.5,343,588,347.4,588.5,352L588.5,352z"/>
		<path fill="#FFFFFF" d="M660.2,564.8c4.1-4.5,8.2-9,12.5-13.6c0.9,2,0,3.3-0.7,4.5c-4.6,8.1-10.2,15.6-15.6,23.1
			c-1,1.3-2,1.8-3.4,0.7c-2-1.6,0.4-2,0.9-2.7c3.5-4.8,7.7-9.1,10.4-14.6c-1.2,1.1-2.4,2.1-3.7,3.2L660.2,564.8L660.2,564.8z"/>
		<path fill="#FFFFFF" d="M608.7,665.5c7.2-7.8,15.6-14.3,24.1-20.6c1.1,1.8-0.4,2.6-1.2,3.5c-5.5,6-11.3,11.6-17.5,16.8
			C612.1,666.9,610.4,667.7,608.7,665.5L608.7,665.5z"/>
		<path fill="#FFFFFF" d="M570.1,663.8c2.3-3.1,4.5-6.2,6.9-9.2c6.2-7.5,10.4-16.4,16-24.3c0.6-0.8,0.7-2.5,2.2-2
			c1,0.3,1.8,1.3,2.4,2.2c0.9,1.3-0.7,1.6-1.3,2.2c-7.6,6.9-12.1,16.1-18.4,24c-2.2,2.7-4.1,5.8-6.9,7.9
			C570.7,664.4,570.4,664.1,570.1,663.8L570.1,663.8z"/>
		<path fill="#FFFFFF" d="M431.3,263.1c-1.1-2-3.1-3.4-1.7-6.6c0.8-1.9-0.9-4.9-1.5-7.4c-0.5-2.2-0.7-4.4,0.2-6.6
			c0.5-1.4,1.5-1.9,2.9-1.8c1.5,0.2,1,1.4,1.1,2.3c0.5,3,0.9,6.1,1.5,9.1C434.7,256.2,436,260.2,431.3,263.1L431.3,263.1z"/>
		<path fill="#FFFFFF" d="M321.4,268.8c-2.4-1.6-4.1-3.7-5.9-5.8c-1.7-2-3.4-4-5.1-6c-1.8-2.1-3.7-4.1-5.4-6.2
			c-1.8-2.2-2.2-1.7-4.8-4.1c-0.9-0.8-3.3-3.1-3-5.8c3.6,1.3,6,3.6,8.3,6.5c4.8,6.1,10.3,11.5,15.5,17.2
			C322,265.8,323.4,267.1,321.4,268.8L321.4,268.8z"/>
		<path fill="#FFFFFF" d="M750.5,449.9c0.8-6,1.4-12,2.5-17.9c0.5-2.9,0.5-5.1-2.4-6.5c-0.4-0.2-1.1-0.4-1.2-0.8
			c-0.4-2.2,1.7-4,1-6.5c-0.2-0.7,1.9-1.8,3.2-2.1c2.1-0.4,4.9,3.5,3.5,5.3c-4.2,5.6-2.3,12.3-3.9,18.3c-0.9,3.3-1.1,6.8-1.6,10.2
			C751.3,450,750.9,450,750.5,449.9L750.5,449.9z"/>
		<path fill="#FFFFFF" d="M464.7,372.4c-2.8-2.7-5.4-4.4-8.1-0.5c-0.6,0.8-1.3,1.2-1.8-0.3c-0.6-1.7-2.5-3.1-0.9-5.4
			c1.5-2.2,3.3-1.2,5-0.9c0.9,0.2,1.7,0.2,2.5-0.1c3.8-1,7.5-0.2,11.2,2.5C469.1,368.2,465.7,368.2,464.7,372.4L464.7,372.4z"/>
		<path fill="#FFFFFF" d="M727.5,530.5c-12.5,15.1-20.6,33.3-33.4,48.2C705.1,562.5,713.3,544.4,727.5,530.5z"/>
		<path fill="#FFFFFF" d="M496.8,686.1c1.1-1.4,2.2,0.6,2.8-0.4c0.9-1.5-1.4-1.5-1.4-2.6c-0.1-2.5-1.4-0.3-1.9-0.3
			c-0.5,0-1.1,0.5-1.6-0.1c-2.2-2.3-5.2-3.4-7.9-4.7c-1.3-0.6-1.3-1.5-1-2.4c0.4-1.2,1.6-0.8,2.2-0.5c2.5,1.6,5.7,2.2,7.4,4.9
			c1.1,1.7,1.9-0.1,2.3-0.6c2.1-3.4,3.8-1.2,5.8,0.1c2.9,1.9,1.2,3.4-0.1,5.1C501.6,686.9,499.9,689.2,496.8,686.1L496.8,686.1z"/>
		<path fill="#FFFFFF" d="M275,550.4c-0.5-0.6-0.9-0.9-0.9-1.1c-0.5-7.6-3.2-14.7-4.8-22c-0.7-3.3-2.6-6.4-4-9.6
			c-0.8-1.8-1.6-3.6-2.4-5.5c-0.6-1.6,0.6-2.3,1.7-2.9c1.2-0.6,1.5,0.7,1.7,1.4c3.6,12.7,8.2,25.3,9.1,38.6
			C275.4,549.6,275.3,549.9,275,550.4L275,550.4z"/>
		<path fill="#FFFFFF" d="M477.3,356.2c2.4,0.5,5.1,1.1,6.7,3.7c1,1.6,1.6,3.4-0.5,4.4c-1.6,0.8-3.4,2.1-4.8-0.8
			c-1.2-2.3-3.3-1.5-5.2-0.6c-1,0.5-1.9,1.4-3,0.2c-1-1.1-0.1-2.1,0.3-3.1C471.9,357.4,474.1,356.3,477.3,356.2L477.3,356.2z"/>
		<path fill="#FFFFFF" d="M453,698.1c-0.1,3,1.4,2.4,3.4,2.6c3,0.2,5.8,1.8,8.7,2.8c2,0.7,4.1,2,4.8-1.6c0.2-0.9,1.2-0.8,1.9-0.8
			c1.3,0,1.2,1.3,1.1,1.9c-0.8,3.8,1.8,4.1,4.3,4.2c2.9,0.1,5.7,0,8.8,0c-0.5,1.8-1.4,2.4-3.2,2.2c-3.7-0.5-7.4-1-11.1-1.3
			c-0.6-0.1-1.2,0-1.6-0.5c-1.9-2.4-2.4-0.7-3.1,0.9c-0.2,0.6,0,1.7-1.1,1.7c-0.9,0-1.3-0.8-1.3-1.5c-0.1-5.4-4.4-5.5-8-6.1
			C452.7,701.7,452.7,701.9,453,698.1L453,698.1z"/>
		<path fill="#FFFFFF" d="M594.9,278c5,0.5,8.4,2.6,11.8,4.5c8.1,4.7,15.9,9.7,24.9,12.6c4.2,1.4,4,2.5,0.1,5.6
			c-4.9-5.2-11.3-8.4-17.1-12.2C608.6,284.7,602,282.1,594.9,278L594.9,278z"/>
		<path fill="#FFFFFF" d="M423.7,290.6c1.7-2.1,3.7-2.8,6.4-1.7c1.9,0.8,3.8-0.2,5.7-0.8c1.6-0.5,3,0,3.9,1.4c1,1.6-0.2,2.7-1.2,3.9
			c-0.6,0.7-4.2,1.1-0.7,2.9c0.5,0.2-0.2,0.9-0.6,1c-1.6,0.6-3.1,0.6-4.6-0.2c-1.8-1-0.3-1.6,0-2.5c0.6-1.4-0.7-1.2-1.5-1.4
			C428.6,292.6,425.9,292.1,423.7,290.6L423.7,290.6L423.7,290.6z"/>
		<path fill="#FFFFFF" d="M283.8,378.7c-1.6,3.2-3.2,6.4-4.8,9.6c-0.7,1.5-1.4,3,0.2,4.4c0.8,0.7,3.1,0.5,1.7,2.7
			c-1.4,2.2-2.4,4.9-5.6,4.9c-3.7,0-4.4-1.3-2.6-4.6c2.8-5.3,5.8-10.4,8.5-15.7c0.7-1.4,1.5-1.3,2.6-1.1L283.8,378.7L283.8,378.7z"
			/>
		<path fill="#FFFFFF" d="M685.8,455.6c0.1,1.4,0,2.5-1.1,2.4c-1.6-0.1-3.1,1.6-4.6,0.4c-0.6-0.4-0.8-1.5-0.1-2.3c2.1-2,1-3.9-1-4.5
			c-1.7-0.5-1.9-0.8-1.1-2.1c1.9-3.1,1.8-8.4-0.5-11.1c-0.5-0.6-0.8-0.9-0.2-1.4c0.7-0.5,1.4-1,2.2-1.3c0.5-0.2,0.7,0.4,0.8,1
			c0.8,6.1,3,11.7,5.2,17.4C685.7,454.8,685.8,455.5,685.8,455.6L685.8,455.6z"/>
		<path fill="#FFFFFF" d="M204.1,329.2c2.1,0.6,3.4,1,4.7,1.4c4.1,1.1,4.8,2.1,2.3,5.5c-1.5,2.1,0.1,4-0.4,6.1
			c-0.5,2.1-0.2,5.1,0.5,7.6c0.2,0.7,1.3,1,0.2,1.8c-0.8,0.6-1.6,1.2-2.7,0.8c-1.1-0.4-1-1.2-0.7-2.1c0.9-2.6,0.8-5.3,0.8-8.1
			c0-1.8-0.3-2.9-2-4.2C204.5,336.1,205.3,332.6,204.1,329.2L204.1,329.2z"/>
		<path fill="#FFFFFF" d="M670.9,500.3c0.7,0.8,1.2,1.4,2.1,2.4c-0.3-1.3-0.5-2.1-0.8-3c0.4,0.1,0.7,0.1,0.8,0.2
			c2.9,4,6.5,7.8,4,13.4c-0.4,0.9,0.5,1.3,0.8,1.9c0.9,1.5,1.8,3,0.9,5c-2.1-0.8-1.3-3.6-3.1-4.5c-1,0.9,1.1,1.8-0.2,2.8
			c-0.5-1.5-2.3-2.4-1.1-4.4c0.5-0.9-0.3-1.6-0.9-2.3C670.8,508.6,669.5,505.1,670.9,500.3L670.9,500.3z"/>
		<path fill="#FFFFFF" d="M667,467.2c2.1-0.9,2.2,0.2,2.4,1.8c0.2,1.9,0.5,4.2,1.6,5.7c2.5,3.3,0.3,6.4,0.3,9.6
			c0,0.7-0.5,1.7-1.7,1.6c-1.5-0.2-0.4-1.3-0.7-1.8c-2-4.5-3.4-9.2-4-14.1C664.6,468.5,663.7,466,667,467.2L667,467.2z"/>
		<path fill="#FFFFFF" d="M518.1,656.9c-0.4,0.6-0.8,1.4-1.3,2.1c-3,4.3-6,8.5-9,12.8c-0.5,0.7-0.8,1.5-1.3,2.2
			c-0.6,0.8,1.4,2-0.4,2.3c-1.2,0.2-2.1-0.7-2.9-1.4c-1-0.9-0.2-1.8,0.3-2.7c2.3-4.5,5.6-8.2,8.5-12.2c0.9-1.3,2-2.5,2.8-3.9
			c0.6-1,1.4-0.8,2.3-0.6C517.7,655.6,518.1,656,518.1,656.9L518.1,656.9z"/>
		<path fill="#FFFFFF" d="M521.1,717.1c1.8-6.2,7.2-7.8,11.6-10.6c1.9-1.2,2.4,0.2,3,1.3c0.6,1.1,1.8,2.3-0.2,3.4
			c-3.3,1.9-6.4,4.1-9.8,5.8C524.6,717.5,522.8,716.4,521.1,717.1L521.1,717.1z"/>
		<path fill="#FFFFFF" d="M624.5,233c-1.3,0.1-2.5-0.1-3.3,0.3c-1.9,1-2.6-0.1-2.8-1.6c-0.7-4.6-2.5-8.8-3.3-13.4
			c-0.4-2.5-2.2-4.9-3.4-7.3c-0.6-1.1-0.8-2.2,0.5-2.8c1.5-0.6,1.2,0.8,1.6,1.6C617,217.7,620.1,225.5,624.5,233L624.5,233z"/>
		<path fill="#FFFFFF" d="M404.5,630.5c-3.7,2.4-7.2,4.4-9.7,7.8c-0.9,1.3-2.6,1-4,0c-1.6-1.2-0.9-2.4-0.1-3.5
			c1.2-1.7,2.4-3.5,3.7-5.1c1.6-2,3.7-1.7,5.8-1C401.5,629,402.7,629.7,404.5,630.5L404.5,630.5z"/>
		<path fill="#FFFFFF" d="M598.6,676.2c-0.9,0.8,0.2,3.6-3.2,2.4c-3.2-1.1-6.6-2.1-9.9-2.9c-1.7-0.4-1.8-1.4-1.8-2.7
			c0-1.5,0.9-1.9,2.2-1.9c4.2-0.1,8.1,1.1,11.7,3.2C598.3,674.6,598.8,675.2,598.6,676.2L598.6,676.2z"/>
		<path fill="#FFFFFF" d="M662.2,462.8c-0.8-0.5-1.6,0.1-2.8,0.3c3.1-2.4,1.5-5.4,1.4-7.6c-0.7-8.1-2.2-16.2-3.3-24.3
			c-0.2-1.5-0.9-3.2,0.4-4.6c0.4-0.5,1-0.2,1.3,0.1c1.5,1.2,0.5,2.8,0.5,4.2c0.1,7,1.2,13.9,2.3,20.7c0.6,3.7,1.4,7.3,1.2,11.1
			c0,1,0.7,2.4-0.9,2.7c-0.5,0.1-1.5,0.1-1.7-0.2C659.9,463.8,662.2,464.1,662.2,462.8L662.2,462.8z"/>
		<path fill="#FFFFFF" d="M578.2,673.4c1.7-0.6,0.1-3,2.2-2.6c1.5,0.3,1.3,1.8,1.2,2.8c-0.3,1.7-1.7,1-2.7,0.9
			c-5.2-0.5-10.4-1.1-15.3-2.8c-1.1-0.4-2.5-0.6-2.2-2.4c0.3-1.8,1.7-0.9,2.7-1.1c3-0.3,5.9,0.5,8.9,1
			C575.3,669.7,577.6,670.5,578.2,673.4L578.2,673.4z"/>
		<path fill="#FFFFFF" d="M275.5,302.5c-4.6-4.9-4.5-4.8-0.2-8.3c4.5-3.6,8.8-7.5,14-10.2C284.4,289.8,279.3,295.5,275.5,302.5z"/>
		<path fill="#FFFFFF" d="M238.8,470c4,0.4,7.7-0.1,11.4-1.9c2.8-1.4,6.1-0.5,9.2-0.7c1.4-0.1,1.9,1.5,1.8,2.8
			c-0.1,1.4-1.1,1.5-2.2,1.4c-2.4-0.1-4.7,0.4-6.8,1.6c-0.4,0.2-1.2,0.5-1.3,0.3c-2.6-3.2-6.3-1.4-9.4-2
			C240.5,471.3,239.2,471.4,238.8,470L238.8,470z"/>
		<path fill="#FFFFFF" d="M695.2,258.8c4.1,5.5,9.2,10.5,9.4,18.1c0,1.4-0.4,2.6-1.8,2.9c-1.4,0.3-1.4-1.2-1.7-2
			C698.7,271.7,697.7,265.1,695.2,258.8L695.2,258.8z"/>
		<path fill="#FFFFFF" d="M665.4,410.9c2.6,2.8,3.3,6.4,3.9,10c0.5,3.2,1.8,4.3,5,3.4c4.9-1.4,10.2-1.5,14.7-4.4
			c0.7,1.7-0.4,2-1.4,2.2c-4.9,1.5-9.7,3.1-14.7,4.3c-2.3,0.5-2.5,1.2-1.8,3.2c0.7,1.9,1.5,3.9,0.8,7.2
			C668.9,427.8,667,419.4,665.4,410.9L665.4,410.9z"/>
		<path fill="#FFFFFF" d="M642.3,270.6c1.1-1.1,1.9-3,3.8-0.5c1.7,2.2,1.9,3.9-0.8,4.9c-2.3,0.9-4.6,4.9-7.3,0.4
			c-0.1-0.2-1-0.3-1.4-0.1c-1.6,1-3.3,1.7-5,1.1c-1.8-0.6,0.4-3.1-2.7-4.2c5.4,0.2,9-3.2,13.4-1.8c-0.6,1.7-1.9,1.5-3.3,1.7
			c-2.5,0.4-5.1,0.5-6.9,2.9c3.6-1.2,7.5-0.9,10.9-2.8c0.7-0.4,1.8-0.8,1.1-1.9C644.1,270.1,643,270.5,642.3,270.6z"/>
		<path fill="#FFFFFF" d="M198.1,493.3c3.9,7.4,7.5,14.3,11.1,21.1c0.9,1.7,1.2,3-1.5,3.1c-1.2,0-1.9,1.6-3.7,1.1
			c3.3-2.8,1.1-5.5-0.2-7.9c-2.4-4.6-4.3-9.4-5.9-14.4C197.7,495.5,197.5,494.8,198.1,493.3L198.1,493.3z"/>
		<path fill="#FFFFFF" d="M224.5,358.8c-4.6,7.8,0.7,15,1.2,22.5c0.2,2.8,0.1,3.9-2.9,3.5c-3.1-0.5-6.3-0.2-10.1-1.5
			c3.3-1.5,5.9-0.2,8.4-0.2c2.5,0.1,3-0.4,2.3-2.9c-1.5-5.2-2.5-10.6-4-15.8c-0.4-1.5,0.6-1.7,1.1-2.4c1-1.3,2.1-2.4,3.2-3.7
			L224.5,358.8L224.5,358.8z"/>
		<path fill="#FFFFFF" d="M283.9,537.5c0,3.4,0,6.7,0,10.1c0,1.4-0.4,2.3-2,2.5c-2,0.1-1.6-1.4-1.9-2.4c-0.1-0.5-0.2-1.1,0-1.5
			c2.5-6.1,1.1-12.2,0.1-18.3c-0.2-1.2-0.1-2.3,1.6-2.2c1.5,0.1,2,0.8,1.8,2.2C283.1,531.1,283.3,534.3,283.9,537.5L283.9,537.5z"/>
		<path fill="#FFFFFF" d="M619.6,576.8c-6.2,0.4-12,2.7-18,4.2c-2.1,0.5-0.8,2.6-1.8,3.8c-2-1.4-2.3-3.2-1.8-5.2
			c0.5-2.2,2.4-1.3,3.7-1.4c7.1-0.4,13.8-2.2,19.8-5.8c1.2-0.7,2.1-1.1,2.7,0.3c0.5,1.3,0.2,2.2-1.5,2.7c-1,0.3-2.6,0-3.2,1.5
			C619.5,576.9,619.6,576.8,619.6,576.8L619.6,576.8z"/>
		<path fill="#FFFFFF" d="M618.2,592.3c-14.1,9.2-23,23.7-35.9,35.5C584.1,621.9,610.1,596.3,618.2,592.3z"/>
		<path fill="#FFFFFF" d="M595,656.4c-5.3-2.4-5.4-2.6-2.8-6.6c3.8-5.6,9.2-9.7,14.1-15.4c-0.2,2.4-1.7,3.2-2,4.3
			c-1.1,5.1-5.9,7.4-8.4,11.3C594.9,651.8,593.3,653.5,595,656.4L595,656.4z"/>
		<path fill="#FFFFFF" d="M254,308.8c-0.4-1.1-0.8-2.5,0.4-3.1c4-1.9,4.7-6.4,7.7-9.2c4.7-4.6,8.7-9.9,13.7-14.3
			c0.8-0.8,1.6-3,3.1-1.2c1.6,2.1-1.2,1.4-1.8,2c-7.9,7.4-14.2,16.1-21,24.4C255.6,308,255.4,308.8,254,308.8L254,308.8z"/>
		<path fill="#FFFFFF" d="M730,547.8c-2.5,5.3-4.7,10.7-10.3,14.4c0.9-3-1.2-4.8-2.6-7.3c4,2.7,4.8,0.4,5.6-2.6
			C723.9,548,725.7,547.1,730,547.8L730,547.8z"/>
		<path fill="#FFFFFF" d="M699.9,370.8c-1.6,1.4-3.4,2.7-5.5,3.6c-2.1,0.9-2-1-2.2-1.9c-0.9-2.6-1.5-5.4-2.3-8.1
			c-0.2-0.6-0.5-1.3,0.4-1.4c0.4-0.1,1.2,0.3,1.2,0.6c0.3,2.2,2.2,2.5,3.6,2.3C699,365.3,698.4,368.7,699.9,370.8L699.9,370.8z"/>
		<path fill="#FFFFFF" d="M321.1,273.3c-0.6,1.3-1.4,2.6-2.8,3.2c-1.4,0.6-2.9,0.5-3.6-1c-1.2-2.5-2.6-4.7-4.7-6.5
			c-0.5-0.4-0.8-0.8-0.3-1.5c0.8-1,1.9-1.6,3-2C313.3,265.4,321,272.6,321.1,273.3L321.1,273.3z"/>
		<path fill="#FFFFFF" d="M246.9,262.3c1.7,0.3,2.3,1.9,3.4,2.8c1,0.9-0.4,1.5-0.9,2c-2.1,2.3-4.3,4.5-6.4,6.8
			c-0.9,1-1.9,1.6-3.2,0.5c-1.3-1.1-1.3-2.2-0.4-3.6c2-3,6-4.3,6.9-8.1C246.3,262.5,246.7,262.4,246.9,262.3L246.9,262.3z"/>
		<path fill="#FFFFFF" d="M548.5,702.7c1.9-1.1,3.7-2.3,5.7-3.1c3.7-1.5,4.8-4.4,4-7.8c-0.5-2.1,0.3-3.7,0.6-5.6
			c0.4,2.9,0.8,5.7,1.4,9.3c1.8-2.6,0.5-4.8,1.5-6.9c0.6,2.7,0.8,5.1,2.2,7.4c0.9,1.4-2.7,3.9-2.8,3.9c-4.5-1.7-6.9,2.6-10.3,3.5
			c-0.5,0.1-1,0.1-1.5,0.1C549,703.2,548.8,702.9,548.5,702.7L548.5,702.7z"/>
		<path fill="#FFFFFF" d="M709.7,588.4c-0.8,1-1.7,2.1-2.5,3.2c-0.5,0.7-1.3,1.8-1.1,2.2c2.5,4.2-1.8,5.3-3.4,7.7
			c-0.8,1.2-2.2,2.2-2.7,3.5c-1.2,3.1-2.9,2-4.8,0.8c5.7-5.1,8-12.8,13.8-17.9L709.7,588.4L709.7,588.4z"/>
		<path fill="#FFFFFF" d="M728.6,546.7c-1.1-0.4-2.6-0.8-3.1-2.6c-0.5-1.8,0.8-2.2,2.2-2.8c1.2-0.5,2.2-1.5,2.2-2.7
			c0-1.2-0.5-2.1,1.1-2.4c2.2-0.3,3.3,1.5,4.6,2.7c1,0.9-0.5,1.3-0.9,2c-0.9,1.4-2,2.8-3,4.2C731,546,730.4,546.9,728.6,546.7
			L728.6,546.7z"/>
		<path fill="#FFFFFF" d="M242,653c0.9,0.4,1.6,0.6,2.2,1c1.9,1.2,3,0.6,2.4-1.5c-0.5-1.8,0.6-2.3,1.6-2.8c1.4-0.7,1.9,0.5,2.5,1.4
			c0.5,0.7,1,1.4,1.4,2.2c1,1.6,1.5,2.9-1.1,3.3c-0.7,0.1-1.3,0.8-2,0.9c-1.7,0.2-2.7,3.2-4.2,2C243.2,658,242.1,655.7,242,653
			L242,653z"/>
		<path fill="#FFFFFF" d="M199.2,288.5c-2.1-0.1-3.5,1.7-5.4,2.1c-1.4,0.2-0.8,1.7-0.5,2.5c2.3,6.1,5.2,11.8,8.5,17.4
			c1.4,2.4,5.9,1.5,8.7-1.6c-0.4,2.5-2.2,4.4-5,5.2c-2.4,0.7-3.7-0.7-4.8-2.4c-3.5-5.5-5.9-11.4-8.2-17.5c-0.4-1,0.7-3-1.9-2.6
			c-0.6,0.1,0.1-0.6,0.3-0.9C192,288.9,196.9,287.7,199.2,288.5L199.2,288.5L199.2,288.5z"/>
		<path fill="#FFFFFF" d="M417.6,295c1,0.6,2.6-1.1,3.2,0.7c0.4,1.3-1,2-1.8,2.5c-1.6,1.1-0.8,3.8-2.9,4.4c-1.5,0.4-3.2,0.7-4.6-0.4
			c-1.2-0.9-1.2-2.1-0.8-3.3c0.7-2.4,2.4-3.7,4.7-4.1C416.1,294.6,416.9,294.9,417.6,295z"/>
		<path fill="#FFFFFF" d="M658.7,497.5c-1.6,14-7.1,26.9-12.3,39.9C650.3,524,655.6,511.1,658.7,497.5z"/>
		<path fill="#FFFFFF" d="M618.8,650.8c-2.4,2.6-3.8,6.1-6.7,8.3c-1.2,0.9-2.7,1.9-4,0.8c-1.2-1.1,0.3-2.2,0.8-3.2
			c0.9-1.7,1.8-3.5,3-5.1C613.9,649,616.1,648,618.8,650.8L618.8,650.8z"/>
		<path fill="#FFFFFF" d="M214.9,331.9c3,4.8,3.5,10.1,4.3,15.3c0.5,3.4,0.6,7,0.8,10.4c0,0.8,0.4,2-0.9,2.1
			c-1.5,0.2-1.2-1.2-1.4-2.1c-1.1-7.6-0.9-15.4-2.3-23C215.3,333.8,215.1,332.8,214.9,331.9L214.9,331.9z"/>
		<path fill="#FFFFFF" d="M253.8,654.8c7.6-6,16.8-9.4,25.3-14C271.5,646.9,262.9,651.3,253.8,654.8z"/>
		<path fill="#FFFFFF" d="M690,620.5c0.1,1.2-5.5,9.7-6.5,9.9c-1.5,0.3-2.6-0.2-2.1-2c0.8-2.8,2.3-5.3,2.5-8.4
			c0.1-1.8,2.5-0.6,3.8-0.6C688.6,619.5,689.7,619.3,690,620.5L690,620.5z"/>
		<path fill="#FFFFFF" d="M748.4,425.4c-0.6,12.7-4.6,23.5-8,34.5C742.5,448.7,744.9,437.4,748.4,425.4z"/>
		<path fill="#FFFFFF" d="M289.4,481.7c-1.3,0.4-0.5,2.4-2.2,2.7c1-4.2-1.4-6-4.8-7.6c-2.2-1-6.2-0.9-5.2-5.3l-0.1,0.1
			c1-0.6,1.7-1.5,3.1-0.2c2,1.7,4.8,2.8,6.6,4.5C287.9,476.9,290.3,479.1,289.4,481.7L289.4,481.7L289.4,481.7z"/>
		<path fill="#FFFFFF" d="M412.4,639c-3.4-0.4-6.9-0.9-10.3-1.2c-1.7-0.1-1.5-0.9-0.8-1.8c1.7-2.4,3.7-3.9,6.8-2.2
			c1.6,0.9,3.3,1.7,4.9,2.5c1,0.5,2.9,0.4,2.6,2C415.2,639.9,413.5,638.6,412.4,639L412.4,639z"/>
		<path fill="#FFFFFF" d="M284,378.9c-1.4-1.1-1.7-2.2-0.5-3.8c1.7-2.4,3.1-5.1,4.6-7.6c0.7-1.2,1.4-1.5,2.7-0.8
			c1.2,0.7,1,1.6,0.5,2.5c-1.6,3.2-3.4,6.3-5,9.5c-0.8,1.6-1.6,0-2.4,0.1L284,378.9L284,378.9z"/>
		<path fill="#FFFFFF" d="M274.8,279.7c10.5-8.6,19-17.9,29.4-25.1c-0.4,2.3-0.8,4.7-1.2,7.7c-2.3-5.2-4.5-2.2-6.6-0.3
			c-5.8,5.7-12.1,10.8-18.2,16.1C277.6,278.8,277,279.6,274.8,279.7z"/>
		<path fill="#FFFFFF" d="M575.5,697.5c4.8,3.2,4.9,4.6,0.6,7.6c-1.2,0.8-2.5,1.7-3.8,2.3c-1,0.5-2.3,2.1-3.2-0.2
			c-0.6-1.7-1.1-3.4,1.1-4.3c1.2-0.5,2.5-1.1,3.8-1.6C576.3,700.5,576.4,700.5,575.5,697.5L575.5,697.5z"/>
		<path fill="#FFFFFF" d="M527.6,639.9c0.5-3.1,3.5-4,5.6-5.2c1.9-1.1,4.4-1.2,6-4.1c-0.3,7.7-3.1,10.1-9.2,9.1
			c-0.8-0.1-1.7,0-2.6,0L527.6,639.9L527.6,639.9z"/>
		<path fill="#FFFFFF" d="M678.1,362.5c-7.3-5.2-13.8-11.5-20.4-17.7c-1.1,2,0.9,2.8,1,4.7c-1.8-1.4-3-2.4-3-4.4
			c0-0.7-0.2-1.6,0.6-2c0.8-0.4,1.6,0,2.1,0.5c6.8,6,13.6,12,20.4,18L678.1,362.5L678.1,362.5z"/>
		<path fill="#FFFFFF" d="M718.9,405.5c-0.5,1.3,0.7,3.1-1.5,3.4c-1.9,0.2-1.9-1.3-2.5-2.5c-1.6-3-0.2-6.3-0.9-9.4
			c-0.3-1.2,1.3-1.4,2.1-1.6c1.4-0.4,1.1,0.8,1.3,1.6C717.8,399.8,718.4,402.8,718.9,405.5L718.9,405.5z"/>
		<path fill="#FFFFFF" d="M320.7,209.2c-1-0.2-2,0.5-2.3-0.6c-0.3-1,0.7-1.1,1.2-1.6c3.4-3.1,7.2-5.7,10.3-9.2
			c0.7-0.8,1.6-2.6,2.9-1.2c1.4,1.4,0.3,2.6-0.9,3.7c-3.1,2.9-7.4,4.5-9.6,8.5C322.3,209.3,321.1,209.1,320.7,209.2L320.7,209.2z"/>
		<path fill="#FFFFFF" d="M265.8,354.7c-1.5-0.6-2.7-1-3.8-1.5c-2.1-0.9-3.2-2.1-1.5-4.5c1.1-1.7,2.2-3.7,1.7-6
			c-0.2-0.9,0.2-1.9,1.2-1.9c1-0.1,0.7,1,1,1.7c1.3,2.5,2.6,4.8,0.2,7.6C264.1,350.7,265.2,352.7,265.8,354.7L265.8,354.7z"/>
		<path fill="#FFFFFF" d="M376.7,714.7c-0.2,2-0.4,3.6,1.4,4.3c1.7,0.6,2.7,0,3.3-1.9c0.4-1.1,1.4,0,1.9,0.4c1.2,0.8,1.3,2,0.2,2.7
			c-1.8,1.1-3.7,2-5.6,2.7c-3.4,1.3-4.1-1.9-5.2-3.7c-1.1-1.9,1.1-2.3,2.1-3.2C375.2,715.5,375.8,715.3,376.7,714.7L376.7,714.7z"/>
		<path fill="#FFFFFF" d="M732.3,476.3c0.3,1.7-0.7,3.9-1,6c-0.1,0.7,0.2,2.7-1.8,1.7c-1.2-0.6-3-0.3-2.2-2.7
			c0.7-2.2,0.9-4.6,1.2-6.9c0.2-1.5,0.2-3.3,2.2-3.3c2.3,0,1.5,2.1,1.7,3.4C732.4,475,732.3,475.4,732.3,476.3L732.3,476.3z"/>
		<path fill="#FFFFFF" d="M626.8,625.3c-0.2,2-4.3-2-4.2,1.9c0,0.2,0,0.9-0.6,0.4c-0.5-0.5-1-1.1-1.4-1.7c-0.4-0.7,0.1-1.2,0.7-1.5
			c2-0.9,4.1-1.8,6.2-2.5c2.4-0.9,4.9-1.7,7.1-3.1c1-0.6,2.3-1.6,3.2,0.1c1.1,2.1-0.9,1.7-1.9,2.2
			C633.1,622.5,630.2,623.8,626.8,625.3L626.8,625.3z"/>
		<path fill="#FFFFFF" d="M662.1,283.9c3.1-2.7,6.1-5.4,8.6-8.6c0.9-1.2,1.8-2,3.4-1.7c0.7,0.1,1.1,0.5,1.2,1.2
			c0.3,1.7-0.9,2.6-2,3.2c-2.7,1.6-5.1,3.6-7.1,6C664.5,286.1,663.3,285.7,662.1,283.9L662.1,283.9z"/>
		<path fill="#FFFFFF" d="M377.6,650.3c-8.3-6.3-15.4-13.7-21-22.5c-0.5-0.8-1-2-1.7-2.3c-1.2-0.5-1.3-0.8-0.6-1.7
			c0.9-1.2,1.6-0.3,2,0.4c1.8,3.3,4.3,6.1,6.3,9.2c3.6,5.6,8.8,9.8,13.1,14.8C376.3,648.9,376.9,649.6,377.6,650.3L377.6,650.3z"/>
		<path fill="#FFFFFF" d="M689.3,617.9c-1.5-0.5-2.8-1.3-1.9-2.9c1.3-2.4,2.9-4.6,4.5-6.8c1.3-1.7,2.8-0.4,3.9,0.4
			c1.7,1.1-0.2,1.8-0.7,2.5c-1.2,1.7-2.4,3.4-3.7,5C690.9,616.9,690.5,617.9,689.3,617.9L689.3,617.9z"/>
		<path fill="#FFFFFF" d="M654.1,555.5c1.8,1.5,1.9,2.7,0.6,4.2c-2.3,2.8-4.4,5.7-6.7,8.5c-0.3,0.4-0.7,0.7-1.1,1
			c-1.4,1.4-2.8,0.4-3.6-0.4c-1-1,0.5-1.7,1.2-2.2C648.5,563.7,651.7,560.2,654.1,555.5L654.1,555.5z"/>
		<path fill="#FFFFFF" d="M461.1,651.3c1,2.8,2.8,4.3,5.9,4.7c6.9,0.8,13.7,2.7,20.7,2.6c1,0,2-0.1,3-0.1c0.7,0,1.2-1.7,2.1-0.4
			c0.2,0.3,0.2,1,0.1,1.4c-0.4,1-1.4,0.8-2.3,0.8c-9.1-0.1-18-2.3-27-3.6C460.6,656.1,460.8,653.6,461.1,651.3
			C461.1,651.3,461.1,651.3,461.1,651.3L461.1,651.3z"/>
		<path fill="#FFFFFF" d="M435.3,165.8c-1.3,1.6-5.8,3.3-13.4,4.9c-0.2-1.4,0.7-2,1.7-2.4c3.8-1.5,7.7-2.9,11.5-4.2
			c2.1-0.7,2.7,0.6,3.3,2.3c0.6,1.6-0.1,2-1.3,2.2C433.8,169.3,436.7,166.5,435.3,165.8L435.3,165.8z"/>
		<path fill="#FFFFFF" d="M542.5,238.6c0,1.4-1,2.1-2,2.4c-3,0.9-4.5-1.6-6.2-3.1c-2-1.7,1.4-2.8,1.1-4.5c0-0.1,0.4-0.3,0.6-0.4
			C537.1,232.8,542.4,237.2,542.5,238.6L542.5,238.6z"/>
		<path fill="#FFFFFF" d="M210.3,560.9c2.2,1.1,3,3.4,4,5.4c0.9,1.8-0.9,1.9-1.9,2.3c-1.5,0.5-4,3.5-3.8-1.3c0-0.4-0.5-0.9-0.8-1.2
			c-0.6-0.7-2.4-0.8-1.7-2.3C207,562.2,208.9,562,210.3,560.9L210.3,560.9z"/>
		<path fill="#FFFFFF" d="M224.5,590.9c-2.4-4.9-6.7-8.6-8.7-13.6c-0.4-1-0.9-2-0.4-3.2c0.4-0.9,0.8-2.2-1.1-1.2
			c-0.8,0.4-1-0.4-1-1.1c0-1,0.7-1.6,1.4-2c1-0.5,1,0.6,1.1,0.9C218.8,577.4,221.6,584.1,224.5,590.9L224.5,590.9z"/>
		<path fill="#FFFFFF" d="M687.6,252.4c0.5,2.3,0.7,4.2,2.5,5.5c0.5,0.4,0.8,1.7-0.5,2.5c-4.2,2.5-7.3,6.3-10.9,9.6
			c-0.6,0.5-1.2,2-2.3,0.6c-0.9-1.1,0.3-1.5,0.9-2c3.1-2.3,5.8-5.1,8.5-7.8c1.2-1.2,2.6-2.2,0.9-4.2
			C686,255.5,686.2,253.9,687.6,252.4L687.6,252.4z"/>
		<path fill="#FFFFFF" d="M671.8,373.5c5,8.7,9.5,17.7,12.7,27.3C678.8,392.4,675.9,382.7,671.8,373.5z"/>
		<path fill="#FFFFFF" d="M275.2,253.9c-1,1.4-3,2.6-4.7,2.4c-2.4-0.3-3.2,0.8-4.3,2.3c-0.5,0.6-1.1,1.8-2,0.9
			c-0.7-0.6-1.1-1.6-1.4-2.5c-0.4-1.2,0.7-1.7,1.4-1.8c2.8-0.1,4.7-1.8,6.7-3.4C272.7,250.5,275.1,251.5,275.2,253.9z"/>
		<path fill="#FFFFFF" d="M225.3,456.4c-0.2,0.9,0.4,2.2-1.1,2.4c-1.1,0.1-2.3,0-2.6-1.4c-0.3-1.7-1.8-3.5,0.2-5.1
			c1.5-1.2-1.6-1.2-0.7-2.9c0.7-1.2,2-3.3,0.5-5.2c-0.1-0.1,0.1-0.7,0.4-0.9c0.5-0.4,0.9,0,1.1,0.5c0.4,0.9,0.8,1.8,0.7,2.8
			C223.5,450,224.9,453.2,225.3,456.4L225.3,456.4z"/>
		<path fill="#FFFFFF" d="M648.6,589.3c-1.3-0.6-2.7-1.7-2.7-2.8c0.1-2.6,2.7-3.8,4.2-5.5c1.1-1.3,2.6,0.7,3.9,1.2
			c0.2,0.1,0.3,0.6,0.3,1C654.4,583.8,649.4,589.3,648.6,589.3L648.6,589.3z"/>
		<path fill="#FFFFFF" d="M226.9,465.8c0.1,1.2-0.7,2.2-0.9,3.3c-0.3,1.3-1.4,1.3-2.3,1.3c-1.1,0-1.4-0.8-1.5-1.7
			c-0.2-1.5-0.5-3-0.5-4.4c0-1.1-0.6-2.7,1.2-3c1.7-0.3,2.9,0.4,3.3,2.2C226.4,464.2,226.7,465,226.9,465.8L226.9,465.8z"/>
		<path fill="#FFFFFF" d="M372,216c-0.6,1.8-0.7,2.6,2.1,2.8c2.4,0.2,4.7,2.6,7,4.1c-1.9,0.8,1.3,2.2-0.4,3.1c-1.8,1-2-0.9-2.9-1.5
			c-3.1-2.2-6.2-4.5-9.2-6.9c-0.5-0.4-2.1-0.5-1.3-1.7c0.7-1.1,1.4-0.3,1.9,0.5C370.4,218.2,370.8,215.7,372,216L372,216z"/>
		<path fill="#FFFFFF" d="M681.9,546.5c0.5-4.8,2.7-8.8,5-12.7c1.1-1.9,2.2-3.9,3.2-5.9c0.3-0.6,0-1.7,1-1.8c0.5,0,1,0.6,1.4,1
			c1,0.9,0.1,1.6-0.4,2.2c-3,3.6-4.9,7.8-7.3,11.6C683.7,542.8,682.8,544.7,681.9,546.5L681.9,546.5z"/>
		<path fill="#FFFFFF" d="M713.3,393.8c0.7-3.1,0.3-5.6,0.2-8.2c-0.1-2.5,1.1-5.2,0.3-8c0-0.2,0.7-0.7,1.1-0.8
			c0.8-0.2,1.1,0.4,1.1,1.1c0,5,0.9,9.9,1,14.8C717,394.8,714.6,393.2,713.3,393.8L713.3,393.8z"/>
		<path fill="#FFFFFF" d="M199.1,288.6c1.9,0.5,2,2.3,1.2,3.2c-2.5,2.4-0.8,4.7,0,6.9c1,3,2.2,5.9,2.8,9.1
			c-2.3-4.6-4.5-9.3-6.9-13.9c-1-1.9-1-3,1.5-3.2C198.7,290.6,199,289.5,199.1,288.6C199.2,288.5,199.1,288.6,199.1,288.6
			L199.1,288.6z"/>
		<path fill="#FFFFFF" d="M728.2,501.6c-0.2,2.3-0.5,4.4-0.4,6.5c0.1,2.1-1.3,2-2.6,2.1c-2,0.1-1.7-1.2-1.5-2.5
			c0.4-2.2,0.7-4.4,1.2-6.5c0.3-1.2,1.3-1.8,2.5-1.7C729.1,499.7,728,501,728.2,501.6L728.2,501.6z"/>
		<path fill="#FFFFFF" d="M635.1,638.1c-0.6-1.2-0.6-2.2-1.5-2.9c-1.1-0.8-0.4-1.6,0.4-2c2.5-1,4.2-2.8,5.8-4.9c0.8-1,1.6-1.9,3-0.5
			c1.2,1.3,0.7,2-0.3,3.1c-1.3,1.4-3.7,1.3-4.6,2.8C637,635,636.5,636.7,635.1,638.1L635.1,638.1z"/>
		<path fill="#FFFFFF" d="M696.6,515.2c1.2,1.1,3.8,1.1,3.3,2.9c-0.7,2.5-1.2,5.3-3.3,7.2c-1.2,1-3,0.9-4-0.4
			c-1.1-1.3,0.4-2.1,1.1-3C695.2,520,698.6,518.9,696.6,515.2L696.6,515.2z"/>
		<path fill="#FFFFFF" d="M418.9,619.6c-0.6,3.7-4.1,5.8-3.4,9.4c-3.3-0.7-4.4,4.1-7.8,3.1c-0.4-0.1-1-0.3-1.2-0.7
			c-0.4-0.7,0.3-1.1,0.9-1.4C412.1,627.9,414.9,623.6,418.9,619.6L418.9,619.6z"/>
		<path fill="#FFFFFF" d="M441.3,666.4c0.5-9.8-1.8-19.8,2.1-29.4c-0.4,4.4-1,8.7-1.1,13.1c-0.1,2.6-1.7,5.6,1.4,7.7
			c0.2,0.2,0.4,0.9,0.3,0.9C440.5,660.3,442.8,663.9,441.3,666.4L441.3,666.4z"/>
		<path fill="#FFFFFF" d="M406.1,167.6c1.5,0.3,2.1,1.4,3,2.2c1.1,1-0.2,1.4-0.7,1.9c-1.6,1.5-3.3,3-4.9,4.5
			c-0.8,0.7-1.5,0.9-2.2,0.1c-0.6-0.6-1.3-1.4-1.3-2.1c-0.1-1.3,1-0.9,1.9-1c1.8-0.2,2.7-1.5,2.9-3.3
			C404.8,169,405.2,168.1,406.1,167.6L406.1,167.6z"/>
		<path fill="#FFFFFF" d="M252.6,345.7c3.2-8.9,6.4-17.8,11.6-25.8C260.6,328.7,257.1,337.5,252.6,345.7z"/>
		<path fill="#FFFFFF" d="M614.4,614c-1.2-3.4-4.4-3.7-8.7-0.9c-0.3-0.9-0.7-1.8-0.8-2.8c-0.1-0.8,0.2-1.6,1.2-1
			c4.4,2.4,8.9,0.5,13.4,0.1c2.1-0.2,4.1-0.9,6.1-1.3c2.1-0.4,2.7,0.6,2.5,2.5c-0.1,0.7-0.3,1.2-1.1,1.2c-1.5-0.1-0.6-0.9-0.4-1.4
			c0.5-1.5-0.4-1.2-1.3-1.2c-2.9-0.1-5.4,1.5-8.4,1.1C615.3,610.3,616,613,614.4,614L614.4,614z"/>
		<path fill="#FFFFFF" d="M351.8,180.4c-1.6,2.9-3.8,5.2-6.3,7.3c-1.2,1-2.2-0.7-3-1.4c-0.8-0.6-0.4-1.6,0.6-2.1
			c2.1-1.1,3.9-2.7,5.4-4.4c0.7-0.8,1.7-1,2.7-0.5C351.9,179.4,352.1,179.8,351.8,180.4L351.8,180.4z"/>
		<path fill="#FFFFFF" d="M665.9,442.1l3.1,21.4l-1,0.1C666.7,456.5,663.9,449.7,665.9,442.1z"/>
		<path fill="#FFFFFF" d="M359.2,657.9c2.6,2.8,5,5.9,7.9,8.3c3,2.5,6.3,1.2,9.5-0.3c1.7-0.8,2.9-2.3,4.3-3.6
			c-1.4,4.3-6.2,7.3-10.6,6.7C366.5,668.5,359.2,661.3,359.2,657.9L359.2,657.9L359.2,657.9z"/>
		<path fill="#FFFFFF" d="M335.5,667.6c-2.1,2.7-3.7,2.6-5-0.4c-0.4-0.9-1.1-1.7-1.7-2.4c-2.2-2.9-4.6-3.1-7.2-0.6
			c0.9-4,4.2-6.4,7.5-2.1C330.8,664.2,332.8,666.2,335.5,667.6L335.5,667.6z"/>
		<path fill="#FFFFFF" d="M312.8,618.1c-6.4-4.3-12.1-9.4-16.9-15.5C302.1,607.2,307.8,612.3,312.8,618.1z"/>
		<path fill="#FFFFFF" d="M289.4,481.8c1.1-0.6,1.9,0.2,2.6,0.8c1.3,1.1,3.1,2.2,4,0.5c0.6-1-0.7-3-2.3-3.8
			c-0.6-0.3-2.2,0.3-1.7-1.1c0.4-1.2,1.5-0.2,2.2,0.1c1.1,0.5,2.2,1.2,3.3,1.7c2.9,1.2,1.6,3.3,0.9,4.9c-0.9,2.3-2.4,1.7-4.1,0.7
			C292.5,484.6,291.2,482.9,289.4,481.8C289.4,481.7,289.4,481.8,289.4,481.8L289.4,481.8z"/>
		<path fill="#FFFFFF" d="M335.3,306.6c-1-4.1-4.3-2.6-6.8-3c-0.8-0.1-2.2,0.8-2.2-1c0-1.7,1-1.9,2.5-1.7c1.3,0.2,2.8,0,4.1,0.2
			c1.5,0.2,3.8-1.3,4.4,0.5c0.4,1.3-0.7,3.4-2.1,4.7L335.3,306.6L335.3,306.6z"/>
		<path fill="#FFFFFF" d="M229.9,489.4c-3,1.1-5.3,4.2-8.4,4.4c-4.5,0.3-7.1,6.3-12.3,3.8C215.8,494,223.2,492.5,229.9,489.4z"/>
		<path fill="#FFFFFF" d="M278.3,251.8c-1.4-0.6-2.9-2.1-2.5-3.1c0.8-1.8,2.3-3.6,4.4-4.1c1.3-0.3,1.8,1.1,1.9,2.2
			C282.3,248.4,279.5,251.9,278.3,251.8L278.3,251.8z"/>
		<path fill="#FFFFFF" d="M342.2,191.1c-0.1,1.3-5.4,5.6-6.7,5.3c-0.5-0.1-1.1-0.6-1.4-1.1c-0.4-0.6,0-1.3,0.5-1.6
			c1.8-1,3.5-2.3,4.7-4.1c0.6-0.9,1.3-0.3,1.9,0C341.9,189.9,342.3,190.4,342.2,191.1L342.2,191.1z"/>
		<path fill="#FFFFFF" d="M270.3,408.3c-0.9,1.8-1.5,4.1-4.2,4.3c-0.9,0.1-2.6,0-2.2-1.6c0.5-2.4,1.9-4.4,4.4-5.1
			C269.2,405.7,270.1,406.9,270.3,408.3z"/>
		<path fill="#FFFFFF" d="M402.1,626.5c4.5-2.4,7.3-6.6,12.3-8.7C411.7,623.1,405.2,627.9,402.1,626.5z"/>
		<path fill="#FFFFFF" d="M419,215.5c-1.6,0.1-1.3-1.2-0.8-1.9c1.8-2.4,5.2-2.6,7.1-4.9c0.1-0.1,0.9,0.3,1.2,0.7
			c0.5,0.5,0.5,1.1,0,1.6C424.5,213.1,422.2,215,419,215.5L419,215.5z"/>
		<path fill="#FFFFFF" d="M395.7,674.9c1.9,0.4,3.8,0,5.5,0.7c1,0.4,1,1,0.9,1.7c-0.1,1.3-0.8,0.7-1.5,0.7c-2.4-0.1-4.8-0.2-7.1-0.3
			c-1.5-0.1-1.8-1.1-1.8-2.3c0.1-1.9,1.2-0.3,1.8-0.5C394.3,674.8,395.1,674.9,395.7,674.9L395.7,674.9z"/>
		<path fill="#FFFFFF" d="M236.4,555.2c-1.7-0.8-2.9-1.9-2.9,0.6c0.1,2.5,0,5.1-0.6,7.6c-0.1,0.5,0.8,1.3-0.5,1.4
			c-1.2,0.1-1.3-0.6-1.2-1.7c0.3-2.2,1-4.5-1.4-7.3c1.5,0.6,2.2,0.9,2.8,1.1c0-0.5,0.1-1.3-0.1-1.4c-2.5-1.1-0.5-1.5,0.2-2.2
			c1.2-1.1,2.2-1.7,3.1,0.2C235.9,553.9,236,554.2,236.4,555.2L236.4,555.2z"/>
		<path fill="#FFFFFF" d="M267.1,448.1c3.1,0.8,3.8-0.9,4.1-3.2c0.1-0.8-0.4-2,0.8-2.1c1.1-0.1,1.7,1,1.8,2c0.3,2.7-1.4,4.5-3.4,5.7
			C268.8,451.6,267.8,450.3,267.1,448.1z"/>
		<path fill="#FFFFFF" d="M605.7,273.6c-0.9,1.4-2.4,2.6-3.6,2.1c-2.2-1-2-3.9-3.3-5.7c-0.4-0.6,0.9-0.8,1.6-0.7
			C602.9,269.8,604.4,271.6,605.7,273.6L605.7,273.6z"/>
		<path fill="#FFFFFF" d="M412.2,678.2c-2.2,0-4.4-0.1-6.7,0c-1.5,0.1-1.6-1-1.4-1.9c0.1-0.8,0.8-0.6,1.6-0.8
			c2.7-0.4,5.1,0.7,7.6,0.9c0.9,0.1,2.3-0.8,2.4,0.7c0.1,1.5-1.7,0.7-2.5,1.4C413.2,678.7,412.6,678.3,412.2,678.2L412.2,678.2z"/>
		<path fill="#FFFFFF" d="M616.2,277.7c-3.8,0.3-6.5-1-8.9-3.4C610.7,272,612.5,272.7,616.2,277.7z"/>
		<path fill="#FFFFFF" d="M316.8,499.3c1.6,0.1,2.7,0.4,2.8,1.8c0.1,1.8-2.6,4.7-4.1,4.5c-1.6-0.1-1.2-1.1-1-2.1
			C314.7,501.6,314.5,499.5,316.8,499.3L316.8,499.3z"/>
		<path fill="#FFFFFF" d="M387.6,189.6c0.4-3.5,2.3-5,4.1-5.9c1.2-0.6,2.5,1.3,3.4,2.4c0.5,0.6,0.7,1.4,0.1,2
			c-0.4,0.5-1.3,0.7-1.7,0.2C391.4,185.5,389.8,187.6,387.6,189.6z"/>
		<path fill="#FFFFFF" d="M499.5,199.3c5.2,0,10.4,0,15.6,0c0.8,0,1.6,0.1,1.6,1.1c0,1.1-0.9,1.2-1.9,1.3c-2.2,0.2-4.7-0.4-6.5-0.8
			C505.3,200.2,502.4,201.3,499.5,199.3z"/>
		<path fill="#FFFFFF" d="M564.8,710.3c-0.9-0.6-2.9,1-2.8-1.2c0.2-1.9,1.8-3.4,3.7-3.5c1.8-0.2,2.8,1.8,2.8,2.9
			C568.5,710.9,566.2,709.9,564.8,710.3L564.8,710.3z"/>
		<path fill="#FFFFFF" d="M579.3,193.4c-1.3,2.2-3.7,3.2-5.4,5c-2.2,2.2-3,4.1,0,6.3c1.2,0.9,2.2,2,3.2,3.1
			c-2.7-0.9-4.4-3.1-6.7-4.5c-1-0.7-1.1-1.5-0.2-2.5C573,197.9,575.5,194.8,579.3,193.4L579.3,193.4z"/>
		<path fill="#FFFFFF" d="M207.9,355.7c0,0-0.1-0.3-0.2-0.7c-0.6-1.9,1.1-1.7,1.9-1.8c1.6-0.1,0.8,1.1,0.7,1.8
			c-0.3,2.8-1.8,5.4-1,8.3c0.1,0.5,0,1-0.6,1.1c-0.9,0.1-1.4-0.6-1.4-1.4C207.4,360.7,207.7,358.4,207.9,355.7L207.9,355.7z"/>
		<path fill="#FFFFFF" d="M738.5,466.5c1.6,3.4,0.1,11-2.4,14.1C737,475.5,737.8,471,738.5,466.5z"/>
		<path fill="#FFFFFF" d="M698.8,283.9c-3.3-0.3-5.3-2.7-4.6-5.4c0.2-0.6,0.7-1.5,1.2-1.6c0.7-0.3,1.3,0.4,1.5,1.2
			C697.5,280,698.8,281.8,698.8,283.9L698.8,283.9z"/>
		<path fill="#FFFFFF" d="M238.7,468.4c2.1-3.6,3.6-4,10.3-3.4C246.3,468.6,242.4,467.7,238.7,468.4z"/>
		<path fill="#FFFFFF" d="M548.5,702.7c0.2,0.3,0.5,0.5,0.7,0.8c-1,2-3.3,1.8-5,2.8c-2,1.2-4,2.3-5.7,3.9
			C538,707.1,539.8,705.8,548.5,702.7L548.5,702.7z"/>
		<path fill="#FFFFFF" d="M409.8,614.2c0.6-4-0.1-6.1-4.7-5.1c-1.6,0.3-4.1,0.4-6.4-1.6c4-0.5,7.3,0.2,10.5,0.9
			C412.1,609.3,412.3,611.4,409.8,614.2L409.8,614.2z"/>
		<path fill="#FFFFFF" d="M352.8,647c-0.4,2.7-1.9,4.2-4.6,4.8c-1.3,0.3-2.3,1.5-2.9,2.7c-0.5,1-1.1,2-3,1.6c2.2-5,8-6.1,10.4-10.4
			l0,1.5L352.8,647L352.8,647z"/>
		<path fill="#FFFFFF" d="M530.8,169.7c-0.2-4.3,3-3.3,5.3-3.5c1.4-0.1,1.5,1.6,1.1,2.2C535.4,171.2,532.9,169.6,530.8,169.7
			L530.8,169.7z"/>
		<path fill="#FFFFFF" d="M546.8,165.5c-0.1,3.8-3.3,2.7-5.4,3.2c-2,0.5-2.9-0.8-3.3-2.7c3-0.8,5.9,0,8.8-0.4
			C546.9,165.6,546.8,165.5,546.8,165.5L546.8,165.5z"/>
		<path fill="#FFFFFF" d="M622.2,649.4c-0.3-2.2-4-3.2-1.3-5.6c0.8-0.8,1.9-1.5,3.1-0.1C626.5,646.4,623.8,647.4,622.2,649.4z"/>
		<path fill="#FFFFFF" d="M234.2,283.9c-0.7,1.9-1.5,3.5-3.5,3.7c-1.4,0.2-1.9-1-1.7-2.3c0.2-1.9,1.7-2.8,3.3-3.1
			C233.2,282.1,234,282.9,234.2,283.9L234.2,283.9z"/>
		<path fill="#FFFFFF" d="M337.7,552c-0.6,1.4-2.1,0.1-2.5,0.9c-0.3,0.6,0,1.3-1,1.3c-1,0-1-0.4-1.1-1.4c-0.2-1.3-2.1-2-2.5-0.9
			c-0.7,2-1.7,1-2.7,1c-0.6,0-0.6-0.3-0.5-0.7c1.7,0.3,1.3-2.3,3.2-2.1C333,550.4,335.2,551.5,337.7,552L337.7,552z"/>
		<path fill="#FFFFFF" d="M237.3,275.4c1.1,0.2,2.3,0.7,2.2,1.7c-0.2,2.1-2,3.3-3.8,4.1c-1,0.4-1.6-0.4-1.5-1.4
			C234.4,277.7,235.5,276.2,237.3,275.4L237.3,275.4z"/>
		<path fill="#FFFFFF" d="M573.4,619c2.2-1.2,4-1.1,5.9-1c0.6,0,1.2,0.4,1.3,1.1c0.1,0.5-0.3,0.8-0.7,1.2c-1.4,1.1-3.6,0.2-4.6,2
			C574.7,621.2,574.1,620.2,573.4,619L573.4,619z"/>
		<path fill="#FFFFFF" d="M395.2,180.2c1.3,0.4,3.3,0.5,3.7,2.3c0.2,0.9-1.1,2.4-2.4,2.2c-1.8-0.2-3.3-1.5-3.7-3.2
			C392.5,180.3,394,180.2,395.2,180.2L395.2,180.2z"/>
		<path fill="#FFFFFF" d="M544.7,629.4c-0.6-2.1-3.7-0.1-3.4-2.1c0.2-1.9,2.4-2.9,4-3.8c0.7-0.4,2.1,1.1,1.9,1.8
			C546.8,626.7,545.7,627.9,544.7,629.4L544.7,629.4z"/>
		<path fill="#FFFFFF" d="M441,166.8c-1.4,0.6-1.3-0.5-1.3-1.1c-0.3-3.3,2.8-1.9,4.2-2.9c0.8-0.5,2.1-0.4,1.9,1.2
			C445.4,167.1,442.2,165.3,441,166.8L441,166.8z"/>
		<path fill="#FFFFFF" d="M491.1,695.2c-1.5,2-0.4,5.1-4,4.5c-0.9-0.1-1.8-0.5-2.1-1.3c-0.4-1.2,0.9-1.2,1.5-1.6
			C487.6,695.9,488.8,695.4,491.1,695.2L491.1,695.2z"/>
		<path fill="#FFFFFF" d="M693.7,322.9c-0.3,1.3-1.2,2.3-2.5,2.3c-1.7,0-2-1.8-2.2-2.9c-0.2-1.2,1.2-1.9,2.3-1.8
			C692.7,320.6,693.4,321.6,693.7,322.9L693.7,322.9z"/>
		<path fill="#FFFFFF" d="M238.1,465.8c0.1,1.5-1,2.1-1.7,2.8c-0.7,0.7-0.6,2.6-2.6,1.8c-0.9-0.3-1.1-0.6-1.1-1.5
			c0.1-1.7,1-2.8,2.6-3.1C236.2,465.6,237.2,465.8,238.1,465.8L238.1,465.8z"/>
		<path fill="#FFFFFF" d="M200.7,381.9c0.4,0,0.7,0,1.1,0c1.2,0.1,2.5,0.1,3.1,1.5c0.1,0.3,0,0.9-0.1,1c-1.1,0.5-2.3,0.7-3.5,0
			c-0.5-0.3-0.7-1-1.5-0.7c-0.7,0.2-1.6,2.5-2.2,0.1c-0.5-1.8,1.2-1.7,2.4-1.8C200.2,381.8,200.5,381.9,200.7,381.9L200.7,381.9
			L200.7,381.9z"/>
		<path fill="#FFFFFF" d="M212.6,382.5c-1.5,4.2-4,2.5-6.1,2.1c-1.1-0.2-0.2-1.4,0.1-1.7C208.4,380.2,210.4,382.5,212.6,382.5z"/>
		<path fill="#FFFFFF" d="M444.5,701.9c3.3-3.3-3.6-3.2-0.4-6.1c1.8,0.6,3.4,1.9,5.2,3.3C448.3,700.5,446.8,700.9,444.5,701.9
			L444.5,701.9z"/>
		<path fill="#FFFFFF" d="M595.4,691.8c-0.4,2.3,0.9,5.4-3.2,5.7c-2.7,0.2-3.1-1.2-3.1-3.5C591.7,695.3,593.8,694.6,595.4,691.8
			L595.4,691.8z"/>
		<path fill="#FFFFFF" d="M300.7,269.7c1.4,0,1.5,1.5,1.5,2.3c0,1.5-1.2,2.3-2.7,2.3c-1.1,0-2.1-0.7-2-1.7
			C297.7,271,298.9,270,300.7,269.7L300.7,269.7z"/>
		<path fill="#FFFFFF" d="M427.6,206.9c-1.3-1.1-3-2-1.7-3.1c1.5-1.4,3.6-2.2,5.8-1.7c0.8,0.2,0.5,1.3,0.2,2c-0.4,0.9-0.6,2-1.9,2
			c-0.4,0-0.8-0.2-0.6-0.6c0.1-0.4-0.6-2,0.9-0.6c0.5,0.5,0.4-0.3,0.4-0.5c0-0.8-0.5-1-1.2-0.9C427.5,203.7,427.9,205.3,427.6,206.9
			L427.6,206.9z"/>
		<path fill="#FFFFFF" d="M577.7,208.1c4.6,3.6,9.6,6.5,13.5,10.8C586.1,216,581.4,212.7,577.7,208.1z"/>
		<path fill="#FFFFFF" d="M727,488.4c0.1-1.2-0.1-2.6,1.8-2.5c1.2,0.1,2,0.7,1.7,1.9c-0.4,1.3-0.1,3.5-1.7,3.7
			C727.4,491.7,726.9,489.9,727,488.4L727,488.4z"/>
		<path fill="#FFFFFF" d="M604.6,238.7c-1,2.9-3.2,4-6.1,4.3c-1.2,0.1-1.6-0.6-1.7-1.5c-0.1-0.9,0.6-1.3,1.4-1.4
			c0.6,0,1.6-0.4,1.5,0.9c-0.2,2.2,1.5,0.6,1.5,0.5C601,239,603.4,239.6,604.6,238.7z"/>
		<path fill="#FFFFFF" d="M226,392.7c0,2.7,0,5.4,0,8.1c0,1.2-0.4,2-1.7,1.7c-1.5-0.3-0.5-1.5-0.4-2.1c0.3-2.6,0.9-5.2,1.4-7.8
			L226,392.7L226,392.7z"/>
		<path fill="#FFFFFF" d="M751,379.1c-1.8,0.7-3,1.3-4.6,1.9c-0.1-3.4,1.8-6.4,0.5-9.7C749.5,373.4,746.5,377.8,751,379.1z"/>
		<path fill="#FFFFFF" d="M381.2,685.7c-0.1,1.5-1.1,1.8-2.3,2c-1.3,0.1-2.6,0.1-2.7-1.6c-0.1-1.5,0.9-1.9,2.1-2
			C379.5,684.1,380.7,684.3,381.2,685.7z"/>
		<path fill="#FFFFFF" d="M398.5,176c1.4,0.4,2.6,1.1,2.8,2.6c0.1,0.9-0.4,2-1.4,1.7c-1.4-0.4-3.3-0.8-3.5-2.7
			C396.3,176.6,397.5,176.2,398.5,176L398.5,176z"/>
		<path fill="#FFFFFF" d="M528.9,166.8c0,5.1-3.5,2.2-5.7,2.7C524,167.5,525.9,166.6,528.9,166.8z"/>
		<path fill="#FFFFFF" d="M690,369.2c-0.2,0.8-0.7,1.3-1.6,1.2c-1.5-0.3-2.9-3.9-2-5.2c0.6-1,1.6-1.7,2-0.1
			C689,366.4,689.3,367.8,690,369.2L690,369.2z"/>
		<path fill="#FFFFFF" d="M726.5,337c-4.2-3.4-4.5-5.2-1.3-8.4C725.5,331.6,723.3,334.8,726.5,337z"/>
		<path fill="#FFFFFF" d="M555,216.8c-1.7-0.7-3.1-1.4-4.1-2.6c-0.6-0.7-0.8-1.7,0.1-2.3c0.8-0.6,1.9-0.9,2.5,0.3
			C554.3,213.6,555.3,214.9,555,216.8z"/>
		<path fill="#FFFFFF" d="M649.8,557.8c-2.8,3.3-5.7,6.6-8.5,9.9c1.1-4.8,5.3-7,7.8-10.6C649.4,557.3,649.6,557.6,649.8,557.8
			L649.8,557.8z"/>
		<path fill="#FFFFFF" d="M247.2,334.1c1.4,3.2,1.9,3.3,5.8,0.4c-0.5,3.4-2.8,3.3-5,2.7c-3.1-0.9-3.6-3.2-2.8-6.1
			c1.6,0.5,1.3,2.2,2.1,3.1C247.3,334.2,247.2,334.1,247.2,334.1L247.2,334.1z"/>
		<path fill="#FFFFFF" d="M254.4,283.6c1.9,2.2,1.4,4.4-1.1,5.1c-0.8,0.2-1.4,0-2-0.6c-0.7-0.8-0.2-1.3,0.1-2
			c0.3-0.6,0.7-1.8,1.4-1.2C255.7,287.2,253.5,283.5,254.4,283.6L254.4,283.6z"/>
		<path fill="#FFFFFF" d="M463.1,160.4l-1.9-2.4c2-1.2,4-1.4,6.1-1.4c1.7,0,1.7,1.3,1.6,3.7c-1.5-3.8-3.7-1.4-5.5-1.8
			C462.7,158.3,464.3,159.6,463.1,160.4L463.1,160.4z"/>
		<path fill="#FFFFFF" d="M571.4,290.1c-1.5-0.3-2.5-0.6-3.6-0.8c-0.9-0.1-2.1,0.2-2.5-1c-0.2-0.5,0.2-0.8,0.7-1.1
			c1.1-0.7,2.2-1.3,3.4-0.4C570.5,287.5,571.2,288.5,571.4,290.1L571.4,290.1z"/>
		<path fill="#FFFFFF" d="M335.2,306.5c0.3,0.6,1.2,1.1,0.8,1.9c-0.4,0.9-1.3,0.4-1.9,0.3c-2.3-0.4-4.5-0.8-6.8-1.1l0-1
			c2.7,0,5.4,0,8,0C335.3,306.6,335.2,306.5,335.2,306.5L335.2,306.5z"/>
		<path fill="#FFFFFF" d="M571.3,245.5c-3.7-1.8-5.7-4-7.6-7.1C567.3,239.7,569.5,241.6,571.3,245.5z"/>
		<path fill="#FFFFFF" d="M354.3,208.3c0.3-1.7,0.9-3,2-2.6c1.5,0.5,2.7,1.8,4,2.7c-0.5,0.5-0.8,1.2-1.4,1.6
			c-1.4,0.9-2.2,0.9-2.1-1.2C357,206.9,356.8,206.9,354.3,208.3L354.3,208.3z"/>
		<path fill="#FFFFFF" d="M329.6,255.9c-0.6,3.9-2.6,6.9-6.1,8.9C325.5,261.8,327.6,258.9,329.6,255.9z"/>
		<path fill="#FFFFFF" d="M304.8,622.3c2.4-0.8,4.1-0.3,5,1.9c0.4,0.8-0.1,1.4-0.8,1.8c-1.1,0.6-2-0.2-2.4-1
			C306.1,624,305.9,623,304.8,622.3z"/>
		<path fill="#FFFFFF" d="M363,209.3c0.2,0.3,0.4,0.7,0.7,0.8c0.9,0.5-1.5,4.9,2.3,2c0.1,0.3,0.3,0.7,0.3,1c0,0.7-0.1,1.9-1,1.6
			c-1.7-0.6-3.5-1.3-4.1-3.1C361,210.8,361.9,209.8,363,209.3L363,209.3z"/>
		<path fill="#FFFFFF" d="M251,624.6c3.7,0.5,6.8-0.8,9.5,2.5C257.3,626.6,254.1,627.7,251,624.6z"/>
		<path fill="#FFFFFF" d="M423.6,290.6c0.7,1.2,0.6,2.3-0.9,2.5c-1.7,0.2-3.6,0.4-5.1-0.2c-0.8-0.3,0.2-1.8,1.3-1.9
			C420.5,290.7,422.1,290.7,423.6,290.6C423.7,290.6,423.6,290.6,423.6,290.6L423.6,290.6z"/>
		<path fill="#FFFFFF" d="M247.4,547.9c-2.2,1.9-6.7,0.1-5.7,4.9c-1.6-1.2-2.1-3.4-1.3-3.9C242.2,547.6,244.5,547.2,247.4,547.9
			L247.4,547.9z"/>
		<path fill="#FFFFFF" d="M229.9,572.8c-2.8-0.5-2.7-2.4-2.8-4.4c3.4,2.6,3.6-1.2,5.1-2.4c0.3,1.8-0.2,3-1.3,3.8
			C229.9,570.5,229.6,571.5,229.9,572.8L229.9,572.8z"/>
		<path fill="#FFFFFF" d="M500,720.7c0.6-1.7-3.5-2.5-0.9-4.4c0.3-0.2,1.5-1.7,2.8-0.2C504.1,718.8,500.6,719.1,500,720.7L500,720.7
			z"/>
		<path fill="#FFFFFF" d="M542,374c-0.9,1.3-1.8,2.6-3.2,3c-0.9,0.3-1.6-0.7-1.5-1.6c0.2-1.7,1.4-2.5,2.9-2.9
			C541.5,372.1,541.3,373.4,542,374L542,374z"/>
		<path fill="#FFFFFF" d="M729.1,338.1c0.2,3.3,3.6,5.3,3.3,8.7C731.6,343.8,727.9,341.8,729.1,338.1z"/>
		<path fill="#FFFFFF" d="M526.1,610.8c-2.2,1.1-3.9,1.2-5.2-0.8c-0.5-0.9-0.2-1.9,0.7-2.2C524.5,606.7,524.2,610,526.1,610.8z"/>
		<path fill="#FFFFFF" d="M619.6,626.3c-0.5,1.3-1,2.7-2.7,2.6c-0.8-0.1-2.4-0.3-2.1-1.5c0.4-1.5,1.9-2.2,3.4-2.3
			C619,625,619.7,625.4,619.6,626.3L619.6,626.3z"/>
		<path fill="#FFFFFF" d="M308.1,260.3c1.3,1,2.8,2,2.9,3.6c0.1,1.4-1.5,1.5-2.7,1.5c-0.9,0-1.7-0.8-1-1.2
			C309.2,263.1,305.2,261,308.1,260.3z"/>
		<path fill="#FFFFFF" d="M359.2,657.9c-3,1.7-4.4-1.1-6.3-2.3c-0.3-0.2-0.2-1.6,0.2-2c0.6-0.7,1.2,0.1,1.8,0.5
			C356.4,655.3,357.2,657.2,359.2,657.9L359.2,657.9z"/>
		<path fill="#FFFFFF" d="M325.6,553.3c-2.3-0.9-4.8-0.4-6.8-1.7c-0.2-0.1,0.1-1.9,1.2-2.4c1.9,0.1-0.9,1.8,0.6,2
			c0.9,0.1,1.2-0.2,1.5-1.1c0.6-1.6,1.1,0.3,1.7,0.2C322.4,552.3,325.5,551.6,325.6,553.3L325.6,553.3z"/>
		<path fill="#FFFFFF" d="M537.8,657.3c1.5,2.8,1,8.5-0.8,10.3c-0.5,0.5-1,0.8-1.6,0.3c-0.4-0.3-0.6-1.1,0-1.3
			c4.4-1.7,1.7-5.4,2.3-8.1C537.8,658.1,537.2,657.7,537.8,657.3z"/>
		<path fill="#FFFFFF" d="M337.9,667.3c-4.3-1.2-5.9-5.3-8.7-8.1c2.9,2.7,6.6,4.5,8.6,8.2L337.9,667.3L337.9,667.3z"/>
		<path fill="#FFFFFF" d="M267.6,227.4c-0.4,1-1.4,2-2.7,1.9c-1-0.1-1.5-1.3-1.2-2.3c0.4-1.5,1.8-1.5,3-1.5
			C267.8,225.4,268,226.2,267.6,227.4L267.6,227.4z"/>
		<path fill="#FFFFFF" d="M252,584.7c0.5,1.2,1.1,2.4,1.5,3.7c0.3,1-0.6,1.5-1.1,2.1c-0.1,0.1-0.7,0.1-0.9-0.1
			c-0.5-0.6-0.7-1.2-0.2-2c0.7-1.1-2.1-2.2-0.1-3.4C251.4,584.9,251.6,584.9,252,584.7L252,584.7z"/>
		<path fill="#FFFFFF" d="M715.5,418.8c-1-2.3,0.1-4.3-1.1-5.9c-0.3-0.5-0.4-1.6,0.6-1.8c0.8-0.2,1.7-0.4,2.4,0.4
			c0.6,0.7,0.6,1.5-0.2,1.9C715.4,414.5,715.8,416.4,715.5,418.8L715.5,418.8z"/>
		<path fill="#FFFFFF" d="M390.9,700.1c-1,0-1.5-0.7-1.6-1.6c0-1.6,1.4-2.2,2.5-2.3c1-0.1,2.2,1.1,2,2
			C393.7,699.7,392,699.5,390.9,700.1L390.9,700.1z"/>
		<path fill="#FFFFFF" d="M718.9,423.4c-0.5,2-1,4.2-3,3.8c-2.3-0.4-2.3-2.3-0.4-3.4C715.9,423.6,717.6,423.8,718.9,423.4
			L718.9,423.4z"/>
		<path fill="#FFFFFF" d="M299.6,387.1c0.2,1.7-1,2.4-1.9,2.4c-1.3,0.1-1.8-1.3-1.7-2.4c0.1-1.1,0.9-2.2,2.1-2.3
			C299.7,384.9,299.4,386.4,299.6,387.1z"/>
		<path fill="#FFFFFF" d="M486.7,703c-0.9-0.9-1.9,3.5-3,0c-0.1-0.4-1,0-0.8,0.6c0.3,1.3-0.3,1.5-1.3,1.4c-0.7-0.1-1.3-0.4-1-1.1
			c0.2-0.8,0.2-2,1.4-1.9C483.5,701.9,485.3,700.7,486.7,703L486.7,703z"/>
		<path fill="#FFFFFF" d="M213.3,376.2c0-1.3,0.2-2.4,1.7-2.3c1,0.1,2.1,0.5,1.9,1.8c-0.3,1.4-1.4,2.5-2.8,2.5
			C213,378.2,213.4,376.9,213.3,376.2L213.3,376.2z"/>
		<path fill="#FFFFFF" d="M363.2,602.2c3.7,0.3,7.5,0.7,11.2,1c-3.8,0.3-7.6,1-11.3-0.1L363.2,602.2L363.2,602.2z"/>
		<path fill="#FFFFFF" d="M721.3,329.1c1.2-2.7-0.7-4.5-1.7-6.4c-0.3-0.6-0.8-0.8-0.2-1.3c0.4-0.4,0.9-0.4,1.3-0.1
			C722.1,322.2,722.7,327.5,721.3,329.1z"/>
		<path fill="#FFFFFF" d="M497.5,690.8c-0.3,1.4-1.5,1.4-2.6,1.4c-1.1,0-2.2-0.5-2.1-1.6c0.1-1.4,1.5-1.4,2.6-1.3
			C496.3,689.3,497.5,689.3,497.5,690.8z"/>
		<path fill="#FFFFFF" d="M261.2,418.3c-1-0.4-1.2-1.4-1.1-2c0.2-1,0.4-2.5,1.9-2.1c0.8,0.2,2.3,0.2,2.1,1.5
			C263.9,417,262.4,417.5,261.2,418.3z"/>
		<path fill="#FFFFFF" d="M264.5,623.3c1.5,0,2.9,0,4.4,0c0.7,0,1.2,0.3,1.3,1c0,0.4-0.1,1.1-0.4,1.3c-0.5,0.3-1.3,0.4-1.6-0.2
			c-1.1-1.9-1-0.2-1.8,0.2C264,627,265.5,624,264.5,623.3L264.5,623.3z"/>
		<path fill="#FFFFFF" d="M276.8,256c-0.6,2.6-2.6,3.4-4.5,4.2c-0.6,0.3-1.6,0.3-1.9-0.6c-0.3-1,0.5-1.5,1.2-1.3
			C273.8,258.6,274.6,255.8,276.8,256L276.8,256z"/>
		<path fill="#FFFFFF" d="M231.2,268.9c-0.8,1.1-1.4,2.6-3.1,2.7c-1.2,0.1-1.5-0.8-1.4-1.7c0.2-2.2,2.2-1.4,3.4-2
			C230.8,267.5,231.2,268,231.2,268.9L231.2,268.9z"/>
		<path fill="#FFFFFF" d="M654.2,544c2.3-1.2,2.7-4.2,5.5-4.7C658.3,541.4,658.4,545,654.2,544z"/>
		<path fill="#FFFFFF" d="M716.5,335.3c1.6,1,3.2,1.9,4.7,2.9c0.5,0.3,0.6,0.8,0.3,1.2c-0.4,0.5-0.9,0.8-1.5,0.2
			c-1.3-1.2-2.7-2.3-4.1-3.5L716.5,335.3L716.5,335.3z"/>
		<path fill="#FFFFFF" d="M448.1,719.5c0.1,1.8-0.9,2.1-1.9,2.3c-1.2,0.2-2-0.4-2-1.6c0-1.2,0.8-1.8,1.9-1.9
			C447.3,718.2,448,718.7,448.1,719.5L448.1,719.5z"/>
		<path fill="#FFFFFF" d="M258.7,489.4c-1.1-0.4-1.9-1.3-1.8-2.2c0.1-1,0.6-2.4,1.9-2.2c1.1,0.2,1.8,1.2,1.8,2.5
			C260.6,488.7,259.5,488.9,258.7,489.4z"/>
		<path fill="#FFFFFF" d="M428.2,179.8c-0.1,1-0.6,1.8-1.9,1.6c-1.4-0.2-1.8-1.3-1.7-2.5c0.1-0.9,0.2-2.1,1.6-2.1
			C426.1,178.3,428.5,178,428.2,179.8z"/>
		<path fill="#FFFFFF" d="M277.2,471.5c-1.7-0.2-2.2,1.5-3.8,2.9c0.1-2.4-1.1-4.5,0.9-5.4c1.7-0.7,2.3,1.2,2.7,2.6L277.2,471.5
			L277.2,471.5z"/>
		<path fill="#FFFFFF" d="M558.4,675.6c-1.1-3.6-0.6-7.2,0.6-10.7C558.8,668.5,558.6,672,558.4,675.6z"/>
		<path fill="#FFFFFF" d="M522.7,671.7c-1-0.3-1.7-1.1-1.8-2c-0.1-1,0.4-2,1.6-2.2c1.4-0.2,2.4,0.7,2.4,1.8
			C524.9,670.3,523.8,671.1,522.7,671.7L522.7,671.7z"/>
		<path fill="#FFFFFF" d="M694.4,585.2c1.5-0.9,3.6,0.6,4.6-1.6c0.1-0.2,1.1-0.2,1.4,0.1c0.7,0.6,0.5,1.4,0,2
			c-0.5,0.6-1,1.6-2.1,1.2C697,586.4,695.8,585.8,694.4,585.2L694.4,585.2z"/>
		<path fill="#FFFFFF" d="M625.4,298.8c-2.6-2.2-6-3-8.2-5.4C619.9,295.3,623.8,295.4,625.4,298.8z"/>
		<path fill="#FFFFFF" d="M522.2,169.3c-1.2,0.1-1.9,0.1-2.6,0.2c-1.1,0.1-2.3,0.6-3.1-0.5c-0.5-0.8,0.4-1.3,1-1.7
			c1.2-0.8,2.3-0.9,3.2,0.4C521.1,168.1,521.6,168.5,522.2,169.3L522.2,169.3z"/>
		<path fill="#FFFFFF" d="M678.4,620c-1,1.3-1.7,3-3.5,1.9c-0.8-0.5-1.6-1.8-0.9-2.6C675.5,617.7,676.8,619.9,678.4,620L678.4,620z"
			/>
		<path fill="#FFFFFF" d="M534,211.3c-0.4,1.6-0.9,2.7-2.3,2.7c-1.1-0.1-1.9-0.9-1.7-2c0.2-0.9,0.9-1.8,2.2-1.5
			C533,210.7,534.2,210.3,534,211.3L534,211.3z"/>
		<path fill="#FFFFFF" d="M370.6,639.8c1.1-2.2,1.2-3.9,0.4-5.8c1.1,1.2,2.7,1.6,3.9,2.4C373.8,637.6,373,639,370.6,639.8z"/>
		<path fill="#FFFFFF" d="M733.6,457.8c-0.3,1.4-1.2,1.8-2.2,2c-1.1,0.2-1.8-0.3-1.8-1.3c-0.1-1.2,0.7-2.2,1.9-2.3
			C732.7,456,732.8,457.4,733.6,457.8z"/>
		<path fill="#FFFFFF" d="M705.1,402.8c2.4,0.5,1.4,1.9,1.7,2.8c0.9-0.5,0.9-2,2.5-1.8c-0.3,1.5,0.2,3.7-2.3,3.4
			C703.9,406.7,706.1,404.3,705.1,402.8L705.1,402.8z"/>
		<path fill="#FFFFFF" d="M692.6,274.9c0.1-1.7-2.1-3.3,0.1-4.7c0.8-0.5,1.5-0.3,1.8,0.5C695.3,272.5,695,274,692.6,274.9
			L692.6,274.9z"/>
		<path fill="#FFFFFF" d="M273.3,624.9c-1.4,1-2-0.1-2.1-1.3c-0.1-2,1.9-0.9,2.8-1.5c1.1-0.7,1.9,0.2,2,1.3
			C276.3,625.7,274.5,624.6,273.3,624.9z"/>
		<path fill="#FFFFFF" d="M444.8,178.2c-1.2-1.5-2.1-2.8-3.2-3.9c-0.5-0.5-1.4-0.8-0.3-1.6c0.6-0.4,1.5-0.5,2,0.2
			C444.1,174.4,445.3,175.8,444.8,178.2z"/>
		<path fill="#FFFFFF" d="M427.8,308.3c-0.1-1.5,0.9-2,2-2.2c1-0.1,1.6,0.8,1.6,1.7c0,1-0.7,1.8-1.9,1.8
			C428.5,309.7,427.7,309.6,427.8,308.3L427.8,308.3z"/>
		<path fill="#FFFFFF" d="M692.5,265c0.1,1.2-0.1,2.4-1.5,2.6c-0.9,0.1-1.5-0.9-1.5-1.8c0-1.3,0.5-2.7,1.7-3
			C692.4,262.6,692.4,264,692.5,265L692.5,265z"/>
		<path fill="#FFFFFF" d="M253.3,646c2.8-1.4,5-2.5,7.2-3.6c0.7-0.4,1.2-0.2,1.4,0.6c0.3,1.5-0.6,0.5-1.1,0.6
			C258.6,644.3,256.9,646.6,253.3,646L253.3,646z"/>
		<path fill="#FFFFFF" d="M741.6,326.8c1.1,0.1,1.8,0.5,1.9,1.7c0.1,1.3-0.6,2.3-1.8,2.3c-1.5,0.1-1.4-1.5-1.7-2.4
			C739.8,327.5,740.6,326.9,741.6,326.8L741.6,326.8z"/>
		<path fill="#FFFFFF" d="M692.4,294.5c-0.1,1.3-0.8,2-1.8,2.2c-1.1,0.1-1.5-0.8-1.6-1.6c-0.1-0.9,0.5-1.6,1.6-1.6
			C691.4,293.4,692.3,293.5,692.4,294.5z"/>
		<path fill="#FFFFFF" d="M346.3,616.7c2.2,0.9,4,2.2,5.1,5C348.5,620.8,347,619.2,346.3,616.7z"/>
		<path fill="#FFFFFF" d="M668.7,574.3c0.8-3.5,2.7-6.4,4.8-9.2C672.5,568.5,670.9,571.6,668.7,574.3z"/>
		<path fill="#FFFFFF" d="M674.9,364.5c2.7,3.5,2.5,3.9-1.5,4.5C672.9,367.1,675.3,366.2,674.9,364.5z"/>
		<path fill="#FFFFFF" d="M418.7,306c-0.4,1.7-1.8,1.7-3.1,1.7c-0.6,0-1.4-0.2-1.1-1c0.5-1.3,1.9-1.9,3.2-2.2
			C418.6,304.3,418.8,305.1,418.7,306L418.7,306z"/>
		<path fill="#FFFFFF" d="M198.9,532.1c-1.1-0.3-1.9-1-1.9-2c0-1,1-1.3,1.9-1.3c1.1,0,2.2,0.9,2.2,1.7
			C201.2,531.6,199.6,531.5,198.9,532.1L198.9,532.1z"/>
		<path fill="#FFFFFF" d="M466.8,677.7c1.5,3.1-0.2,4.3-1.9,6.2C464.9,681.3,465.5,679.8,466.8,677.7z"/>
		<path fill="#FFFFFF" d="M607.8,689.1c-0.7,0.9-1.6,1-2,0c-0.3-1,0.8-0.5,1.2-0.7C607.1,688.9,607.2,689.2,607.8,689.1z"/>
		<path fill="#FFFFFF" d="M607.7,689.2l0.1-0.8C608.7,688.8,608.2,689,607.7,689.2z"/>
	</g>
</g>
<g>
	<path fill="#FFFFFF" d="M237.3,116.5c-5.9,2.3-7.9,6.2-5.9,11.7c-2.7,1.1-5.4,2.2-8.1,3.3c-1.8-4.8-1.8-9,0.1-12.8
		c1.9-3.8,5.7-6.8,11.3-8.9c5.3-2,10.7-4,16.1-5.9c0.8,2.3,1.6,4.5,2.4,6.8C247.8,112.5,242.5,114.5,237.3,116.5z M242.3,155.7
		c2.4,5.9,6.4,7.7,12,5.5c4.9-1.9,9.7-3.6,14.6-5.4c0.8,2.3,1.6,4.5,2.4,6.8c-4.9,1.7-9.7,3.5-14.6,5.3c-5.3,2-9.7,2.2-13.5,0.7
		c-3.8-1.6-6.7-4.8-8.8-9.8c-3.3-8.1-6.7-16.2-10-24.3c2.3-2,4.6-4.1,7-6.1C235.1,137.5,238.7,146.6,242.3,155.7z"/>
	<path fill="#FFFFFF" d="M268.7,131.3c-0.6-1.8-0.8-3.6-0.7-5.4c0.1-1.8,0.7-3.6,1.6-5.2c0.9-1.6,2.3-3.1,4-4.5
		c1.8-1.3,4-2.4,6.6-3.3c1.4-0.4,2.7-0.8,4.1-1.3c0.7,2.2,1.3,4.4,2,6.6c-1.4,0.4-2.7,0.8-4.1,1.2c-2.7,0.8-4.5,2.2-5.5,3.9
		c-1,1.8-1.1,3.6-0.5,5.4c3.1,9.7,6.3,19.4,9.4,29c-2.4,0.8-4.8,1.6-7.2,2.4C275.2,150.6,272,140.9,268.7,131.3z"/>
	<path fill="#FFFFFF" d="M315.9,142.3c2.7-0.7,4.5-1.8,5.6-3.4c1.1-1.6,1.4-3.2,1-4.9c-1.3-5.1-2.5-10.1-3.8-15.2
		c2.3-1.6,4.6-3.3,6.9-4.9c1.4,6.1,2.9,12.2,4.3,18.3c0.4,1.7,0.5,3.5,0.1,5.2c-0.3,1.8-1,3.4-2,4.8c-1,1.5-2.4,2.8-4.2,4
		c-1.8,1.2-3.9,2.1-6.3,2.7c-2.5,0.7-4.8,0.9-6.9,0.8c-2.1-0.2-3.9-0.6-5.5-1.4c-1.6-0.8-3-1.8-4.1-3.2c-1.1-1.4-2-2.9-2.5-4.6
		c-1.8-6-3.5-12.1-5.3-18.1c-0.5-1.7-0.6-3.4-0.4-5.2c0.3-1.8,0.9-3.4,1.9-5c1-1.5,2.5-2.9,4.3-4.2c1.8-1.2,4.1-2.2,6.8-2.9
		c2.6-0.7,5.1-1,7.3-0.8c2.2,0.2,4.2,0.7,5.9,1.5c1.7,0.8,3,1.9,4.1,3.4c1.1,1.4,1.8,3,2.3,4.7c-2.6,0.6-5.1,1.2-7.7,1.9
		c-0.4-1.7-1.5-2.9-3.2-3.8c-1.7-0.9-4.1-0.9-6.9-0.2c-2.9,0.8-4.8,2-5.9,3.6c-1.1,1.6-1.4,3.3-0.9,4.9c1.7,6.1,3.4,12.1,5.1,18.2
		c0.5,1.7,1.5,2.9,3.3,3.8C311,142.9,313.2,143,315.9,142.3z"/>
	<path fill="#FFFFFF" d="M382.6,90.1c-2,15.2-3.7,30.5-5.2,45.7c-2.1,0.3-4.3,0.7-6.4,1c-3.7-8.6-7.6-17.2-11.5-25.7
		c-0.2-0.6-0.4-1.1-0.5-1.6c-0.1-0.5-0.3-1.1-0.4-1.6c0,0.6,0.1,1.2,0.2,1.7c0.1,0.5,0.1,1.1,0.1,1.7c-0.7,9.4-1.3,18.8-1.8,28.1
		c-2.1,0.4-4.2,0.8-6.3,1.3c-6.7-13.8-13.7-27.4-20.9-41c2.6-0.6,5.2-1.2,7.9-1.7c4.2,8.4,8.4,16.9,12.4,25.3
		c0.3,0.6,0.5,1.2,0.6,1.8c0.1,0.6,0.3,1.2,0.6,1.8c0-0.7,0-1.3-0.1-1.9c-0.1-0.6-0.1-1.2-0.1-1.9c0.5-9.4,1.1-18.8,1.8-28.2
		c2.3-0.4,4.6-0.8,6.9-1.2c3.9,8.6,7.8,17.1,11.5,25.8c0.2,0.6,0.4,1.2,0.6,1.8c0.2,0.6,0.4,1.2,0.6,1.8c0-0.7-0.1-1.3-0.2-1.9
		c-0.1-0.6-0.1-1.2-0.1-1.9c0.8-9.4,1.7-18.7,2.8-28.1C377.4,90.9,380,90.5,382.6,90.1z"/>
	<path fill="#FFFFFF" d="M415.9,93.3c-3,0.3-6.1,0.5-9.1,0.8c-2.8,0.3-4.8,1.3-6.1,3c-1.3,1.7-1.7,3.7-1.5,5.9
		c0.6,4.9,1.1,9.8,1.7,14.7c0.2,2.2,1.1,4,2.7,5.4c1.5,1.4,3.6,2,6.3,1.7c2.9-0.3,5.8-0.6,8.6-0.8c-1.7-19.9-3.4-39.8-5.1-59.7
		c2.8-0.2,5.5-0.5,8.3-0.7c1.6,22.2,3.3,44.4,4.9,66.6c-5.3,0.4-10.7,0.9-16,1.4c-2.6,0.3-4.8,0.1-6.8-0.5c-2-0.6-3.7-1.5-5.2-2.6
		c-1.4-1.2-2.6-2.6-3.5-4.3c-0.9-1.7-1.5-3.6-1.7-5.6c-0.6-4.9-1.2-9.8-1.9-14.7c-0.3-2-0.1-3.9,0.3-5.8c0.5-1.9,1.3-3.6,2.5-5.1
		c1.2-1.5,2.8-2.8,4.7-3.8c2-1,4.3-1.7,7.1-2c1.8-0.2,3.7-0.4,5.5-0.5C413.1,89,414.5,91.2,415.9,93.3z"/>
	<path fill="#FFFFFF" d="M446.8,109.6c-1.2-2.2-2.5-4.4-3.7-6.6c0.2,4.4,0.4,8.7,0.6,13.1c0.1,1.8,0.8,3.2,2.2,4.4
		c1.4,1.2,3.4,1.7,6.2,1.6c4.6-0.1,9.3-0.2,13.9-0.3c0,2.3,0,4.6,0.1,6.9c-4.6,0-9.2,0.1-13.8,0.3c-2.6,0.1-4.8-0.2-6.8-0.8
		c-1.9-0.6-3.6-1.5-5-2.6c-1.4-1.1-2.4-2.5-3.2-4c-0.8-1.6-1.2-3.3-1.3-5.1c-0.4-6.3-0.7-12.6-1.1-18.9c-0.1-1.8,0.2-3.5,0.8-5
		c0.6-1.6,1.6-3,2.9-4.2c1.3-1.2,3-2.2,5-3c2-0.8,4.4-1.2,7.2-1.3c2.6-0.1,5,0.2,7,0.8c2,0.6,3.7,1.4,5.1,2.5
		c1.4,1.1,2.4,2.3,3.1,3.8c0.7,1.4,1.1,3,1.1,4.7c0,4.5,0,9,0.1,13.4C460.4,109.2,453.6,109.3,446.8,109.6z M443.1,103
		c5.4-0.2,10.9-0.4,16.3-0.5c0-2.2-0.1-4.4-0.1-6.7c0-1.4-0.7-2.6-2.1-3.6c-1.4-1-3.4-1.4-6.1-1.4c-2.9,0.1-5,0.8-6.3,2
		c-1.4,1.2-2,2.7-1.9,4.3C442.9,99.1,443,101,443.1,103z"/>
	<path fill="#FFFFFF" d="M502.5,91.8c-3-0.2-6.1-0.3-9.1-0.4c-2.8-0.1-4.9,0.6-6.4,2.2c-1.5,1.5-2.2,3.4-2.3,5.6
		c-0.1,4.9-0.2,9.8-0.3,14.8c0,2.2,0.6,4.1,1.9,5.7c1.3,1.6,3.3,2.4,6,2.5c2.9,0.1,5.8,0.2,8.7,0.4c1-19.9,2-39.9,3-59.8
		c2.8,0.1,5.5,0.3,8.3,0.5c-1.4,22.2-2.8,44.4-4.2,66.6c-5.3-0.3-10.7-0.6-16-0.8c-2.6-0.1-4.8-0.6-6.7-1.4
		c-1.9-0.8-3.5-1.9-4.8-3.3c-1.3-1.4-2.2-2.9-2.9-4.8c-0.6-1.8-1-3.7-0.9-5.8c0-4.9,0.1-9.8,0.1-14.8c0-2,0.4-3.9,1.1-5.7
		c0.7-1.8,1.8-3.4,3.2-4.7c1.4-1.3,3.1-2.3,5.2-3.1c2.1-0.8,4.5-1.1,7.3-1c1.9,0.1,3.7,0.1,5.6,0.2
		C500.3,87.1,501.4,89.4,502.5,91.8z"/>
	<path fill="#FFFFFF" d="M540.2,77.3c-6.2-0.7-9.7,2-10.5,7.7c-2.9-0.3-5.7-0.5-8.6-0.7c0.5-5.1,2.5-8.9,5.9-11.4
		c3.4-2.4,8.1-3.4,13.9-2.8c5.6,0.6,11.2,1.3,16.8,2c-0.3,2.4-0.6,4.8-0.9,7.1C551.2,78.5,545.7,77.8,540.2,77.3z M553.6,117.5
		c-0.7,5.4-2.8,9.2-6.1,11.7c-3.3,2.5-7.7,3.4-13.2,2.8c-5.4-0.6-10.8-1.1-16.3-1.5c0.2-2.4,0.4-4.8,0.6-7.2
		c5.5,0.4,11,0.9,16.4,1.5c3,0.3,5.3-0.2,7.1-1.5c1.7-1.3,2.8-3.6,3.2-6.7c0.2-1.9,0.1-3.6-0.3-4.8c-0.4-1.3-1.1-2.4-2.1-3.3
		c-0.9-0.9-2.1-1.7-3.4-2.3c-1.4-0.6-2.8-1.3-4.3-1.9c-1.7-0.7-3.4-1.5-5.1-2.3c-1.7-0.8-3.3-1.9-4.6-3.1c-1.4-1.2-2.5-2.7-3.4-4.5
		c-0.9-1.8-1.3-4-1.3-6.7c2.9-0.8,5.8-1.5,8.7-2.3c0,0.1,0,0.3,0,0.4c-0.2,2,0,3.6,0.5,4.9c0.5,1.3,1.3,2.3,2.2,3.2
		c1,0.9,2.1,1.6,3.5,2.2c1.3,0.6,2.8,1.2,4.2,1.8c2,0.9,3.9,1.8,5.7,2.9c1.8,1,3.4,2.3,4.7,3.8c1.3,1.5,2.3,3.3,2.9,5.4
		C553.9,112.1,554,114.6,553.6,117.5z"/>
	<path fill="#FFFFFF" d="M569.1,129.8c-1.6,9.6-3.2,19.1-4.7,28.7c-2.4-0.4-4.7-0.8-7.1-1.1c3.3-22,6.7-44,10-66
		c5.7,0.9,11.3,1.8,16.9,2.8c2.7,0.5,5.1,1.3,7,2.3c1.9,1.1,3.4,2.3,4.5,3.8c1.1,1.5,1.9,3.1,2.2,4.8c0.4,1.7,0.4,3.4,0,5.2
		c-1.2,5.9-2.4,11.9-3.7,17.8c-0.4,1.7-1,3.3-2,4.8c-1,1.4-2.2,2.6-3.7,3.6c-1.5,0.9-3.3,1.6-5.3,1.9c-2,0.3-4.3,0.2-6.8-0.2
		c-1.7-0.3-3.4-0.6-5-0.9C570.7,134.7,569.9,132.3,569.1,129.8z M569.1,129.8c2.8,0.5,5.7,1,8.5,1.5c2.7,0.5,4.8,0.2,6.4-0.7
		c1.6-1,2.5-2.3,2.8-4c1.1-5.9,2.3-11.9,3.4-17.8c0.3-1.7-0.1-3.3-1.2-4.8c-1.1-1.5-3.1-2.5-6-3c-3-0.5-5.9-1-8.9-1.5
		C572.5,109.6,570.8,119.7,569.1,129.8z"/>
	<path fill="#FFFFFF" d="M602.8,130.7c0.5-2.1,1.3-3.9,2.5-5.3c1.2-1.4,2.6-2.4,4.2-3.2c1.6-0.8,3.4-1.2,5.3-1.4
		c1.9-0.2,3.9-0.2,5.9,0c2,0.2,3.9,0.4,5.9,0.7c0.5,2.3,1,4.7,1.4,7c-2.6-0.3-5.2-0.5-7.8-0.7c-2.3-0.2-4.4,0-6.3,0.6
		c-1.9,0.6-3.1,2-3.6,4.2c-0.2,0.8-0.3,1.6-0.3,2.3c0,0.7,0.2,1.4,0.6,2c0.4,0.6,1.1,1.2,1.9,1.7c0.9,0.5,2.1,1,3.6,1.3
		c2.8,0.7,5.1,0.5,6.8-0.5c1.8-1,2.9-2.5,3.4-4.5c1.5-5.6,2.9-11.2,4.4-16.8c0.4-1.7,0.2-3.3-0.8-4.8c-1-1.5-2.7-2.6-5-3.2
		c-4.5-1.1-9-2.2-13.4-3.2c0.5-2.2,1-4.5,1.5-6.7c4.5,1,9.1,2.1,13.6,3.2c2.4,0.6,4.5,1.5,6.3,2.7c1.7,1.2,3.1,2.5,4,4
		c1,1.5,1.5,3.1,1.8,4.9c0.2,1.7,0.1,3.4-0.4,5.2c-2.8,10.1-5.5,20.1-8.3,30.2c-1.7-0.5-3.3-0.9-5-1.3c0-1,0-2.1-0.1-3.1
		c-3,1.6-6.6,1.9-10.9,0.8c-2.7-0.7-4.9-1.5-6.5-2.5c-1.6-1-2.9-2.2-3.7-3.6c-0.8-1.3-1.3-2.8-1.4-4.5
		C602.2,134.3,602.4,132.6,602.8,130.7z"/>
	<path fill="#FFFFFF" d="M648,122.4c0.6-1.7,1.5-3.1,2.7-4.4c1.2-1.3,2.6-2.2,4.3-3c1.7-0.7,3.6-1.1,5.7-1.2c2.1-0.1,4.5,0.3,7,1.1
		c3.9,1.2,7.7,2.5,11.6,3.8c-0.7,2.2-1.5,4.3-2.2,6.5c-3.8-1.3-7.6-2.6-11.5-3.8c-2.4-0.8-4.5-0.8-6.2-0.2c-1.7,0.7-2.9,1.8-3.7,3.3
		C653.1,123.9,650.6,123.1,648,122.4z M655.7,124.8c-0.1,0.2-0.3,0.5-0.4,1c-1.6,5.3-3.2,10.6-4.9,15.8c-0.6,1.9-0.4,3.7,0.5,5.4
		c0.9,1.7,2.6,3,5.2,3.8c3.6,1.2,7.3,2.4,10.9,3.6c-0.7,2.2-1.5,4.3-2.2,6.5c-3.6-1.2-7.2-2.4-10.8-3.6c-2.5-0.8-4.5-1.8-6.2-3.1
		c-1.6-1.3-2.9-2.7-3.8-4.3c-0.9-1.6-1.4-3.3-1.6-5.1c-0.2-1.8,0-3.6,0.5-5.5c1.4-4.6,2.7-9.3,4.1-13.9
		C649.9,125.2,652.8,125,655.7,124.8z"/>
	<path fill="#FFFFFF" d="M688.2,148.7c-0.3-2.5-0.6-5-0.9-7.6c-1.5,4.1-3,8.2-4.5,12.3c-0.6,1.7-0.5,3.3,0.4,4.9
		c0.8,1.6,2.6,2.9,5.2,3.9c4.4,1.7,8.8,3.4,13.2,5.2c-0.9,2.1-1.7,4.2-2.6,6.3c-4.3-1.8-8.7-3.5-13-5.2c-2.4-0.9-4.5-2.1-6-3.4
		c-1.6-1.3-2.8-2.8-3.6-4.3c-0.8-1.6-1.3-3.2-1.4-4.9c-0.1-1.7,0.2-3.5,0.8-5.2c2.1-6,4.2-11.9,6.3-17.9c0.6-1.7,1.5-3.1,2.7-4.3
		c1.2-1.2,2.6-2.1,4.3-2.7c1.7-0.6,3.7-0.9,5.9-0.8c2.2,0.1,4.6,0.6,7.2,1.6c2.5,1,4.6,2.1,6.3,3.5c1.7,1.3,3,2.8,3.8,4.3
		c0.9,1.5,1.3,3.1,1.4,4.7c0.1,1.6-0.2,3.2-0.8,4.7c-1.7,4.1-3.4,8.3-5.1,12.4C701.2,153.6,694.7,151.1,688.2,148.7z M687.3,141.1
		c5.2,1.9,10.4,3.9,15.5,6c0.8-2.1,1.7-4.1,2.5-6.2c0.5-1.3,0.3-2.7-0.6-4.2c-0.9-1.4-2.7-2.7-5.2-3.6c-2.7-1-5-1.3-6.7-0.6
		c-1.7,0.6-2.9,1.7-3.4,3.2C688.7,137.4,688,139.3,687.3,141.1z"/>
</g>
</svg>
