<?xml version="1.0" encoding="utf-8"?>
<!-- Generator: Adobe Illustrator 26.3.1, SVG Export Plug-In . SVG Version: 6.00 Build 0)  -->
<svg version="1.1" xmlns="http://www.w3.org/2000/svg" xmlns:xlink="http://www.w3.org/1999/xlink" x="0px" y="0px"
	 viewBox="0 0 286.2 387.6" enable-background="new 0 0 286.2 387.6" xml:space="preserve">
<g id="Layer_3">
</g>
<g id="Layer_2_00000103233156405173862630000002047683557884319137_">
	<g id="Layer_2-2">
		<path fill="#FFFFFF" d="M219.8,266c0,0,2.5-44.6-4.2-117.5C208.9,75.6,143.1,2.2,143.1,2.2S77.3,75.6,70.6,148.5
			C63.9,221.4,66.4,266,66.4,266L1.5,346.7V377h107.2l15.5,7.8l-3.4-13.3h44.5l-3.4,13.3l15.5-7.8h107.3v-30.4L219.8,266z
			 M143.1,60.4c20.7,0,37.5,16.8,37.5,37.5s-16.8,37.5-37.5,37.5c-20.7,0-37.5-16.8-37.5-37.5S122.4,60.4,143.1,60.4z M183.5,256.2
			h-15.6v101.1h-49.6V256.2h-15.6v-97h80.8V256.2z"/>
		<circle fill="#FFFFFF" cx="143.1" cy="97.9" r="21.4"/>
		<line fill="#FFFFFF" stroke="#FFFFFF" stroke-width="3" stroke-miterlimit="10" x1="132.3" y1="310.9" x2="153.9" y2="310.9"/>
		<line fill="#FFFFFF" stroke="#FFFFFF" stroke-width="3" stroke-miterlimit="10" x1="132.3" y1="322.5" x2="153.9" y2="322.5"/>
		<line fill="#FFFFFF" stroke="#FFFFFF" stroke-width="3" stroke-miterlimit="10" x1="132.3" y1="334" x2="153.9" y2="334"/>
		<line fill="#FFFFFF" stroke="#FFFFFF" stroke-width="3" stroke-miterlimit="10" x1="132.3" y1="299.6" x2="153.9" y2="299.6"/>
		<line fill="#FFFFFF" stroke="#FFFFFF" stroke-width="3" stroke-miterlimit="10" x1="132.3" y1="227.9" x2="153.9" y2="227.9"/>
		<line fill="#FFFFFF" stroke="#FFFFFF" stroke-width="3" stroke-miterlimit="10" x1="132.3" y1="216.5" x2="153.9" y2="216.5"/>
		<line fill="#FFFFFF" stroke="#FFFFFF" stroke-width="3" stroke-miterlimit="10" x1="132.3" y1="204.8" x2="153.9" y2="204.8"/>
		<line fill="#FFFFFF" stroke="#FFFFFF" stroke-width="3" stroke-miterlimit="10" x1="132.3" y1="193.5" x2="153.9" y2="193.5"/>
	</g>
</g>
</svg>
