<?xml version="1.0" encoding="utf-8"?>
<!-- Generator: Adobe Illustrator 26.3.1, SVG Export Plug-In . SVG Version: 6.00 Build 0)  -->
<svg version="1.1" id="Layer_2_00000180332626668985947190000006780296403998032272_"
	 xmlns="http://www.w3.org/2000/svg" xmlns:xlink="http://www.w3.org/1999/xlink" x="0px" y="0px" viewBox="0 0 401.2 318.1"
	 enable-background="new 0 0 401.2 318.1" xml:space="preserve">
<g id="Layer_1-2">
	<g>
		<path fill="#FFFFFF" d="M52,283c-2.7,0.4-4.2-1-5.6-2.9c-3.7-4.8-9-7.9-13.3-12c-1.5-1.4-2.6,0.3-3.4,1.2
			c-3.7,3.9-7.3,7.9-11,11.8c-6.6,7-15.4,5.4-18.1-3.3c-1.3-4.1,0.1-7.3,3-10.2c7.2-7.1,14.4-14.3,21.5-21.4c3-3,5.8-6.2,9-9.1
			c2.2-2,1.9-3.1-0.1-5c-8.9-8.6-17.6-17.3-26.3-26.1c-4.7-4.7-4.5-9.1,0.3-13.5c12.6-11.6,24.9-23.5,36.7-35.9
			c3.9-4,8.7-4.2,12.6-0.3c8.7,8.6,17.2,17.4,25.7,26.2c1.5,1.5,2,1,2.7-0.3c1.8-3.4,4.3-6.1,8.1-7.4c0.9-0.3,1.3-0.9,1.6-1.9
			c2.5-9.8,7.9-11.6,15.5-4.8c1.2-3.3,2.7-6.2,6.3-7.4c3.9-1.2,7-0.5,9,3.1c4.2,7.4,10.1,13.3,17.2,17.9c0.9,0.6,1.7,1.4,1.3,2.4
			c-1.2,2.8,0.5,4.7,1.6,6.9c2.1,3.9,0.3,9.3-4.2,11.9c-3.3,1.9-5.4,3.7-3.9,7.9c0.7,2.1-1.2,4-2.6,5.5c-1.4,1.5-2.2,3-1.1,5
			c0.6,1.1,0.4,2.4-0.4,3.2c-2.4,2.2-1,3.6,0.7,5c8.1,7.1,15.2,15.1,22.8,22.7c5.2,5.2,5,8.5-0.2,13.5
			c-12.3,11.9-25.1,23.3-35.9,36.6c-3.1,3.8-7.3,4.3-11.3,1c-4.1-3.4-7.8-7.4-11.6-11.2c-4-3.9-8.1-7.8-12.1-11.8
			c-1.8-1.8-2.9-1.8-4.8,0.2c-10.3,11-20.8,21.9-31.3,32.8c-5.1,5.3-11.5,6.3-15.6,2.5c-4.5-4.2-4.3-10.3,0.9-16
			C40.8,294,46.5,288.6,52,283L52,283z M126.4,233.8c-1.3,0-1.9,0.8-2.5,1.3c-1.2,1.1-2.4,2.2-3.6,3.2c-5.6,5.1-11.3,10.2-16.4,15.8
			c-1.4,1.6-2,2.8-0.1,4.7c7.3,7.2,14.3,14.5,21.5,21.8c0.8,0.9,1.7,1.5,2.8,0.3c7.2-7.2,15-13.8,21.7-21.6c1.3-1.5,0.7-2.3-0.4-3.4
			c-6.9-6.8-13.8-13.6-20.8-20.4C128,235,127.1,234.3,126.4,233.8L126.4,233.8z M74.9,186.8c-0.8-1-1-1.3-1.2-1.5
			c-6.4-7-13.1-13.6-20.2-19.9c-1.9-1.7-3.4-1.7-5.2,0c-6.7,6.3-13.3,12.8-19.6,19.5c-0.9,1-0.9,1.6,0,2.5
			c6.5,6.9,13.2,13.6,20.1,20.1c1.2,1.1,2,1,3.1-0.1c7-6.7,14.2-13.3,21.3-19.9C73.7,187.2,74.4,187.1,74.9,186.8L74.9,186.8z
			 M120.2,227.6c-0.3-0.4-0.5-0.7-0.7-1c-6.5-6.2-13-12.3-19.5-18.5c-1.4-1.3-2.6-0.8-3.6,0.3c-6.3,7-13.7,13.1-19.7,20.5
			c-0.9,1.1-0.9,1.4,0.1,2.6c5.2,6.8,12.2,11.8,17.5,18.4c1.2,1.5,2,1.1,3.2-0.1c7.2-7.1,14.4-14.1,21.6-21.2
			C119.5,228.3,119.8,228,120.2,227.6L120.2,227.6z M80.8,266.7c1,0,1.4-0.5,1.7-1c1.4-1.8,3.2-3.1,4.9-4.5c3.9-3.1,3.9-3.5,0.2-7.1
			c-1.4-1.4-2.7-2.9-4.1-4.3c-9.1-9.2-18.2-18.4-27.3-27.7c-1.5-1.5-2.4-1.5-2.9,0.8c-0.7,3-2.5,5.2-5.4,6.2c-2.8,1-2.3,2.2-0.6,3.9
			c3.3,3.3,6.5,6.8,9.8,10.2c7.2,7.4,13.7,15.5,21.7,22.1C79.5,265.9,80.2,266.4,80.8,266.7L80.8,266.7z M92.6,203
			c-0.1-1.7-0.8-2.2-1.4-2.9c-2.3-2.3-4.7-4.5-6.8-7c-1.6-1.9-2.8-1.7-4.6-0.2c-7.2,5.7-13.2,12.5-19.8,18.8c-1,1-1.2,1.5-0.1,2.6
			c3.1,3.1,6,6.3,8.9,9.6c1,1.1,1.4,1.6,2.8,0.1c6.5-6.9,13.1-13.7,19.8-20.4C91.8,203.3,92.5,203.1,92.6,203L92.6,203z M68.7,264.6
			c-0.5-0.6-0.9-1.2-1.4-1.7c-4.7-4.8-9.5-9.6-14.2-14.5c-1.5-1.6-2.6-0.9-3.7,0.3c-3.6,3.7-7.2,7.3-10.7,11
			c-1.1,1.1-1.5,2.3-0.2,3.6c4.7,4.5,8.8,9.6,13.7,13.8c1.7,1.5,3.1,1.6,4.8-0.2c3.5-3.8,7.1-7.4,10.6-11.1
			C67.9,265.5,68.2,265.1,68.7,264.6L68.7,264.6z M103.7,178c-2.3,1.3-4.8,2.6-6.1,5.1c-1,1.9-0.8,3.8,0.7,5.6
			c7.1,8.9,15.8,16.2,23.2,24.8c0.9,1,1.8,1.4,2.5-0.3c1.1-2.9,2.9-5.2,5.1-7.3c1.6-1.5,1.3-2.8-0.3-4.3
			c-7.1-6.6-13.9-13.6-20.5-20.8C107,179.5,105.6,178.7,103.7,178L103.7,178z M21.3,192.3c-2,0.7-3.4,2-4.4,3.5
			c-1,1.4,0.6,2.3,1.4,3.1c6.1,6.2,12.3,12.3,18.5,18.4c0.8,0.8,2.1,2.9,3,0.6c0.8-1.8,5.1-2.6,1.7-5.9
			c-6.3-6.1-12.3-12.3-18.5-18.5C22.5,193,21.8,192.7,21.3,192.3L21.3,192.3z M120.8,287.9c-0.8-1-1.2-1.5-1.6-1.9
			c-6.3-6.3-12.7-12.7-19.1-18.9c-0.7-0.7-1.5-2.4-3-0.9c-2.6,2.6-2.6,4.9-0.1,7.7c5.2,5.5,10.4,11,15.7,16.5
			c0.8,0.9,1.4,2.9,3.1,1.7C117.6,290.9,119.1,289.4,120.8,287.9L120.8,287.9z M135.5,187.9c0.2-1-0.3-1.5-0.9-2.1
			c-4.3-4.3-8.6-8.7-13-13c-0.8-0.8-1.9-1.9-3.3-0.7c-1.3,1.1-1,2.4-0.1,3.7c0.5,0.7,1,1.5,1.6,2.1c3.8,3.9,7.7,7.9,11.5,11.8
			c0.6,0.6,1.1,1.6,2.1,1.1C134.6,190.2,135.1,189,135.5,187.9L135.5,187.9z"/>
		<path fill="#FFFFFF" d="M292.6,167.9c1.6-1,2.5-2.6,4.3-3.2c5-1.6,9.1,0.3,10.7,5.8c0.8,2.7,2.1,4.7,4.7,5.8
			c2,0.9,3.4,2.6,4.3,4.6c1.2,3,2.6,2.6,4.7,0.8c9.1-7.4,17-16.2,25.2-24.6c4.6-4.8,9-5.2,13.5-0.4c10.9,11.7,22.4,22.8,33.4,34.4
			c5.3,5.6,5.4,10.4-0.2,15.6c-8.7,8.1-16.9,16.6-25.1,25c-0.4,0.4-0.9,0.9-1.5,1.1c-2.7,0.9-1.7,2-0.4,3.4
			c8.6,8.5,17.2,17.1,25.8,25.6c2.3,2.3,4.6,4.6,6.7,7c3.7,4.4,3.2,10.5-1.1,14.5c-3.9,3.6-8.3,3.2-12.9-1.1
			c-4.8-4.6-9.6-9.1-14.3-13.7c-2-2-3.5-2.1-5.5,0c-3.6,3.7-7.3,7.2-11.2,10.5c-2.4,2.1-2.2,3.8-0.1,5.9c5,5.1,10,10.2,14.8,15.3
			c2.8,3,4.1,6.4,2.5,10.6c-2.5,6.5-10.3,8.6-15.2,3.8c-10.6-10.4-21.1-20.9-31.6-31.4c-0.8-0.8-2-1.3-2.5-2.2
			c-2.4-4.6-4.4-2.8-7.1-0.1c-6.7,6.6-13.2,13.2-19.4,20.3c-5,5.8-9.2,5.5-14.5-0.2c-11.6-12.4-23.5-24.5-35.9-36.1
			c-4.4-4.2-4.8-8.5-0.3-12.6c8-7.5,15.2-15.8,23.6-23c0.5-0.4,1.4-1.1,1.3-1.2c-2.3-3.8,1.2-8.4-1.8-12.1c-2.1-2.5-4.1-5-2.5-8.8
			c0.8-1.8-0.9-2.8-2.5-3.5c-7.7-3.4-9.2-8.7-4.7-15.9c0.2-0.3,0.6-0.7,0.6-0.9c-1.3-5.2,3.4-6.7,6-9.3c4-4.1,8.2-8,11.7-12.6
			c5-6.7,11.1-6.3,15.4,0.9C291.9,166.6,292.2,167.2,292.6,167.9L292.6,167.9z M274.6,234.5c-0.2,0.2-0.7,0.4-1.1,0.7
			c-7,6.8-13.9,13.6-20.9,20.4c-1.4,1.4-1.1,2.4,0.2,3.7c6.8,6.8,13.5,13.6,20.2,20.5c1.3,1.4,1.8,0.7,2.9-0.3
			c6.8-6.3,13.3-12.8,19.6-19.5c1.8-1.9,2-2.7,0.2-4.6c-6.4-6.4-13.1-12.6-19.1-19.6C276.1,235.2,275.7,234.5,274.6,234.5
			L274.6,234.5z M352.3,163.9c-0.4,0.3-0.9,0.6-1.4,1c-7.7,6.4-14.4,13.8-21.4,21c-1,1-0.6,1.6,0.2,2.5c5.7,6.8,12.2,12.8,18.3,19.2
			c1,1.1,1.9,1.3,3.1,0.2c7.3-7.1,14.7-14.2,22.1-21.3c1-0.9,1.2-1.6,0-2.7c-6.4-6.2-12.6-12.4-18.9-18.7
			C353.9,164.4,353.4,163.8,352.3,163.9L352.3,163.9z M324.1,230c-0.2-0.2-0.4-0.7-0.8-1c-6.5-7.1-13-14.1-20.3-20.4
			c-1.5-1.3-1.9,0.1-2.6,0.8c-5.8,5.8-11.2,12.1-17.9,16.9c-1.6,1.1-1,1.9-0.1,3c2.2,2.4,4.4,4.8,6.6,7.1c4.2,4.4,8.5,8.8,12.8,13.1
			c0.6,0.6,1.1,2.1,2.6,0.6c6.2-6.1,12.5-12.2,18.7-18.2C323.7,231.3,324.3,231,324.1,230L324.1,230z M317.4,266
			c0.4-0.3,1-0.8,1.6-1.3c1.5-1.3,2.9-2.7,4.4-4c9.9-8.8,19.4-18,28.7-27.3c1.6-1.6,3.5-3.4-0.8-4.4c-1.3-0.3-2.2-2.3-3.6-3
			c-1.9-1-0.8-4.9-3.4-4.3c-1.7,0.4-3.1,2.8-4.6,4.2c-9.2,8.9-18.4,17.8-27.7,26.7c-2.4,2.4-3.6,4.5-0.3,7.2c1.6,1.3,2.7,3.3,4,4.9
			C316.3,265.3,316.5,265.9,317.4,266L317.4,266z M279.6,214.4c8.1-7.7,16-15.2,24-22.8c4.7-4.5,4.7-4.6,0.2-9.6
			c-0.3-0.4-0.7-0.7-1-1.1c-3.7-3.7-4.2-3.8-7.8-0.2c-7,6.9-13.9,14-21,20.8c-1.4,1.4-0.8,2.3-0.2,3.6
			C275.4,208.7,278.5,211.4,279.6,214.4L279.6,214.4z M330.4,226c0.2-0.5,0.3-1.1,0.6-1.5c2.5-3.1,5.4-5.8,8.6-8.3
			c1.9-1.5,2.1-2.6,0.4-4.5c-5.8-6.5-12.6-12-18.6-18.3c-1.5-1.6-2.6-0.9-3.6,0.5c-2,2.7-4.3,5.2-7.2,7c-2.1,1.3-1.9,2.3-0.5,4.1
			c5.6,7,12.4,13,18.6,19.5C329.1,224.8,329.5,225.1,330.4,226L330.4,226z M363.2,262.5c-0.3-0.4-0.5-0.9-0.8-1.2
			c-4.3-4.3-8.7-8.6-13-13c-0.7-0.7-1.1-1-2,0.1c-4,4.4-8.1,8.8-12.4,13c-1.4,1.4-1.7,2.5-0.4,4.1c3.5,4.4,7.6,8.3,11.6,12.2
			c0.5,0.4,1.1,1.4,1.8,0.4c4.1-5.4,10.2-8.8,14.2-14.3C362.5,263.4,362.8,263,363.2,262.5L363.2,262.5z M384.2,195
			c-1.3-1.4-2.6-3.2-4.3-4.4c-1.5-1.1-2.3,0.9-3.2,1.8c-0.7,0.7-1.2,1.5-2,2.2c-5.6,5.4-11.2,10.7-16.7,16.2
			c-2.7,2.7-2.5,4.2,1.3,7.2c2.4,1.8,2.3-1.7,3.6-2.4c0.6-0.4,1-1.1,1.5-1.6c6.1-5.7,12.1-11.5,18.2-17.2
			C383.3,196.3,384.2,196.2,384.2,195L384.2,195z M305.5,269.9c-0.2-2.6-4.2-5.4-5.9-3.9c-6.5,6.1-13.4,11.9-19.1,18.9
			c-2.1,2.5,0.5,3.2,1.6,4.3c1.2,1.2,2.6,2.1,4,0.2c5-6.8,11.8-11.7,17.9-17.4C304.7,271.4,305.7,271.2,305.5,269.9L305.5,269.9z
			 M284.9,174.4c-0.5-0.8-1-2-1.8-2.9c-0.8-0.9-1.6,0-2.2,0.6c-4.7,4.8-9.5,9.5-14.1,14.4c-1.5,1.5-0.3,3.1,0.6,4.3
			c1.1,1.3,2,0.2,2.8-0.4c4.7-3.6,8.7-7.8,12.7-12.1C283.9,177.3,284.8,176.3,284.9,174.4L284.9,174.4z M370.4,222.8
			c0.5-0.4,1.1-0.7,1.6-1.3c4.8-4.7,9.6-9.5,14.3-14.2c0.8-0.8,2.2-1.9,1-3.1c-0.9-0.9-2.1,0.3-2.9,1c-4.9,4-9.4,8.5-13.6,13.3
			c-0.7,0.8-1.3,1.9-1.7,2.9C368.8,222.1,369.2,222.7,370.4,222.8L370.4,222.8z M295,294.1c7-6.2,14.1-11.4,18.5-19.7
			C308.2,276,295,289.6,295,294.1z"/>
		<path fill="#FFFFFF" d="M216.1,25.4c8.2-7.8,17.3-13.4,26.4-19c1.4-0.9,2.7-1.9,3.8-3c0.8-0.8,1.3-1.9,2.6-0.8
			c1.3,1.1,1.2,2,0.3,3.5c-6.3,9.9-12.4,19.9-18.6,29.9c-3.4,5.4-6.7,10.8-10.3,16.1c-1.5,2.3-1.2,3.8,0.8,5.4
			c4.5,3.6,8.9,7.3,13.3,10.9c2.2,1.7,1.9,2.8-0.5,3.9c-3.2,1.5-6.5,2.6-9.8,3.7c-5.5,1.7-10.7,4-15.9,6.5c-4,1.9-4.1,1.8-5.4-2.3
			c-1.1-3.5-2.4-6.8-3.3-10.3c-0.7-2.8-1.8-2.4-3.5-1c-8.1,6.3-16.3,12.4-24.4,18.7c-4.3,3.3-8.5,6.6-12.7,9.9c-0.9,0.7-1.9,1.7-3,1
			c-1.4-0.9,0-2,0.4-2.9c4.7-10.2,8.1-21,12.8-31.1c2.3-5,2-8.3-1.3-12.7c-3.7-4.9-6.9-10.4-9.3-16.2c-1-2.4-1.7-4.8,0.6-6.9
			c2.4-2.1,4.6-0.8,6.8,0.6c4.8,3,9.7,5.7,14.2,9.1c3.2,2.4,4.8,1.7,6.9-1.1c6.5-8.7,13.1-17.3,19.8-25.9c2.6-3.4,5.4-6.6,8.1-9.8
			c0.6-0.7,1.1-1.8,2.4-1.1c1.3,0.7,1.2,1.7,1,2.9C217,10.3,216.8,17.6,216.1,25.4L216.1,25.4z"/>
		<path fill="#FFFFFF" d="M178.2,145.8c-0.5,7.5-2.2,16-8.5,22.5c-9.6,10-21.9,10.9-31.8-1.1c-1.3-1.6-2.7-3.3-3.6-5.2
			c-3.5-6.6-2.1-12.7,4.4-19c7.7-7.5,17.4-10.6,27.8-11.3C173.6,131.3,178.4,136.7,178.2,145.8z"/>
		<path fill="#FFFFFF" d="M225.9,144.8c0-9,5.3-13.8,14.4-12.7c11.6,1.4,21.5,6.2,28.6,15.8c3.8,5.2,3.7,7.2-0.1,12.4
			c-3.5,4.8-7.7,8.7-12.3,12.4c-5.8,4.7-11.4,3.3-17.1,0.5c-3.4-1.7-6-4.5-7.9-7.8C228.5,160.4,225.9,150.7,225.9,144.8L225.9,144.8
			z"/>
		<path fill="#FFFFFF" d="M253.8,180.4c-0.8,0-1.4,0-1.6-0.8c-0.2-0.7,0.4-1.1,0.9-1.4c6.7-3.8,12.1-9,17.1-14.8
			c0.5-0.6,1.1-1.7,2.1-1c0.8,0.6,0.6,1.6,0.1,2.4c-4.7,6.2-10.3,11.5-17.2,15.2C254.7,180.2,254.2,180.3,253.8,180.4z"/>
		<path fill="#FFFFFF" d="M148.8,178.6c0.1,1.3-0.7,1.5-1.4,1.3c-1.1-0.3-2.2-0.6-3.1-1.1c-5.6-3-9.8-7.5-13.4-12.7
			c-0.6-0.8-1.5-2.2-0.4-3c1.2-0.9,1.9,0.6,2.6,1.4c4.7,4.7,8.4,10.5,14.9,13.2C148.3,177.9,148.6,178.4,148.8,178.6L148.8,178.6z"
			/>
	</g>
</g>
</svg>
