<?xml version="1.0" encoding="utf-8"?>
<!-- Generator: Adobe Illustrator 26.3.1, SVG Export Plug-In . SVG Version: 6.00 Build 0)  -->
<svg version="1.1" id="Layer_2_00000048487087853634909460000015894008188212480161_"
	 xmlns="http://www.w3.org/2000/svg" xmlns:xlink="http://www.w3.org/1999/xlink" x="0px" y="0px" viewBox="0 0 392.5 409.9"
	 enable-background="new 0 0 392.5 409.9" xml:space="preserve">
<g id="Layer_1-2">
	<g>
		<path fill="#FFFFFF" d="M240.6,265.2c-0.7,1.9-1.3,3.6-2,5.3c-2.1,5.6-5.9,8.9-12.3,8.1c-2.9-0.4-3.6,0.5-3,3.5
			c1.2,5.7-2.4,10.4-8.3,10.8c-2.4,0.2-3.3,0.9-3.5,3.4c-1.1,11.7-1.7,23.4-3.4,35c-0.3,1.9-0.3,3.2,2.5,3.2
			c50.5-0.1,101-0.2,151.5-0.2c7.7,0,15.5-0.1,23.2,0c5.3,0,7.3,1.7,7.3,5.4c0,3.9-2.8,6.3-7.7,6.3c-35,0-70,0-105,0.1
			c-35.4,0.1-70.7,0.5-106.1,0.2c-55.4-0.5-110.7-0.2-166.1-0.2c-4.7,0-7.6-2.2-7.6-5.8c0-3.8,3-6.4,7.6-6.4
			c23.2,0.1,46.5,0.3,69.7,0.4c37.4,0.1,74.7,0.1,112.1,0.3c3.6,0,4.3-0.9,3.8-4.4c-1.6-11-2.7-22-4.1-33c-0.3-2.7-0.2-5-4.6-4.3
			c-5.3,0.8-9.2-5.3-7.8-11.4c0.5-2,0.7-2.8-2-2.6c-6.5,0.6-10.2-1.8-13.2-7.6c-2.3-4.4-4.7-8.6-5-13.9c-2.8,5.1-3.9,10.6-5.5,15.8
			c-1.9,6.3-3.4,12.8-5.3,19.1c-1.9,6.4-3.8,7.7-10.5,7.7c-6.2,0-12.5,0-18.7-0.1c-3.5-0.1-5.9-3.1-5.1-6.3
			c3.2-12.3,5.4-24.8,7.6-37.4c2-11.7,4.6-23.3,8.3-34.4c4.6-13.8,8-28,13.9-41.3c5.3-12,14.6-20.7,23.3-29.9
			c1.4-1.5,2.1-3.3,3.1-4.9c4.7-7.6,2.2-15.9,3.3-23.8c1.3-9,1.6-18.1,2.4-27.2c0.2-2.8,1.4-5.3,3.6-7.1c3.6-3,6.6-6.5,7.6-11.3
			c0.2-0.7,0.4-1.5,0.8-2.1c2.6-3.6,3.7-7.3,3.7-11.9c0-5.9,4.9-9.5,10.9-9.4c4.2,0.1,8.7,4.9,8.6,10.2c-0.1,3.7,0.8,6.6,3.1,9.5
			c2.6,3.3,1.9,8.5,5.5,11.2c8.7,6.5,7.8,16.2,8.6,25.2c0.9,10.4,0.8,21,2,31.4c0.4,3.2,1.4,7.3,4.2,9.7
			c16.5,14.3,25.2,32.9,29.9,53.7c2.1,9.1,6.2,17.6,8.4,26.7c3.5,14.6,5.1,29.5,8.1,44.2c1.3,6.2,2.2,12.5,4.3,18.6
			c1.2,3.4-1.4,6.9-5.1,6.9c-7.9,0-15.7-0.1-23.6,0c-3.5,0-5.2-2.1-6.2-5C244.5,285.5,242.5,275.5,240.6,265.2L240.6,265.2z
			 M166.5,259c4.6-1.4,8.8-4.4,14.1-3.9c3.7,0.3,7.5-0.1,11.2,0.3c2.4,0.2,2.6-0.7,2.6-2.7c0-11.9,0-23.7,0.2-35.6
			c0-2.1-0.7-2.6-2.5-2.6c-5.4,0.1-10.7,0.2-16.1,0.1c-1.9,0-2.7,0.6-3.6,2.3c-5.5,10.7-11.4,13.4-21,9.4c-2-0.8-3-0.6-2.6,2
			c0.3,1.6,0.2,3.2,0.1,4.8c-0.1,1,0.2,1.6,1.2,2C160,240,162.7,249.7,166.5,259L166.5,259z M214.2,214.6c-3.5,0-6,0.2-8.5,0
			c-2.6-0.2-3.1,1-3.1,3.3c0.1,9-0.1,18,0,27c0,3.3-1.4,7.7,0.8,9.7c2.1,2,6.4,0.5,9.8,0.6c4.2,0.2,8.5-0.5,12.6,1
			c2.6,1,5.4,4.1,7.5,2.6c2-1.4,1.1-5.4,1.6-8.2c1-5.1,2.9-10.1,7.9-12.5c3.8-1.8,4.2-4.4,4.3-8c0-3.4-0.7-4.6-4.1-3.3
			c-7.1,2.8-12.8,0.6-16.2-5.8C223.6,215.2,219.3,213.5,214.2,214.6L214.2,214.6z M165.8,160c-17.6,15.7-23.1,36.4-29,57.1
			c5.7,0.6,11.3,0.7,16.9,0.4c2.8-0.2,5.1-0.3,6.6,2.9c1-2,2-3.4,3.7-4.1c1.6-0.7,1.6-2.2,1.6-3.5
			C164.7,195.5,165.5,178.3,165.8,160L165.8,160z M264,291.7c2,0,4-0.2,6,0.1c2.9,0.4,3.8-0.6,3.1-3.4c-0.2-0.8-0.2-1.7-0.4-2.6
			c-2.1-12.3-4.3-24.5-6.3-36.8c-1-6-1.3-6.2-6.8-3.5c-0.7,0.3-1.3,0.7-1.9,1.2c-1.5,1.2-2.9,0.9-3.8-0.7c-1.8-3.3-4.2-1.8-6.4-0.8
			c-2.6,1.2-4.3,3.6-3.5,6.4c3.3,10.3,5.3,21,8.1,31.5C254.7,292,254.7,292.1,264,291.7L264,291.7z M230.7,160.3
			c0.6,17.3,0.6,34.3,0.3,51.2c-0.1,5.1,2.9,7.6,7.8,6.3c1.1-0.3,2.2-0.2,3.4-0.2c5.2,0,10.5,0,15.9,0
			C252,197.1,248.2,175.7,230.7,160.3L230.7,160.3z M154,249.8c-1.4-3.7-4.5-3.8-6.7-5.1c-3.4-2-6.5-1.7-8.8,1.6
			c-1.4,1.9-2.4,1.4-3.9,0.2c-4.3-3.2-4.9-3-6,2.3c-2.6,12.3-5.1,24.6-7.6,37c-0.4,2-1.3,3.9-1,6.2c5.4,0,10.6-0.1,15.9,0.1
			c1.5,0,2.1-0.1,2.5-1.7c3.3-12,6.8-23.9,10-35.9C149.1,251.2,150,249.2,154,249.8L154,249.8z M202.6,116.5L202.6,116.5
			c0,7.5,0.1,15,0,22.4c0,1.8,0.3,2.6,2.4,2.5c4.6-0.2,9.2-0.1,13.8,0.2c2.2,0.1,1.8-1.1,1.7-2.3c-0.9-13.5-1.7-27.1-2.7-40.6
			c-0.3-4.3-3.6-7.3-7.8-7.6c-1.4-0.1-2.8,0-4.1-0.2c-2.6-0.4-3.5,0.4-3.4,3.2C202.7,101.5,202.6,109,202.6,116.5L202.6,116.5z
			 M194.5,187.3c0-5.5-0.1-11,0-16.5c0-2.1-0.7-2.8-2.8-2.8c-5.5,0.1-11,0.1-16.5-0.1c-2-0.1-1.9,0.9-1.9,2.2
			c0,11.4,0.1,22.7,0,34.1c0,1.8,0.5,2.3,2.3,2.3c5.2-0.1,10.5-0.2,15.7,0c2.4,0.1,3.3-0.6,3.2-3.1
			C194.4,198.1,194.5,192.7,194.5,187.3L194.5,187.3z M223.1,187H223c0-5.4-0.1-10.7,0-16.1c0-2-0.5-2.9-2.7-2.9
			c-5,0.1-10,0.1-15-0.1c-2.2-0.1-2.7,0.8-2.7,2.8c0.1,11.1,0.1,22.2,0,33.3c0,1.8,0.5,2.4,2.3,2.4c5.2-0.1,10.5-0.2,15.7,0
			c2.1,0,2.5-0.8,2.5-2.6C223.1,198.3,223.1,192.7,223.1,187L223.1,187z M194.3,116.4h0.3c0-5.9-0.1-11.7,0-17.6
			c0.1-7.3,0.1-7.3-6.8-7.7c-3.5-0.2-7.2,2.8-7.6,6.3c-0.2,1.6-0.3,3.2-0.4,4.8c-0.8,11.9-1.6,23.9-2.5,35.8c-0.2,2.5,0,3.9,3.2,3.5
			c3.4-0.4,7-0.3,10.5-0.1c2.6,0.1,3.5-0.6,3.4-3.3C194.2,130.9,194.3,123.7,194.3,116.4L194.3,116.4z M183.7,159.8L183.7,159.8
			c1.2,0.1,2.5,0.1,3.7,0.1c7.3,0,7.2,0,7-7.3c-0.1-1.7-0.4-2.5-2.3-2.4c-5.1,0.1-10.2,0.2-15.3,0.1c-2.1,0-2.7,1-2.8,2.9
			c-0.3,6.5-0.4,6.5,6.3,6.6C181.5,159.8,182.6,159.8,183.7,159.8L183.7,159.8z M213,159.9L213,159.9c1.4,0.1,2.7,0.1,4.1,0.1
			c6.2,0.1,6.2,0.1,5.8-6.3c-0.2-2.3-1.1-3.4-3.4-3.3c-3.2,0.1-6.5-0.1-9.7-0.1c-7.1,0-7,0.1-7,7.2c0,1.9,0.4,2.7,2.5,2.5
			C207.7,159.7,210.4,159.9,213,159.9L213,159.9z M210.1,269.5c-0.1-1.2-0.5-2.4-0.4-3.6c0.5-2.8-0.7-3.3-3.2-3.2
			c-4.3,0.2-8.7,0-13.1-0.1c-1.4,0-3.4-0.7-2.6,1.9c0.5,1.8-1.8,5.1,2.7,5C199,269.4,204.4,269.5,210.1,269.5L210.1,269.5z
			 M207.9,83.1c-0.9-2.8-3.4-8.4-4.1-8.6c-2-0.5-3.9,1.1-6,0.6c-0.8-0.2-1.7,0-2.6-0.1c-0.9-0.1-1.6,0-2.2,1
			c-1.1,2.2-2.4,4.4-3.9,7.1H207.9L207.9,83.1z M200.4,314.4c0.6-0.4,0.9-0.6,0.9-0.7c0.9-6.9,1.8-13.7,2.7-20.6
			c0.1-0.9-0.2-1.4-1.2-1.4c-1.6,0.1-3.2,0.1-4.8,0.2c-0.9,0-1.4,0.3-1.3,1.3C197.9,300.1,199.2,307.2,200.4,314.4L200.4,314.4z
			 M232.5,262.7c-4.1,0.8-7.9,1.2-11.7,0.4c-0.6-0.1-1.5-0.1-1.5,0.7c0.1,2.1-0.5,4.3,0.4,6.2c0.3,0.7,8.4,0.6,8.9,0
			C230.1,267.9,232.3,266.1,232.5,262.7z M173.7,263.4v0.1c-1.6,0-3.2,0-4.8,0c-0.7,0-1.6-0.4-1.9,0.6c-0.3,1,0.4,1.6,1.1,2.1
			c1.3,1,2.5,1.9,3.5,3.5c1.7,2.5,4.9-0.1,7.4,0.5c0.7,0.2,1.7,0.4,2.3-0.6c0.1-0.1,0-0.2,0-0.4c0.7-3.9-0.9-5.8-4.9-5.8
			C175.4,263.4,174.6,263.4,173.7,263.4L173.7,263.4z M258.2,226.1c-3-0.9-3.4,0.9-3,3.2c0.2,1.2,0.6,2.4,0.6,3.7
			c0,3.4,2.1,2.9,4.3,2.8c3.3-0.1,1.2-2.2,1.4-3.4c0.1-0.9-0.1-1.8,0.1-2.6C262.4,226.8,261.3,225.5,258.2,226.1L258.2,226.1z
			 M140.1,230c-0.2-1.4,0.9-3.3-1-4c-1.4-0.6-3.8-1-4.6,0.2c-1.7,2.5,0.8,5.7-0.4,8.5c-0.3,0.7,0.4,1.1,1.1,1.2c0.2,0,0.5,0,0.7,0
			C141.1,236.5,139.4,232.4,140.1,230L140.1,230z M200.9,283.7c0.8-1.1,3.8,1.8,3.8-1.9c0-2.7-0.4-5-4.2-4.4
			c-2.1,0.3-4.7-0.8-4.7,3.3C195.7,285,198.4,283.4,200.9,283.7L200.9,283.7z M189,281.7c-0.5-1.5,0.3-4.1-2.3-3.9
			c-1.9,0.1-2.6,2.2-2.6,4c0,1.9,1.1,3.2,2.9,3.2C189.2,285.1,188.6,283,189,281.7z M211.7,281.5c0.9,0.7-0.5,3.1,1.9,2.9
			c1.7-0.1,2.9-1.3,3-3.2c0.1-2-1.1-3.1-2.9-3.1C211.9,278.2,211.9,279.8,211.7,281.5L211.7,281.5z"/>
		<path fill="#FFFFFF" d="M76.2,69.8c-21.1-0.7-35-16-33.9-38.3C43.2,13.6,56.9-0.5,77.2,0c19.9,0.5,34,16.2,33.3,36.7
			C109.9,55.9,94.9,70.4,76.2,69.8L76.2,69.8z M70.7,18.7c0.6-1.7,1.4-2.8,2.3-3.8c2.6-2.6,2.1-4.4-1.4-5.6c-3.2-1.1-6.2-0.4-9,1.1
			c-5.4,3-10.3,6.8-11.8,13.3c-1.7,7.8,0.4,15.4,2.6,22.7c0.6,2,3.9,4.4,5.4,3.4c3.4-2.4,5.2-0.8,7.4,1.3c0.7,0.6,1.4,1.7,2.5,0.9
			c1.2-0.8,2.7-1.4,2.7-3.3c0-1.6-0.2-3.3,0-4.9c0.3-4.6,4.6-8.3,9-7.4c4,0.9,6.8,1.8,7.6-4.2c0.5-3.9,4.9-5.3,8.8-5.6
			c1.7-0.1,2.6-0.5,2.3-2.4c-0.9-5.6-3.4-10.1-8.6-12.8c-1.1-0.6-3.2-1.6-3.6-0.6c-0.7,1.8-2.7,3.3-1.5,5.8c1.7,3.5,0.6,6.9-2.5,9
			c-2.8,2-6.6,1.7-9.3-0.8c-1-0.9-1.8-2.1-2.7-3.2c-3.5,4.6-6.4,5.2-9.6,2.2c-2.5-2.3-2.4-5.7,0.1-8.3
			C63.7,13.2,66.9,14.1,70.7,18.7L70.7,18.7z M92.5,53.2c-0.1-3.3-3.7-6.8-6.9-6.6c-2.8,0.1-5.3,3.4-5.2,6.8
			c0.1,3.3,3.2,6.2,6.7,6.2C90.3,59.5,92.6,56.8,92.5,53.2z"/>
		<path fill="#FFFFFF" d="M52.7,407.4c-8.9,0-17.7,0-26.6,0c-4.7,0-6.8-1.9-7-6.3c-0.2-3.5,3-7.1,6.7-7.1c18.5,0,37,0,55.5,0.1
			c3.9,0,6.5,3,6.4,6.8c-0.1,3.9-2.8,6.4-7.2,6.5C71.2,407.5,62,407.4,52.7,407.4L52.7,407.4L52.7,407.4z"/>
		<path fill="#FFFFFF" d="M340.8,409.7c-8.9,0-17.7,0-26.6,0c-4.9,0-7.5-2.4-7.4-6.9c0-3.7,2.9-6.2,7.3-6.2
			c17.7,0,35.4,0.1,53.1,0.3c4.8,0,7.4,2.6,7.2,7c-0.1,3.7-3,6-7.5,6c-8.7,0-17.5,0-26.2,0L340.8,409.7L340.8,409.7z"/>
		<path fill="#FFFFFF" d="M301.8,378.5c-7.4,0-14.7,0-22.1,0c-5.3,0-7.9-2-8-6.2c-0.1-3.9,3.1-6.8,7.7-6.8c15.3,0.1,30.7,0.4,46-0.1
			c4.3-0.1,6.7,2.4,6.7,6.3c0,3.9-2.8,6.8-6.9,6.8C317.5,378.6,309.6,378.6,301.8,378.5L301.8,378.5L301.8,378.5z"/>
		<path fill="#FFFFFF" d="M104.4,378.4c-7.4,0-14.7,0-22.1,0c-4.6,0-7.4-2.7-7.4-6.9c0-3.8,2.9-6,7.4-6c15.1,0,30.2,0,45.3,0
			c2.8,0,5.2,0.7,6.2,3.7c1,3,0.6,5.6-1.8,7.9c-1.5,1.5-3.3,1.5-5.2,1.5c-7.5,0-15,0-22.5,0L104.4,378.4L104.4,378.4z"/>
		<path fill="#FFFFFF" d="M32.2,378.4c-7.1,0-14.2,0-21.3,0c-4,0-6.6-2.6-6.6-6.4c0-3.8,2.5-6.4,6.6-6.4c14.2-0.1,28.4-0.2,42.6-0.3
			c4.2,0,6.9,2.6,6.9,6.7c0,4.1-2.6,6.6-6.9,6.6c-7.1,0-14.2,0-21.3,0L32.2,378.4L32.2,378.4z"/>
		<path fill="#FFFFFF" d="M367.7,365.4c5.1,0,10.2,0,15.3,0c4.8,0,7.8,2.4,7.7,6.2c-0.1,4.8-3,7.4-8,7.1c-9.6-0.5-19.2-0.4-28.8-0.2
			c-1.2,0-2.5,0.1-3.7,0c-3.8-0.4-6.4-3.3-6.3-7c0.1-3.1,3-5.8,6.6-5.9c5.7-0.1,11.5,0,17.2,0L367.7,365.4L367.7,365.4z"/>
	</g>
</g>
</svg>
