<?xml version="1.0" encoding="utf-8"?>
<!-- Generator: Adobe Illustrator 26.3.1, SVG Export Plug-In . SVG Version: 6.00 Build 0)  -->
<svg version="1.1" id="Layer_2_00000064332506450381121940000005020999482869804706_"
	 xmlns="http://www.w3.org/2000/svg" xmlns:xlink="http://www.w3.org/1999/xlink" x="0px" y="0px" viewBox="0 0 294.5 371.8"
	 enable-background="new 0 0 294.5 371.8" xml:space="preserve">
<g id="Layer_1-2">
	<g>
		<path fill="#FFFFFF" d="M274.5,320.3c-5.4,0-10.8-0.2-16.1,0.1c-3.3,0.2-4-1.2-3.3-3.9c2.3-9.4,4.6-18.9,7.1-28.3
			c0.4-1.7,0.7-2.5-1.2-3.1c-2.6-0.9-5-2.3-7.2-3.9c-1.9-1.3-2.7-0.8-3.3,1.5c-3.9,17.2-7.9,34.3-11.8,51.5c-0.3,1.2-0.3,2.6-2,2.6
			c-2.1-0.1-4.3,0.5-6.2-0.7c-0.7-0.5-0.3-1.4-0.1-2.1c3.8-15.4,7.6-30.8,11.4-46.2c0.4-1.6,0.8-3.2,1.3-4.7c2-6.1,2-6-4.2-8.4
			c-10.8-4.3-21.5-8.7-32.3-13.2c-1.5-0.6-3.4-1.3-4.1-2.5c-2.4-4.2-4.7-2.1-7.5-0.6c-10.6,5.9-22.3,7.5-34.2,8.8
			c-15.3,1.6-30.4,0.5-45.4-2.9c-6.2-1.4-12-3.5-16.7-8c-1.4-1.3-2.2-0.7-3,0.3c-2.5,3-5.9,4.4-9.4,5.8
			c-11.4,4.7-22.7,9.9-34.3,13.9c-3.4,1.2-4.5,3.1-3.6,6.8c4,16.8,7.7,33.6,11.4,50.4c0.3,1.2,1.2,2.7-0.8,3.4
			c-2.8,1-6.3-0.1-6.8-2.1c-2.2-10.1-4.3-20.2-6.5-30.3c-1.5-6.9-3.1-13.9-4.5-20.8c-0.6-2.9-1.6-3.3-4.2-2.1
			c-7.6,3.3-7.8,3.2-5.8,11.4c2,8.1,4.1,16.2,6.5,24.2c0.8,2.8,0.2,3.5-2.6,3.5c-10.6,0-21.2,0-31.9,0.2c-2.4,0-3.5-0.5-3.4-3.3
			c0.6-18.1,8.9-33.2,26.8-40.4c11.9-4.7,23.8-9.7,35.8-14.4c2-0.8,2-1.3,1.3-3.1c-3-8.4-8-15.2-14.6-21.4
			c-22.2-20.5-37.9-44.8-43.8-75c-4.8-24.6-2.9-48.6,4.8-72.3c4.9-15,11.6-28.9,21.1-41.5C46.3,30.1,66.3,18.1,89,10.1
			c21.4-7.6,43.5-10.9,66.2-9.9c31.1,1.4,60.5,8.8,86.4,27c19.7,13.9,33.4,32.4,42,54.8c8.2,21.4,11,43.6,9.5,66.3
			c-1.2,18.5-7.3,35.6-16,51.9c-7.6,14.2-17.7,26.3-29.6,37c-7.2,6.4-12.3,13.9-15.4,23c-0.5,1.5-0.2,2.1,1,2.6
			c2.6,1.2,5.2,2.5,7.8,3.5c9.8,3.5,19.2,7.8,28.7,12.1c14.7,6.6,22.2,18.3,24.3,33.9c0,0.4,0.1,0.7,0.1,1.1
			c0.9,7.2,0.9,7.1-6.5,6.9c-4.4-0.1-8.7,0-13.1,0L274.5,320.3L274.5,320.3z M10.6,133c0.1,20,3.2,35.9,8.6,49
			c6.7,16.3,16.5,30.5,28.8,43c9.6,9.7,19.7,18.9,23,33c0.3,1.5,1.1,1.3,2.2,0.8c2.7-1.2,5.4-2.5,8.2-3.6c7.8-3.1,7.8-3,7.9-11.5
			c0-1.2-0.9-3,1.2-3.4c1.9-0.4,3.5,0.4,4.3,2.2c1.5,3.7,4.5,5.9,7.8,7.8c3.4,1.9,6.8,3.7,10.5,4.9c17.5,5.6,35.5,7.7,53.5,3.8
			c12.9-2.8,26.9-4.1,35.1-17.1c0.8-1.2,2.5-2,4-1.5c1.4,0.5,0.6,2.2,0.7,3.3c0.1,1.5,0.2,3,0.1,4.5c-0.3,3.3,1.3,5,4.2,6.1
			c3.5,1.3,7.2,2.4,10.4,4.2c2.9,1.6,3.9,0.8,4.7-1.9c2.9-10.1,8.5-18.3,16.1-25.7c16.5-16.1,30.3-34.1,37.8-56.4
			c4.5-13.4,7.6-26.9,6.9-41.1c-0.4-7.8-1.4-15.6-2.9-23.3c-4-20.1-11.3-38.8-24.3-54.9C246,38.8,229,27.1,209.4,19.9
			C178.1,8.2,145.9,5.2,113,12.3c-25.4,5.5-48.6,14.9-67,34.1C21.7,71.8,12,102.8,10.6,133z"/>
		<path fill="#FFFFFF" d="M204.1,294c2.5-2.3,5.3-3.4,7.9-4.9c4.2-2.3,9-1,11.3,3.1c0.9,1.6-0.5,2-1.3,2.6
			c-4.7,3.3-9.5,6.5-14.2,9.7c-5.1,3.5-9.8,7.3-13.8,12c-1.2,1.5-2.2,2.2-3.6,0c-1.1-1.8-2.7-3.3-4.3-4.7c-2-1.8-1.4-2.7,0.6-3.8
			c2.4-1.3,4.6-3,7-4.4c1.8-1,1.4-2.1,0.6-3.4c-0.9-1.4-1.8-1.1-3-0.1c-4.2,3.3-4.2,3.2-7.6-1c-0.9-1.1-1.8-2-2.8-3
			c-3.4-3.7-3.1-5.4,1.2-8.1c1.5-0.9,2.5-0.1,3.3,0.6c2,1.7,3.8,3.6,5.7,5.4c0.7,0.7,1.5,1.5,2.6,0.8c1.2-0.8,0.5-1.7,0-2.6
			c-1.1-1.7-1.9-3.5-3.3-5c-2.2-2.5-2.2-4.3,0.4-6.7c3.8-3.4,3.7-3.7,6.3,0.7C199.5,285.2,202.1,289.2,204.1,294L204.1,294z"/>
		<path fill="#FFFFFF" d="M88.4,294.5c2.8-5,5.7-10.1,8.4-15.3c0.9-1.7,1.6-2,2.9-0.6c0.2,0.2,0.4,0.3,0.6,0.5c5.1,4,5.1,3.9,1.2,9
			c-1,1.4-1.9,2.9-2.7,4.5c-0.4,0.8-1.6,1.6-0.3,2.5c0.9,0.6,2.1,0.3,2.8-0.4c2-1.8,4-3.7,5.8-5.8c1.3-1.5,2.4-1.9,3.9-0.3
			c1.5,1.6,3.3,3,5.1,4.5c-3,2.5-5.7,5.2-7.8,8.5c-1.5,2.3-2.8,2-4.2-0.1c-0.7-1-1.5-2.6-2.7-2.2c-0.9,0.3-1.8,1.7-2.2,2.8
			c-0.6,1.6,1.3,1.8,2,2.7c0.2,0.3,0.6,0.4,0.9,0.6c7.5,5.2,7.5,5.4,0.7,11.5c-0.7,0.7-1,1.2-2,0.2c-8.6-8.7-19.1-14.7-29.3-21.2
			c-0.7-0.5-1.4-1-2.2-1.5c-1.6-1-1.3-1.7,0-3c3.9-3.7,7.8-4.2,12.3-1.1C84,291.8,86.1,293.1,88.4,294.5L88.4,294.5z"/>
		<path fill="#FFFFFF" d="M140.4,357.7c-3.4-2.2-5.6-5-7.6-8c-1.4-2.1-1.2-3.1,1.5-3.1c8.7,0,17.4,0,26.2,0c2.6,0,2.9,1.3,1.5,3
			c-1.8,2.2-3.9,4.2-6,6.2c-1.4,1.3-1.9,2.2-0.5,4c2.1,2.7,2.5,6.2,3.4,9.4c0.2,0.8,0.4,1.8-0.5,2.4c-0.9,0.5-1.7,0-2.4-0.4
			c-2.2-1.4-4.6-2.5-6.6-4.3c-1.9-1.7-3.2-1.4-5.1-0.1c-2.5,1.8-5.4,3.1-8.1,4.6c-0.8,0.5-2.2,0.6-1.8-0.6
			C136.3,366.5,135.4,361,140.4,357.7L140.4,357.7z"/>
		<path fill="#FFFFFF" d="M161.4,326.6c0.1,8.9,0.1,8.6-8.7,8.8c-3.9,0.1-4.9-1.3-4.8-4.8c0.1-3.2,0-6.5-0.2-9.7
			c-0.1-2.1,0.8-3,2.8-2.8c0.7,0.1,1.5,0,2.2,0C158.5,318.1,161.4,320.9,161.4,326.6L161.4,326.6z"/>
		<path fill="#FFFFFF" d="M132.3,326.3c0-2.7-1-6.3,0.3-7.9c1-1.3,5,0.1,7.6-0.4c4.1-0.8,5.1,0.9,4.8,4.6c-0.2,3.3-0.1,6.7,0,10.1
			c0,1.8-0.6,2.7-2.6,2.5c-2.6-0.2-5.2-0.2-7.8,0c-2.1,0.1-2.6-0.7-2.5-2.6c0.1-2.1,0-4.2,0-6.3L132.3,326.3L132.3,326.3z"/>
		<path fill="#FFFFFF" d="M211.9,338.9c-3.7-0.1-6.6-3.2-6.5-6.8c0.1-3.9,4-7.3,8.1-7.2c3.5,0.1,7.2,4.1,7.1,7.9
			C220.5,335.8,216.1,339,211.9,338.9L211.9,338.9z"/>
		<path fill="#FFFFFF" d="M78.6,339.2c-3.6,0.1-6.5-2.7-6.6-6.2c-0.1-4.2,3.5-7.7,7.9-7.8c3.6-0.1,6.5,2.8,6.6,6.7
			C86.5,335.8,82.9,339.1,78.6,339.2L78.6,339.2z"/>
		<path fill="#FFFFFF" d="M138,275.3c6.6,0.2,6.4,0.2,6.8,7c0.2,3.8-1.1,4.5-4.6,4.3c-8.7-0.6-8.6-0.5-8.2-9.2
			c0.1-2.1,0.7-2.6,2.6-2.2C135.8,275.5,136.9,275.3,138,275.3z"/>
		<path fill="#FFFFFF" d="M154.6,286.1c-6-0.2-5.8-0.3-6.4-6.4c-0.4-3.6,0.7-4.8,4.1-4.2c0.5,0.1,1,0,1.5,0c7.6-0.1,7.5-0.1,7.5,7.5
			c0,2.6-0.6,3.7-3.4,3.1C156.9,285.9,155.8,286.1,154.6,286.1L154.6,286.1z"/>
		<path fill="#FFFFFF" d="M138.8,292.2c6-0.1,5.8-0.1,6.1,5.9c0.2,3.3-0.8,4.6-4.1,4.2c-0.1,0-0.2,0-0.4,0c-7.7,0.1-7.6,0.1-8-7.3
			c-0.1-2.2,0.1-3.3,2.6-2.9C136.3,292.4,137.6,292.2,138.8,292.2L138.8,292.2z"/>
		<path fill="#FFFFFF" d="M155,301.8c-7,0.1-7.5-0.6-6.5-7.4c0.2-1.2,0.5-1.8,1.8-1.7c1.9,0,3.7-0.2,5.6-0.2
			c1.6,0.1,3.9-1.6,4.7,0.3c1,2.4,1.4,5.7,0.3,8C159.9,302.9,156.8,301.3,155,301.8L155,301.8z"/>
		<path fill="#FFFFFF" d="M151.2,244.8c-16.6,0.2-31.2-2.6-45.6-7.4c-20.2-6.7-32.5-20.8-37.7-40.8c-4.8-18.3-8.5-36.9-10.8-55.8
			c-3.7-30.4,10.4-51.5,35.3-66.7c15.5-9.5,32.5-14.7,50.5-16.1c15-1.2,29.6,1.7,43.6,7.1c13.3,5.1,25.1,12.3,34.6,23
			c14.6,16.5,19.6,35.9,15.9,57.5c-2.8,16.6-5.8,33.2-9.6,49.7c-5.8,25.2-21.7,39.6-46.2,45.7C170.8,243.5,160.4,245.2,151.2,244.8
			L151.2,244.8z M147.3,111.5c-22.4,0-44.7,0-67.1,0c-4.1,0-7.5,1.4-10.3,4.4c-4.2,4.5-5.6,9.8-5.6,15.8
			c-0.2,18.4,4.1,36.2,7.6,54.1c4.9,24.8,20.6,39.9,44.6,46.3c21.5,5.7,43.2,5.7,64.8-0.2c10.4-2.9,20.4-6.5,27.9-15
			c5.6-6.4,9.7-13.7,11.5-22c4.6-21.5,9.6-42.9,9.9-65c0.1-11.4-7-18.7-18.3-18.4C190.5,112,168.9,111.7,147.3,111.5L147.3,111.5z
			 M147.1,103.5L147.1,103.5c14.9,0,29.7,0,44.6,0c7.5,0,15,0,22.5,0.1c1.7,0,3.4-0.1,4.1-1.9c0.6-1.6-0.4-2.8-1.3-4.1
			c-2-2.5-4.7-3-7.7-3c-26.1,0-52.2,0-78.3-0.1c-15.4,0-30.7,0-46.1-0.1c-2.8,0-5.5,0.4-7.4,2.9c-0.9,1.3-2.2,2.6-1.3,4.4
			c0.9,1.6,2.4,1.8,4.2,1.8C102.7,103.5,124.9,103.5,147.1,103.5L147.1,103.5z"/>
		<path fill="#FFFFFF" d="M148.1,127.5c5.1,0,10.2,0.1,15.4-0.1c1.6-0.1,1.9,0.1,1.9,1.7c-0.1,2.4-1.3,5.6,0.5,7.2
			c1.7,1.5,4.8,0.3,7.3,0.3c6.2,0.1,12.5-0.1,18.7,0.1c2.8,0.1,4-0.4,3.8-3.6c-0.4-5.7-0.2-5.7,5.7-5.6c3.7,0,7.5,0.1,11.2,0
			c1.7-0.1,2.1,0.4,1.9,2.1c-2.1,17.6-4.7,35.1-10.2,52.1c-2.4,7.2-6.5,13.4-11.1,19.4c-1.3,1.7-3.2,2.7-5.3,3.3
			c-17.1,5.2-34.6,6.1-52.2,4.9c-9.3-0.6-18.3-2.4-27.2-4.8c-3.9-1.1-6.4-3.3-8.8-6.4c-8.8-11.5-11.9-25.1-14.7-38.8
			c-2-9.5-3-19.2-4.5-28.8c-0.4-2.3,0.2-3,2.6-2.9c5,0.2,10,0.2,15,0c1.7-0.1,1.8,0.2,1.7,1.7c-0.6,7.7-0.5,7.6,7.1,7.6
			c6.7-0.1,13.5-0.2,20.2,0c2.2,0.1,3.1-0.4,3.1-2.8c0-6.6,0.1-6.5,6.7-6.5c3.7,0,7.5,0,11.2,0L148.1,127.5L148.1,127.5z
			 M147.4,181.3v0.3c3.2,0,6.5,0,9.7,0c4.3,0,6.5-1.3,7-4.5c0.7-3.9-2-5.7-4.9-6.5c-7-2-14.3-1.7-21.5-0.6c-1.7,0.3-3.3,1.2-4.6,2.4
			c-1.6,1.6-2.6,3.5-1.8,5.7c0.8,2.1,2.8,3.1,5.1,3.1C140.2,181.3,143.8,181.3,147.4,181.3L147.4,181.3z"/>
		<path fill="#FFFFFF" d="M78.3,185.4c3.3,5.1,6.9,10.1,10,15.3c6.1,10.3,15.7,15.3,26.7,18.4c22.7,6.4,45.3,6,68,0
			c13.1-3.5,23.3-10.3,28.8-23.3c1.6-3.8,3.2-7.9,7.1-11.2c-5.9,16.6-12.9,31.3-31.4,36.3c-10.6,2.8-21.3,6-32.3,6.2
			c-19.4,0.4-38.3-2.9-56.1-10.8c-3.6-1.6-6.4-4.3-8.9-7.4C84.6,201.8,81.2,193.7,78.3,185.4L78.3,185.4z"/>
	</g>
</g>
</svg>
