<?xml version="1.0" encoding="utf-8"?>
<!-- Generator: Adobe Illustrator 26.3.1, SVG Export Plug-In . SVG Version: 6.00 Build 0)  -->
<svg version="1.1" id="Layer_2_00000138564855725549477070000002523618532511656893_"
	 xmlns="http://www.w3.org/2000/svg" xmlns:xlink="http://www.w3.org/1999/xlink" x="0px" y="0px" viewBox="0 0 425.8 495.6"
	 enable-background="new 0 0 425.8 495.6" xml:space="preserve">
<g id="Layer_1-2">
	<g>
		<path fill="#FFFFFF" d="M354.1,223.9c-20.4,0-40.7-0.1-61.1,0c-3.4,0-6.4-0.8-9.2-2.5c-5.1-2.9-13.1,1.7-13.3,7.5
			c-0.2,8.6,0.4,17.2-0.6,25.8c-0.5,4.8,0.8,9.6,0.7,14.5c-0.2,10.4-6.1,16.8-16.3,17.5c-1.4,0.1-1.7,0.6-1.7,1.7
			c0,4.1,0,8.2,0,12.4c0,1.7,1.1,2.3,2.5,1.9c10.3-2.6,15.8,3.4,20.9,11c11.4,17.2,23,34.3,34.6,51.4c6.8,10.1,13.6,20.2,20.5,30.3
			c5,7.4,10.1,14.8,15.2,22.2c7.7,11.3,15.3,22.7,23,34c6,8.9,12.1,17.7,18.1,26.5c2.8,4.1,2.2,8.3,0.2,12.4c-1.8,3.6-5.1,4.7-9,5
			c-4.7,0.3-8.1-1.3-10.7-5.3c-8.2-12.3-16.6-24.5-25-36.7c-19.5-28.6-39-57.1-58.6-85.6c-8.3-12.1-15.9-24.7-24.6-36.5
			c-1.8-2.4-8.3-4.6-10.9-3.8c-1.9,0.6-1.7,2.4-2,3.7c-2.2,9.7-4.1,19.4-6.2,29.2c-1,4.6-1.9,9.3-3.3,13.8c-0.7,2.3-0.1,3,1.8,3.9
			c10.8,4.8,20.5,11.4,28.3,20.4c10.5,12.2,17.4,26,17.4,42.5c0,3.7,0.5,7.5-0.5,11.2c-0.2,0.8,0.2,1.4,0.6,2.1
			c5.4,10.9-0.8,20.9-12.9,20.9c-40.6,0-81.2-0.1-121.9,0.1c-5.3,0-9.5-1.6-11.6-6.4c-2.1-5-4.9-10.5,0.7-15.3
			c0.8-0.7,0.5-1.5,0.5-2.4c-0.1-7.3-0.6-14.7,1.3-21.9c2.8-11,7.7-21,15.1-29.6c8-9.5,17.9-16.6,29.3-21.4c1.8-0.8,2.2-1.5,1.6-3.3
			c-4.4-13.9-6.9-28.2-9.2-42.6c-0.2-1.6-0.3-3.9-2.3-3.7c-2.7,0.2-5.8-2.1-8.2,1.1c-7.6,10.3-14.3,21.2-21.4,31.9
			c-11.3,16.9-22.6,33.7-33.9,50.5c-4.7,7-9.4,14-14.2,21c-9.7,14.2-19.4,28.3-29.1,42.5c-3.5,5.1-6.8,10.4-10.6,15.4
			c-3.4,4.4-8.4,5.5-13.5,4.4c-4-0.9-6.3-4.1-7.5-8.1c-1-3.2-0.2-6,1.5-8.5c13.8-20.2,27-40.9,41.1-61
			c11.3-16.1,21.7-32.8,32.7-49.1c9.1-13.5,18.5-26.9,27.6-40.4c3.9-5.8,7.4-11.8,11.2-17.6c3.9-5.9,8.5-10.2,16.4-7.8
			c2,0.6,2.4-0.8,2.6-2.5c0.5-4-1.2-7.9-0.6-11.9c0.2-1.4-0.9-1.3-1.7-1.3c-9.9,0.4-15.3-10.9-14.7-17.9c0.6-7.2,0.3-14.5,0.5-21.7
			c0.1-6.2-0.1-12.5,0.1-18.7c0.1-2.6-0.9-4-3.3-4.5c-0.4-0.1-0.8-0.1-1.1-0.3c-5.6-2.8-11-5.4-17.1-0.7c-1.7,1.3-4.3,0.9-6.6,0.9
			c-38.4,0-76.7,0-115.1,0c-7.9,0-10.4-2.4-10.6-10.5c-0.2-8.1,1-16.2,0.8-24.3c-0.3-11.6-0.1-23.2-0.1-34.9c0-14.8,0-29.6,0-44.5
			c0-5.9,2.7-8.7,8.7-8.7c40.1,0,80.2-0.1,120.4,0.2c3.7,0,5.5-0.9,7.9-3.6c4.8-5.4,10.8-8.9,18.6-8.7c13.9,0.4,27.7,0.2,41.6,0
			c3,0,6.5,2.4,8.6,0.2c1.8-1.9-0.8-5.4-0.3-8.3c0.2-1-0.2-2.1,0.1-3c0.9-2.4,0.1-3.6-1.9-5.1c-4.2-3.3-5.4-12.3,1.6-16.2
			c6-3.3,12.9-1.9,16.1,3.4c2.2,3.6,1.7,10.3-1.6,12.8c-2.4,1.9-2.5,4-2.5,6.5c0,9.7,0,9.7,9.6,9.7c13.1,0,26.3,0.2,39.4-0.1
			c6.2-0.1,11.4,1.9,15.3,6.4c3.8,4.5,8,5.9,13.9,5.8c38-0.3,76-0.2,114-0.2c2.8,0,5.7-0.6,8.5-0.4c5.1,0.4,7.1,2.8,7.1,8.2
			c0.1,3.9,0,7.7,0,11.6c0,30.1,0,60.2,0,90.4c0,1.6,0,3.3-0.2,4.9c-1.2,6.4-3.4,8.1-9.9,8.1C395.1,223.9,374.6,223.9,354.1,223.9
			L354.1,223.9z M210.9,102.4c-17.4,0-34.8,0.4-52.1-0.2c-7.9-0.3-14.6,6.9-14.5,14.5c0.4,26.9,0.2,53.7,0.2,80.6
			c0,9.5,3.9,13.3,13.5,13.3c16.8,0,33.6,0,50.4,0c19,0,38,0.1,57-0.1c7.4-0.1,12.8-5.9,12.8-13.2c0-27,0-54,0-81c0-9-5-14-14.1-14
			C246.4,102.4,228.7,102.4,210.9,102.4L210.9,102.4z M259.7,446.9c1.7,0.3,4.3,2,3.7-2.2c-4.1-30-32.2-48.2-59.2-43.8
			c-11.4,1.8-21,7.1-28.8,15.3c-7.2,7.5-11.4,16.8-13.5,27c-0.6,2.8-0.2,3.8,3.1,3.8C196.6,446.9,228.1,446.9,259.7,446.9z
			 M212.3,223.2c-14,0-28,0.1-42-0.1c-3.1,0-4.1,0.9-4.1,4c0.1,13.1,0,26.2,0.1,39.4c0,5.6,1.5,7.1,7.1,7.1c26,0,52,0,78,0
			c5.6,0,6.7-1.1,6.7-6.9c0-13-0.1-26,0.1-39c0-3.5-0.9-4.8-4.6-4.7C239.8,223.3,226,223.2,212.3,223.2L212.3,223.2z M213.8,315.4
			c-7.2,0-14.5,0.3-21.7-0.1c-3.8-0.2-4.4,1.1-4.1,4.3c0.8,6.7,1.4,13.3,2.3,20c1.3,10.5,2.8,20.9,5.4,31.2c0.5,2.1,1.1,3.8,4.2,3.4
			c9.5-1.2,19.1-1.5,28.5,1.3c2.9,0.9,3.7,0.1,4.2-2.6c1.1-6.6,2.5-13.2,3.4-19.8c1.6-11.3,4-22.5,4.2-34c0-3.1-1-3.7-3.8-3.6
			C228.8,315.5,221.3,315.4,213.8,315.4z M211.6,386c-2.5,0-5-0.3-7.5,0.1c-17,2.7-30.8,10.8-41.1,24.6
			c-7.2,9.7-11.3,20.6-11.7,32.8c0,1.4-0.4,3.1,1.9,3.4c2.2,0.3,2.7-0.9,3-2.8c1.5-8.6,4.3-16.7,8.2-24.6
			c8.9-17.8,34-30.6,53.8-27.5c28.2,4.4,48.1,24.2,50.8,52.4c0.1,1.5,0,3.3,2.2,3.1c1.9-0.2,1.7-1.8,1.8-3.2
			c0.1-9.8-2.1-19.3-7.2-27.5C253.4,397,235.2,386.5,211.6,386L211.6,386z M211.4,286.9c-5.5,0-11-0.1-16.5,0
			c-4,0.1-9.5-1.8-11.4,0.8c-2,2.6-0.6,7.9-0.7,12c-0.1,2.1,0.6,3.2,3,3.2c17.4-0.1,34.7,0,52.1,0c2.1,0,3-0.7,2.9-2.9
			c-0.1-3.2-0.1-6.5,0-9.7c0.1-2.7-1-3.5-3.5-3.4C228.6,287,220,286.9,211.4,286.9L211.4,286.9z M170.1,312.7
			c-3.4-0.3-6.5-1.1-9,2.7c-8.4,13.1-16.9,26-25.8,38.9c-9.6,14-18.8,28.4-28.3,42.6c-9.7,14.4-19.6,28.7-29.4,43.2
			c-8.9,13.2-17.8,26.4-26.7,39.6c-0.9,1.4-2,2.7-2,4.5c1.3,0.2,1.5-0.5,2-1.1c5.8-6.7,10.3-14.2,15.2-21.6c11.4-17.1,23-34,34.4-51
			c12.9-19.1,25.7-38.2,38.5-57.3c7.7-11.5,15.2-23,22.7-34.6c1.7-2.7,3.2-5.1,6.9-4.4C169.4,314.2,170,313.8,170.1,312.7
			L170.1,312.7z M254.3,313.1c4.2,0.7,7.4,1.6,9.7,5.2c8,12.9,16.2,25.6,24.7,38.2c11.7,17.3,23.6,34.4,35.4,51.6
			c6.5,9.4,13,18.8,19.3,28.4c8.6,12.8,17.9,25.1,26.1,38.2c2,3.2,4,6.7,8,9.7c-0.7-1.6-0.9-2.5-1.4-3.1
			c-9.8-14.4-19.2-29-29.3-43.2c-8.2-11.5-15.8-23.5-23.9-35.2c-10.6-15.4-21.1-30.8-31.6-46.2c-8.9-13.2-17.5-26.6-26.2-39.9
			C262.1,312.1,260.9,311.7,254.3,313.1L254.3,313.1z M121.3,188.8c0,6.2,0,12.5,0,18.7c0,1.7,0.1,3.6,2.5,3
			c2.5-0.7,4.9-0.6,7.4-0.5c1.9,0,2.5-0.4,2.4-2.6c-0.1-4.7-1.2-9.4-0.9-14.1c0.3-5.7,1.1-11.4,0.8-17.1c-0.4-9.8,1.8-8.2-8.9-8.5
			c-2.7-0.1-3.4,1.1-3.4,3.6C121.4,177.1,121.3,182.9,121.3,188.8L121.3,188.8z M121.3,135.6c0,4.2,0,8.5,0,12.7
			c0,6.7,0.1,6.3,6.4,7.8c5.8,1.3,6.3,0.5,5.7-5.6c-0.9-8.4-1-16.9,0-25.3c0.4-3.2,0.7-6.9-0.9-9.4c-1.1-1.8-4.7-0.3-7.1-0.6
			c-3-0.4-4.3,0.7-4.1,3.9C121.4,124.6,121.3,130.1,121.3,135.6L121.3,135.6z M211,459.4c-13.2,0-26.5,0-39.7,0
			c-6.2,0-12.5,0-18.7,0c-0.7,0-2.2-0.9-2.1,1c0.1,1.3,0.5,2.2,2,2.2c0.4,0,0.7,0,1.1,0c38.4,0,76.7,0,115.1,0
			c1.3,0,3.2,0.3,3.3-1.6c0-1.9-1.9-1.6-3.2-1.6c-0.9,0-1.7,0-2.6,0C247.8,459.4,229.4,459.4,211,459.4L211,459.4z M22.8,210.7
			c2.1,0,4.3-0.1,6.4,0c2.2,0.1,3.2-0.7,3.1-3c-0.1-2.9-0.1-5.8,0-8.6c0.1-2.1-0.9-2.9-2.9-2.8c-3.6,0.1-7.2,0-10.9,0
			c-4.9,0-5.1,0.3-5.2,5.1C13.2,207.5,16.4,210.7,22.8,210.7L22.8,210.7z M23.6,155.9c2.4-0.6,6.6,1.6,8.2-0.7
			c1.5-2.1,0.4-6,0.5-9.1c0-0.2,0-0.5,0-0.7c0.1-1.7-0.8-2.4-2.5-2.4c-4.6,0-9.2,0-13.8,0c-1.6,0-2.4,0.6-2.6,2.4
			c-1.3,10.2-0.9,10.6,9,10.6H23.6L23.6,155.9z M22.7,167.7c-11.2,0.3-9.2-2.1-9.5,9.7c-0.1,2.8,1.2,3.7,3.6,3.2
			c4.4-0.8,8.9-0.8,13.3-0.7c1.7,0.1,2-0.8,2.1-2.2c0.7-10,0.8-10-9.2-10L22.7,167.7L22.7,167.7z M22.8,115.2c-9.9,0-9.8,0-9.6,9.7
			c0,1.7,0.4,2.5,2.2,2.5c4.7-0.1,9.5,0,14.2,0c1.7,0,2.4-0.7,2.6-2.4c1.1-9.5,0.9-9.8-8.3-9.8C23.9,115.2,22.8,115.2,22.8,115.2z
			 M65.6,196.2c-0.5,0-1,0-1.5,0c-7.4,0.1-6.6-0.8-6.6,6.6c0,7.9,0,7.9,9.3,7.9c7.4,0,6.7,0.8,6.7-6.5
			C73.4,194.9,74.8,196.3,65.6,196.2L65.6,196.2z M45.2,210.7c1.2,0,2.5,0,3.7,0c4.2-0.1,4.5-0.4,3.8-4.5c-0.1-0.6-0.2-1.2-0.2-1.9
			c-0.3-5.4-3.2-8.1-8.6-8.1c-6.7,0-6.7,0-6.7,6.6C37.4,211.9,36,210.5,45.2,210.7L45.2,210.7z M320.8,203c0,5.1,2.6,7.6,7.9,7.6
			c0.5,0,1,0,1.5,0c5.9,0,5.9,0,5.9-5.9c-0.1-9.8,1.2-8.6-8.5-8.6C319.9,196.2,320.9,195.4,320.8,203L320.8,203z M399.5,203.7
			c0,4.6,2.4,6.9,7.1,6.9c0.4,0,0.7,0,1.1,0c7.9-0.1,7,0.9,7-6.9c0-8.7,1.1-7.5-7.5-7.5C399.5,196.1,399.5,196.2,399.5,203.7z
			 M308.7,210.7c7.1,0,7.1,0,7-5.8c-0.2-10,2-8.6-9.1-8.6c-5.8,0-6.1,0.6-6.1,6.2C300.6,211.7,299.5,210.6,308.7,210.7L308.7,210.7z
			 M387.7,210.7c4.7,0,7-2.2,6.8-6.7c0-0.1,0-0.2,0-0.4c-0.2-7.4-0.2-7.5-7.6-7.4c-7.6,0-6.9-0.8-6.8,6.7
			C380.1,211.8,378.8,210.5,387.7,210.7L387.7,210.7z M290.8,189.2c0,6.1,0.2,12.3-0.1,18.4c-0.1,2.8,2,2.7,3.3,2.8
			c1.7,0.2,1.5-1.6,1.5-2.7c0-12.2,0-24.5,0-36.7c0-1.8-0.1-3.3-2.5-3.2c-2.2,0.1-2.2,1.5-2.2,3.1
			C290.8,176.9,290.8,183.1,290.8,189.2L290.8,189.2z M295.5,136.3c0-6,0-12,0-17.9c0-1.3,0.8-3.2-1.8-3.2c-2.4,0-2.9,1.2-2.9,3.3
			c0.1,12,0,23.9,0,35.9c0,1.6,0,3,2.2,3.1c2.4,0.1,2.5-1.4,2.5-3.2C295.5,148.2,295.5,142.3,295.5,136.3L295.5,136.3z M66,156.1
			c2.4,0,6.3,0.9,7-0.2c1.2-1.8,0.4-5,0.5-7.6c0-0.9,0-1.8,0-2.6c0.1-1.9-0.8-2.7-2.7-2.7c-3,0.1-6,0.2-9-0.1
			c-3.6-0.3-4.4,1.1-4.4,4.5C57.6,155.9,57.5,155.9,66,156.1L66,156.1z M375,203.7c-0.1-8.6,1.2-7.5-7.5-7.5c-7,0-7,0-7,6.9
			c0,7.6,0,7.6,7.5,7.6C375.9,210.6,374.9,211.6,375,203.7L375,203.7z M23.2,193.4L23.2,193.4c2.4,0,4.7,0,7.1,0
			c0.9,0,1.9,0.1,1.9-1.2c0-2.9,0.9-6-0.4-8.5c-1.2-2.2-4.1-0.8-6.3-1c-1.7-0.2-3.5-0.1-5.2,0c-7.9,0.1-6.9-1-7.1,7
			c-0.1,2.9,0.1,4.9,3.9,3.9C19,193,21.2,193.4,23.2,193.4L23.2,193.4z M327.4,155.8c2,0.2,4,0.1,5.9,0.5c2.2,0.5,2.7-0.4,2.7-2.2
			c0-2.7-0.1-5.5,0-8.2c0.1-2.3-1-3-3.2-3c-3,0.1-6,0.1-8.9,0c-2.5-0.1-3.3,1.1-3.1,3.4c0.1,1,0,2,0,3
			C320.8,153.8,323,156,327.4,155.8L327.4,155.8z M308.1,143c-1.7,0-3.5,0-5.2,0c-1.3,0-2.3,0.4-2.3,1.9c0.1,3.5-1.3,7.4,0.6,10.2
			c1.5,2.2,5.2,0.5,7.8,0.8c0.4,0,0.7,0,1.1,0c5.6,0.1,5.6,0.1,5.5-5.5C315.7,141.8,316.9,143.1,308.1,143L308.1,143z M406.9,155.9
			c1.7,0,3.5-0.1,5.2,0c1.9,0.1,2.6-0.4,2.7-2.4c0.5-10.6,0.6-10.6-9.9-10.6c-3.6,0-5.4,1.9-5.4,5.6
			C399.5,153.4,402,155.9,406.9,155.9L406.9,155.9z M45.1,155.9c1.1,0,2.3-0.2,3.4,0c3.3,0.6,4.2-0.7,4.1-4c-0.2-9-0.1-9-10-9
			c-5.3,0-5.4,0-5.3,5.3C37.4,157.1,36.1,155.8,45.1,155.9L45.1,155.9z M327,167.7c-5.1,0-7.4,2.6-6.9,7.7c0.1,1.1,0.4,2.2,0.4,3.3
			c-0.1,1.6,0.6,2,2,1.7c2.7-0.6,5.4-0.3,8.1,0.2c1.4,0.3,3.6,0.9,4.4-0.9c1.4-3.4,1.9-7.2,0.7-10.6c-0.8-2.3-4.2-0.9-6.4-1.4
			C328.5,167.6,327.7,167.7,327,167.7L327,167.7z M65.5,179.9c1.8,0,3.5,0,5.2,0c1.8,0.1,2.6-0.7,2.8-2.6c0.9-9.6,0.9-9.6-8.6-9.6
			c-1.1,0-2.3,0.1-3.4,0c-3-0.3-4.2,0.8-4.1,4C57.8,181.4,56.3,179.7,65.5,179.9L65.5,179.9z M22.5,130.2c-1.5,0-3,0.1-4.5,0
			c-3.6-0.4-5.9,0.3-4.8,4.7c0.2,0.9,0.2,2.1-0.2,3c-0.9,2.3,0.2,2.4,2.1,2.4c5,0.1,10-0.6,14.9,0.4c1.8,0.4,2.1-0.7,2.2-2.1
			c0.9-8,0.6-8.3-7.5-8.3C24,130.2,23.2,130.2,22.5,130.2L22.5,130.2z M97.5,203.4c0-1.1-0.1-2.3,0-3.4c0.4-3.3-1.3-4.4-4.2-3.8
			c-3.1,0.6-7.1-0.5-9,1.2c-2,1.7-0.3,5.8-0.6,8.9c0,0.5,0,1,0,1.5c-0.2,2.1,0.8,3,2.9,2.9c1.1-0.1,2.2,0,3.4,0
			C98.5,210.6,97.4,211.7,97.5,203.4L97.5,203.4z M57.5,120.2c0,1.2,0,2.5,0,3.7c-0.1,1.8,0.7,2.7,2.6,2.8c1.5,0.1,2.9,0.7,4.4,0.6
			c10.6-0.1,8.7,1.7,9-9.1c0.1-2.2-0.8-3.2-3-3.1c-3.6,0.1-7.2,0.1-10.9-0.1c-1.8-0.1-2.1,0.6-2.1,2.1
			C57.6,118.2,57.5,119.2,57.5,120.2z M387.6,142.9c-0.5,0-1,0-1.5,0c-4.1,0-6.1,2-6.1,6c0,4.6,2.5,6.9,7.6,6.9
			c6.9,0.1,6.9,0.1,6.8-6.6C394.5,142.1,395.2,143,387.6,142.9L387.6,142.9z M375,149.8c0-1-0.1-2,0-3c0.3-2.8-0.6-4.2-3.7-3.9
			c-2.7,0.2-5.5,0.1-8.2,0.1c-1.4,0-2.5,0.4-2.5,2c0,3.5-0.9,7.4,0.5,10.2c1,2,5.3,0.4,8.1,0.7c0.5,0.1,1-0.1,1.5,0.1
			c3.9,1.4,4.8-0.5,4.4-3.9C374.9,151.3,375,150.6,375,149.8L375,149.8z M116.2,203.7c0-1.6,0-3.2,0-4.8c0-1.6-0.6-2.6-2.3-2.6
			c-2.6,0.1-5.2-0.1-7.8,0.2c-1.8,0.2-3.1,0.9-2.9,3.3c0.2,2.5,0.1,5.2-0.1,7.7c-0.3,2.8,1,3.1,2.9,3.2c1.1,0.1,2.2,0.1,3.4,0
			C117.2,210.6,116.2,211.5,116.2,203.7L116.2,203.7z M407.2,179.9c1.7,0,3.5,0,5.2,0c1.5,0,2.1-0.7,2.4-2.2c1.3-9.1,0.6-10-8.4-10
			c-0.7,0-1.5,0-2.2,0c-3.2,0-4.8,1.6-4.6,4.8C399.8,177.4,402.4,179.9,407.2,179.9L407.2,179.9z M308.1,167.7
			c-8.7,0.1-7.5-1.2-7.6,7.5c0,0.6,0,1.3,0,1.9c-0.1,2.1,0.9,2.8,2.9,2.9c3.5,0.1,7-0.4,10.5,0.3c1.4,0.3,1.8-0.6,1.8-1.7
			c0-1.1,0-2.2,0-3.4C315.6,166.5,316.9,167.8,308.1,167.7L308.1,167.7z M44.9,115.2c-0.5,0-1,0-1.5,0c-4.1,0-6.2,2-6.1,6.1
			c0,0.9,0.1,1.8,0,2.6c-0.3,2.5,0.7,3.7,3.4,3.5c2.5-0.2,5-0.2,7.5,0c3.5,0.3,4.6-0.9,4.4-4.4C52.2,114,53.6,115.3,44.9,115.2
			L44.9,115.2z M44.9,179.9c5.1,0,7.7-2.5,7.6-7.6c0-0.5,0-1,0-1.5c0.2-2.2-0.7-3.2-3-3.1c-2.5,0.1-5,0.2-7.5,0
			c-3.8-0.4-5,0.9-4.8,4.8C37.6,181.1,36.2,179.8,44.9,179.9L44.9,179.9z M367.4,179.9c1.6,0,3.3-0.2,4.9,0.1
			c2.3,0.4,2.8-0.5,2.7-2.6c-0.3-11.8,1.6-9.5-9.2-9.7c-0.5,0-1,0.1-1.5,0c-3.6-0.5-4.8,0.9-4.7,4.5
			C359.9,179.9,359.8,179.9,367.4,179.9L367.4,179.9z M300.5,121.3c1,1.3-1.7,4.5,1.8,5.2c3.6,0.8,7.4,1.2,11.1,0.9
			c1.5-0.1,2.1-0.7,2.3-2.3c1.1-7.9-0.6-9.9-8.4-9.9c-0.4,0-0.7,0-1.1,0C302.4,115.2,300.5,117.2,300.5,121.3L300.5,121.3z
			 M327.8,127.4c1.7,0,3.5,0,5.2,0c1.1,0,2-0.4,2.1-1.6c0.2-2.5,0.5-4.9,0.5-7.4c0-2.3-1-3.6-3.7-3.2c-2,0.3-4,0-6,0
			c-5.3,0-5.3,0-5.3,5.3C320.8,128.3,319.9,127.3,327.8,127.4L327.8,127.4z M91.2,155.9c6.3,0,6.3,0,6.3-6c-0.1-8.1,1-6.9-7.7-7
			c-6-0.1-6,0-6,5.7C83.9,157,82.8,155.8,91.2,155.9L91.2,155.9z M387.7,127.4c1.7,0,3.5,0,5.2,0c1.5,0,2.3-0.6,2.3-2.2
			c-0.1-6.7-3.5-10-10.2-10c-0.7,0-1.5,0-2.2,0c-1.9-0.1-2.7,0.8-2.7,2.7C380.1,128.9,379.1,127.3,387.7,127.4L387.7,127.4z
			 M387.8,180c1.6,0,3.2-0.1,4.8,0c1.4,0.1,1.7-0.4,1.8-1.6c1.5-9.5,0.5-10.7-8.8-10.7c-0.5,0-1,0.1-1.5,0c-3.3-0.5-4.3,0.9-4.2,4.2
			C380.3,181.2,378.8,179.8,387.8,180L387.8,180z M407.3,126.7c5,0,7.5-2.5,7.4-7.5c0-0.4,0-0.8,0-1.1c0.2-2.1-0.9-2.9-2.9-2.8
			c-2.9,0.1-5.8,0.3-8.6-0.1c-3.4-0.5-3.8,0.9-3.8,3.8C399.6,126.7,399.5,126.7,407.3,126.7L407.3,126.7z M109.5,155.9
			c6.7,0,6.8,0,6.7-6.5c0-7.3,0.7-6.5-6.7-6.5c-6.6,0-6.6,0-7,5.7C102.2,153.5,104.5,155.9,109.5,155.9L109.5,155.9z M65.8,182.7
			c-9.4,0.2-8.2-1.9-8.3,8.6c0,0.1,0,0.2,0,0.4c0,1.8,0.6,2.2,2.5,1.9c3.2-0.4,6.4-0.6,9.6,0.3c2.7,0.7,3.9-0.1,3.9-3.1
			C73.3,181.2,74.5,182.9,65.8,182.7L65.8,182.7z M367.4,115.2c-4.6,0-6.9,2.2-6.9,6.7c0,0.1,0,0.3,0,0.4c-0.5,3.1,0.3,4.7,3.9,4.8
			c2,0,4.2,0.2,6.3,0.4c3.5,0.5,4.5-1.1,4.4-4.4C374.8,114,376.1,115.3,367.4,115.2L367.4,115.2z M407,194.2
			c8.7-0.2,7.6,1.6,7.7-8.2c0-2.4-0.7-3.5-3.2-3.3c-2.7,0.1-5.5,0.2-8.2,0c-3-0.2-3.9,1-3.8,3.9C399.7,195.4,398.5,194,407,194.2
			L407,194.2z M91.1,179.9c1.6,0,3.2,0,4.8,0c1.3,0,2.1-0.4,2.2-1.9c0.7-8.9-0.5-10.3-9.4-10.3c-6.1,0-4.9-0.5-5,4.9
			C83.7,179.9,83.8,179.9,91.1,179.9z M367.6,182.7c-1.6,0-3.2,0-4.9,0c-1.5,0-3,0.2-2.8,2.1c0.3,3.1-1.4,6.4,1.1,9.2
			c0.2,0.2,1,0.2,1.4,0c2.7-0.9,5.3-0.6,8.1,0c2.9,0.7,4.7,0,4.6-3.7C374.8,181.4,376,182.8,367.6,182.7z M309.4,182.7
			c-2.8,0-4.6,0-6.3,0c-1.7,0-2.7,0.7-2.5,2.4c0.3,2.8-1.1,5.9,0.9,8.5c0.1,0.1,0.8-0.2,1.1-0.1c2.9,1.1,5.8-0.7,8.7,0.3
			c3.2,1.1,4.5-0.2,4.4-3.6C315.7,181.5,316.8,182.8,309.4,182.7L309.4,182.7z M109.3,179.9c0.6,0,1.2,0,1.9,0c5.1,0,5.1,0,5-5.2
			c-0.1-8.2,1.1-6.9-8.1-7c-5.6-0.1-5.6,0-5.6,5.4C102.5,177.6,104.8,179.9,109.3,179.9L109.3,179.9z M109.9,115.2
			c-1.1,0-2.3,0.1-3.4,0c-3.1-0.4-4.2,0.8-4.1,4c0.3,9.7-1.2,8.1,8,8.3c1,0,2,0,3,0c1.9,0.1,2.8-0.7,2.7-2.6c0-1.1,0-2.2,0-3.4
			C116.3,117.3,114.2,115.2,109.9,115.2L109.9,115.2z M91.1,115.2c-1.6,0-3.2,0-4.8,0c-1.2,0-2.1,0.3-2.4,1.7
			c-2,7.7,0,10.5,7.7,10.5c4,0,6-1.9,6-5.8C97.5,117.3,95.4,115.2,91.1,115.2L91.1,115.2z M89.7,182.7c-4.3,0-6.4,2.2-6.3,6.6
			c0,0.7-0.2,1.5-0.3,2.2c-0.1,1.4,0,2.2,2.1,2.5c3.7,0.6,7.4-1,11,0.1c1.1,0.3,1.8-0.4,2-1.6C99.1,184.9,97.2,182.7,89.7,182.7
			L89.7,182.7z M44.9,182.7c-8.7,0.1-7.5-1.3-7.6,7.8c0,0.1,0,0.3,0,0.4c-0.3,1.9,0.5,2.6,2.5,2.6c3.2,0,6.4-0.2,9.6,0.5
			c2,0.4,3.2-0.5,3.2-3.1C52.6,182.7,52.7,182.7,44.9,182.7z M327.8,182.7c-1.9,0.4-5.1-1.2-6.4,0.8c-1.6,2.7-1.1,6.4-0.3,9.4
			c0.6,2.5,3,0.1,4.6,0.4c1.1,0.2,2.2,0,3.4,0c2.1,0,4.7,0.7,6.2-0.3c2-1.3-0.4-3.8,0-5.9c0.7-3.5-0.8-5.1-4.5-4.6
			C329.9,182.8,329,182.7,327.8,182.7L327.8,182.7z M65.5,140.2c5.7,0,8.3-2.4,8-7.1c0-0.2,0-0.5,0-0.7c0-1.4-0.8-2.1-2.1-2.1
			c-3.9,0.1-7.7,0.1-11.6,0.2c-1.1,0-2,0.2-2.3,1.8c-1,6.8-0.2,7.9,6.5,7.9C64.5,140.2,65,140.2,65.5,140.2L65.5,140.2z
			 M388.2,182.7c-2.5,0-4.1,0-5.7,0c-1.5,0-2.5,0.6-2.4,2.2c0.3,2.8-1.1,5.9,0.9,8.5c0.2,0.2,0.7,0.1,1.1,0.1c3.3,0.1,6.7,0,10,0.4
			c2,0.2,2.4-0.5,2.4-2.2C394.4,180.8,395.5,182.9,388.2,182.7z M116.3,188.4c0-3.8-1.9-5.7-5.6-5.7c-1.9,0-3.7,0-5.6,0
			c-1.7,0-2.6,0.7-2.5,2.4c0.1,2.6-0.5,5.5,0.4,7.7c0.7,1.6,3.7,0.1,5.5,1c0.3,0.2,0.7,0.2,1.1,0.3
			C115.6,195,116.3,194.4,116.3,188.4z M367.4,140.2v0.1c1.4,0,2.8-0.3,4.1,0.1c3,0.9,3.5-0.5,3.5-3c-0.1-8.4,0.6-7.1-6.8-7.2
			c-1.2,0-2.5,0.1-3.7,0c-3.9-0.6-5,1-4.8,4.8c0.3,5.2,0.1,5.2,5.1,5.2C365.7,140.2,366.6,140.2,367.4,140.2L367.4,140.2z
			 M328.1,130.2L328.1,130.2c-1.6,0-3.2,0-4.9,0c-1.2,0-2.4,0.3-2.4,1.7c-0.1,2.4-0.1,4.7,0,7.1c0.1,1.2,0.9,1.4,2.1,1.4
			c3.4,0,6.9-0.7,10.3,0.3c1.5,0.5,2.4-0.6,2.6-2.3c0.8-5.9-1.2-8.3-7.1-8.3C328.6,130.2,328.4,130.2,328.1,130.2L328.1,130.2z
			 M308.2,140.2L308.2,140.2c1.1,0,2.3-0.2,3.4,0.1c3.6,1,4.5-0.8,4.2-3.9c-0.1-0.9-0.1-1.8,0-2.6c0.2-2.5-0.7-3.7-3.4-3.6
			c-2.7,0.2-5.5,0.2-8.2,0c-2.8-0.2-3.7,0.9-3.7,3.7c0,6.3-0.1,6.3,6.2,6.3C307.2,140.2,307.7,140.2,308.2,140.2L308.2,140.2z
			 M407.2,140.2c5.1,0,7.6-1.6,7.6-4.9c0-3.3-1.7-5-5.2-5c-1.6,0-3.2,0-4.9,0c-3.4,0-5.1,1.7-5.1,5.1c0,3.2,1.7,4.9,5,4.9
			C405.4,140.2,406.3,140.2,407.2,140.2L407.2,140.2z M45.2,130.2c-5.7,0-8.3,2.4-7.9,7.2c0,0.1,0,0.2,0,0.4
			c-0.1,1.8,0.9,2.4,2.6,2.4c3.4,0,6.7,0,10.1,0c1.2,0,2.1-0.3,2.5-1.7c1.5-6-0.1-8.2-6.1-8.2C46,130.2,45.6,130.2,45.2,130.2
			L45.2,130.2z M355.5,203.7L355.5,203.7c0-1.7,0-3.5,0-5.2c0-0.9-0.2-1.7-1.2-2.1c-4.1-2-9,0.5-9.3,4.9c-0.2,2.6,0.4,5.2,0.6,7.7
			c0.1,1,0.8,1.4,1.7,1.6c6.2,1.5,8.2,0,8.2-6.1C355.5,204.2,355.5,204,355.5,203.7L355.5,203.7z M387.3,140.2c7.7,0,8-0.4,7.2-7.5
			c-0.2-1.7-0.9-2.5-2.6-2.4c-3.1,0-6.2,0-9.4,0c-1.2,0-2.1,0.3-2.5,1.7c-1.6,5.9,0.1,8.3,6.1,8.3
			C386.5,140.2,386.9,140.2,387.3,140.2L387.3,140.2z M90.1,140.2c0.9,0,1.8-0.1,2.6,0c3.8,0.6,5-1,4.8-4.8
			c-0.3-5.2-0.1-5.2-5.1-5.2c-2.2,0-4.5,0-6.8,0c-1.4,0-2.3,0.3-2.7,1.9c-1.3,6.4-0.1,8,6.4,8C89.6,140.2,89.9,140.2,90.1,140.2z
			 M109.4,140.2c0.9,0,1.8-0.1,2.6,0c3.3,0.5,4.6-0.5,4.4-4.1c-0.3-6.1-0.1-6.1-6.6-5.9c-2,0.1-3.9,0.5-5.9,0.7
			c-0.9,0.1-1.1,0.6-1.3,1.4c-1.3,6.1,0,7.8,6.1,7.8C108.9,140.2,109.1,140.2,109.4,140.2z M192.4,374.1c-0.1-0.6-0.2-1.2-0.4-1.8
			c-3.1-13.3-5.4-26.8-7.5-40.2c-0.2-1.1,0.1-2.7-1.4-2.6c-1.9,0.1-1.1,1.9-0.9,3c1.2,7.7,2.5,15.4,3.6,23.2
			c0.9,6.3,3.4,12.2,3.8,18.6c0.1,0.9,0.6,1.7,1.7,1.5C192.3,375.5,192.7,375,192.4,374.1L192.4,374.1z M355.5,150.4
			c0-8.1,0-8-7.2-7.5c-1.8,0.1-2.8,0.7-2.7,2.7c0.1,2.7,0,5.5,0,8.2c0,0.8-0.2,2,1,2c2.7,0.2,5.7,1,8.1,0.1
			C356.6,155.2,355.1,152.1,355.5,150.4L355.5,150.4z M355.5,173.6c0-4.1-2-6-6.1-5.7c-0.2,0-0.5,0.2-0.7,0.1c-4-1.2-4,1.3-3.8,4.1
			c0.1,0.7,0.2,1.5,0.4,2.2c1,5.8,1,5.6,6.8,5.7c2.9,0,3.9-1.1,3.6-3.7C355.4,175.4,355.5,174.5,355.5,173.6L355.5,173.6z
			 M355.5,120.6c0-3.6-1.9-5.4-5.6-5.4c-0.5,0-1,0-1.5,0c-2.1-0.2-2.9,0.8-2.9,2.9c0.2,9.8-1.2,8.5,7.3,8.6c1.9,0,2.8-0.8,2.7-2.7
			C355.5,122.9,355.5,121.7,355.5,120.6L355.5,120.6z M355.5,188.9c0-4.1-1.6-6.2-4.7-6.2c-3.5,0-5.3,1.9-5.3,5.7
			c0,5.6,0,5.8,8.2,5.3C357.1,193.5,354.6,190.3,355.5,188.9L355.5,188.9z M355.5,136.2c0-4-1.6-6.1-4.9-6.1c-3.4,0-5.1,1.6-5.1,4.8
			c0,5.2,0,4.9,6.2,5.3C356,140.6,355.7,138.3,355.5,136.2L355.5,136.2z"/>
		<path fill="#FFFFFF" d="M159.8,29.6c0.2-1.8,0.8-3,1.8-4c8.8-9,17.9-17.5,30-21.7c10.5-3.7,21.2-4.9,32.3-3.3
			C238.3,2.8,249.9,10,260,20c2.1,2.1,3.8,4.6,5.5,7c1.7,2.5,1.5,5.2-1,6.9c-2.6,1.7-4.9,0.4-6.6-2.1c-7.9-11.5-18.6-19-32.3-21.7
			c-22.5-4.5-41.2,2.4-55.9,19.9c-0.8,1-1.7,1.8-2.6,2.7c-1.5,1.6-3.4,1.9-5.1,1C160.5,33,160.1,31,159.8,29.6L159.8,29.6z"/>
		<path fill="#FFFFFF" d="M247.6,46.9c-1.5,0.3-2.2-0.7-3-1.7c-4.5-5.6-9.2-10.7-16-13.8c-14.9-6.9-34-2.3-43.7,10.9
			c-0.7,0.9-1.4,1.8-2.2,2.5c-1.8,1.8-4,2.9-6.2,0.9c-2.2-2-2.2-4.6-0.5-6.7c14.6-17.7,37.4-26.5,59.8-13.3
			c6.2,3.7,11.3,8.5,15.5,14.3c1.1,1.5,1,3.1,0.1,4.5C250.7,45.9,249.6,47.1,247.6,46.9L247.6,46.9z"/>
		<path fill="#FFFFFF" d="M211.8,38.1c10.3,0,17.5,4.2,23.4,11.1c2.1,2.4,2.2,6,0.1,7.4c-2.4,1.6-4.9,1.3-7.1-0.9
			c-1.7-1.8-3.4-3.7-5.4-5.2c-6.9-5.2-17.9-3.7-23.4,3.2c-0.5,0.7-1.2,1.3-1.8,1.9c-2.2,1.8-4.5,3-7,0.7c-2.5-2.3-2.1-5-0.3-7.4
			c2.8-4,7-6.3,11.3-8.3C205.1,38.9,208.9,37.8,211.8,38.1L211.8,38.1z"/>
		<path fill="#FFFFFF" d="M214.5,180.4c-18.2-0.7-32.9-14.3-32.8-32.1c0.1-19.2,13.5-31.9,31.9-32c16.6-0.1,32,14.1,32.1,33.3
			C245.9,165.4,230.3,180.5,214.5,180.4L214.5,180.4z M213.3,125.7c-14.1-0.5-22.9,10.6-23,23c-0.1,12,11.9,24,23.9,23.3
			c12.3-0.8,23.1-9.8,23.4-23.2C237.8,137.4,227.8,125.1,213.3,125.7L213.3,125.7z"/>
		<path fill="#FFFFFF" d="M212,226.4c11.6,0,21.9,10.2,21.8,21.5c-0.1,9.7-10.4,19.8-20.5,19.4c-12.8-0.5-22.1-9.5-22.6-20.9
			C190.1,235.8,200.6,226.4,212,226.4L212,226.4z"/>
		<path fill="#FFFFFF" d="M214,165.7c-10.1-0.5-18-8.7-17.4-18.1c0.5-9,9-17.7,17.1-17.1c9.3,0.6,17.7,8.7,17.7,17.2
			C231.3,159.4,220.8,165.8,214,165.7L214,165.7z M224.3,149.3c0-6.6-5.1-12.4-10.9-12.4c-5.6,0-10.1,4.9-10.3,11.2
			c-0.1,4.9,6.2,11.5,11,11.5C219.5,159.6,224.3,154.8,224.3,149.3L224.3,149.3z"/>
	</g>
</g>
</svg>
