<?xml version="1.0" encoding="utf-8"?>
<!-- Generator: Adobe Illustrator 26.3.1, SVG Export Plug-In . SVG Version: 6.00 Build 0)  -->
<svg version="1.1" id="Layer_2_00000000188212989342043920000017299665209392500101_"
	 xmlns="http://www.w3.org/2000/svg" xmlns:xlink="http://www.w3.org/1999/xlink" x="0px" y="0px" viewBox="0 0 480.7 489.7"
	 enable-background="new 0 0 480.7 489.7" xml:space="preserve">
<g id="Layer_1-2">
	<g>
		<path fill="#FFFFFF" d="M196.5,259.4c-10.9,4.4-21.4,8.7-31.9,12.7c-13.1,5-26.5,9.3-39.1,15.8c-4.3,2.2-8.6,0.1-10.7-5.2
			c-3.3-8.5-5.8-17.3-8.4-26.1c-2.4-8.1-5.2-16-7.8-24c-0.5-1.6-1.3-2.8-3.6-1.9c-2.3,0.9-3.9-0.8-5-2.7c-2.2-3.6-3.4-7.6-4.3-11.6
			c-0.7-2.8,1.9-3.4,3.9-4c1.2-0.4,2.7-0.1,4.1-0.1c-1.4-5.1,0.2-8.8,4.9-11.1c5.8-2.8,7.8-2.5,11.5,2.4c1.2,1.5,2.2,0.4,2.7,0.2
			c27.3-9.9,54.7-19.5,81.7-30.1c14.4-5.7,28.7-11.8,43.2-17.4c17-6.5,34-13,51.1-19.1c7.2-2.6,14.4-5.3,21.5-8.3
			c2.8-1.2,3.8-0.5,5,2c3.6,8,5.6,16.6,8.3,25c5.8,18.6,11.3,37.4,17.1,56c0.8,2.4,0,3.4-2,4.1c-12.4,4.8-24.6,10.2-37.3,14
			c-1.6,0.5-2.4,1.2-2.7,2.5c-1.3,6.4-3.5,12.4-5.6,18.5c-0.6,1.6-0.9,3.2,0.9,3.7c4.5,1.2,4.4,4.9,4.6,8.2
			c0.2,5.9,0.6,11.8-0.1,17.6c-0.8,7.7,2.4,14.4,4.2,21.4c6.4,25.6,16.1,50.2,23.8,75.4c3,9.7,6.1,19.3,9.3,28.9
			c0.5,1.4,0.5,2.9,0.9,4.3c0.7,2.7-1.6,4.7-4.6,4.8c-6.1,0.2-12.3,0.6-18.2,0.4c-6.5-0.3-13.1,1.5-19.6-0.3
			c-1.5-0.4-2.5-1.2-3.3-2.2c-1.7-2.3-1.8-12.4-0.4-14.8c0.5-0.9,1.3-1.1,2.2-1.1c3.4,0.3,6.9-0.5,10.4,0.6c2.2,0.7,4.4,0.7,3-3.2
			c-4.2-11.7-8.1-23.5-12-35.4c-5.3-16.4-10.5-32.8-16.5-48.9c-0.7-2-1.6-2.4-3.4-2.4c-3.5,0.1-7,0.2-10.5,0
			c-3.3-0.3-4.4,0.6-4.4,4.2c0.2,32.4,0.1,64.7,0.1,97.1c0,6,0,6.1-5.9,6c-5.1-0.1-10.3,0.8-15.4,0.1c-3.9-0.5-6.6-3.5-5.5-7.2
			c0.5-1.5,0.5-2.9,0.5-4.4c0-29.5,0-59,0-88.5c0-0.9,0-1.8,0-2.6c0.1-3.1-1.5-4.6-4.7-4.6c-3,0-6.1,0.4-9-0.1
			c-3.6-0.6-4.7,1.5-5.6,4.1c-6.1,18.4-12.2,36.8-18.2,55.2c-3.1,9.4-6.7,18.6-9.3,28.1c-0.8,2.8,0.3,2.6,2.1,2.6
			c3.6,0,7.3,0.1,10.9,0c2.3-0.1,3.2,0.8,3.1,3.1c-0.1,2.4,0.1,4.8,0,7.1c-0.2,6.3-2,7.5-7.4,7.7c-11,0.5-21.9-1.1-32.9-0.7
			c-3,0.1-5.3-4.1-4.3-7.5c2.1-7.2,4.2-14.3,6.3-21.4c6.7-22.2,13.5-44.3,20.2-66.5c1.8-5.8,3.5-11.7,5.3-17.5
			c0.8-2.7,1.7-5.4,3.7-7.5c3.3-3.6,2.6-8.2,2.9-12.3C196.9,274.9,196.5,267.2,196.5,259.4L196.5,259.4z M195.5,250
			c2.6-2.2,5.2-4.3,7.6-6.5c3.8-3.4,7.3-7.2,11.4-10.1c2.2-1.6,2.6-2.6,1.2-4.5c-2.7-3.4-3.4-7.4-3.4-11.4
			c0.2-11.9,4.1-21.7,15.3-28.1c13-7.5,37.7-5.8,43.9,13.9c3.1,9.7,4,19.2-2.4,28.1c-1,1.4-0.2,1.8,0.7,2.6c4.1,3.8,8,7.6,12,11.5
			c2.9,2.8,2.9,2.9,4.3-1c3.8-10.7,7.2-21.3,6.5-33c-0.5-7.8-2.1-15.3-6-21.7c-7.9-13.2-20.4-21.3-35.5-23.1
			c-16.9-2-31.9,3.5-44.2,15.8c-10.4,10.4-14.8,23.1-15.6,37.2C190.7,230,193.2,239.8,195.5,250L195.5,250z M189.2,192
			c-1.2,0.1-1.7,0-2.1,0.1c-11.2,4.1-22.4,8.2-33.6,12.4c-11.4,4.3-22.8,8.8-34.3,12.8c-3.6,1.3-4.4,2.5-3.4,6.3
			c3.7,13.3,8.4,26.2,12.5,39.4c1.8,5.9,2,5.9,8.3,3.2c0.7-0.3,1.4-0.5,2.1-0.8c13.9-4.9,27.5-10.7,41.6-15.1
			c1.9-0.6,2.4-1.6,1.3-3.6c-1.6-2.9-2.1-6.2-2.5-9.4c-3.5,1.5-6.9,3.2-10.5,4.5c-10.4,3.8-20.5,8.5-31,11.9
			c-2.2,0.7-2.7-0.3-3.2-1.7c-1.3-3.4-2.5-6.9-3.8-10.3c-0.6-1.5-0.5-2,1.3-2.8c14.9-6.2,30.2-11.3,45.3-16.7
			c3.3-1.2,4.4-3.1,4.3-6.1c-0.1-4.2,0.9-8.2,2.1-12.2C184.9,199.9,187.3,196.4,189.2,192L189.2,192z M243.1,231.8
			c4.9-0.3,10.1,0.1,14.2-2.9c8.1-5.8,8.9-19.5,2.1-26.9c-3.9-4.2-8.7-6-14.3-6.4c-5.3-0.4-10,0.7-14.3,3.8
			c-5.2,3.8-6.4,9.6-7.2,15.3c-0.9,7.1,3.8,14.7,10,16C236.7,231.4,239.9,232.3,243.1,231.8L243.1,231.8z M276.8,258.7
			c-4.9-4.6-9.4-9.6-14-14.3c-2-2-3.9-2.9-6.8-2.9c-9.5,0.2-19,0.3-28.4-0.1c-2.7-0.1-5.2-0.1-6.8,2c-3,3.9-6.7,7-10,10.5
			c-1.3,1.4-2.3,2.8-2.5,4.8L276.8,258.7L276.8,258.7z M267.9,162.4c6.6,2.9,12,7.1,17,11.9c1.1,1.1,2,0.7,2.9,0.4
			c7.8-2.7,15.6-5.5,23.5-8.1c1.6-0.5,1.7-1.4,1.4-2.4c-1.6-5.4-3.5-10.6-5.1-16c-0.4-1.3-0.7-1.1-1.8-0.7
			C293.2,152.3,280.1,155.9,267.9,162.4L267.9,162.4z M302.5,212.2c7.2-2.3,14.2-4.5,21.2-6.7c1.5-0.5,1.8-0.9,1.3-2.6
			c-2.2-7.3-4.2-14.8-6.3-22.2c-0.4-1.4-1-2-2.7-1.3c-6.3,2.6-12.7,5-19.1,7.4c-1.7,0.7-0.9,1.7-0.5,2.6
			C299.6,196.6,301.4,204.2,302.5,212.2L302.5,212.2z M259.6,291.1c5.1,0.1,9.8-0.6,14.7,0.4c2.7,0.6,5.7-0.1,8.6-0.1
			c0.8,0,1.1-0.3,1-1.1c-0.9-5.7,0.1-11.4-0.6-17.1h-23.7V291.1L259.6,291.1z M210,273.8c-0.3,4.8,0.4,9.9-0.8,14.9
			c-0.5,2.1,0.9,2.4,2.6,2.4c6.4,0,12.8-0.4,19.1,0.2c2.4,0.2,2.3-0.3,2.3-2c0-4-0.2-8,0-12c0.2-2.7-0.5-3.7-3.4-3.6
			C223.4,273.9,216.9,273.8,210,273.8L210,273.8z"/>
		<path fill="#FFFFFF" d="M384.6,142.7c3.5-2.7,7.5-2.6,11,0.4c2.4,2.1,2.6,5.8,0.5,8.7c-0.5,0.7-1.1,1.5-1.8,1.8
			c-5.2,2.1-3.3,5.7-2.2,9.3c2,6.6,4,13.3,5.9,20c1.8,6.3-1.2,13.1-7.2,15.7c-9.2,4-18.6,7.5-27.8,11.3c-3.1,1.3-6.2,2.8-9.2,4.4
			c-2.3,1.2-3.4,0.9-4.2-1.8c-2.8-10.1-6.1-20.1-8.8-30.2c-4.4-16.3-9.3-32.4-14.5-48.4c-0.3-1.1-0.5-2.1-0.8-3.2
			c-2-6.5-3.3-6.4,4.9-9.5c10.5-3.9,21-7.9,31.5-12c6.1-2.4,10.6-1.5,13.1,4.1C378.9,123,380.3,133.3,384.6,142.7L384.6,142.7z
			 M377.5,160.8c-3.2,1.3-6.3,2.8-9.5,3.9c-2,0.7-2.4,1.4-1.7,3.4c1.8,5.7,3.3,11.4,4.9,17.2c1.3,4.6,1.5,4.7,6,3.3
			c2.1-0.6,4.2-1.4,6.3-1.8c2.3-0.5,2.2-1.8,1.7-3.6c-2.2-6.9-4.4-13.9-6.5-20.9C378.5,161.6,378.3,161,377.5,160.8L377.5,160.8z
			 M361.3,153.6c2.6-3.7,6.5-3.7,9.7-4.9c1.9-0.7,2.2-1.3,1.7-3c-2.4-7.5-4.8-15-7.2-22.6c-3.5,1.5-6.9,3-10.4,4.4
			c-1.3,0.5-0.8,0.9-0.6,1.8C355.9,137.4,358.9,145,361.3,153.6L361.3,153.6z"/>
		<path fill="#FFFFFF" d="M277.4,1.4c3.3,3.5,4.9,7.7,6.1,11.8c2.4,8.3,8.6,11.3,16.1,13c2.4,0.5,4.7,1.2,6.9,2.3
			c1.3,0.6,3.2,0.7,3.1,2.6c-0.1,1.7-1.2,3.2-2.8,4.1c-2.6,1.4-5.4,2.4-8.2,3c-2.8,0.6-5.2,1.9-7.9,2.9c-5.4,2-6,7.3-8,11.6
			c-0.9,2.1-1.5,4.4-2.4,6.5c-0.4,0.9-0.5,2.1-2.1,2.2c-1.6,0.1-1.9-1.1-2.3-2c-1.9-3.8-4.1-7.6-5-11.8c-0.8-3.7-3.2-5.3-6.3-6.5
			c-3.7-1.3-7.4-2.5-11-3.8c-1.4-0.5-2.7-1.1-4-1.9c-1.6-1.1-3.7-2.3-3.5-4.3c0.1-1.7,2.4-2.3,4-2.9c2.9-1,5.7-2.1,8.7-2.8
			c5.5-1.4,10-3.6,12.1-9.5C272.7,11.1,275.1,6.5,277.4,1.4L277.4,1.4z"/>
		<path fill="#FFFFFF" d="M91.1,361.4c2.4,5,4.5,9.1,6.4,13.4c2,4.8,5,8.1,10.4,9.4c4.7,1.1,9.4,2.2,13.5,5.2
			c2.2,1.6,1.8,2.5,0.2,3.9c-2.5,2.1-5.5,3.1-8.5,4.2c-0.6,0.2-1.2,0.2-1.8,0.3c-8.6,1.6-14.1,6.4-16,15.2c-0.4,2-1.4,3.9-2.1,5.8
			c-0.4,1-0.7,1.9-2,1.9c-1.2,0-1.6-0.8-2.1-1.8c-1.8-3.6-4.3-7-5-11c-1-5.8-5-7.7-9.8-8.9c-4.4-1.2-8.8-2.2-12.4-5.1
			c-2.9-2.3-2.9-3.6,0.3-5.4c4.2-2.4,8.9-3.2,13.5-4.4c4.9-1.2,7.3-4.3,9-8.6C86.6,371.1,88.7,366.7,91.1,361.4L91.1,361.4z"/>
		<path fill="#FFFFFF" d="M80.5,141c-0.6-0.8-1.4-1.3-1.7-2.1c-2.5-5.3-4.9-10.6-7.3-16c-0.9-2-2.4-3-4.3-3.6
			c-4-1.2-7.8-2.9-11.5-4.7c-2.3-1.1-4.2-2.7-3.8-5.3c0.3-2,2.5-2.2,4.2-2.8c4.5-1.5,9-3,13.5-4.4c1.4-0.4,1.8-1,2.5-2.2
			c2.7-4.7,4.9-9.5,6.8-14.6c0.3-0.7,1.1-1.2,1.7-1.8c0.6,0.6,1.4,1.1,1.8,1.9c1.4,3,2.8,6,3.8,9.1c1.9,5.5,5.4,8.7,11.2,9.9
			c3.4,0.7,6.9,1.6,10.2,2.8c3.5,1.3,2.7,2.8,1.2,5.1c-2.1,3-5.7,3.9-8.6,4.5c-9,1.7-13.1,7.6-15.4,15.5c-0.6,2.2-1.6,4.3-2.3,6.5
			C82.1,139.7,81.3,140.2,80.5,141L80.5,141z"/>
		<path fill="#FFFFFF" d="M452.3,180.2c0.3,0.4,0.9,0.9,1.3,1.6c1.4,2.5,2.9,4.8,4,7.4c2.1,5.3,6,7.9,11.5,8.8
			c2.9,0.5,5.7,1.3,8.4,2.4c3.1,1.3,3.2,2.6,1.2,5.3c-2.1,2.7-5.5,4-8.3,4.3c-10,1.1-12.3,8.6-15,16.2c-0.2,0.7-0.6,1.4-0.7,2.1
			c-0.2,1-0.6,1.7-1.6,1.8c-1.2,0.2-1.8-0.5-2.2-1.5c-2-4.4-4.1-8.6-5.9-13c-0.8-1.9-1.8-2.8-3.7-3.5c-4-1.4-8.2-2.4-11.8-4.9
			c-1.6-1.1-2.5-2.4-2.5-4.1c-0.1-2.2,1.9-2.8,3.4-3.4c2.7-1,5.6-1.9,8.4-2.4c3.6-0.6,6-2.6,7.5-5.8c1.5-3.1,2.8-6.2,4.3-9.3
			C450.8,181.5,450.8,180.5,452.3,180.2L452.3,180.2z"/>
		<path fill="#FFFFFF" d="M392.4,472.6c-0.5,0.6-0.9,1-1.3,1.5c-4.1,4.2-8.9,7.9-10.8,13.9c-0.6,1.9-2.2,1.2-2.7,0.1
			c-2.6-5.8-7.6-9.4-11.7-13.8c-1.6-1.7-1.5-2.3,0.3-3.9c3.6-3.2,7.4-6.4,10.1-10.6c0.6-1,1.7-2.3,2.9-0.6
			c3.4,4.8,8.1,8.3,12.3,12.3C391.8,471.7,392,472.1,392.4,472.6L392.4,472.6z"/>
		<path fill="#FFFFFF" d="M400.9,358.5c-2.7,1-4.1-1.2-5.7-3c-1.3-1.5-2.5-3.2-4.1-4.2c-2.7-1.6-2.4-3.1-0.5-5
			c2.4-2.4,5.1-4.4,6.3-7.9c0.6-1.8,7-1.3,8.6,0.9c2.2,3,5,5.5,7.6,8.2c0.6,0.6,1.5,1.3,0.4,2.1c-2.8,2.2-4.1,5.8-7.4,7.7
			C404.4,358.3,402.9,358.5,400.9,358.5L400.9,358.5z"/>
		<path fill="#FFFFFF" d="M186.1,105.9c-3.8,4.4-6.8,9.1-11.5,12.7c-2.3-4.1-5.1-7.7-8.6-10.8c-0.7-0.6-1.3-1.2-0.4-2.2
			c2.9-3.5,5.7-7.1,8.6-10.6c1-1.2,1.6,0,2.1,0.5c1.9,2.1,4.2,3.8,5.8,6.3C182.9,103.4,183.9,105.3,186.1,105.9L186.1,105.9z"/>
		<path fill="#FFFFFF" d="M385.5,289.9c0,5.1-2,7.1-7.2,7.1c-4.7,0-7.8-3.1-7.8-7.8c0-4.2,3.7-8,7.6-7.9
			C382.9,281.3,385.5,284.4,385.5,289.9L385.5,289.9z"/>
		<path fill="#FFFFFF" d="M85.5,45.8c-4.5,0-7.5-2.8-7.5-7.4c0.1-5.2,4.1-8.8,8.3-8.5c3.8,0.3,6.8,3.2,6.6,7.3
			C92.6,43.4,89.5,46.3,85.5,45.8z"/>
		<path fill="#FFFFFF" d="M10.5,181.5c-1.2,0.2-1.8-0.5-2.3-1.2c-1.6-1.8-3.3-3.6-4.8-5.6c-1-1.4-1.4-2.7-0.1-4.6c1.7-2.4,4-4,5.8-6
			c0.9-1,2.4-0.8,3.1-0.3c2.4,2,4.5,4.3,6.8,6.4c0.5,0.5,0.1,0.8-0.2,1.2c-2.1,3-4.1,6.1-6.2,9.1C12.1,181.2,11.4,181.8,10.5,181.5
			L10.5,181.5z"/>
		<path fill="#FFFFFF" d="M134.2,320.2c0,4.7-2.7,7.5-7.4,7.5c-4.3,0-6.9-2.8-6.8-7.6c0-4.8,2.7-8,6.6-8.2
			C130.9,311.8,135.1,315.9,134.2,320.2z"/>
		<path fill="#FFFFFF" d="M474.1,138.8c-4.6,0-7.7-2.9-7.7-7.5c0-4.2,2.9-7.4,6.9-7.5c4.4-0.1,7.3,2.9,7.3,7.4
			C480.8,135.3,477.8,138.7,474.1,138.8L474.1,138.8z"/>
		<path fill="#FFFFFF" d="M468.8,353.2c-3.3,0-6.8-3.7-6.8-7.1c0-4.2,3.5-7.9,7.5-7.9c3.7,0,6.6,3.2,6.8,7.3
			C476.3,349.3,472.6,353.2,468.8,353.2z"/>
		<path fill="#FFFFFF" d="M413.8,46.5c3.2,0,5.6,3.1,5.5,7c-0.1,3.4-2.9,5.9-6.3,5.8c-2.5-0.1-5.6-3.5-5.7-6.3
			C407.2,49.7,410.4,46.5,413.8,46.5L413.8,46.5z"/>
		<path fill="#FFFFFF" d="M438.3,284.3c2.6,0,5.7,3.6,5.7,6.7c0,2.6-3.4,6-6,6c-2.8,0-5.1-2.6-5.2-5.7
			C432.6,287.5,435.2,284.3,438.3,284.3L438.3,284.3z"/>
		<path fill="#FFFFFF" d="M64.5,471.8c0-3.9,2.5-6.9,5.7-6.8c2.3,0.1,5.6,3.7,5.5,6.1c-0.1,3.1-3,6.5-5.9,6.6
			C67,477.8,64.5,475,64.5,471.8L64.5,471.8z"/>
		<path fill="#FFFFFF" d="M30.5,294c-2.9,0-6.1-2.8-6.2-5.6c-0.1-3,3-7,5.5-7.1c2.2-0.1,5.4,4,5.4,7C35.2,291.5,33.2,294,30.5,294
			L30.5,294z"/>
		<path fill="#FFFFFF" d="M5.6,336.7c-2.1,0-5.5-3.5-5.6-5.6c0-3,3.4-7.2,5.8-7.1c2.3,0.2,5.6,3.9,5.4,6.2
			C11,333.8,8.4,336.8,5.6,336.7z"/>
		<path fill="#FFFFFF" d="M23.8,403.5c2.6,0.1,6.2,4.1,6.1,6.8c-0.1,3.3-2.4,5.8-5.7,5.8c-2.5,0-5.5-3.5-5.4-6.4
			C18.8,406.9,21.5,403.5,23.8,403.5z"/>
		<path fill="#FFFFFF" d="M371.3,45c2.1,0,5.8,4.4,5.9,6.8c0.1,2.7-3.6,6.2-6.5,5.9c-2.5-0.2-4.8-3.2-4.7-6.2
			C366.1,48.4,368.9,45,371.3,45z"/>
		<path fill="#FFFFFF" d="M468.7,76c0,3.2-2.4,5.7-5.3,5.7c-2.8,0-5.6-3.1-5.6-6.1c0-2.6,3-5.8,5.5-5.9
			C466.7,69.7,468.7,72,468.7,76z"/>
		<path fill="#FFFFFF" d="M407.2,420.2c0-2.5,3.3-6.3,5.4-6.1c2.6,0.1,5.2,3.5,5.1,6.6c-0.1,3.6-2.1,6.1-5,6
			C409.6,426.7,407.2,423.8,407.2,420.2L407.2,420.2z"/>
		<path fill="#FFFFFF" d="M132,472.7c0,3.2-2.2,6.2-4.7,6.3c-2.6,0.1-5.7-3-5.8-5.9c-0.1-3.6,2.1-6.5,5-6.6
			C129.4,466.3,131.9,469.2,132,472.7z"/>
		<path fill="#FFFFFF" d="M39,232.4c0.1,2.4-3.4,6.1-5.6,6.1c-2.1,0-5.4-3.4-5.5-5.8c-0.2-3,3.2-7,5.9-7
			C35.9,225.8,38.9,229.6,39,232.4z"/>
		<path fill="#FFFFFF" d="M216,483.3c0-2.5,3.3-6.2,5.4-6.2c2.5,0,5.1,3.4,5.1,6.6c0,3.2-2.5,6-5.3,6
			C218.3,489.7,215.9,486.8,216,483.3z"/>
		<path fill="#FFFFFF" d="M128.2,5.9c0.1,3.3-2.3,6.1-5.1,6.1c-2.9,0.1-5.3-2.5-5.4-5.8c-0.1-3.5,2.2-6.1,5.4-6.2
			C125.8,0,128.2,2.7,128.2,5.9z"/>
		<path fill="#FFFFFF" d="M188.2,463.8c0.1,3-2.8,6.5-5.3,6.5c-2.4-0.1-5.8-3.3-5.9-5.8c-0.1-2.7,3.3-6.2,6.3-6.2
			C185.6,458.2,188.1,461,188.2,463.8L188.2,463.8z"/>
		<path fill="#FFFFFF" d="M313.7,459.7c-2.3-0.1-5.6-3.9-5.4-6.2c0.2-2.7,3.8-6,6.3-5.7c2.1,0.2,5,3.8,4.9,6.1
			C319.4,456.3,315.9,459.9,313.7,459.7L313.7,459.7z"/>
		<path fill="#FFFFFF" d="M248.2,466c0,3.2-2.3,5.8-5.3,5.8c-3.2,0-5.2-2.1-5.2-5.3c0-3.4,2.4-5.9,5.6-5.9
			C246.6,460.5,248.2,462.3,248.2,466L248.2,466z"/>
		<path fill="#FFFFFF" d="M470.8,433.5c-3.2,0-5.7-2.2-5.8-5.3c-0.1-3.3,2.6-6.4,5.6-6.5c1.9,0,4.8,3.5,4.9,6
			C475.6,430.6,473.2,433.5,470.8,433.5L470.8,433.5z"/>
		<path fill="#FFFFFF" d="M180,13.5c2.7,0,6,3.6,5.9,6.4c-0.1,2.2-3.1,5.3-5.2,5.2c-2.6-0.2-5.9-3.3-6-5.6
			C174.7,16.7,177.4,13.5,180,13.5L180,13.5z"/>
		<path fill="#FFFFFF" d="M405.7,23.1c0.1,2.7-2.3,5.3-4.9,5.4c-2.9,0.1-5.6-2.6-5.6-5.7c0-2.6,3.1-6.2,5.4-6.3
			C402.6,16.4,405.7,20.3,405.7,23.1L405.7,23.1z"/>
		<path fill="#FFFFFF" d="M428.5,89.2c2.9,0,4.9,2.2,5,5.4c0.1,3-2.5,5.8-5.3,5.8c-2.7,0-5.2-2.7-5.2-5.6
			C423,91.9,425.5,89.3,428.5,89.2z"/>
	</g>
</g>
</svg>
