<?xml version="1.0" encoding="utf-8"?>
<!-- Generator: Adobe Illustrator 26.3.1, SVG Export Plug-In . SVG Version: 6.00 Build 0)  -->
<svg version="1.1" id="Layer_2_00000130644329080581223800000002746464331510249130_"
	 xmlns="http://www.w3.org/2000/svg" xmlns:xlink="http://www.w3.org/1999/xlink" x="0px" y="0px" viewBox="0 0 334.8 393.3"
	 enable-background="new 0 0 334.8 393.3" xml:space="preserve">
<g id="Layer_1-2">
	<g>
		<path fill="#FFFFFF" d="M153.2,105.6c0-12.3,0-24.2,0-36c0-1.4-0.7-2.2-1.6-3.2c-10.3-11.5-9.4-23.8,0.1-35
			c2.3-2.7,1.6-5.2,1.5-7.9c-0.1-5.1-0.1-10.1,2.2-14.8c2.8-5.6,10.4-9.6,15.8-8.5c6.5,1.4,11.9,8.1,11.9,15c0,1.5,0.2,3,0,4.5
			c-0.7,6.3,0.8,11.5,5.3,16.4c5.5,6,4.8,19.8-0.7,26.5c-3.4,4-4.9,8.1-4.7,13.4c0.4,8.6,0.2,17.2,0,25.9c-0.1,2.6,0.7,3.3,3.3,3.3
			c20.7-0.1,41.5-0.1,62.2-0.1c8.6,0,14.7,6.3,14.7,15c0,29.6,0,59.2,0,88.9v18.4c11.4,0,22.6-0.6,33.6,0.2c7.4,0.5,14.4,4,20.1,9
			c8,6.9,13.8,15.3,16.9,25.5c0.5,1.5,0.6,2.9,0.6,4.3c0,29.2-0.2,58.5,0.1,87.7c0.1,8.4-2.1,15.7-6.9,22.4
			c-6.1,8.4-13.5,14.6-24.4,15.9c-7.6,0.9-15.2,0.1-22.7,0.6c-2.9,0.2-5.6-0.5-8.4-1.2c-8.1-1.9-13.2-7.4-17.3-14.2
			c-2.6-4.4-4.2-9-5.1-14c-0.4-2.3,0.7-4.4,0.8-6.6c0.2-4.6-1.1-9.2-0.8-13.7c0.7-11-0.2-22-0.1-33.1c0.1-8.5,1.2-16.9,0.9-25.4
			c-0.1-2.9-0.5-4.5-3.8-3.6c-0.9,0.3-2,0-3,0c-51.9,0-103.7,0-155.6-0.1c-3.5,0-4.2,1-4.2,4.3c0.1,26,0,52,0.1,78
			c0.1,11.7-10.4,27.6-25,28.9c-9.7,0.8-19.4,1.3-28.9-0.3c-10-1.7-16.9-8.3-22.7-16.4c-5.3-7.4-7.7-15.2-7.6-24.5
			c0.4-26,0.5-52,0-78c-0.2-9.4,3.4-16.9,7.6-24.6c7.4-13.4,19.8-19.3,34-22c3.7-0.7,7.6-0.2,11.5,0.3c5.3,0.7,10.7,0.2,16.1,0.3
			c1.2,0,1.5-0.6,1.5-1.6c0-1,0-2,0-3c0-29.9-0.1-59.7,0.1-89.6c0-5.1,0.7-10.1,0.8-15.2c0.2-5.6,7.6-12.6,13.6-12.7
			c22.1-0.2,44.2-0.1,66.4,0C152,105.2,152.4,105.4,153.2,105.6L153.2,105.6z M84.2,187.6v4.9c0,24,0.1,48-0.1,72
			c0,3.5,1,4.2,4.3,4.2c50.1-0.1,100.2-0.1,150.3,0c2.8,0,5.7-0.4,8.5,0.6c1.5,0.5,2.8,0.2,2.8-2.1c-0.2-8.1,1.1-16.1,0.7-24.2
			c-0.5-9.2-0.2-18.4-0.4-27.6c-0.1-7.5,0.1-15.1,0.3-22.7c0.2-5,0-5-4.8-5c-52.7,0-105.5,0-158.2,0L84.2,187.6L84.2,187.6z
			 M84.2,146.6v22.5c0,6.6,0,6.3,6.7,6.7c3.5,0.2,5.4-1.1,6.7-4.2c3.4-7.9,7-15.6,10.5-23.4c2.2-5,6.1-6.9,11.4-7
			c25.7-0.4,51.4,0.6,77.1,0.7c5.4,0,10.9,0.3,16.3-0.4c7.4-0.9,12.1,2.5,15,9.8c1.7,4.3,3.2,8.7,4.8,13.1c1.2,3.4,1.7,7.5,3.9,10.1
			c2.6,3.1,7.1,0.6,10.7,1.3c0.1,0,0.3,0,0.4,0c1.5,0.2,2.1-0.4,2.2-2.1c0.4-6.1,0.8-12.1,0.7-18.2c-0.1-10.5,0-21,0-31.5
			c0-2.1-0.2-4.2-0.2-6.3c-1.9,0.1-3.8,0.3-5.7,0.3c-51.4,0-102.7,0-154.1,0c-0.9,0-1.8,0.3-2.6,0c-4-1.6-3.9,0.8-3.9,3.6
			C84.2,129.9,84.2,138.2,84.2,146.6L84.2,146.6z M110.4,175.5c1,0.1,1.5,0.1,2,0.1c36.1,0,72.2,0,108.3,0c0.5,0,1,0,1.5,0
			c1.4,0.1,1.9-0.7,1.3-1.9c-2.8-5.6-4.3-11.7-6.8-17.4c-0.4-1-0.9-1.9-2.4-1.8c-5.3,0.4-10.7-0.3-16-0.7c-4.9-0.4-9.6,0.7-14.5,0.8
			c-20.6,0.4-41.1-0.9-61.7-0.8c-1.3,0-3.2-0.9-3.8,1.3C116.6,162.2,112.3,168.2,110.4,175.5L110.4,175.5z M71.2,324.7
			c-0.8-1.5-0.5-2.8-0.5-4c-0.1-5.7,0.9-11.3,0.9-17.1c0-3.8-1.1-4.6-4.6-4.4c-3.8,0.3-7.7,0.1-11.6,0.1c-13.3,0-26.7,0-40,0
			c-1.1,0-3.1-0.9-3.1,1.4c-0.1,8.1,0,16.3,0,23.9L71.2,324.7L71.2,324.7z M263.4,324.9c4.9-0.3,10.3-0.5,15.5-0.3
			c13.3,0.5,26.7-0.1,40,0.3c2.5,0.1,3.1-0.7,3.1-3.1c-0.2-6.2-0.2-12.5,0-18.7c0.1-2.8-0.6-3.8-3.6-3.8c-17.1,0.2-34.2,0.1-51.3,0
			c-2.9,0-3.8,0.7-3.7,3.7C263.6,310.2,263.4,317.4,263.4,324.9L263.4,324.9z M263.6,288.4c2-1.1,3.6-1,5.2-1c16.7,0,33.4,0,50.1,0
			c2,0,2.8-0.2,3.2-2.7c1-6.2,0.2-12.3,0.6-18.5c0.2-2.8-0.8-3.7-3.6-3.7c-11.7,0.1-23.5,0.1-35.2,0.1c-6.8,0-13.5,0-20.3,0
			L263.6,288.4L263.6,288.4z M12.2,288c1.9-0.9,3.4-0.6,4.9-0.6c16.9,0,33.7-0.1,50.6,0.1c2.4,0,3.2-0.8,3.4-2.9
			c0.7-6.7,0.1-13.4,0.3-20.1c0.1-1.6-0.9-1.8-2.1-1.8c-18.1,0-36.2,0-54.3,0c-1.8,0-2.8,0.6-2.8,2.6
			C12.2,272.7,12.2,280.2,12.2,288L12.2,288z M292.8,361.6c8.7,0,17.5,0,26.2,0c1.5,0,3,0.4,3-2.1c0-6.4,1.1-12.7,0.5-19.2
			c-0.2-2.8-0.6-3.4-3.1-3.4c-17.7,0-35.5,0-53.2,0c-2,0-2.9,0.4-2.8,2.7c0.1,6.5,0.1,13,0,19.5c0,2.2,0.7,2.7,2.8,2.7
			C275.1,361.6,283.9,361.6,292.8,361.6L292.8,361.6z M41.9,336.9c-9,0-18,0-27,0c-1.6,0-2.8,0-2.8,2.3c0.1,6.7,0.1,13.5,0,20.2
			c0,1.5,0.3,2.3,2,2.3c18.1,0,36.2,0,54.4,0c1.6,0,2.1-0.6,2.2-2.2c0.2-6.6,0.4-13.2,0.8-19.7c0.1-2.3-0.6-3-2.9-2.9
			C59.7,337,50.8,336.9,41.9,336.9z M314.7,250.8c-5.7-6.7-12.1-10.7-19.8-11.2c-9.6-0.7-19.2-0.1-28.8-0.2c-1.8,0-2.8,0.3-2.7,2.4
			c0.2,3.1,0,6.2,0,9H314.7L314.7,250.8z M71.1,239.4c-2.7,0-5-0.1-7.3,0c-8.3,0.3-16.7-0.9-24.9,0.8c-6.9,1.4-13.2,3.8-17.9,10.5
			h49.6c0-1.6,0-3.4,0-5.3C70.7,243.4,70.4,241.4,71.1,239.4L71.1,239.4z M156.9,49c0,6.4,5.2,12.2,11.1,11.8
			c6.4-0.4,12.3-4.4,12.2-12c0-6-5-11.1-10.8-11.2C161.8,37.5,156.9,42,156.9,49L156.9,49z M314.4,373.8
			c-15.8-1.8-31.4-0.4-47.1-0.5c2.8,3,4.5,7,10,6.5c6.9-0.6,14-0.3,21-0.1C304.2,379.9,309.9,379.9,314.4,373.8L314.4,373.8z
			 M22.3,374c2.6,4,6,6,11.1,5.7c7.8-0.4,15.7-0.2,23.6,0c3.5,0.1,6.6-0.5,9-3.2c0.7-0.8,2.8-0.8,2.2-2.5c-0.5-1.7-2.3-1.1-3.6-1.1
			c-12.2,0-24.4,0-36.7,0C26,372.9,24.1,373,22.3,374L22.3,374z M165.2,88.8c0,4.5,0.1,9-0.1,13.5c-0.1,2.4,0.7,3,3,2.9
			c1.9-0.1,3.2-0.1,3.2-2.7c-0.2-9-0.2-18,0-26.9c0.1-2.6-1.2-2.6-3.2-2.7c-2.3-0.1-3.1,0.5-3,2.9C165.3,80.1,165.2,84.5,165.2,88.8
			L165.2,88.8z M171.2,25.3c0-1.8,0.1-3.5,0-5.3c-0.1-2.1,0.9-4.6-0.5-6.2c-1.1-1.3-3.6,0.4-5.4-0.7v12.1
			C167.3,24.7,169.1,24.8,171.2,25.3L171.2,25.3z"/>
		<path fill="#FFFFFF" d="M125.6,253.6c-5.4,0-10.8-0.3-16.1,0.1c-7.6,0.5-11.7-5.7-11.8-11.8c-0.2-10.7-0.2-21.5,0-32.2
			c0.2-7.3,4.8-13.6,13.1-13.2c10,0.5,20,0.1,30,0.1c7.9,0,12.3,5.9,10.5,13.6c-0.8,3.6-0.6,7.3-0.2,10.8c1,8.7,1,17.3-0.1,25.9
			c-0.5,3.6-4.1,6.7-7.7,6.7C137.3,253.7,131.5,253.6,125.6,253.6L125.6,253.6z M110.4,224.9c0,4.5,0,9,0,13.5
			c0,1.2-0.3,2.6,1.7,2.5c7.9-0.1,15.7,0,23.6-0.1c1.3,0,2.3-0.3,2.6-2.4c1.3-8.9,0.2-17.9,0.6-26.8c0.1-2.3-0.9-3-3.1-3
			c-7.6,0.1-15.2,0.1-22.8,0c-2.3,0-2.7,0.8-2.6,2.8C110.5,215.9,110.4,220.4,110.4,224.9L110.4,224.9z"/>
		<path fill="#FFFFFF" d="M204.6,253.6c-4.6,0-9.3-0.3-13.9,0.1c-6.2,0.6-12.2-3.9-12-12.2c0.2-7.8,0.5-15.7,0.7-23.5
			c0.1-3.5,0.3-7,0-10.5c-0.8-7.2,4.3-10.7,10.6-10.8c10.7-0.3,21.5-0.1,32.2-0.1c4,0,8.7,4.9,9.1,8.9c0.9,11.8,0.7,23.6,0.7,35.4
			c0,7.5-4.6,13.3-12.8,12.7C214.3,253.4,209.5,253.6,204.6,253.6L204.6,253.6z M192.2,240.9c8.1,0,16.4,0,24.7,0
			c1.8,0,2.3-0.6,2.3-2.4c-0.1-9.2-0.1-18.4,0-27.7c0-1.9-0.7-2.3-2.4-2.2c-6.9,0.4-13.8-0.3-20.8,0.5c-3.5,0.4-3.9,1.4-3.8,4.4
			C192.3,222.5,192.2,231.5,192.2,240.9L192.2,240.9z"/>
		<path fill="#FFFFFF" d="M124.2,216.1c7.2,0,7.4,0,7.1,7c-0.1,2.9,1,5.6,0.6,8.6c-0.2,1.9-0.7,2.4-2.3,2.4c-3.6,0-7.2,0-10.8,0
			c-1.7,0-2.5-0.8-2.4-2.5c0-4.5,0.1-9,0-13.4c0-1.7,0.7-2.2,2.2-2.1C120.5,216.2,122.3,216.1,124.2,216.1z"/>
		<path fill="#FFFFFF" d="M205.7,234.1c-5,0-7.6-2.5-7.6-7.5v-3.7c0-7,1.4-8.2,8.3-6.6c1.3,0.3,2.7,0.8,4,0.6c3.3-0.6,4,1.3,3.4,3.8
			c-0.9,3.4-0.8,6.9-0.6,10.3c0.1,2.8-0.9,3.5-3.4,3.2C208.5,234,207.1,234.1,205.7,234.1L205.7,234.1z"/>
	</g>
</g>
</svg>
