<?xml version="1.0" encoding="utf-8"?>
<!-- Generator: Adobe Illustrator 26.3.1, SVG Export Plug-In . SVG Version: 6.00 Build 0)  -->
<svg version="1.1" id="Layer_2_00000180365684903292189690000010488623254755140535_"
	 xmlns="http://www.w3.org/2000/svg" xmlns:xlink="http://www.w3.org/1999/xlink" x="0px" y="0px" viewBox="0 0 481.5 436.4"
	 enable-background="new 0 0 481.5 436.4" xml:space="preserve">
<g id="Layer_1-2">
	<g>
		<path fill="#FFFFFF" d="M275.5,158.3c3-4.3,7.1-7.4,10.6-11c1.4-1.4,1.8-2.1,0.3-3.8c-2.6-3-3-6.3-0.5-9.9
			c1.6-2.2,3.1-4.5,5.1-6.4c9.8-9.7,19.3-19.9,29.3-29.4c14.1-13.2,28.9-25.4,44.5-36.9c18.7-13.8,39.6-22.2,61.7-28.5
			c4.5-1.3,9-2.7,13.6-4.1c1.2-0.4,2.5-0.6,3.5,0.5c0.9,1,0.2,1.9-0.2,2.8c-5.3,11.4-8.8,23.5-13,35.3c-4,11-8.6,21.7-14.6,31.8
			c-4.9,8.4-9.9,16.7-15.4,24.7c-6.1,9-13.3,17.1-20.6,25.1c-11.7,12.8-23.7,25.3-35.5,37.9c-0.4,0.5-0.8,0.9-1.2,1.4
			c-4.9,6.6-9.6,6.8-14.9,0.4c-1.5-1.8-1.8-1.8-3.3,0c-2.4,3-5.2,5.7-7.8,8.6c-1.4,1.6-1.5,2.3,0,3.8c4.6,4.4,9,8.9,13.5,13.4
			c6.6,6.6,6.8,11.2,0.2,17.9c-5.2,5.3-10.7,10.4-16,15.7c-7.8,7.9-15.2,16.2-22.9,24.1c-8.4,8.6-16.6,17.2-24.6,26.1
			c-7.2,8-19.4,8-26.2,0.1c-5.9-6.9-12.2-13.5-18.9-19.6c-11.5-10.4-21.8-21.9-33.2-32.5c-4.8-4.5-10-8.6-13.8-14.1
			c-2.7-3.8-3-6.3-0.5-10.2c1.5-2.4,3.3-4.7,5.3-6.8c11-11.4,22-22.7,32.8-34.3c7.8-8.4,15.5-16.9,23.6-25c2.8-2.8,5.4-5.8,7.9-9
			c4.5-5.9,10.1-7.3,15.8-2.7C265.5,148.2,270.3,153.4,275.5,158.3L275.5,158.3z M253.9,151.7c-1.3,0.2-2,1.4-2.9,2.2
			c-13.8,13.5-26.7,27.9-39.5,42.4c-8.2,9.2-16.8,18-25.4,26.9c-1.6,1.7-1.8,2.6-0.1,4.5c8.2,9.5,17.6,17.7,26.2,26.8
			c1.5,1.5,2.5,1.1,3.7-0.3c1.6-1.9,3-4.1,5-5.5c3.1-2.2,2-3.2-0.3-5.1c-7.1-5.7-12.8-12.9-18.9-19.6c-1.8-2-1.5-3.8,0.1-5.6
			c2.2-2.5,4.4-5,6.8-7.4c0.9-0.9,1.3-1.6,0.4-2.5c-2.9-3.1-2-5.3,1.3-7.4c1.5-1,2.7-2.6,4-3.9c8.3-9,16.5-18,24.8-26.9
			c4.3-4.6,4.4-4.5,8.8-0.1c14.4,14.4,28.9,28.6,42.8,43.5c5.3,5.7,11,11,16.5,16.6c1.7,1.7,3.1,3.6,4.6,5.4
			c0.7,0.8,1.3,1.3,2.4,0.1c3-3.4,6.1-6.6,9.4-9.7c1.7-1.6,1.6-2.7-0.1-4.2c-4.3-4.1-8.5-8.4-12.7-12.7c-3.4-3.4-6.7-7-10-10.6
			c-4.7-5-10.1-9.5-14.9-14.5c-9.9-10.2-19.6-20.6-29.5-30.8C255.6,152.6,255,151.8,253.9,151.7L253.9,151.7z M383.2,130.2
			c0.2-0.8-0.3-1.1-0.6-1.4c-6.7-6.6-13.1-13.3-20-19.6c-6.2-5.6-12-11.6-17.9-17.4c-1.7-1.6-2.5-1.4-3.9,0
			c-6.5,6.5-13.1,12.9-19.8,19.3c-1,0.9-1,1.6-0.1,2.5c2.1,2.3,4,4.8,6.3,6.9c11.5,10.2,21.9,21.4,32.7,32.4c1.6,1.6,1.9,1.3,3.2,0
			c7-6.7,13.1-14.3,19.4-21.7C382.7,130.8,383,130.4,383.2,130.2L383.2,130.2z M335.9,181.2c0.4-0.4,1-0.9,1.5-1.4
			c5.2-5.5,10.4-11,15.7-16.4c1.8-1.8,1.6-2.6-0.1-4.3c-13-13.1-26.5-25.8-39-39.3c-1.6-1.8-2.4-0.4-3.2,0.5
			c-4.8,5.2-9.5,10.5-14.3,15.7c-1.2,1.2-1.1,2.1-0.2,3.5c4.5,7.2,10.9,12.5,16.6,18.5c7,7.4,14.7,14.1,21.2,22
			C334.5,180.5,334.8,181.4,335.9,181.2L335.9,181.2z M405.4,97.3c-0.2-0.4-0.4-0.8-0.7-1.2c-1.7-1.8-3.4-3.6-5.2-5.3
			c-7.9-7.6-15.9-15.1-23.7-22.9c-1.1-1.1-1.8-1.6-3-0.6c-6.3,5.5-13.8,9.4-20.2,14.6c-1.7,1.4-1.4,1.9-0.2,3.3
			c4.1,4.9,8.9,9,13.5,13.4c7.3,7,14.4,14.2,21.5,21.5c2,2,2.7,1.8,4.4-0.5c4.8-6.7,8.6-14,12.7-21.1
			C404.7,98.2,405,97.8,405.4,97.3L405.4,97.3z M257.5,245c1.4-0.5,2.1-1.6,2.9-2.5c6.5-7.2,12.9-14.4,20.2-20.8
			c2.4-2.1,1-3.3-0.5-4.7c-7.6-7.1-15.6-14-22-22.2c-1.5-1.9-1.8-1-2.9,0.2c-6.8,7.8-13.7,15.4-21.2,22.4c-1.5,1.4-0.9,2,0.2,3.2
			c7.5,7.8,15,15.6,22.5,23.4C257,244.2,257.3,244.6,257.5,245z M429.1,40.8c-6.5,2.5-12.5,4.9-18.6,7.1
			c-8.7,3.3-17.5,6.5-25.9,10.4c-1.7,0.8-2.9,1.4-0.9,3.3c9,8.8,17.7,18,27.5,26.5C417.9,72.9,424.1,57.5,429.1,40.8L429.1,40.8z
			 M229.3,253.9c-0.3,0.2-0.7,0.5-1.1,0.8c-2.4,1.9-3.7,5-6.5,6.6c-1.1,0.6-0.1,1.4,0.5,2.1c3.9,4,7.6,8.2,11.6,12.2
			c4.8,4.9,9.6,9.8,14.2,14.8c6.4,7.1,7.3,6.4,13.2,0.3c1-1.1,1.9-2.3,2.9-3.4c2.9-3.2,5.5-6.9,8.9-9.5c2.5-2,1.8-2.6,0.1-4.3
			c-2.5-2.4-5.2-4.6-7.2-7.6c-0.9-1.4-1.7-1.4-2.7,0.2c-1.6,2.4-3.7,4.4-5.4,6.7c-3.2,4.2-4.4,4.3-8.2,0.6c-1.2-1.1-2.3-2.3-3.4-3.4
			c-4.7-4.7-9-10-14.2-14.2C231.1,255,230.6,254,229.3,253.9L229.3,253.9z M281.5,268.6c8.4-7.3,15.2-16.3,23.4-23.9
			c1.5-1.4,0.3-2-0.5-2.9c-4.2-5.3-9.8-9.1-14.2-14.2c-1.9-2.3-3-1.6-4.5,0.3c-5.5,6.9-11.3,13.5-17.7,19.7
			c-2.7,2.6-2.4,3.8,0.1,6.2C272.8,258.4,277.9,262.8,281.5,268.6z M320.4,179.6c-0.3-0.5-0.4-0.9-0.7-1.1c-3.8-2.7-6.1-6.9-9.7-9.7
			c-5.6-4.3-10.2-9.5-15-14.6c-1.4-1.6-2.1-1.4-3.1-0.1c-2.5,3.5-5.6,6.4-8.6,9.3c-1.1,1.1-0.7,1.5,0.2,2.5
			c7.5,8.3,15.9,15.9,23.6,24c1.2,1.2,1.9,0.9,3.1-0.1c3.3-2.8,6.1-6.1,9.2-9.2C319.8,180.3,320.1,180,320.4,179.6L320.4,179.6z
			 M250.9,187.1c-0.6-0.5-1.1-0.8-1.5-1.2c-1.6-1.6-3.5-3-4.7-4.8c-1.3-1.9-2.2-1.6-3.4-0.2c-2.2,2.4-4.3,4.9-6.5,7.2
			c-4.7,5-9.4,9.9-14.1,14.9c-0.9,1-1.9,1.9-1,3.6c2.9,5.3,6.2,6,10.5,1.9c1.2-1.1,2.3-2.3,3.4-3.4c5.5-5.5,9.8-12.2,16.4-16.7
			C250.3,188.1,250.5,187.6,250.9,187.1L250.9,187.1z"/>
		<path fill="#FFFFFF" d="M160.8,26.3c-0.1,4.4-3,6.5-5.2,9c-6.1,7-12.5,13.9-19,20.6c-1.7,1.7-1.5,3-0.2,4.4
			c5.7,5.9,11.6,11.7,17.4,17.6c1.6,1.6,2.2-0.1,2.9-0.9c8.2-8.9,16.4-17.7,24.9-26.3c1.5-1.5,3.2-2,5.1-1.5
			c3.5,0.9,4.4,4.6,1.8,7.3c-4.7,5-9.6,9.8-14.2,14.9c-3.8,4.3-7.6,8.6-11.3,12.9c-1.1,1.3-0.8,1.8,0.2,3
			c5.4,6.6,11.9,12.1,17.7,18.3c1.2,1.3,1.9,1.2,2.9,0c8.4-9.4,17.6-18,25.6-27.7c2.8-3.4,4.4-4,7.1-1.9c2.8,2.2,2.9,4.9,0.2,8.1
			c-7.7,8.8-15.7,17.4-24.1,25.6c-1.7,1.6-2,2.4-0.3,4.6c3.9,5.1,9.4,8.6,13.6,13.3c0.8,0.9,1.8,1.7,2.6,2.7c3.2,4,3.7,4.2,6.7,0.1
			c2.5-3.5,5.8-6.2,8.7-9.3c4.3-4.6,8.6-9.3,13.1-13.8c3-3,6.1-2.7,7.9,0.3c0.9,1.5,1.2,3,0,4.5c-1.5,2-2.8,4.2-4.5,5.9
			c-8.9,9.3-18,18.4-26.8,27.7c-18.7,19.6-37.3,39.2-55.8,58.8c-5.9,6.2-11.7,12.6-17.5,18.9c-0.9,1-1.9,2-3.3,2.4
			c-2,0.5-3.9,1.4-5.4-0.7c-1.5-2-1.3-4.3,0.1-6.3c1-1.5,2.1-3.3,3.5-4.3c3.4-2.5,1.8-4.1-0.4-6.2c-5.3-4.9-10.2-10.3-15.6-15.1
			c-2.6-2.3-3.9-1.8-5.3,0.5c-1.5,2.5-3.6,4-6.5,4.4c-2.1,0.3-3.7,0-5-1.6s-0.9-3.3,0-4.9c0.5-0.7,0.8-1.6,1.4-2.2
			c6.4-5.8,11.5-12.8,17.3-19.1c7.2-7.9,15.3-15.1,22.2-23.3c1.3-1.5,0.9-2.2-0.2-3.3c-6-5.5-11.9-10.9-17.9-16.4
			c-0.9-0.9-1.4-1.2-2.6,0.1c-9.7,10.5-19.7,20.8-29.4,31.4c-3.2,3.5-6.3,7.1-9.7,10.3c-1.6,1.5-3.5,3.2-5.8,1.3
			c-2.4-2-3.4-4.4-1-7.1c4.2-4.8,8.4-9.5,12.6-14.2c8.5-9.3,16.8-18.7,26-27.4c1.7-1.6,1.2-2.5-0.2-3.9
			c-6.3-6.1-12.3-12.4-18.9-18.2c-1.7-1.5-2.5-0.7-3.6,0.5c-4.7,5.1-9.6,10.1-14.3,15.3c-6,6.7-11.9,13.4-18.4,19.6
			c-3.6,3.4-6,8-10.5,10.5c-1.8,1-3.6,1.8-5.6,0.7c-1.6-0.8-2.9-2.2-2.9-4c0.1-2.3,1.2-4.2,3.5-5.3c3.9-1.7,3.7-1.7,0.9-4.9
			c-4.1-4.5-9.3-7.8-13-12.8c-1.8-2.5-1.8-4.8,0.2-6.7c2.1-2,4.5-1.6,6.6,0.5c4.2,4.3,8.7,8.3,12.6,12.8c1.7,2,2.4,1.7,3.9,0.1
			c8.6-9.3,17.2-18.6,25.8-27.9c1.7-1.8,3.1-4,5-5.5s1.1-2.4-0.1-3.5c-5.1-4.9-10.4-9.7-15.4-14.7c-1.6-1.6-3.6-3.3-2-6.1
			c2.1-3.5,5.2-4,8.4-0.9c5,4.8,10,9.7,14.8,14.8c1.8,1.9,2.4,2.2,4.5,0c7.7-7.8,14.2-16.8,22.7-23.7c1.9-1.5,0.7-2.5-0.4-3.6
			c-5.6-5.5-11.1-11-16.6-16.6c-3.1-3.1-2.9-5.6,0.2-7.8c2.9-2,5.3-0.3,6.9,1.6c5.2,6.3,11.5,11.5,16.8,17.6c1.2,1.3,1.6,1.9,3,0.3
			c6.2-6.8,12.6-13.5,18.9-20.2c2.2-2.3,3.8-5.3,6.8-6.8c1.4-0.7,2.7-1.3,4.2-0.3C160.1,23.8,161,25.1,160.8,26.3L160.8,26.3z
			 M172.4,174.3c0-1.2-1-1.7-1.7-2.4c-5.9-5.7-12.1-11.2-17.7-17.2c-2.3-2.4-3.4-1.9-5.1,0.2c-7.3,9.4-16.2,17.2-24,26.1
			c-1.6,1.8-1.5,2.6,0.1,4.2c6.1,5.9,12.2,11.9,18,18.1c1.7,1.8,2.3,1.8,3.9,0.2c7.1-7.8,14.4-15.4,21.6-23.2
			C169.2,178.4,170.7,176.3,172.4,174.3L172.4,174.3z M147.3,84.8c-1-1.2-1.7-2.5-2.8-3.5c-5.3-5.1-10.7-10.1-15.9-15.3
			c-1.7-1.7-2.7-1.9-4.4,0c-5.2,5.7-10.7,11.2-15.9,16.8c-1.9,2-3.4,4.2-5.2,6.3c-1.6,1.9-1.5,3.3,0.4,5c5.6,5.4,11,10.8,16.4,16.4
			c1.6,1.7,2.6,1.8,4.2,0c6.3-7,12.8-13.9,19.2-20.9C144.6,88.2,145.9,86.6,147.3,84.8L147.3,84.8z M183.5,119.9
			c-1.2,0.2-1.7,1.1-2.4,1.8c-6.6,7.1-13.1,14.4-19.9,21.2c-2.6,2.6-2.2,3.9,0.2,6.2c5.7,5.5,11.3,11.2,16.6,17.1
			c1.6,1.8,2.1,0.8,3-0.2c7.5-8,14.9-16,22.5-24c1.2-1.3,1.2-2,0-3.4C198,132.1,191,127.1,185,121
			C184.5,120.6,184,120.3,183.5,119.9L183.5,119.9z M176.6,113.2c-0.6-0.6-1.2-1.1-1.7-1.6c-5.1-4.9-10.3-9.7-15.4-14.6
			c-5.1-4.9-5.1-4.9-9.8-0.1c-6.2,6.4-12.4,12.9-18.7,19.4c-0.8,0.9-1.9,1.5-0.4,2.9c6.3,6.1,12.4,12.3,18.6,18.5
			c1.3,1.3,2.2,1.5,3.7-0.1c7.3-7.6,14.8-15.1,22.2-22.6C175.6,114.5,176,113.9,176.6,113.2L176.6,113.2z"/>
		<path fill="#FFFFFF" d="M54.4,306c11.7,4,22.6,7.8,33.5,11.6c2.5,0.9,4.9,1.9,7.2,3c1.9,0.9,2.3,2.1,0.5,3.7
			c-1.8,1.7-3.6,3.5-5.3,5.3c-6.5,6.7-13,13.5-19.5,20.2c-1.3,1.4-2,3.1-3.2,5.2c5.2-0.1,10,0.5,14.8-0.4c5.9-1.1,11.7,0.7,17.5,0.6
			c1.8,0,1.2,1.4,0.9,2.5c-2.8,8.2-5,16.7-6.3,25.3c-0.3,1.8-0.5,3.7-0.8,5.8c6.4-4.3,11.4-9.9,17.1-14.6c4.4-3.6,8-8.1,12.1-12.1
			c1.4-1.4,2.2-1.6,3,0.6c4.5,11.6,7.4,23.7,11.3,36c3.9-5,7.5-10.2,11.6-14.9c5.8-6.6,10.7-14,16.9-20.4c2.4-2.5,4-1.6,5.9,0.1
			c4.9,4.5,8.7,9.9,13.1,14.9c2,2.3,3.5,5.1,6.5,7c1.4-7.5,2.8-14.9,4.3-22.3c0.8-3.8,1.6-7.5,2.5-11.3c0.3-1.3,0.6-2.8,2.5-2.7
			c10.3,0.6,16-5.9,21-13.6c1.3-2,2.7-3.8,3.5-6.2c0.6-1.8,1.6-2,2.6-0.1c1.5,2.9,3.2,5.7,4.6,8.5c1.1,2.3,1.8,4.8,1,7.3
			c-1.3,4.4-1.4,8.8-1.3,13.3c0.2,6.4-1.5,12.8-0.1,19.4c0.6,2.9,1.7,4.7,4.2,6c5.6,2.8,11.5,5.1,17.5,6.2c7.1,1.3,11.2,5,13.6,11.6
			c3.2,8.9,2,26.4-3,34.8c-1.4-1.9,0-3.6,0.2-5.3c0.7-7.8-2.3-14.8-4.7-22c-2.6-7.7-7.8-11.9-15.8-13.4c-5.7-1.1-11.2-3.2-16.8-5
			c-3.9-1.3-6.2-4.3-6.9-8.2c-0.8-4.5-1-9.1-1.7-13.7c-0.7-4.5-1.6-8.9-2.5-13.6c-6.4,13.8-9.8,28.5-14.9,42.7
			c-1.6,4.4-3.3,8.9-5,13.3c-0.3,0.8-0.3,1.8-1.5,1.9c-1.1,0.1-1.5-0.7-1.9-1.5c-5-7.9-12-14.3-17.4-21.9c-2.3-3.2-4.6-6.5-7.1-10
			c-4.8,7.3-10.2,14.2-15.9,20.8c-5.8,6.8-11.7,13.6-17.7,20.2c-2.8,3.1-3.6,2.8-4.9-1.1c-3.4-10-6.8-20-9.4-30.3
			c-0.2-0.8-0.6-1.6-1-2.5c-9,8-19.9,12.6-30,18.4c-2.6,1.5-5.3,2.8-7.9,4.3c-2.8,1.6-4.3,0.9-4.6-2.4c-0.4-4.7,1.1-9.1,1.8-13.6
			c1.2-7.2,2.7-14.4,4.2-21.6c0.6-2.8-0.2-3.9-3.3-3.8c-7.5,0.2-15,0.2-22.5,0c-4.5-0.1-8.9-0.4-13.4-0.8c-2.9-0.2-3.3-1.5-1.8-4.1
			c7.3-11.8,16.5-22.1,25.7-32.4c1.6-1.8,4.2-2.6,5.5-5.1c-16.1-2.8-31-8.7-46.1-13.9c-1.4-0.5-3.1-0.9-3.2-2.7
			c-0.1-1.7,1.3-2.8,2.5-3.5c12.5-7,24.3-15.3,37.8-20.3c2-0.7,1.5-1.3,0.7-2.6c-8.8-14-17.2-28.3-29.8-39.5
			c-4.3-3.9-9.2-6.8-14.2-9.6c-6.3-3.5-12.5-7.2-19.9-8.3c-0.4-0.1-0.8-0.5-1.1-0.8c0.3-1.2,1.2-0.9,1.8-0.9
			c10.8,0.7,21.6,1.3,32.4,2.3c5.2,0.5,8.2,4.3,10.7,8.5c0.8,1.4,1.1,3.6-0.3,4.6c-3,2.1-0.8,3.2,0.6,4.4c1.8,1.5,3.6,3.1,5.7,4.2
			c13.3,6.9,20.1,19.6,28,31.3c1.3,1.9,2.1,4.3,3.5,6.1c2.3,3,0.9,4.4-1.7,6.1c-6.7,4.4-14.1,7.4-20.9,11.5
			C58.3,303.8,56.8,304.6,54.4,306L54.4,306z"/>
		<path fill="#FFFFFF" d="M291.5,322.6c-2.4,2.5-4.1,5.4-6.6,7.4c-3.5,2.7-7.2,2.1-8.6-1.4c-0.7-1.8,0-3.2,1.1-4.4
			c2.8-3.5,5.7-7,8.7-10.2c7.6-8.2,15.6-16.2,23-24.6c12.8-14.8,26.7-28.6,39.7-43.2c5.3-6,11.2-11.3,16.5-17.3
			c4-4.6,8.3-8.9,12.6-13.3c1.3-1.3,2.6-3.2,4.7-1.2c2,1.8,3.8,3.8,1.8,6.8c-1.4,2.2-2.9,4.4-4.7,6.3c-4.6,4.7-9.1,9.6-13.7,14.3
			c-1.5,1.5-1.8,2.4,0,4.1c6.2,5.8,12,12,18.1,17.9c3.6,3.5,3.7,3.5,7.2-0.1c7-7.2,13.9-14.4,20.8-21.5c1.7-1.7,3.4-3.6,6-1.3
			c2.5,2.1,2.4,4.3,0.7,6.9c-2.7,4-6.3,7-9.4,10.6c-4.1,4.7-8.2,9.6-13.2,13.5c-1.2,0.9-1.5,1.8-0.2,3c6.4,6.3,12.8,12.7,19.1,19.1
			c1.6,1.6,2.6,0.7,3.7-0.5c7.7-8.2,15.4-16.3,23-24.5c2.6-2.8,5.4-3.9,7.4-2.4c2.8,2.1,3,5.2,0.5,8.6c-0.4,0.5-0.8,1-1.2,1.4
			c-5.6,5.7-11.4,11.2-16.6,17.3c-1.9,2.3-3.9,4.5-6,6.7c-1.6,1.6-0.4,2.4,0.6,3.3c4.4,4.4,8.9,8.8,13.2,13.3c2.2,2.2,4.2,4.6,6.2,7
			c1.2,1.5,2.2,1.6,3.6,0.1c7.6-7.7,14.8-15.8,21.9-24c1-1.1,2-2.3,3.2-3.1c1.6-1.1,3.6-1.8,5,0.1c1.3,1.7,3.2,3.5,1.7,6
			c-0.8,1.4-1.7,2.8-2.8,3.9c-9.9,10.2-19.4,20.7-29.2,31c-12.4,12.9-24.2,26.5-36.2,39.8c-2.9,3.2-6,6.4-9,9.5
			c-7.8,8.1-15.1,16.7-22.9,24.6c-3.5,3.5-7,3-9.1-1.1c-1.5-3-0.4-5.2,2.1-6.6c2.3-1.3,1.8-2.1,0.4-3.9c-5.1-6.7-12-11.6-17.7-17.6
			c-2.8-3-5.5-2.8-8,0.4c-0.1,0.1-0.1,0.2-0.2,0.3c-2.6,3.3-5.8,4.3-7.9,2.5c-2.5-2.2-2.3-5.8,0.3-9c8.4-9.9,17.4-19.2,26.3-28.6
			c4.1-4.3,8.1-8.7,12.3-13c1.3-1.3,1.2-2.2-0.1-3.4c-6.4-6.1-12.8-12.3-19.2-18.4c-1.1-1-1.7-1.3-3,0.1
			c-7.5,8.3-15.4,16.3-22.7,24.8c-4.1,4.7-8.9,8.7-12.6,13.8c-1.1,1.5-2.5,2.7-4.2,3.7c-2.5,1.5-4.9,2.9-7.2-0.1
			c-1.9-2.4-1.4-6.7,1.4-8.3c3.1-1.8,1.9-2.5,0.1-4.6C305.8,335.4,297.8,329.9,291.5,322.6L291.5,322.6z M382.8,395.8
			c0.5-0.1,0.7-0.7,1.1-1.1c9-9.8,17.9-19.7,27-29.4c1.2-1.3,1.1-1.9,0-2.9c-2.1-2-4-4.1-6.1-6c-5.4-4.8-9.9-10.5-15.7-14.9
			c-0.8-0.6-1.3-1.8-2.7-0.3c-8.5,9.3-17,18.5-25.7,27.6c-1.9,2-1.5,3,0.3,4.8c6.1,6,11.9,12.3,17.8,18.4
			C380.1,393.3,381.4,394.5,382.8,395.8L382.8,395.8z M350.7,306c-0.2-1.1-1.2-1.5-1.8-2.3c-6.2-7-14.1-12.3-20-19.7
			c-1.1-1.4-1.6-0.6-2.5,0.4c-3.9,4.4-7.9,8.7-11.9,12.9c-5,5.3-9.9,10.5-15,15.7c-1.2,1.2-1.5,2.1-0.1,3.4
			c6.9,6.9,13.8,13.8,20.6,20.7c0.8,0.9,1.2,1.2,2.3,0.1c8.6-9.4,17.3-18.6,25.9-27.9C349.2,308.2,349.9,307.1,350.7,306L350.7,306z
			 M418.6,357c0.5-0.6,0.7-1,1.1-1.3c6.4-6.8,12.7-13.7,19.4-20.2c2.6-2.5,1.7-3.8-0.4-5.8c-6.8-6.4-13.5-12.8-20.1-19.4
			c-1.5-1.5-2.1-0.9-3.2,0.2c-6.4,6.9-12.8,13.9-19.3,20.7c-1.6,1.7-0.6,2.5,0.5,3.7c6.9,6.9,13.8,13.8,20.6,20.7
			C417.7,355.9,418.1,356.4,418.6,357L418.6,357z M380.3,274c0-1-0.9-1.3-1.4-1.8c-6.6-6.5-13-13.2-19.9-19.2
			c-1.5-1.3-2.2-1.2-3.5,0.2c-6.2,6.8-12.3,13.7-18.8,20.2c-2.3,2.3-1.6,3.6,0.2,5.4c6,6,12.1,12,18,18.1c1.6,1.6,2.5,1.7,4.2,0.1
			c7.2-6.9,13.4-14.8,20.3-21.9C379.8,274.7,380.1,274.3,380.3,274L380.3,274z M365.5,303.3c6.7,7,13.2,13.8,19.6,20.8
			c1.8,1.9,2.8,1.9,4.7,0c7.2-7,13.8-14.6,20.4-22.2c-1.1-0.9-2.4-1.5-3.2-2.5c-5.5-6.5-12.2-11.6-18.3-17.5c-1.1-1-1.6-0.9-2.7,0.1
			C378.8,289.2,372.3,297.2,365.5,303.3L365.5,303.3z"/>
		<path fill="#FFFFFF" d="M147,308.7c1.5-10.3,3.2-20.5,1.8-31c-4.1,11.9-10.4,21.5-23.5,25.7c1.3-5.2,2.4-10.2,3.7-15.2
			c1.6-6.1,3.2-12.3,5-18.4c0.5-1.9,0.8-3.4-1.8-3.9c-0.8-0.1-1.6-0.9-2.4-1c-13.6-2-23.5-11.3-35-17.4c-0.6-0.3-1.3-0.7-2.1-1.1
			c-0.3,3.6,1.3,6.5,2.1,9.6c0.9,3.5,2.1,6.9,3.3,10.3c0.2,0.7,0.8,1.5,0.2,2.1c-0.8,0.8-1.6,0.1-2.3-0.3c-4.2-2.8-8.1-6.2-12.3-9
			c-4.9-3.3-5.8-7.8-6.7-13.1c-1.5-9.3-3.4-18.6-6.4-27.6c-0.2-0.7-0.4-1.4-0.7-2.1c-0.4-1.2,0.1-2.3,0.9-3.1c1.1-1,2.2,0,3,0.6
			c9,7.5,18.8,13.8,28.3,20.7c10.7,7.7,21.4,15.4,31.6,23.8c5.6,4.7,11.1,9.6,16.6,14.4c10.3,9.1,19,19.8,29.8,28.4
			c4.9,3.9,4,9.3,4.9,14.3c0.3,1.8,0.1,3.7,0.1,5.6c0,3.5-1.7,5.5-5.2,6c-0.4,0.1-0.8,0-1.1,0.1c-7.4,0.9-7.3,0.9-7.7-6.7
			c-0.4-7.4-1-14.9-1.5-22.3c-0.2-2.4-0.7-3.4-3.4-1.5C159.8,300.9,153.8,305.5,147,308.7L147,308.7z"/>
		<path fill="#FFFFFF" d="M422.2,225c-4.1,0.6-8.5-1.1-13.1,0.5c-3.7,1.3-7.5-2.8-8-7.4c-0.2-1.7,0-3.4,0.4-5.2
			c2.4-9.1,4-18.4,5.4-27.7c0.2-1.5-0.1-2.9-0.4-4.4c-0.8-3.9,0.7-7.2,3.6-9.6c2.7-2.3,6.1-1.9,9.2-0.4c7.5,3.6,14.7,7.8,21.9,12
			c1.3,0.7,2.6,1.4,4,1.9c5.4,2.1,7.1,7.6,3.1,11.6c-6.2,6.1-10.1,13.3-12.7,21.6c-2,6.4-3.6,7.1-10.4,7.2
			C424.4,225,423.5,225,422.2,225L422.2,225z M438.9,192.6c-7.1-4.1-14.2-8.2-21.2-12.3c-0.5,3.9-0.9,8-1.7,12
			c-1.1,6.3-2.5,12.7-3.8,19c-0.5,2.3,0.2,3.6,2.9,3.5c1.2-0.1,2.5,0.1,3.7,0.4c6.3,1.3,7.7,0.6,9.1-5.5
			C429.5,202.5,433.8,197.3,438.9,192.6L438.9,192.6z"/>
		<path fill="#FFFFFF" d="M284.1,9.3c-0.1-7.8,5.6-11.4,12.8-8.1c10.8,4.9,20.8,11.3,30.5,17.9c4.5,3.1,5,8.3,1.3,14.3
			c-3.6,5.8-8.8,10.1-13,15.3c-2.4,3-4.9,5.4-9.2,5.4c-3.4,0-6.1-1.3-7.6-4c-6.8-12.4-11.9-25.4-14.8-39.3
			C284,10.3,284.1,9.8,284.1,9.3z M295.8,10.9c-1.8,0.5-1.4,1.8-1.1,3.2c2.1,10,7,18.8,10.8,28c0.7,1.6,1.4,1,2.2,0.2
			c4.2-4.2,8.5-8.5,12.7-12.7c1.2-1.2,1.4-2.3-0.3-3.3c-7.8-4.9-15.5-9.8-23.3-14.7C296.6,11.4,296.2,11.2,295.8,10.9L295.8,10.9z"
			/>
		<path fill="#FFFFFF" d="M261.2,358.1c9.3,2.1,18.3,4.2,27.3,6.1c2.9,0.6,4.8,2,6.4,4.6c5.2,8.4,6.9,17.7,8.3,27.2
			c0.8,5-0.1,10.1,0,15.2c0,1.1,0.2,2.3-1.5,3c-0.8-3.6-1.1-7-2.4-10.4c-2.2-6.1-5.9-10.4-12.1-12.1c-6.5-1.8-10.3-5.9-12.8-12.2
			c-2.8-7-6.7-13.6-12.1-19.1C261.8,359.8,261,359.2,261.2,358.1L261.2,358.1z"/>
		<path fill="#FFFFFF" d="M283.8,65c-0.2,2-1.3,4-3,5.8c-5.2,5.4-10.8,10.3-15.2,16.4c-1.8,2.5-3.2,0.9-3.9-1.2
			c-1.5-4.9-3-9.7-4.4-14.6c-1.3-4.7-2.7-9.3-4.7-13.8c-0.4-0.9-1.1-1.8-0.2-2.8c0.7-0.8,1.6-0.2,2.4-0.2c7.6,0.6,14.6,3.9,22.1,5.1
			c1.1,0.2,2.2,0.4,3.3,0.4C282.8,60.5,283.8,62,283.8,65L283.8,65z"/>
		<path fill="#FFFFFF" d="M445.8,112.7c0.2,6.6-0.8,13.2-2.3,19.6c-0.5,2.2-1.3,4.6-4,4.8c-2.5,0.2-4.1-1.6-5.1-3.8
			c-2.4-5.7-4.7-11.5-7.1-17.2c-0.6-1.5-0.3-2.2,1-3c3.7-2.3,7.1-5,9.6-8.7c1.3-2,3.4-2.5,5.6-1.8c2.1,0.7,2.4,2.6,2.4,4.6
			C445.7,109,445.8,110.9,445.8,112.7L445.8,112.7z"/>
		<path fill="#FFFFFF" d="M349.7,29.6c3.4-5.4,6.1-9.8,8.9-14.2c3-4.6,6.2-9,9.4-13.5c1.1-1.6,2.6-2.2,3.3-0.1c1.7,5,4,9.9,4,15.4
			c0,2.1-0.7,3.8-2.4,4.7C366,25.7,358.4,27.5,349.7,29.6L349.7,29.6z"/>
	</g>
</g>
</svg>
