<?xml version="1.0" encoding="utf-8"?>
<!-- Generator: Adobe Illustrator 26.3.1, SVG Export Plug-In . SVG Version: 6.00 Build 0)  -->
<svg version="1.1" id="Layer_2_00000092439091039892082960000016721605808600687751_"
	 xmlns="http://www.w3.org/2000/svg" xmlns:xlink="http://www.w3.org/1999/xlink" x="0px" y="0px" viewBox="0 0 308.2 244.5"
	 enable-background="new 0 0 308.2 244.5" xml:space="preserve">
<g id="Layer_1-2">
	<g>
		<path fill="#FFFFFF" d="M193.7,115.5c0,10.5-0.1,21,0,31.5c0.1,6.3-3.3,10.2-9.5,10.2c-21.1,0.1-42.2,0.2-63.4,0.3
			c-4.2,0-7.5-4.4-7.4-9.9c0.1-7,0.6-14,0.6-21c0-14.9,0.7-29.7-0.4-44.6c-0.4-4.8,4-9.3,8.8-9.2c21,0.6,42,0.4,63,0.3
			c4.6,0,7.6,3,7.6,8.6c0.2,11.2,0.1,22.5,0.1,33.7L193.7,115.5L193.7,115.5z M126.3,113.8h0.2c0,8.7-0.1,17.5,0,26.2
			c0.1,5.4,1.2,6.3,6.5,6.3c14.1,0,28.2-0.2,42.4,0c4.1,0.1,5.3-1.5,5.3-5.1c-0.1-17.7,0.9-35.5-0.2-53.2c-0.2-3-1.2-3.8-4-3.7
			c-15.9,0.3-31.7,0.4-47.6,0.5c-2.2,0-2.7,0.7-2.7,2.8C126.3,96.3,126.3,105,126.3,113.8L126.3,113.8z"/>
		<path fill="#FFFFFF" d="M0.1,111.5c0-6.2,0.1-12.5,0-18.7c0-2.2,0.6-3.2,2.9-3.2c12.1-0.2,24.2,0,36.3,0.3c1.6,0,1.8,0.9,1.9,2.1
			c0,1.5,0.2,3,0.2,4.5c0.1,10.9,0,21.7,0.2,32.6c0,3.2-1.1,4.4-4.3,4.4c-11,0-22,0.1-32.9,0.3c-2.9,0.1-4.3-0.7-4.2-3.9
			C0.3,123.8,0.1,117.7,0.1,111.5L0.1,111.5L0.1,111.5z"/>
		<path fill="#FFFFFF" d="M267.2,111.4c0-6.2,0.1-12.5,0-18.7c0-2,0.5-2.9,2.7-2.9c11.9,0.1,23.7,0.1,35.6,0c1.7,0,2.3,0.5,2.4,2.3
			c0.5,12.9,0,25.7,0.2,38.6c0,2.1-0.9,2.8-2.9,2.8c-11.6,0-23.2,0-34.8,0.1c-2.7,0-3.1-1.4-3.1-3.5
			C267.3,123.9,267.3,117.6,267.2,111.4L267.2,111.4L267.2,111.4z"/>
		<path fill="#FFFFFF" d="M221,111.6c0-6,0.1-12,0-18c0-2.9,0.9-4.3,4.1-4.2c10.7,0.3,21.5,0.4,32.2,0.5c2.3,0,3,1,3.1,3.1
			c0,12.5,0.1,25,0.2,37.5c0,2.1-0.9,3-2.9,3c-11.5,0-23,0.1-34.5,0.1c-2.4,0-2.4-1.6-2.4-3.3c0-6.2,0-12.5,0-18.7L221,111.6
			L221,111.6z"/>
		<path fill="#FFFFFF" d="M87.2,111.8c0,5.7-0.2,11.5,0.1,17.2c0.2,3.6-1.2,4.5-4.5,4.5c-9.5-0.1-19,0-28.5,0c-5.2,0-6-0.7-6-6.1
			c0-7.1,0.2-14.2,0.3-21.4c0.1-4.4,0.3-8.7,0.2-13.1c-0.1-2.7,1-3.4,3.5-3.3c10.5,0.2,21,0.3,31.5,0.3c2.2,0,2.8,0.8,2.8,2.8
			c-0.1,6.4,0,12.7,0,19.1L87.2,111.8L87.2,111.8z"/>
		<path fill="#FFFFFF" d="M20.4,83.3c-5.5,0-11-0.1-16.5,0.1c-2.8,0.1-4-0.6-3.9-3.7c0.2-7.6,0.2-15.2,0.1-22.8
			C0,53.3,2,51.9,4.9,52c11.1,0.5,22.2,0.3,33.3,0.2c2.3,0,3.1,1.3,3.2,3.2c0.1,8.4,0.1,16.7,0.1,25.1c0,2.1-1.1,2.8-3.1,2.8
			C32.4,83.2,26.4,83.3,20.4,83.3L20.4,83.3L20.4,83.3z"/>
		<path fill="#FFFFFF" d="M287.6,83.3c-5.7,0-11.5-0.1-17.2,0c-2.1,0-3.2-0.2-3.1-2.8c0.1-8.4,0.1-16.7,0-25.1
			c0-2.2,0.8-3.1,3.1-3.1c11.3,0,22.7,0,34-0.1c2.5,0,3.6,0.9,3.6,3.5c0,8.4,0.1,16.7,0.2,25.1c0,2-0.7,2.6-2.6,2.5
			C299.5,83.3,293.6,83.4,287.6,83.3C287.6,83.4,287.6,83.3,287.6,83.3z"/>
		<path fill="#FFFFFF" d="M240.4,83.3c-5.5,0-11-0.1-16.5,0c-2.4,0.1-3.3-0.6-3.2-3.1c0.2-7.9,0.2-15.7,0-23.6
			c-0.1-3.3,1.6-4.8,4.4-4.7c11,0.5,22,0.5,33,0.5c1.6,0,2.3,0.7,2.3,2.2c0.1,8.9,0.1,17.7,0.2,26.6c0,2-1.2,2.1-2.7,2.1
			C252.1,83.3,246.3,83.3,240.4,83.3L240.4,83.3L240.4,83.3z"/>
		<path fill="#FFFFFF" d="M20.9,139.7c5.6,0,11.2,0.1,16.9,0c2.1,0,3.1,0.4,3.3,2.8c0.7,7.6,0.2,15.2,0.3,22.9
			c0,2.5-1.3,3.9-3.9,3.9c-11.1,0.1-22.2,0.2-33.4,0.1c-2.6,0-4.1-1.4-4-4.3c0.1-7.5,0.1-15,0-22.5c0-2.1,1-2.5,2.7-2.5
			c6,0,12,0,18,0L20.9,139.7L20.9,139.7z"/>
		<path fill="#FFFFFF" d="M288.1,139.8c5.5,0,11,0.1,16.5,0c2.4,0,3.6,0.7,3.6,3.4c-0.2,7.4-0.2,14.7-0.1,22.1c0,3-1.6,4.1-4.2,4
			c-11.1-0.6-22.2,0.3-33.4,0.1c-2.3,0-3.4-0.9-3.3-3.3c0.1-7.6,0.2-15.2,0-22.9c0-2.8,1.2-3.4,3.6-3.4
			C276.6,139.9,282.4,139.8,288.1,139.8L288.1,139.8L288.1,139.8z"/>
		<path fill="#FFFFFF" d="M68.6,52.2c4.7,0,9.5,0.1,14.2,0c3-0.1,4.4,1,4.3,4c-0.2,8.2-0.3,16.5-0.4,24.7c0,2-0.6,3-2.8,2.8
			c-10.7-0.8-21.5-0.3-32.2-0.3c-2.6,0-3.5-0.7-3.4-3.4c0.2-7.6,0-15.2,0.4-22.8c0.2-3.6,1.6-5.2,5.3-5.1c4.9,0.1,9.7,0,14.6,0
			L68.6,52.2L68.6,52.2z"/>
		<path fill="#FFFFFF" d="M240.3,139.8c5,0,10,0,15,0c5,0,5.2,0.1,5.2,4.9c0.1,6.9,0,13.7,0,20.6c0,2.3-0.5,3.7-3.3,3.7
			c-10.7,0-21.5,0.1-32.2,0.3c-2.9,0-4.3-1.1-4.3-4.1c0.1-7.5,0.1-15,0-22.5c0-2.1,0.7-2.9,2.8-2.8
			C229.1,139.9,234.7,139.8,240.3,139.8L240.3,139.8L240.3,139.8z"/>
		<path fill="#FFFFFF" d="M67.6,169.4c-4.7,0-9.5-0.1-14.2,0c-3.5,0.1-5.2-1.2-5.1-5.1c0.2-7.1,0.1-14.2,0.6-21.4
			c0.1-2,0.8-2.9,2.8-2.9c10.6-0.1,21.2-0.2,31.9-0.3c2.3,0,3.2,1,3.2,3.4c0,7.2,0.2,14.5,0.3,21.7c0.1,3.3-1.6,4.7-4.9,4.6
			C77.4,169.3,72.5,169.4,67.6,169.4L67.6,169.4L67.6,169.4z"/>
		<path fill="#FFFFFF" d="M147.2,198.4c0-11.2,0.1-22.5-0.1-33.7c0-2.1,0.5-2.7,2.6-2.6c8.7,0.3,8.6,0.3,8.7,9.1
			c0.2,20.4-0.2,40.7,0.4,61.1c0.1,3.4,0.8,4.8,4.3,3.2c2.3-1,4.4-0.4,5.9,1.7c1.2,1.7,1.8,3.6,0.3,5.5c-1.1,1.4-2.5,1.9-4.3,1.9
			c-7.4-0.1-14.7,0-22.1-0.2c-2.8-0.1-5.3-0.8-5.1-4.5c0.2-3.3,2.2-5.4,5.7-4.8c3.6,0.6,3.6-1,3.6-3.7c-0.1-11,0-22,0-33
			L147.2,198.4L147.2,198.4z"/>
		<path fill="#FFFFFF" d="M141.4,185.3c2.5,8.5-1.9,13.1-8.4,17.8c-11,8-21.1,17.1-31,26.5c-1.6,1.5-2.9,3.4-4.5,5
			c-2.4,2.3-5.5,2.3-7.7,0.3c-2.6-2.3-2.1-5-0.3-7.4c3.1-4.1,7.5-6.9,11.4-10.2c8.3-7,16.5-14.1,25.5-20.2c4.5-3.1,5.8-6.1,5.3-11
			c-0.4-3.4,0.2-7,0.1-10.5c0-1.5,0.2-2.1,1.7-1.8c0.1,0,0.2,0,0.4,0c5-0.1,7.5,2.3,7.6,7.3C141.3,182.6,141.3,183.9,141.4,185.3
			L141.4,185.3z"/>
		<path fill="#FFFFFF" d="M163.8,185.1c0-2.7,0.1-5.5,0-8.2c-0.2-3.6,2.5-2.6,4.4-2.8c1.8-0.1,4.2-0.9,4,2.5
			c-0.1,1.2,0.4,2.5,0.2,3.7c-1.7,9.4,2.9,15,10.4,19.8c11.1,7.2,20.3,16.9,30.5,25.3c1.6,1.3,2.8,2.9,2.8,5.1c0,2.3-0.7,4.6-3,5.6
			c-2.3,0.9-4.4,0.3-6.1-1.6c-6.2-6.8-13-13.1-20.1-19c-6.3-5.3-12.4-10.8-19-15.7c-3.5-2.7-5.1-5.5-4.4-9.8c0.3-1.6,0-3.2,0-4.9
			L163.8,185.1L163.8,185.1z"/>
		<path fill="#FFFFFF" d="M147.3,35.4c0-9.4,0-18.7,0-28.1c0-4.5,2-7,5.4-7.2c3.2-0.2,5.7,2.4,6,6.7c0.2,3.4-0.1,6.7-0.1,10.1
			c0,16,0.1,32,0.2,48c0,2-0.4,2.6-2.5,2.3c-2.9-0.4-6.8,1.7-8.5-0.5c-1.4-1.8-0.5-5.5-0.5-8.3C147.2,50.6,147.2,43,147.3,35.4
			L147.3,35.4L147.3,35.4z"/>
		<path fill="#FFFFFF" d="M199,120.1c0-6.9,0-7,6.8-6.8c8.9,0.2,7.8-1,7.6,7.9c-0.2,7.5,1.6,7.2-7.3,7
			C199,127.9,199,127.8,199,120.1L199,120.1z"/>
		<path fill="#FFFFFF" d="M206.6,106.7c-5.1,0-7.6-2.6-7.6-7.8c0-4.5,2.3-6.7,6.8-6.6c4.8,0,7.5,2.4,7.9,7.2
			C214.2,104.3,211.8,106.7,206.6,106.7L206.6,106.7z"/>
		<path fill="#FFFFFF" d="M101.2,128.1c-5-0.1-7.4-2.6-7.4-7.5c0-4.4,2.3-6.6,6.7-6.6c5.1,0.1,7.8,2.7,8.2,7.8
			C108.9,126.1,106.4,128.2,101.2,128.1L101.2,128.1z"/>
		<path fill="#FFFFFF" d="M108.5,100c0.1,4.7-2.3,7.1-7.1,7.1c-5.2,0-7.8-2.7-7.6-8.1c0.2-7.3-0.1-6.1,6.3-6.1c0.4,0,0.7,0,1.1,0
			C106,93,108.4,95.3,108.5,100L108.5,100z"/>
		<path fill="#FFFFFF" d="M175,162.7c2.4,0,4.7,0.1,7.1,0c2.5-0.1,2.5,1.2,1.5,2.7c-1.4,2.4-3.3,4.3-6.5,4.1
			c-3.3-0.3-6.7-0.6-10-0.5c-3.2,0.1-1.4-2.5-1.7-3.9c-0.3-1.2-0.6-2.8,1.8-2.6C169.8,162.8,172.4,162.7,175,162.7L175,162.7
			L175,162.7z"/>
		<path fill="#FFFFFF" d="M130.2,162.7c1.7,0,3.5,0.2,5.2,0c3.7-0.6,4.4,1.1,3.9,4.3c-0.3,1.7-0.9,2.2-2.4,2.1c-4-0.1-8-0.1-12-0.4
			c-3.2-0.2-3.2-3.1-3.7-5.2c-0.4-1.4,1.1-1,1.8-1c2.4,0,4.7,0,7.1,0L130.2,162.7L130.2,162.7z"/>
		<path fill="#FFFFFF" d="M136.6,67.6c-2.3-0.2-4.8-1-5.1-4.3c-0.2-3,2.8-5.7,5.8-5.6c2.7,0.1,4.7,2.7,4.6,6.1
			C141.9,67,139.8,67.6,136.6,67.6z"/>
		<path fill="#FFFFFF" d="M168.3,67.5c-3.2,0-5.1-1.8-5-4.6c0.1-2.9,2.5-5.3,5.2-5.3c2.6,0.1,5.1,2.7,5.1,5.5
			C173.5,66.5,171.4,67.6,168.3,67.5L168.3,67.5z"/>
	</g>
</g>
</svg>
