<?xml version="1.0" encoding="utf-8"?>
<!-- Generator: Adobe Illustrator 26.3.1, SVG Export Plug-In . SVG Version: 6.00 Build 0)  -->
<svg version="1.1" id="Layer_2_00000078029304240654092420000006019780936379803532_"
	 xmlns="http://www.w3.org/2000/svg" xmlns:xlink="http://www.w3.org/1999/xlink" x="0px" y="0px" viewBox="0 0 466.8 507.2"
	 enable-background="new 0 0 466.8 507.2" xml:space="preserve">
<g id="Layer_1-2">
	<path fill="#FFFFFF" d="M166.6,181.2c5-2.9,9.8-4.9,14.6-6.9c2.3-1,3.7-0.3,3.7,2.3c0.1,11.5,0.1,23,0.1,34.4
		c0,2.8-1.8,1.9-3.1,1.3c-5-2.4-10.2-4.4-15.5-7.9c0,2.1,0,3.6,0,5.2c0,15.6,0.1,31.2,0.1,46.8c0,7.4-1.5,8.7-8.9,8.6
		c-4.9-0.1-9.7,0-14.6-0.2c-2.2-0.1-2.9,0.6-2.6,2.8c0.2,2,0.1,4,0.4,6c0.4,3.1-0.7,5.5-3.7,5.8c-3.1,0.3-4.6-2.3-5-5
		c-0.4-2.3-0.2-4.7,0-7.1c0.1-2.1-0.5-2.8-2.8-2.7c-4.3,0.3-8.7,0.3-13.1,0.2c-2,0-3,0.4-2.8,2.7c0.2,2.4,0,4.7,0,7.1
		c0,2.6-1.2,4.4-3.8,4.8c-2.8,0.4-4-1.6-4.8-3.8c-0.9-2.7-0.3-5.5-0.4-8.2c0-1.5,0-2.6-2.2-2.5c-4.9,0.2-9.7,0.2-14.6,0.1
		c-2-0.1-2.3,0.9-2.2,2.5c0.1,2.5,0.1,5,0.2,7.5c0.1,2.5-1.2,4.1-3.4,4.8c-2.2,0.7-3.4-1.1-4.5-2.6c-2-2.7-1.4-5.8-1.1-8.7
		c0.3-2.9-0.6-3.7-3.4-3.4c-3.2,0.3-6.5,0.2-9.7,0c-2.1-0.1-2.6,0.7-2.4,2.6c0.2,2.4,0.3,4.7,0.4,7.1c0.1,2.7-1.5,4.3-3.8,4.9
		c-2.3,0.5-3.6-1.3-4.4-3.2c-1.4-3-0.6-6.2-0.6-9.2c0-1.7-0.3-2.3-2.2-2.3c-11.5,0.2-23,0.2-34.4,0.2c-5.1,0-7.5-2.4-7.5-7.5
		C8.7,217,8.8,176.6,9,136.2c0-5.4,1.9-7.3,7.5-7.2c10.6,0.1,21.2,0.1,31.8,0.3c2.9,0.1,4.4-0.4,4.3-3.8c-0.1-3,1.7-5.1,4.8-5
		c3,0.1,4,2.8,3.6,5.2c-0.6,3.6,1.4,3.6,3.8,3.5c1.6-0.1,3.3-0.2,4.9-0.1c4,0.3,7.6,0.7,7.8-5.2c0.1-2.1,2.1-3.7,4.6-3.4
		c2.8,0.3,3.9,2.4,3.5,4.8c-0.6,3.6,1.2,3.9,4,3.8c3.6-0.1,7.2-0.1,10.9,0.1c2.4,0.1,3.9-0.6,3.9-3.3c0-0.7,0.3-1.5,0.6-2.1
		c1.2-2.3,3-3.8,5.7-3.2c2.5,0.5,3.4,2.7,3.2,4.9c-0.3,3.1,1.1,3.5,3.6,3.5c3.7,0,7.5,0.1,11.2,0.4c2.1,0.1,3.4-0.4,3.4-2.8
		c0-1,0.3-2,0.5-2.9c0.7-2.1,2.2-3.4,4.4-3.2c2.3,0.2,3.4,2.1,3.1,3.9c-0.6,4.6,2,4.7,5.3,4.6c4.5-0.1,9-0.2,13.5-0.2
		c6.4,0,8.1,1.5,7.8,8C166.2,151.4,166.7,166,166.6,181.2L166.6,181.2z M16.5,229L16.5,229c0.1,8.5,0.1,17,0,25.4
		c0,2.5,0.7,3.1,3.1,3.1c9.8-0.1,19.7-0.2,29.5,0c3.1,0.1,4-0.7,3.9-3.9c-0.2-16.5-0.3-32.9-0.2-49.4c0-2.8-0.9-3.2-3.4-3.3
		c-9.8-0.1-19.7-0.3-29.5,0.2c-3.1,0.1-3.6,1.2-3.5,3.9C16.6,213,16.5,221,16.5,229L16.5,229z M53.1,164.6h-0.2c0-8.4,0-16.7,0-25.1
		c0-1.4,0.2-2.5-1.7-2.5c-10.9,0-21.7,0-32.6-0.1c-2.1,0-2.2,1.1-2.2,2.6c0,16.9,0.1,33.7,0.1,50.6c0,1.9,0.6,2.3,2.4,2.2
		c10.6-0.1,21.2-0.2,31.8-0.1c2.1,0,2.5-0.6,2.4-2.6C53,181.3,53.1,172.9,53.1,164.6L53.1,164.6z M85.4,229.1L85.4,229.1
		c0.1,8.3,0.2,16.7,0,25c-0.1,3,0.9,3.6,3.6,3.4c3.7-0.2,7.5-0.4,11.2-0.1c3.1,0.2,3.7-1,3.7-3.8c0-16.6,0.2-33.1,0.4-49.7
		c0-2.8-1.2-3.3-3.6-3.2c-4.2,0.2-8.5,0.5-12.7,0.3c-2.4-0.1-2.6,0.7-2.6,2.6C85.4,212.1,85.4,220.6,85.4,229.1L85.4,229.1z
		 M131.9,229.3h0.1c0-8.5,0-16.9,0-25.4c0-1.5,0.6-3.5-2.2-3.1c-4.6,0.7-9.2,0.5-13.8,0.3c-2.4-0.1-2.9,0.7-2.9,2.9
		c0.1,16.9,0.1,33.9,0.1,50.8c0,2.3,0.9,2.7,2.8,2.5c4.3-0.4,8.7-0.4,13.1,0.1c2.4,0.3,3-0.6,2.9-2.8
		C131.9,246.2,131.9,237.8,131.9,229.3L131.9,229.3z M85.4,164.6L85.4,164.6c0.1,8.1,0.1,16.2,0,24.3c0,2.5,0.6,3.5,3.3,3.4
		c4-0.2,8-0.2,11.9,0.1c3.3,0.3,4.1-1,3.8-4c-0.3-2.5-0.1-5-0.1-7.5c0-13.2-0.1-26.4,0.1-39.6c0-3.4-0.5-4.9-4.4-4.5
		c-3.8,0.4-7.7,0.2-11.6,0c-2.4-0.1-3.2,0.6-3.2,3.1C85.5,148.1,85.4,156.3,85.4,164.6L85.4,164.6z M113.1,164.6L113.1,164.6
		c0,8.2,0.1,16.4,0,24.7c0,2.2,0.5,3.1,2.9,3c4.3-0.2,8.7-0.1,13.1,0.2c2.4,0.1,3.1-0.7,3-2.9c-0.1-5.9-0.2-11.7-0.2-17.6
		c0-10.7,0-21.4,0.1-32.1c0-2.1-0.4-3.1-2.9-2.9c-4.5,0.3-9,0.2-13.4,0c-2.2-0.1-2.7,0.7-2.7,2.7
		C113.2,147.9,113.1,156.3,113.1,164.6L113.1,164.6z M140.1,164.5L140.1,164.5c0,8.4,0.1,16.7,0,25.1c0,2,0.4,2.9,2.7,2.8
		c4.4-0.2,8.7-0.2,13.1,0c2,0.1,2.6-0.7,2.6-2.5c0-16.7,0.1-33.4,0.3-50.2c0-2-0.5-2.9-2.7-2.8c-4.4,0.2-8.7,0.1-13.1-0.1
		c-2.4-0.1-2.9,0.7-2.8,3C140.2,148,140.1,156.2,140.1,164.5L140.1,164.5z M140,229.2h0.1c0,8.5,0.1,16.9-0.1,25.4
		c0,2.3,0.7,3,3,2.9c4.1-0.2,8.2-0.3,12.3-0.1c2.4,0.1,2.9-0.8,2.9-3c-0.1-5.7,0.1-11.5,0.1-17.2c0-10.8-0.1-21.7,0-32.5
		c0-3-1.2-3.9-4-3.7c-3.6,0.2-7.2,0.3-10.8,0.1c-2.7-0.2-3.7,0.6-3.6,3.5C140.2,212.7,140,220.9,140,229.2L140,229.2z M60.9,229h0.3
		c0,8.4,0.2,16.7-0.1,25.1c-0.1,3.4,1.2,3.8,4.1,3.5c3.7-0.4,8.7,1.1,10.8-0.8c2.4-2.2,0.5-7.3,0.5-11.1c0.1-13.9-0.1-27.7,0.1-41.6
		c0-2.9-0.8-3.7-3.6-3.3c-2.8,0.4-5.8,0.5-8.6,0.1c-3.3-0.4-3.6,1.1-3.5,3.7C61,212.7,60.9,220.9,60.9,229z M61,164.2L61,164.2
		c0,8.5,0.1,16.9,0,25.4c0,2,0.4,2.9,2.7,2.7c3.7-0.2,7.5-0.2,11.2-0.2c1.7,0,2-0.4,2-2.1c-0.2-5.5-0.3-11-0.3-16.4
		c0-11.2,0.1-22.4,0-33.6c0-1.1,1-3.2-1.4-3c-4,0.4-8-0.1-11.9-0.2c-1.7,0-2.3,0.4-2.3,2.3C61.1,147.5,61,155.8,61,164.2L61,164.2z"
		/>
	<path fill="#FFFFFF" d="M311.7,205.1c-5.7,2.4-10.2,5.5-15.4,7.5c-2.6,1-3.4,0.6-3.4-2.3c0.1-12.1,0-24.2,0-36.6
		c6.8,1.4,12.3,5,18.7,8.4c0-9.3,0.1-18.1,0-26.9c-0.1-6.2,0.2-12.5-0.4-18.7c-0.5-5.3,2.3-7.7,7.7-7.5c4.9,0.1,9.7,0.2,14.6,0.5
		c2.3,0.1,3.2-0.7,3.3-2.9c0-0.7,0.1-1.5,0.3-2.2c0.6-2.2,1.9-4,4.4-3.8c2.7,0.1,3.9,2.4,3.5,4.4c-0.8,4.2,1.6,4.1,4.4,4.1
		c3.7,0,7.5-0.1,11.2,0.1c1.9,0.1,2.8-0.5,2.8-2.5c0-0.9,0-1.8,0.3-2.6c0.9-2.3,2.4-3.9,5.1-3.6c2.5,0.3,3.8,2.1,3.6,4.5
		c-0.4,3.9,1.7,4.6,4.9,4.3c1.9-0.2,3.7,0,5.6,0c2.1,0,4.4,0.5,6.3-0.2c2.1-0.7,1.3-3.5,2.1-5.2c0.9-2.2,2.3-3.5,4.8-3.4
		c2.6,0.1,3.7,2,3.6,4c-0.2,4.7,2.3,5.2,6,4.7c1.5-0.2,3-0.1,4.5-0.1c3.6,0.2,7.1,0.8,7.2-4.8c0-2.4,2.3-3.9,4.8-3.7
		c3,0.2,4.4,2.7,4.4,5.2c-0.1,3.3,1.5,3.5,4,3.4c9.7-0.1,19.5,0,29.2,0c5.6,0,7.1,1.4,7.1,7.1c0,40.4,0,80.9,0,121.3
		c0,5.9-1.8,7.5-7.6,7.5c-10.2,0-20.5-0.1-30.7-0.2c-2.3,0-3.2,0.5-2.9,2.9c0.2,2.4,0.2,4.7,0.2,7.1c0,2.3-1.3,3.8-3.4,4.4
		c-2.2,0.7-3.4-0.9-4.5-2.5c-1.9-2.7-1.2-5.8-1-8.7c0.2-2.5-0.5-3.3-3-3.1c-3.6,0.2-7.2,0.2-10.8-0.1c-2.3-0.2-3.2,0.3-3,2.7
		c0.2,2.2,0.1,4.5,0.1,6.7c0,2.9-1.4,5-4.3,5.1c-2.8,0.1-4.2-2.1-4.6-4.6c-0.4-2.4-0.3-5-0.3-7.5c0-1.9-0.7-2.6-2.7-2.5
		c-4.4,0.2-8.7,0.3-13.1,0.1c-2.4-0.1-2.7,0.8-2.6,2.8c0.2,2,0.1,4,0.1,6c0.1,3.1-1.2,5.4-4.3,5.5c-3.1,0.1-4.5-2.4-4.9-5.1
		c-0.3-2.2-0.2-4.5,0.1-6.7c0.2-2.1-0.6-2.5-2.5-2.4c-4.4,0.1-8.7,0-13.1-0.3c-2.5-0.2-3.1,0.7-2.9,2.9c0.2,2.1,0.2,4.2,0.2,6.4
		c0,3-1.3,5.4-4.5,5.3c-2.9-0.1-4.1-2.6-4.3-5.2c-0.2-2-0.2-4,0-6c0.1-2.3-0.5-3.4-3.1-3.2c-5,0.3-10,0.1-15,0.2
		c-5.2,0.1-6.8-1.4-6.8-6.5c0-16.5,0.1-32.9,0.2-49.4C311.7,207.9,311.7,206.8,311.7,205.1L311.7,205.1z M424.7,228.8L424.7,228.8
		c0.1,8.4,0.2,16.7,0,25.1c0,2.7,0.5,3.7,3.5,3.6c9.1-0.2,18.2-0.2,27.3,0c2.5,0,3.2-0.7,3.2-3.1c0-16.6-0.1-33.2,0.1-49.8
		c0-3.2-1.4-3.7-4-3.7c-9.1,0.1-18.2,0.1-27.3-0.1c-2.4-0.1-2.9,0.7-2.9,2.9C424.8,212.1,424.7,220.5,424.7,228.8L424.7,228.8z
		 M459,165.2h-0.4c0-8.3-0.1-16.7,0.1-25c0-2.4-0.6-3.2-3.1-3.2c-9.2,0.1-18.4,0-27.7-0.2c-2.4-0.1-3.1,0.6-3.1,3.1
		c0.1,16.3,0.1,32.6,0,49c0,2.9,0.9,3.5,3.6,3.5c9.7-0.2,19.4-0.5,29.1,0.3c2,0.2,1.6-0.8,1.6-2C459,182.1,459,173.7,459,165.2
		L459,165.2z M372.2,229.1L372.2,229.1c0,8.5,0.1,16.9,0,25.4c0,2.1,0.3,3.1,2.8,3c4.1-0.3,8.2-0.2,12.3,0c2.5,0.1,3.1-0.8,3.2-3.1
		c0.7-17.1,0.4-34.1,0.5-51.2c0-2.2-0.9-2.7-2.9-2.6c-4.4,0.2-8.7,0.5-13.1,0.3c-2.7-0.1-3,1-3,3.2
		C372.3,212.4,372.2,220.8,372.2,229.1L372.2,229.1z M372.3,164.6L372.3,164.6c0,8.3,0,16.7,0,25c0,1.4-0.1,2.7,2,2.7
		c4.7-0.1,9.5,0,14.2,0.2c1.8,0,2.5-0.6,2.5-2.4c0-16.9,0.1-33.9,0.1-50.8c0-1.6-0.4-2.5-2.3-2.4c-4.6,0.1-9.2,0.1-13.8,0
		c-2.2-0.1-2.7,0.6-2.7,2.7C372.4,147.9,372.3,156.2,372.3,164.6L372.3,164.6z M363.4,229.4L363.4,229.4c-0.1-8.3-0.2-16.7,0-25
		c0-2.8-0.5-4.1-3.7-3.7c-3.8,0.4-7.7,0.5-11.6,0.4c-2.7-0.1-3.3,1.1-3.3,3.5c0.2,16.8,0.2,33.6,0.2,50.4c0,1.9,0.4,2.6,2.4,2.5
		c4.4-0.2,8.7-0.3,13.1-0.1c2.5,0.1,2.9-0.8,2.8-3C363.3,246.1,363.4,237.8,363.4,229.4L363.4,229.4z M337,164.9
		c0-8.5,0-16.9,0-25.4c0-1.3,0.3-2.6-2-2.5c-4.2,0.2-8.5,0.1-12.7-0.2c-2.4-0.1-3.2,0.6-3.1,3.1c0.2,8,0.1,15.9,0.2,23.9
		c0.1,8.5,0.1,16.9,0.2,25.4c0,2.3,0.6,3.2,3.2,3c3.7-0.3,7.5-0.1,11.2,0.1c2.4,0.1,3.2-0.5,3.1-3.1C336.9,181.1,337,173,337,164.9
		L337,164.9z M363.5,164.9h-0.1c0-8.2-0.1-16.4,0.1-24.7c0.1-2.9-0.8-3.6-3.6-3.4c-3.3,0.3-6.7,0.1-10.1,0c-4.8-0.1-4.8-0.2-4.7,4.7
		c0.1,15.9,0.2,31.9,0.2,47.8c0,1.9,0.2,2.9,2.6,2.7c4.5-0.5,9-0.5,13.4,0c1.7,0.2,2.4-0.1,2.3-2.2
		C363.4,181.6,363.5,173.3,363.5,164.9L363.5,164.9z M336.7,229.1h0.4c0-8.6-0.1-17.2,0-25.8c0-2.1-0.5-2.7-2.8-2.5
		c-3.7,0.4-7.5,0.4-11.2,0.2c-2.9-0.1-4,0.6-3.9,3.7c0.2,16.6,0.3,33.2,0.4,49.8c0,2.2,0.6,3.1,3,2.9c3.6-0.2,7.2-0.2,10.8,0.1
		c2.8,0.2,3.4-0.9,3.3-3.4C336.6,245.9,336.7,237.5,336.7,229.1L336.7,229.1z M399.6,229.5h0.2c0,8.5,0.1,17,0,25.4
		c0,1.9,0.3,2.7,2.4,2.6c4-0.2,8-0.3,12-0.3c1.8,0,2.3-0.6,2.3-2.4c-0.1-16.8-0.2-33.7-0.1-50.5c0-2.4-0.8-3.4-3.2-3.3
		c-3.4,0.2-6.7,0.2-10.1,0.1c-2.6-0.1-3.5,0.7-3.4,3.3C399.7,212.7,399.6,221.1,399.6,229.5L399.6,229.5z M399.6,164.8L399.6,164.8
		c0,8.5,0.1,17-0.1,25.4c0,1.8,0.5,2.1,2.1,2c4.1-0.1,8.2-0.1,12.3,0c2,0.1,2.6-0.5,2.5-2.6c-0.2-4.5-0.2-9-0.2-13.5
		c0-12.1,0.1-24.2,0.2-36.3c0-2.4-0.6-3.3-3.1-3c-3.6,0.5-7.2,0.5-10.8,0c-2.3-0.3-3,0.3-2.9,2.7
		C399.7,148.1,399.6,156.4,399.6,164.8L399.6,164.8z"/>
	<path fill="#FFFFFF" d="M199.2,193.6c0-17.5,0.2-34.9-0.9-52.4c-0.4-6,1.3-7.5,7.3-7.3c1.6,0.1,3.2,0.1,4.9,0.2
		c6.1,0.4,6.1,0.4,6.1-6c0-3.5-1.1-7.5,4.5-8.1c1.7-0.2,0.9-2.3,0.9-3.6c-0.1-18.6-0.2-37.2-0.2-55.8c0-6-1-5.5,5.6-5.5
		c5.4,0,10.7,0.2,16.1,0c3-0.1,3.8,0.9,3.8,3.8c-0.1,19.1,0,38.2-0.1,57.3c0,3.3,0.5,4.6,4.2,4.1c4.7-0.6,6.8,1.8,6.8,6.7
		c0,4.7,2.4,7,7.2,6.9c1.5,0,3-0.1,4.5-0.1c5.3-0.1,7.3,1.6,7.3,7c0.1,26.6,0,53.2,0.1,79.8c0,8.4,0.3,16.7,0.4,25.1
		c0.1,4.6-0.4,4.9-4.8,4.8c-3.7-0.1-7.5,0-11.2-0.3c-2.6-0.3-2.7,1.1-2.3,2.8c0.4,1.9-1.2,5,2.7,4.9c2.6,0,5.2-0.3,7.9-0.2
		c4.6,0.2,6.9,2.3,7.3,6.8c0.3,3.3,0.1,6.7,0,10.1c-0.1,2.6-1.6,4.3-4.2,4.4c-2.8,0.2-4.3-1.6-4.9-4.2c-0.5-2.5-0.3-5,0-7.5
		c0.3-2-0.2-2.6-2.3-2.6c-6.3-0.2-6.3-0.3-6.2,6.2c0,1.1,0.1,2.2,0.1,3.4c0,2.1,0,4.3-2.8,4.4c-2.4,0-4.1-1.4-4.4-3.8
		c-0.3-3.2-0.2-6.5-0.2-9.7c0-3.4,1.2-7.7-0.5-9.8c-1.7-2.2-6.3-0.6-9.6-0.7c-5.6-0.2-11.2,0-16.8-0.1c-2.3-0.1-3,0.7-2.9,3
		c0.2,5.6,0.2,11.2,0.2,16.8c0,2.5-1.5,3.8-3.7,4.5c-1.8,0.6-3.3-0.3-4.2-1.6c-0.6-1-0.7-2.3-0.9-3.6c-0.1-1,0-2,0-3
		c0.1-5.9-1.5-7.1-7.3-5.7c-1.5,0.3-1.3,1.2-1.3,2.2c0.1,2.6,0,5.2,0.2,7.9c0.1,2.1-1,3.3-2.8,3.9c-2.1,0.8-3.3-0.6-4.3-2.1
		c-1.8-2.9-1.4-13.9,0.7-16.7c1.5-2,3.5-2.7,5.9-2.7c2.9,0,5.7,0,8.6,0.1c3.4,0.1,2-2.4,2.2-4c0.2-1.6,0.3-3.2-2.3-3
		c-3.9,0.3-7.7,0-11.6,0.2c-2.6,0.2-3.5-0.7-3.4-3.3c0.3-15.2,0.4-30.4,0.6-45.7C199.2,199.1,199.2,196.4,199.2,193.6L199.2,193.6z
		 M271.3,192.2L271.3,192.2c-0.1-16,0-31.9-0.1-47.9c0-1.4,1-3.4-2.3-3.3c-3,0-3.2,1.2-3,3.5c0.1,1.7-0.1,3.5,0,5.2
		c0.3,2.9-0.9,3.8-3.8,3.8c-14-0.1-28-0.1-41.9-0.1c-3,0-6.8,1.3-8.7-0.1c-2.3-1.7-0.7-5.8-0.7-8.9c0-2.5-0.8-3.1-3.2-3.2
		c-2.8-0.1-2.3,1.6-2.3,3.1c-0.1,14.3-0.3,28.7-0.3,43c0,17.8,0.3,35.7,0.3,53.5c0,2.5,1.1,2.7,3.1,2.9c2.4,0.2,2.3-1.1,2.3-2.7
		c0-4,0.1-8,0-12c0-1.8,0.5-2.4,2.3-2.4c16.8,0.2,33.7,0.4,50.5,0.5c1.9,0,2.6,0.5,2.6,2.6c-0.1,3.6,0.1,7.2,0,10.9
		c-0.1,2.1,0.6,2.7,2.8,2.8c2.4,0,2.5-1.1,2.5-2.9C271.2,224.4,271.3,208.3,271.3,192.2L271.3,192.2z M241.2,121c0-1.4,0-2.5,0-3.6
		c0-15.1-0.1-30.2-0.1-45.3c0-3.5,1.1-8.7-0.6-10c-2.3-1.7-6.9-0.3-10.5-0.4c-1.5-0.1-1.6,0.5-1.6,1.7c0,18.3,0.1,36.7,0.1,55
		c0,1.7,0.5,2.1,2.1,1.9C234.1,119.9,237.5,119.9,241.2,121L241.2,121z M237.2,126.9v-0.4c-4.1,0-8.2,0.1-12.3-0.1
		c-1.7-0.1-2.3,0.4-2.1,2c0.2,1.4,0.3,2.7,0.3,4.1c-0.1,1.7,0.7,2,2.2,2c8-0.1,15.9-0.1,23.9,0.1c1.7,0,2.2-0.4,2.2-2
		c0-1.1,0-2.2,0.2-3.3c0.4-2.1-0.6-2.5-2.5-2.4C245.1,127,241.2,126.9,237.2,126.9L237.2,126.9z"/>
	<path fill="#FFFFFF" d="M243.6,414.7c-5.6,0-11.2-0.2-16.8,0.1c-2.8,0.1-3.2-0.8-3-3.4c0.3-4.6,1.3-9.1,1.8-13.7
		c0.2-1.7,0.5-3.8-1.8-4.3c-2.4-0.5-3.3,1.4-3.8,3.3c-1.4,4.8-1.8,9.8-1.8,14.8c0,2-0.5,3-2.7,2.9c-1.7-0.1-3.5,0.3-5.2,0.3
		c-5.2,0.2-5.5,0-4.8-5c1.2-8,2.7-15.9,6-23.3c2.4-5.5,7.7-8.5,13.8-8.3c11.9,0.3,23.8,0.9,35.8-0.1c3.6-0.3,8.2,0.7,11.7,2.8
		c3.1,1.8,4.2,5.2,5.3,8.4c2.5,7.4,3.2,15.1,4.2,22.7c0.2,1.7-0.3,2.7-2.1,2.6c-0.1,0-0.2,0-0.4,0c-9.2,1-9.1,0.9-10-8.1
		c-0.4-3.7-1.2-7.4-2.7-10.8c-0.6-1.2-1-2.8-2.8-2.2c-1.7,0.6-1.9,2.2-1.7,3.8c0.4,3.7,0.9,7.4,1.4,11.1c0.1,1.2-0.1,2.5,0.1,3.7
		c0.3,2.4-0.7,3-3,2.9C255.1,414.7,249.4,414.8,243.6,414.7L243.6,414.7L243.6,414.7z M235.3,398.9c0,6.6,4.3,11.7,9.9,11.7
		c5.7,0,10-5.1,10.1-12c0.1-5.3-5.1-10-10.9-10.1C238.9,388.5,235.4,392.5,235.3,398.9L235.3,398.9z"/>
	<path fill="#FFFFFF" d="M242.8,422.8c5.4,0,10.7,0,16.1,0c1.9,0,3,0.9,4.2,2.4c4,5,5,10.6,4.4,16.8c-0.5,5.4,0.4,10.2,4.6,14.3
		c3.2,3.1,0.7,6.7-0.4,10.1c-0.9,2.9-3.2,3.1-5.7,3c-3.4-0.1-6.7-0.2-10.1,0c-3.1,0.1-5.1-1.4-5.9-4.1c-0.9-2.7-2.3-5.8,1-8.1
		c1.5-1,1.8-2.3,1.4-3.9c-1.5-6.3-2.3-12.7-4.3-18.9c-0.9-2.6-2-4.4-5.1-4.6c-3.2-0.2-3.4,2.3-4.1,4.4c-1.7,5.5-2.7,11.1-3.5,16.8
		c-0.4,2.5-0.1,4.8,2.2,6.7c2.9,2.4,0.5,5.3-0.1,7.9c-0.5,2.3-1.9,3.9-4.7,3.8c-4-0.1-8-0.1-12,0c-3.1,0.1-4.9-1.5-6.2-4
		c-1.4-2.6-1.8-5.7,0.4-7.7c5.6-5.1,5.8-11.6,5.3-18.3c-0.4-5.3,1.5-10,3.4-14.7c0.8-2,2.2-2.4,4.2-2.3c5,0.1,10,0,15,0L242.8,422.8
		L242.8,422.8z"/>
	<path fill="#FFFFFF" d="M219.3,357.1c-0.6-17,17.7-28.3,33.9-21.2c14,6.2,15.4,18.7,12,29.2c-1.7,5.3-4.7,6.8-10.2,6.6
		c-7.7-0.3-15.5-0.1-23.2-0.1c-7.7,0-11.3-3.1-12.3-10.8C219.4,359.6,219.4,358.4,219.3,357.1L219.3,357.1z M243.6,352.7v0.3
		c3.6,0,7.2,0.1,10.8,0c1.9,0,4.7,0.9,5.3-1.1c0.8-2.5-1.3-4.6-3.2-6.2c-1.1-0.9-2.4-1.4-3.7-1.6c-5.9-0.6-11.9-0.6-17.8-0.2
		c-3.7,0.2-5.4,2.4-6.5,5.6c-0.9,2.3-0.8,3.4,2.1,3.3C234.9,352.6,239.2,352.7,243.6,352.7L243.6,352.7z"/>
	<path fill="#FFFFFF" d="M64.2,405.5c-0.7,5.1-0.3,9.4,4.4,12.4c2.4,1.5,0.7,5.8-2.8,6.5c-4.8,1-9.7,1.2-14.5,0.3
		c-5-0.9-6.6-5.9-3.5-9.7c1.1-1.4,1.5-2.6,0.9-4.4c-1.1-3.4-2.2-6.9-2.3-10.5c-0.1-2.2-1.7-2.5-3.4-2.5c-1.6,0-3.1,0-3.3,2.1
		c-0.4,5.9-1.9,11.7,0.2,17.7c1.1,3-1.5,5.3-4.2,6.7c-3.6,1.8-9.1,0.8-11.4-1.9c-1.2-1.3-2-3-0.9-4.4c3-3.8,1.7-7.9,1-11.8
		c-0.5-2.8,0.1-4,3-3.9c2.8,0.1,4.4-1.2,4.6-4.1c0-0.5,0.1-1,0.3-1.5c1-2.7-0.7-6.6,1.6-8c2-1.2,5.3-0.2,8-0.1c2.7,0,5.5,0,8.2,0.1
		c1.7,0.1,4.4-0.8,4.8,0.4c0.8,1.9,0.7,4.5,0.2,6.6C53.2,403.2,55.9,406.6,64.2,405.5L64.2,405.5z"/>
	<path fill="#FFFFFF" d="M28.6,379.4c-0.3,1.5,0.8,3.4-0.8,4.2c-1.8,0.9-3.9,0.5-5.9,0.2c-1.2-0.2-0.8-1.4-0.7-2.2
		c0.4-5.6,1.4-11.1,4-16.2c3.7-7.3,11.6-10.2,19-7c2.4,1,4.7,1.2,7.2,0.3c4.8-1.7,7.4-0.9,10.4,3.3c3,4.1,4.2,9,5.6,13.7
		c0.3,1,0.5,1.9,0.7,2.9c1.4,5.3,1.3,5.3-4.1,5.3c-2.2,0-2.8-0.9-2.7-2.9c0.1-2.4,0.2-4.8-1.3-6.8c-0.6-0.8-1.3-1.6-2.4-1.5
		c-1.2,0.1-1.4,1.3-1.5,2.3c-0.3,2-0.5,4-0.4,5.9c0.1,2-0.7,2.5-2.6,2.5c-5.7,0-11.5,0.1-17.2,0.3c-2.2,0.1-2.8-0.8-2.6-2.9
		c0.3-2.4,1.1-5-0.3-7.3c-0.9-1.5-1.7-2.6-3,0C29,375.5,27.9,377.3,28.6,379.4L28.6,379.4z"/>
	<path fill="#FFFFFF" d="M434.1,388.4c2.2,0,4.5,0.2,6.7,0c3.1-0.3,3.9,1.2,3.6,3.9c-0.2,1.7-0.2,3.5,0,5.2c0.2,2.8,0.9,5.2,4.6,4.9
		c2.5-0.2,3.2,1.2,2.7,3.5c-1.1,4.4-2.4,8.7,1.6,12.5c0.6,0.6,0.6,1.6,0.1,2.4c-1.8,2.9-4.3,4.4-7.7,4.4c-3.3,0-6.1-1-7.7-4.2
		c-0.5-1.1-0.8-2.3-0.4-3.2c2.5-6,0.3-11.7-0.7-17.5c-0.4-2.4-1.9-2.8-4-2.6c-2.3,0.2-2.9,1.3-2.8,3.4c0.2,3.2,0.1,6.5,0,9.7
		c0,1.6,0.1,3.3,1.1,4.7c1,1.4,2.8,2.5,1.6,4.4c-1.4,2.2-3,4.4-5.9,4.7c-4.7,0.4-9.4,0.5-14.2,0.1c-2.1-0.2-3-1.5-3.8-3.1
		c-1-1.8,0.3-3,1.3-3.8c3.6-2.7,4.7-6.2,4.2-10.5c-0.2-1.9,0.5-2.2,2.3-2c4.9,0.5,8.8-4.2,7.7-9c-1.5-7-0.9-7.7,6-7.9
		C431.6,388.3,432.8,388.3,434.1,388.4L434.1,388.4L434.1,388.4z"/>
	<path fill="#FFFFFF" d="M434.5,383.1c-3.1,0-7,1.1-9.1-0.3c-2-1.4-0.4-5.6-0.7-8.5c-0.1-0.8,0.2-1.9-1-2.1
		c-1.1-0.2-1.9,0.5-2.5,1.3c-1.5,2.1-0.9,4.5-0.9,6.9c0,1.2,1,3.2-0.9,3.5c-2.3,0.4-4.8,0.8-7-0.3c-1.3-0.6-0.5-2.5-0.2-3.8
		c0.9-4,1.8-8,3-11.9c1.6-5.3,5.9-8.5,10.2-11.5c0.9-0.6,1.9-0.7,2.7,0c2.4,2.2,5.1,1.8,7.7,0.7c3.2-1.4,5.6-0.2,8.6,1.2
		c10.4,5,10.4,14.9,12.1,24.1c0.1,0.4,0.2,1.1-0.4,1.3c-2,0.6-4,0.4-5.9,0.1c-1.8-0.3-1-2-1.2-3.1c-0.3-2.2-0.2-4.5-0.6-6.7
		c-0.2-1.1-1-2.1-2.3-2c-1.5,0.1-1.2,1.4-1.3,2.3c-0.2,1.1-0.3,2.2-0.4,3.3c-0.1,3.8-2.1,5.7-6,5.6c-1.4,0-2.7,0-4.1,0L434.5,383.1
		L434.5,383.1z"/>
	<path fill="#FFFFFF" d="M436.4,338.3c-2.4,0-4.7-0.1-7.1,0c-1.3,0.1-3.4-1.3-3.2,1.9c0.1,2.5,0.5,3.9,3.5,3.7
		c5.2-0.3,10.5-0.2,15.7-0.3c2.8-0.1,3.1,1,2.2,3.4c-1.7,4.1-2.6,3.9-6.8,3.3c-5.5-0.9-11.3-1.9-16.8,0.6c-1.5,0.7-2.7,2.3-4.6,0.6
		c-1.9-1.7-4.1-3.5-3.1-6.2c1.5-4,1-7.2-1.8-10.6c-2.7-3.4-0.3-10.3,4-13.9c9.8-8.1,25.5-1.7,27.9,11.6c1.1,6.5,2.6,6.2-5.1,6.1
		C439.7,338.4,438,338.4,436.4,338.3L436.4,338.3L436.4,338.3z"/>
	<path fill="#FFFFFF" d="M173,44.6c-0.3,1.2-1.3,1.5-2.2,1.7c-3.3,1-6.6,2.1-10,2.9c-4.8,1.2-8.4,3.3-8.8,9
		c-0.2,3.2-1.3,6.3-2.2,9.4c-0.3,1.1-0.8,2.5-2.4,2.6c-1.7,0.1-2-1.3-2.3-2.5c-1.2-3.8-2.6-7.6-3.3-11.5c-0.6-3.7-2.4-5.3-5.9-6
		c-2.9-0.6-5.7-1.8-8.5-2.9c-1.4-0.6-2.8-1.6-2.7-3.3c0.1-1.6,1.6-2.1,2.9-2.5c3.2-1,6.4-2,9.6-3c2.1-0.6,3.3-1.7,3.8-4
		c1-5,2.5-9.9,3.8-14.8c0.3-1,0.3-2.5,1.7-2.6c1.5-0.1,1.6,1.3,1.9,2.4c1,3.7,2.1,7.4,3,11.2c1,4.7,3.6,7.3,8.4,8.3
		c3.8,0.8,7.9,1.4,11.3,3.7C171.9,43.3,172.8,43.6,173,44.6L173,44.6z"/>
	<path fill="#FFFFFF" d="M40.1,343.9c2.4,0,4.7-0.1,7.1,0c2.2,0.1,3.4-0.4,3.3-3c0-2.7-1.4-2.6-3.3-2.5c-4.4,0.1-8.7,0.1-13.1,0.2
		c-2,0.1-2.9-0.4-2.7-2.7c0.4-6.4,2.6-11.8,7.8-15.8c5.1-3.9,10.1-2.7,14.9,0.2c4.5,2.7,7.3,6.7,6.7,12.4c-0.1,0.9-0.2,1.8-0.6,2.5
		c-2.2,3.2-2.8,6.5-1.8,10.5c1,3.8-3.2,6-7.6,5.3c-5.7-0.9-11.5-2.4-17,0.5c-0.9,0.5-1.3,0-1.8-0.6c-1.1-1.4-1.6-3.1-1.9-4.8
		c-0.3-1.7,0.2-2.5,2.1-2.5c2.6,0.1,5.2,0,7.8,0L40.1,343.9L40.1,343.9z"/>
	<path fill="#FFFFFF" d="M282,196.6c0-13.1,0-26.2,0-39.3c0-2.1,0.2-3.5,2.9-3.7c2.3-0.1,3.3,0.4,3.2,2.8c0,1.2,0.1,2.5,0.2,3.7
		c0.1,1.1-0.5,2.7,1.7,2.4c1.5-0.2,3.1-0.3,3-2.4c0-1,0.1-2,0.1-3c0-1.5-0.6-3.4,2.2-3.2c2.3,0.1,4,0.5,3.7,3.3c0,0.1,0,0.2,0,0.4
		c0.3,8.4,0.3,8.5-8.1,8.5c-2,0-2.6,0.6-2.6,2.5c-0.4,18.1-0.1,36.2,0.1,54.2c0,2.1,1,2.3,2.8,2.5c9.2,0.6,8.2-0.8,8.4,9.2
		c0,1.6,0.8,3.7-1.2,4.7c-2.8,1.5-5.3-0.1-5.3-3.4c0-1.4-0.1-2.7,0-4.1c0.1-1.6-1-1.8-2.2-1.8c-1.2,0-2.3,0-2.3,1.7
		c0,1.1,0,2.2-0.1,3.4c-0.1,2.3,0.5,4.7-3.5,4.6c-4.1-0.2-2.6-3.1-2.6-4.8c-0.1-12.7-0.1-25.4-0.1-38.2L282,196.6L282,196.6z"/>
	<path fill="#FFFFFF" d="M195.6,197.4c0,12.9,0,25.7,0,38.6c0,1.9,0.3,3.7-2.7,3.6c-2.6,0-3.6-0.9-3.3-3.4c0.2-1.4,0.1-2.8,0-4.1
		c-0.1-1,0.8-2.8-1.5-2.5c-1.5,0.2-3.4-0.2-3,2.5c0.2,1.3,0,2.7,0,4.1c0,1.8,0.2,3.5-2.6,3.5c-2.4,0-3.9-0.5-3.7-3.2
		c0.1-0.9-0.2-1.7-0.2-2.6c-0.3-8.4-0.3-8.5,8-8.4c3.1,0,3.8-1.1,3.8-3.9c-0.1-17.5-0.1-34.9-0.1-52.4c0-2.3-0.5-3.3-2.9-2.9
		c-1,0.1-2,0.2-3,0c-1.9-0.4-4.8,1.3-5.6-1.5c-0.9-3.2-0.5-6.8,0.6-9.9c0.4-1.3,2.5-0.5,3.8-0.6c1.2-0.1,1.4,0.8,1.5,1.7
		c0.1,1.4,0.5,2.8,0.3,4.1c-0.2,2.4,1.3,2.6,3,2.8c2.5,0.3,1.6-1.6,1.7-2.8c0.1-0.9,0-1.7-0.1-2.6c-0.1-1.8-0.4-3.5,2.4-3.4
		c2.4,0.1,3.6,0.8,3.6,3.5C195.6,170.7,195.6,184.1,195.6,197.4L195.6,197.4L195.6,197.4z"/>
	<path fill="#FFFFFF" d="M43.1,80.4c0.3-6.1,4.9-10.5,10.6-10.2c5.5,0.3,10.2,5.7,10,11.5c-0.2,6-5.2,10.5-11.1,10.1
		C47.2,91.4,42.8,86.2,43.1,80.4L43.1,80.4z"/>
	<path fill="#FFFFFF" d="M130.2,344.7c2,0.1,2.5,1.5,2.5,3.1c0.1,3.2,0.3,6.5,0.1,9.7c-0.3,3.5,1.1,4.2,4.3,4
		c4.1-0.3,8.2-0.1,12.3,0.1c1.4,0.1,3.4,0.2,3.4,2.2c0.1,2.2-2.1,1.9-3.4,1.9c-4.3,0.3-8.7,0.5-13.1,0.4c-2.9-0.1-3.7,1.2-3.6,3.8
		c0.1,2.5,0,5-0.1,7.5c0,0.9-0.3,1.8-1.2,2.1c-1.2,0.4-1.8-0.4-2.4-1.2c-1.8-2.6-1.8-5.7-1.7-8.6c0.1-2.7-0.6-3.8-3.5-3.6
		c-3.6,0.2-7.2,0-10.8-0.2c-1.4,0-2.8-0.2-2.7-2.2c0.1-2,1.4-2.1,2.9-2.1c3.7,0,7.5-0.2,11.2,0c2.6,0.1,3.1-0.9,3.1-3.2
		c0-3.5,0.4-6.9,0.7-10.4C128.3,346.5,128.5,345.1,130.2,344.7L130.2,344.7z"/>
	<path fill="#FFFFFF" d="M411.8,475.6c-0.3,1.4-1.5,1.7-2.6,1.7c-2.6,0.2-5.2,0.2-7.8,0.3c-8.1,0.4-6.5-0.6-7.3,6.8
		c-0.1,1-0.1,2-0.3,3c-0.2,1-0.9,1.9-2,1.9c-1.4,0-1.5-1.1-1.6-2.1c-0.2-2.1-0.7-4.2-0.6-6.3c0.1-2.7-1.1-3.4-3.5-3.3
		c-3.1,0.1-6.2-0.2-9.3-0.4c-1.2-0.1-2.6-0.1-2.4-2c0.2-1.6,1.2-2,2.6-2c3.2,0,6.5-0.2,9.7,0c2.2,0.1,3.2-0.6,3.1-2.9
		c-0.2-3.3,0.7-6.4,1.8-9.5c0.3-0.8,0.5-1.9,1.6-1.7c1.1,0.2,0.9,1.3,1,2.1c0.2,3.1,0.6,6.2,0.5,9.3c-0.1,2.4,0.9,3.1,3,3
		c3.5-0.1,7-0.3,10.4-0.4C409.9,473.2,411.3,473.8,411.8,475.6L411.8,475.6z"/>
	<path fill="#FFFFFF" d="M212.4,418.9c-0.8,0-0.5,0-0.3,0c2.5,0.3,5.7-0.8,5.9,3.5c0.1,4-2.8,7.9-6.4,8.4c-2.9,0.4-5.7-2-6.3-5.5
		C204,419,204.3,418.7,212.4,418.9L212.4,418.9z"/>
	<path fill="#FFFFFF" d="M187,304.9c0.2-4.3,3.1-7.2,6.8-6.9c2.8,0.2,5.1,3.6,5,7.3c-0.1,3.4-3,6.3-6.2,6.2
		C189.5,311.5,186.9,308.3,187,304.9z"/>
	<path fill="#FFFFFF" d="M276.3,419.5c0.1,0,0.3,0,0.4,0c1.9,0.7,5-2.3,5.7,1.6c0.8,4.5-1.5,8.5-4.8,9.4c-3.1,0.8-5.7-0.9-7-4.5
		c-0.1-0.3-0.1-0.7-0.2-1.1c-1.5-5-1.2-5.4,3.8-5.4C274.8,419.5,275.5,419.5,276.3,419.5L276.3,419.5L276.3,419.5z"/>
	<path fill="#FFFFFF" d="M442.2,67.2c-2.7,0.1-5.2-2.8-5.3-6.1c-0.1-3.4,2.6-6.1,6.1-6.1c2.8,0,5.1,2.3,5.2,5.2
		C448.4,63.4,445.2,67.1,442.2,67.2z"/>
	<path fill="#FFFFFF" d="M375.3,5.8c0,3-2.7,5.8-5.6,5.9c-3.1,0.1-6.1-2.5-6.2-5.3c-0.1-3,3.5-6.3,6.7-6.4
		C373,0,375.4,2.6,375.3,5.8z"/>
	<path fill="#FFFFFF" d="M123.2,457.6c-3.5,0-6.4-3.1-6.2-6.5c0.1-3.4,3.8-6.4,7.6-6.3c3.3,0.1,6.1,3.1,6,6.4
		C130.4,454.9,127.3,457.6,123.2,457.6z M128,450.9c-0.1-2.2-1.5-3.2-3.4-3.2c-2.8,0-4.3,1.7-4.5,4.4c-0.2,2,1.1,3.3,3.2,3.2
		C126,455.2,127.3,453.3,128,450.9L128,450.9z"/>
	<path fill="#FFFFFF" d="M318.4,60.8c-1.8,2-4,1.2-5.9,1.1c-2.6,0-3.7,0.9-3.3,3.5c0.1,0.7,0,1.5,0,2.2c-0.1,1,0.3,2.6-1.4,2.5
		c-1.8-0.1-1-1.6-1-2.6c0.3-5.5,0.3-5.5-5.1-5.5c-0.9,0-1.7,0-2.6-0.1c-0.6-0.1-1.3-0.3-1.3-1c0-0.7,0.7-1,1.3-1.1
		c1.5,0,3-0.1,4.5,0c2.7,0.2,4.2-0.6,3.3-3.6c-0.2-0.7-0.2-1.5-0.1-2.2c0-0.8,0.3-1.6,1.3-1.5c0.8,0.1,0.6,0.9,0.7,1.5
		c0.4,1.8-1.1,4.3,1,5.4c1.5,0.8,3.7,0.3,5.5,0.5C316.3,60,317.4,59.8,318.4,60.8L318.4,60.8z"/>
	<path fill="#FFFFFF" d="M411.3,391.8c0.2-1.8-0.9-4.8,2.7-4c2.1,0.5,5.8-1.8,5.8,2.8c0.1,4.9-1,6.1-4.7,6.3
		C411.3,397,411,394.8,411.3,391.8L411.3,391.8z"/>
	<path fill="#FFFFFF" d="M69.7,391.5c-0.5,2.2,0.6,5.5-3.7,5.3c-3.4-0.2-5.6-2.4-5.1-6.3c0.6-4.2,4.1-1.5,6.3-2.1
		C69.7,387.6,70.1,389.3,69.7,391.5L69.7,391.5z"/>
	<path fill="#FFFFFF" d="M347,404.3c0.3,0.3,0.6,0.5,0.6,0.7c0.5,2.2-0.9,4.9,0.6,6.5c1.4,1.5,4,0.1,6.1,0.4
		c0.8,0.1,1.9,0.1,1.8,1.3c-0.1,0.9-1.1,0.8-1.8,0.9c-0.2,0-0.5,0-0.7,0c-5.1,0.4-5.1,0.4-5.3,5.5c0,0.9,0.6,2.4-0.8,2.5
		c-1.6,0.1-1.1-1.6-1.3-2.6c-0.2-0.8-0.2-1.7-0.1-2.6c0.1-2-0.6-3-2.8-2.8c-1,0.1-2,0-3,0c-0.7,0-1.3-0.2-1.3-1
		c-0.1-0.7,0.4-1,1.1-1.2c2.1-0.6,5.6-4.6,6.1-6.8C346.3,404.8,346.6,404.7,347,404.3L347,404.3z"/>
	<path fill="#FFFFFF" d="M51.2,470c5.2-2.7,1.5-7.7,3.5-11.3c1.5,2.1,1.2,4.4,1,6.3c-0.4,3.4,1.1,4.1,4,3.7c1.8-0.2,3.7,0,6.1,0
		c-1.6,2.2-3.5,2-5.2,2.1c-4.9,0.3-4.8,0.3-4.9,5.3c0,1.9,0.4,3.9-0.7,6.1C52.2,478.4,56.8,472.6,51.2,470L51.2,470z"/>
	<path fill="#FFFFFF" d="M456.7,391.8c-0.9,1.4,1.2,4.9-2.8,5c-2.9,0-4.6-2.6-4.6-6.5c0.1-3.4,2.6-2.1,4.3-2.4
		C456.6,387.3,456.9,389.2,456.7,391.8L456.7,391.8z"/>
	<path fill="#FFFFFF" d="M24.6,387.9c0.8,0.7,3.2-1.3,2.9,1.8c-0.4,4.1-2.4,7.6-4.6,7.1c-3.2-0.8-2.4-3.7-2.7-6.1
		C19.9,387,22.5,388,24.6,387.9L24.6,387.9z"/>
	<path fill="#FFFFFF" d="M311.8,507.2c-1.6-1-1.6-1.6-1.5-2.2c0.5-4.2-0.6-6.4-5.4-5c-0.8,0.2-2,0.2-2-0.9c0-1.3,1.3-0.8,2-1
		c0.7-0.1,1.5-0.2,2.2-0.1c2.5,0.4,3.2-0.8,3.1-3.2c-0.1-1.6-0.6-3.4,0.4-5.2c1.9,1.1,1.2,3,1.2,4.3c-0.1,3,0.6,4.8,4.1,4.3
		c0.9-0.1,2-0.1,3,1.6C313.1,498.8,310.3,500.9,311.8,507.2z"/>
	<path fill="#FFFFFF" d="M172,486.3c-3.1-0.1-5.3-2.2-5.3-4.8c0-2.7,2.2-4.8,4.7-4.7c2.3,0.2,5.4,3.1,5.1,5.1
		C176.2,484.6,174.7,486.2,172,486.3L172,486.3z M172,479.2c-1.6,0.2-2.3,1.4-2.4,2.8c-0.2,1.3,0.7,1.9,1.8,1.9
		c1.4,0,2.4-0.9,2.4-2.3C173.8,480.5,173.5,479.4,172,479.2L172,479.2z"/>
	<path fill="#FFFFFF" d="M6.4,88.7c-0.2-3,0.3-5.4-0.6-7.3C4.9,79.3,2,81.6,0,80c1.7-1.9,4.8,0.1,5.9-2.2c0.8-1.8-0.3-4.2,1.1-6.3
		c1.6,0.9,1.4,2.4,1.2,3.6c-0.3,2.6,0.6,3.7,3.2,3.5c0.9-0.1,2.3-0.2,2.2,1.3c-0.1,1.2-1.4,0.9-2.1,0.8c-3.2-0.3-4.3,1-3.9,4.1
		C7.7,85.8,8,87,6.4,88.7z"/>
	<path fill="#FFFFFF" d="M339.7,354.9c1.1,2.2,4.5,2.4,4.2,4.4c-0.2,1.7-2.9,2.7-3.6,5.4c-1.6-2-2.3-4-4.3-4.9
		c-1.1-0.4-1.4-1.6,0.2-2C337.7,357.4,338.7,356.5,339.7,354.9L339.7,354.9z"/>
	<path fill="#FFFFFF" d="M448.6,25.5c-3.6,0.2-4.5,1.9-3.9,4.7c0.1,0.7,0.1,1.6-0.8,1.8c-0.8,0.2-1.1-0.4-1.2-1.1
		c-0.3-1.7-0.2-3.6-1-5c-0.7-1.5-3,0.6-4.3-0.9c2.9-1,5-3.5,6.2-7.6C445.1,20.7,443.4,25.2,448.6,25.5L448.6,25.5z"/>
	<path fill="#FFFFFF" d="M77.6,13.7c-2.2,1.2-5.3,1-5.1,4.6c0,0.2-0.6,0.6-0.8,0.6c-0.4-0.2-1-0.6-1-0.9c0.3-3.6-1.7-4.3-5.1-3.8
		c3.6-1.1,7-1.9,5.3-6.6c1.9,0,2.4,1,2.3,1.9C72.9,12.7,74.4,13.9,77.6,13.7L77.6,13.7z"/>
	<path fill="#FFFFFF" d="M405.2,53c-2.4,0.9-4.9,1.3-5.3,4.8c0.5-4.9-3.4-3.8-5.7-4.5c-0.1-1.2,0.7-1.2,1.2-1.1
		c2.6,0.4,3.7-0.6,3.5-3.3c-0.1-0.8-0.4-1.9,1-1.9c1,0,1,0.9,1.2,1.5C401.8,50.9,403.2,52.4,405.2,53L405.2,53z"/>
	<path fill="#FFFFFF" d="M301.3,341.3c0.5-1.6,0.5-2.9-0.2-4.1c-0.9-1.7-0.5-2.9,1.3-3.4c1.1-0.3,1.4-2.2,2.7-1.6
		c1.2,0.5,0.4,2,0.8,3C307.5,339.2,304.8,340.2,301.3,341.3L301.3,341.3z"/>
	<path fill="#FFFFFF" d="M119.6,486.2c-3.6,1.9-5-0.1-5.6-3.2c-0.2-0.8-1.3-1.7-0.2-2.3c1-0.6,2.3-1,3.4-0.9
		c0.8,0.1,1.8,1.1,1.5,2.3C118.2,483.7,119,484.9,119.6,486.2L119.6,486.2z"/>
	<path fill="#FFFFFF" d="M92.3,29.3c-1.5-1.7-3.2-3.2-3.4-4.2c-0.3-1.6,1.8-2.7,3.6-3.1c2.2-0.4,2.4,1.6,2.5,2.7
		C95.4,27,91.4,26.2,92.3,29.3z"/>
	<path fill="#FFFFFF" d="M210.7,190.4c0-8.9,0.1-17.7-0.1-26.6c0-2.6,0.5-3.7,3.4-3.7c15.3,0.1,30.7,0,46,0.1c5.4,0,5.3,0.2,5.3,5.4
		c0.1,17.2,0.2,34.4,0.5,51.6c0,2.9-0.7,3.5-3.5,3.5c-16.1-0.1-32.2-0.1-48.3,0.1c-2.7,0-3.7-0.5-3.6-3.5c0.2-9,0.1-18,0.1-26.9
		L210.7,190.4L210.7,190.4z M217.3,190.3c0,7.4,0.1,14.7,0,22.1c0,2.4,0.5,3.2,3.1,3.2c12.2-0.1,24.5-0.1,36.7,0c2.2,0,3-0.5,3-2.9
		c-0.1-14.7-0.1-29.4,0-44.2c0-2.4-0.5-3.1-3.1-3c-12.5,0.6-24.9,0.7-37.4-0.1c-2.6-0.2-2.2,1.3-2.2,2.7
		C217.3,175.6,217.3,182.9,217.3,190.3L217.3,190.3z"/>
	<path fill="#FFFFFF" d="M248.2,398.2c0,1.8-0.7,3.4-2.6,3.5c-2,0.1-2.7-1.6-2.7-3.3c0-1.7,0.6-3.4,2.6-3.5
		C247.7,394.9,248.2,396.4,248.2,398.2z"/>
</g>
</svg>
