<?xml version="1.0" encoding="utf-8"?>
<!-- Generator: Adobe Illustrator 26.3.1, SVG Export Plug-In . SVG Version: 6.00 Build 0)  -->
<svg version="1.1" id="Layer_2_00000163762181949287585690000009591215375719791246_"
	 xmlns="http://www.w3.org/2000/svg" xmlns:xlink="http://www.w3.org/1999/xlink" x="0px" y="0px" viewBox="0 0 460.7 412.5"
	 enable-background="new 0 0 460.7 412.5" xml:space="preserve">
<g id="Layer_1-2">
	<g>
		<path fill="#FCFCFC" d="M168.1,144.2c-5.6-3.5-10-8.1-14.5-12.4c-9.1-8.7-18-17.7-27.1-26.3c-13.8-13.2-27.3-26.7-41-40.1
			c-0.6-0.6-1.2-1.2-1.8-1.9c-0.9-1.1-1-2.4,0-3.4c1.1-1.2,2.6-1.2,3.7-0.1c1.8,1.7,3.2,3.8,5,5.5c5.5,5.4,11.2,10.7,16.7,16
			c12.5,12.2,24.8,24.5,37.4,36.6c6.5,6.3,12.9,12.8,20.3,18.2c1.5,1.1,2.9,2.4,4.5,3.8c5.8-5,12.5-10,20-13.9
			c1.7-0.9,1.9-1.9,1.2-3.6c-8.3-20.9-16.6-41.9-24.7-62.9c-2.6-6.6-5.4-13.1-7.4-19.9c-0.5-1.9-1-3.7,0.9-5c2.4-1.6,3.8-0.2,4.5,2
			c4.5,14,10.3,27.5,15.5,41.2c4.6,12.3,9.5,24.6,14.2,36.9c0.9,2.4,1.6,4.9,2.4,7.4c2.5-0.8,4.9-1.7,7.4-2.3
			c6.1-1.6,12.2-3.3,18.6-3.8c1.6-0.1,2.3-0.8,2.3-2.3c0-1.1,0-2.2,0-3.4c0-32.5,0-65,0-97.5c0-2.2,0.2-4.5-0.5-6.7
			c-0.3-0.9-0.2-2.1,0.2-2.9c0.6-1.4,0.8-3.4,3-3.3c2,0.1,2.2,1.9,2.7,3.2c0.4,1,0.5,2.2,0.4,3.3c-1.4,7.7-0.6,15.4-0.6,23.2
			c-0.1,27.1,0,54.2-0.1,81.4c0,3.7,0.6,5.1,4.8,5.3c7,0.4,14.2,0.9,20.5,4.8c2,1.2,2.1-0.4,2.5-1.3c6.1-15.4,12.2-30.7,18.3-46.1
			c4.7-11.9,9.5-23.8,14.4-35.6c0.7-1.7,1.3-4.5,3.7-3.8c2.7,0.8,2.8,3.3,1.8,5.9c-4.2,10.5-8.2,21.1-12.4,31.6
			c-5.5,13.8-11.2,27.7-16.8,41.5c-1,2.4-1.7,5.1-3.1,7.1c-1.9,2.7-1.6,3.7,1.5,4.9c7.9,3,14.7,7.8,21,13.2c1.5,1.2,2.1,1,3.6-0.1
			c10.3-8.1,19.4-17.5,28.5-26.9c5.1-5.2,10-10.7,15.6-15.5c7.1-6,13.4-13.1,20-19.7c5.2-5.2,10.4-10.4,15.6-15.6
			c1.3-1.3,2.9-3.2,4.6-1c1.5,1.9,0.5,3.9-1.3,5.5c-6.8,6.4-13.8,12.6-20.3,19.4c-11,11.5-22.2,22.9-33.5,34.1
			c-7.8,7.7-15.6,15.3-23.6,22.8c-2.3,2.2-2.7,3.4-0.3,6.1c3.6,4.1,6.3,8.9,9.4,13.4c0.8,1.2,1.5,2.3,3.5,1.6
			c22.2-7,44.4-13.9,66.6-20.9c6-1.9,12.1-3.9,18-6.2c2.8-1.1,4.2,0.3,5.1,2.3c1.1,2.5-0.9,3.2-2.8,3.8c-22.4,7-44.9,14-67.3,21
			c-5.5,1.7-11,3.3-16.5,4.7c-2.5,0.6-2.6,1.7-1.9,3.9c3.1,9.3,5.1,18.9,6,29c4-1.1,8.2-0.7,12.4-0.7c41.4,0,82.7,0,124.1,0
			c1.2,0,2.5,0,3.8,0c2.1,0,3.9,0.7,3.9,3.1c0.1,2.4-2,2.5-3.7,2.7c-1.2,0.1-2.5,0-3.7,0c-43.7,0-87.5,0-131.2,0
			c-5.5,0-5.4,0.3-5.9,5.6c-0.9,9.1-2.6,18-6.8,26.2c-1.1,2.1-1,3.2,1.2,3.9c5.9,1.9,11.8,3.8,17.7,5.8
			c22.1,7.2,44.2,14.5,66.5,21.2c2.1,0.6,4.7,1.6,3.5,4.6c-1.1,2.7-3.4,1.8-5.4,1.1c-16.6-5.3-33.2-10.6-49.8-15.9
			c-11.6-3.7-23.2-7.4-34.8-11.2c-2.3-0.8-3.4-0.6-4.5,1.9c-2,4.6-5.8,8.1-8.8,11.9c-1.3,1.7-1.5,2.5,0.1,3.9
			c12.3,10.4,23.8,21.6,35.4,32.8c5.3,5.1,10.4,10.6,15.8,15.7c10.3,10,20.7,19.9,31.1,29.7c1.5,1.4,2.7,2.6,1.3,4.3
			c-1.4,1.7-3.4,1.2-5-0.2c-1.4-1.3-2.6-2.6-4-3.9c-8.8-8.5-17.4-17.2-26.4-25.5c-14.6-13.6-28.4-28.1-42.8-41.9
			c-3.1-2.9-6.3-5.7-9.1-8.8c-1.4-1.5-2.4-1-3.4-0.1c-6.3,5.3-12.9,10.2-20.5,13.5c-1.8,0.8-1.4,1.8-0.9,3.3
			c2.6,7.3,5.7,14.3,8.9,21.4c7.5,16.7,15.1,33.3,22.7,50c1.2,2.7,2.5,5.4,4,8c1.5,2.5,1.7,5-1,6.4c-3.2,1.6-3.7-1.8-4.5-3.5
			c-4-8.3-7.7-16.7-11.5-25.1c-4.6-10.2-9-20.5-13.6-30.7c-3.5-7.8-7.3-15.6-10.9-23.4c-1.3-2.9-2.9-3.6-6.1-2.2
			c-6.3,2.6-13.1,3.8-19.9,4.4c-2.3,0.2-2.8,1.1-3,2.8c-0.2,1.2-0.1,2.5-0.1,3.7c0,35.2,0,70.5,0,105.7c0,2.3,0.2,4.5,0.6,6.7
			c0.4,1.8,0.2,3.8-1.6,5c-0.8,0.6-1.8,0.5-2.4-0.1c-1.4-1.3-2.6-3-2.1-4.9c0.7-2.7,0.5-5.5,0.5-8.2c0-35.2,0-70.5,0.1-105.7
			c0-3-0.3-4.6-4-5c-7-0.7-13.9-2.5-20.6-4.9c-1.9-0.7-2.9-0.5-4,1.6c-8.3,16.2-14.5,33.3-22,49.8c-4.3,9.4-8.2,18.9-12.5,28.3
			c-0.6,1.4-1.5,2.6-2.3,3.9c-0.8,1.4-1.9,2.7-3.5,1.8c-1.7-0.9-2.6-2.5-1.6-4.7c4-8.8,7.7-17.8,11.8-26.6
			c8.2-17.6,16.2-35.2,23.9-53.1c1.2-2.7,1.1-4.3-2-5.8c-5.7-2.8-11.1-6.3-15.8-10.5c-2.7-2.4-4-1.7-6.1,0.4
			c-7.4,7.6-15,15.1-22.5,22.6c-18.1,18.1-36.2,36.2-54.4,54.4c-0.9,0.9-1.7,1.8-2.7,2.6c-1.2,0.9-2.6,1.7-3.9,0.1
			c-1.3-1.5-1.2-2.9,0.1-4.3c0.4-0.5,0.9-0.9,1.3-1.3c15-14.6,30.2-29,44.8-44c11.3-11.6,23.9-21.9,35.1-33.6c1.8-1.9,1.9-3,0-4.8
			c-3.4-3.1-5.9-7.1-8.2-11c-1.5-2.6-3.4-3-5.9-2.2c-7.4,2.3-14.7,4.5-22.1,6.9c-21.1,6.8-42.1,13.7-63.1,20.5
			c-0.5,0.2-0.9,0.3-1.4,0.4c-1.9,0.4-3.9,1-4.6-1.6c-0.7-2.4,0.7-3.7,2.9-4.5c2.9-1,5.9-2,8.9-2.9c24.5-7.1,48.4-16.1,73-22.9
			c2.5-0.7,6-0.9,7.1-2.6c1.4-2-1.6-4.6-2.5-6.9c-3.1-7.8-4.9-15.9-5.3-24.3c-0.2-3.4-1.5-3.8-4.4-3.8c-12.1,0.1-24.2,0-36.4,0
			c-32,0-64,0-96,0c-1.2,0-2.5,0-3.7,0c-2-0.1-3.5-1-3.5-3.1c0-2.2,1.8-2.4,3.4-2.6c1.2-0.1,2.5-0.1,3.7-0.1c38.1,0,76.2,0,114.4,0
			c6.5,0,12.9,0.4,19.4,0.8c2.7,0.2,3.6-1,3.6-3.4c0.1-9,2.5-17.4,6.7-25.4c1.1-2.1,0.1-2.4-1.5-2.9c-17.1-5.3-34.2-10.7-51.3-16.1
			c-10.8-3.4-21.6-6.9-32.3-10.3c-1.1-0.3-2.2-0.7-3.2-1.1c-1.9-0.9-3.8-2.1-2.8-4.5c0.9-2.3,3-1.7,4.8-1.1
			c10.7,3.6,21.4,7.3,32.2,10.7c17.4,5.5,34.9,10.8,52.4,16.3c2.9,0.9,4.1,0.5,6-2.3C159.3,154.4,162.9,148.7,168.1,144.2
			L168.1,144.2z M153.4,203.7c-0.6,40.3,34.1,76.8,76.7,75.7c46.7-1.2,74.9-34,78-74.8c-2.6-44.8-32.1-77.3-75.8-78
			C186.1,125.9,154.2,159,153.4,203.7L153.4,203.7z"/>
		<path fill="#FCFCFC" d="M198,207.7c-0.6,5.9,2.7,14.3,6.3,22.5c1.6,3.6,2.7,7.2,2.3,11.2c-0.5,4.2-2.5,6.5-6.7,7.2
			c-7.6,1.4-12.3-2.6-16.3-8.4c-6.6-9.6-9.7-20.3-11.2-31.7c-1.8-13.3,1.7-25.6,7.1-37.5c5.3-11.7,13.7-20.9,24.6-27.3
			c15.7-9.3,32.1-10,48.4-1.5c4.3,2.2,8.1,5.5,7.5,11.4c-0.4,4.3-3,6.9-7.5,7.3c-4.7,0.3-9.2-0.9-13.6-2.1
			c-13.9-3.8-19.4-0.7-29.5,10.7C200.7,179.4,198.6,191.6,198,207.7L198,207.7z"/>
	</g>
</g>
</svg>
