<?xml version="1.0" encoding="utf-8"?>
<!-- Generator: Adobe Illustrator 26.3.1, SVG Export Plug-In . SVG Version: 6.00 Build 0)  -->
<svg version="1.1" id="Layer_2_00000100372227797098387380000001149490952163051449_"
	 xmlns="http://www.w3.org/2000/svg" xmlns:xlink="http://www.w3.org/1999/xlink" x="0px" y="0px" viewBox="0 0 553.2 529.8"
	 enable-background="new 0 0 553.2 529.8" xml:space="preserve">
<g id="Layer_1-2">
	<g>
		<path fill="#FFFFFF" d="M270,434.6c-12.9-0.1-24.3,0.7-35.4-2.3c-6-1.6-11.9-3.4-17.9-5.3c-12.1-3.8-23.4-9.2-34.5-15.5
			c-10-5.7-19.1-12.6-27.4-20.4c-6.8-6.3-13.6-12.8-19-20.4c-2.1-2.9-4.9-5.1-7-8.1c-8.4-11.9-15.4-24.3-20-38.2
			c-3.1-9.2-5.2-18.6-8.1-27.7c-4.9-15.3-3.5-30.8-3.6-46.3c-0.1-13.3,2.8-26.3,6.9-38.9c2.7-8.1,5.5-16.2,8.7-24.1
			c4.2-10.2,9.5-19.7,15.6-29c8.6-13.3,20.4-23.4,31.3-34.4c7.7-7.8,17.3-13.4,26.8-18.8c18.9-10.7,39.5-16.6,60.7-20.8
			c13.7-2.7,27.6-2.6,41.3-1.8c8.4,0.5,16.9,2.6,25.2,4.6c13.7,3.2,27,7.6,39.6,14c15.5,8,30,17.5,42.1,30.3
			c5.8,6.2,12.4,11.6,17.6,18.4c9.2,12.1,16.8,25.1,22.4,39.2c4.6,11.8,7.6,24.1,9.6,36.6c1.8,11.1,3.1,22.1,3.2,33.3
			c0.2,13.1-2.7,25.9-5.8,38.6c-4.1,16.7-10.3,32.6-18.2,47.8c-3.2,6.2-7.4,12.1-11.6,17.8c-5.5,7.4-11.1,14.6-17.6,21.1
			c-12.6,12.5-26.5,23.1-42.7,30.7c-5.8,2.7-11.3,6.5-17.5,8.1c-8.5,2.3-16.4,6.1-25.3,7.3c-5,0.6-9.8,2.6-14.8,3.5
			C285.8,435.4,277.1,434.2,270,434.6L270,434.6z M342.6,114.5c-3.2-0.5-5.4-2.7-8.1-3.8c-15-6.2-30.8-8.7-46.7-10.4
			c-8.8-0.9-9-0.7-8.7,8.2c0.3,7.9-1.5,14.7-7.8,20.1c-5.4,4.6-12.6,5.2-18,0.6c-1.7-1.4-3.3-1.8-5.4-2c-4.9-0.3-9.7,1.3-14.5,0.7
			c-3.8-0.5-4.6,1.4-4.6,4.3c0,6.4-2.6,11.9-5.6,17.2c-6.6,11.6-15.1,21.9-24.5,31.4c-14.3,14.5-28.4,29.1-43.7,42.6
			c-4.3,3.8-6,8.1-5.8,13.8c0.4,8.1-1.1,16.2-0.8,24.3c0.1,2.9-1.2,5.2-4,6.6c-3.9,2-7.9,3.6-11.9,5.2c-3.3,1.3-6.7,1.9-10.2,1.7
			c-4.1-0.2-6.4-3.8-4.8-7.5c1.6-3.7,4.6-5.8,8.5-6.5c2.4-0.5,4.7-1.2,5.2-4c1.2-6.9,3.9-13.4,5.7-20.1c0.3-1.2,1.1-2.6,0.1-3.5
			c-1.2-1.1-2.5,0-3.8,0.5c-6.4,2.3-12.2,6.4-19.1,7.3c-3,0.4-4,1.7-3.9,4.6c0.1,9,0.1,18,0,27c0,1.5,0.2,3,0.7,4.4
			c0.2,0.7,0.3,1.5,1.4,1.3c2.7-0.5,3.2,1.8,3.6,3.4c2.2,7.8,4.4,15.5,6.2,23.4c3.6,15.8,10.3,29.6,23.9,39.2
			c3.9,2.7,7.8,5.7,12.7,5.7c5.2,0,10.4-0.7,15.6-1c9.3-0.6,18.7-1.5,26.8,5c2.9,2.3,4.9,5.3,6.9,8.3c4.9,7,9.6,14.2,12.4,22.4
			c1.6,4.5,0.8,6-3.6,7.7c-3.4,1.4-6.9,0.8-10.4,1c-1.2,0.1-2.7-0.4-3.2,1.2c-0.4,1.5-0.4,3,0.8,4.2c0.5,0.5,1.1,1,1.7,1.4
			c6,3.6,12.2,6.8,18.8,9c13.5,4.5,27.2,7.8,41.4,9.1c3.4,0.3,5.2,0,6-4.3c2.1-10.9,8.9-19.9,14.2-29.4c4.3-7.8,7.8-16,6.3-25.5
			c-1.3-7.9-4.6-13.8-12.9-16c-2.9-0.7-5.7-1.8-8.5-2.9c-9.7-3.6-17.4-9.3-21.4-19.4c-3.1-7.9-6.4-15.7-11-22.9
			c-3.1-5-3.3-10.1-1.8-15.7c2.8-10.7,8.4-19.9,14.6-28.8c9.5-13.7,23.6-22.7,35.7-33.8c4.2-3.8,8.2-7.1,8.5-13.6
			c0.3-5.6,2.6-10.9,7.3-14.6c3.1-2.5,9-2.7,11.9-0.4c2.9,2.4,3.1,5.1,0.9,9.6c-1.3,2.7-2.7,5.3-4.1,8.1c4.5-1,8.8-2.3,13.4-1.7
			c6.7,0.9,12.2,4.1,16.9,8.7c7.8,7.6,16.1,11.2,26.3,4.2c2.2-1.5,5-1.6,7.6-1.1c5.9,1.1,11.5,3.2,16.1,7.2
			c7.5,6.6,13.6,13.9,14.3,24.4c0.2,2.8,1.7,3.2,4.4,2.6c7.2-1.7,14.5-3.6,20.2,3.9c2.1-8,0.9-15.7-0.7-23.1
			c-1.9-8.2-2.7-16.6-4.9-24.7c-2.2-8.3-5.4-16.1-9.1-23.9c-1-2.2-2.6-3.1-5.1-1.6c-2,1.1-4.3,1.2-6.6,1.1c-4-0.3-8.2-4.6-8.5-8.6
			c-0.4-6.5-0.3-6.6,6.4-7.7c0.5-0.1,0.9-0.3,1.4-0.4c1.6-0.4,2.1-1.1,1-2.6c-2.8-4-5.3-8.1-9.1-11.3c-2.8-2.3-5.9-2.8-9-1.1
			c-4.2,2.4-8.7,3.7-13.3,4.7c-1.6,0.4-2.5,1-2.5,2.7c0,4.9-1.3,9.6-2.2,14.3c-1,5.1-5.7,10.4-9.6,10.7c-9.8,0.9-14.4-1.3-17.1-8.4
			c-1.7-4.5-3.3-9-5.1-13.7c-0.5,0.7-0.9,1.1-1,1.5c-1.3,6.2-5.1,9.9-10.9,12.1c-9.3,3.7-19.1,5.7-28.8,7.6
			c-5.4,1.1-8.6-1.2-9.7-6.7c-1.2-6-1.6-12.1-1.6-18.2c0-2,1-3.1,2.6-4.1c6.1-3.8,12.8-4.5,19.7-4.4c4.7,0.1,4.7,0,2.7-4.2
			c-3.1-6.6-6.6-13.2-6.4-20.8c0.1-5.2,2.2-7.9,7.3-9.4c6.3-1.9,12,0.1,17.7,2.4c0.9,0.3,1.7,1.4,2.7,0.6
			C334.7,117,338.6,115.9,342.6,114.5L342.6,114.5z M393.2,293.8c-1.2,1.1-1.8,1.6-2.3,2.1c-7.6,6.8-14.4,6.8-22.2,0.3
			c-6.8-5.5-12.2-12-16.2-19.8c-0.4-0.8-0.8-2.7-2.3-1.2c-3.6,3.6-6.4,1.3-9.5-0.9c-7.1-4.9-12.6-11.6-19.6-16.7
			c-6.6-4.8-11.9-10.9-16.2-17.9c-1-1.6-1.2-4.6-3.2-4.6c-2.5,0-1.8,3.2-2.6,4.9c-4.8,10-10.8,19-19,26.6c-5.3,5-8,11.1-7.9,18.6
			c0.1,9.3,4.7,17.5,6.1,26.4c0.3,2,1.6,1,2.5,0.6c5.7-2.1,11.4-4.2,17.4-5.4c9.2-1.8,21,2.3,25.8,10.4c5.4,9.1,9.3,19,15.1,27.9
			c3.3,5.1,2.4,10.2-0.5,15.4c-4.3,7.7-11.2,12.6-18,17.6c-6.9,5-9.2,11.8-8.4,19.9c0.2,1.8,0.6,3.5,2.5,4.7
			c4.8,3.1,9.7,3.6,14.9,1.3c2.5-1.1,5.1-1.9,7.6-3.2c7.7-3.9,15.4-8,20.2-15.4c4.8-7.4,8.7-15.4,12.1-23.5c2.1-5,3.3-9.9,0.4-15
			c-1.1-1.9-0.7-4.1,0-6.2c2.9-9.8,9.2-17.2,16.8-23.7c2.4-2,4.9-3.8,7.4-5.7c0.9-0.7,1.7-1.5,1.2-2.9
			C393.5,304.1,393,299.4,393.2,293.8L393.2,293.8z M129.9,183.3c5.8-1.7,10.4-4.3,13.7-8.1c4-4.6,7.2-3.7,12-1.4
			c9.3,4.4,18.4,4.7,27-3c8.1-7.3,14.3-15.7,19.7-25.1c2.7-4.6,3.5-9.5,2.8-14.7c-0.5-3.6-1.9-6.5-5.6-7.6
			c-3.7-1.1-7.6-1.4-11.4-0.3c-14,3.8-22.7,12.6-26,26.8c-1.2,5.1-2.1,10.5-6.3,14.5c-3.8,3.6-6.5,3.1-8.4-1.7
			c-1.4-3.5-2-3.7-4.2-0.8C138.1,168.5,134.6,175.8,129.9,183.3L129.9,183.3z M419.1,317.6c-20.6,19.4-35.2,43.1-49.5,67.1
			c11.8-7.1,20.8-17.1,29-27.9C407.8,344.9,413.8,331.4,419.1,317.6L419.1,317.6z M217.5,106c2.9-1.3,6.1-1.8,9.1-2.8
			c8.8-3.1,17.7-4.8,27-2c6.2,1.9,7.9,4.9,5.6,10.8c-0.4,0.9-1.7,2.1-0.3,2.9c1.1,0.6,2.4-0.4,3.2-1.4c2.8-3.6,4.4-7.7,4.6-12.3
			c0.1-2.7-0.7-3.4-3.3-3.4c-10.2,0.1-20.4,0.5-30.4,2.4C227.4,101.3,222.2,103.1,217.5,106L217.5,106z"/>
		<path fill="#FFFFFF" d="M241.6,61.1c2.6,2.4,0.8,4-0.4,5.4c-1.4,1.5-3.3,1.7-5.1,0.6c-1.2-0.7-2.4-1.4-3.4-2.2
			c-2.4-1.9-5.2-2.9-8.2-3.1c-6.7-0.3-13.4-0.6-20.2-0.7c-2.7,0-3.8-0.9-3.7-3.7c0.1-5.6,0-11.2,0.3-17c1.4,2.1,3,2.3,5.2,1.7
			c6-1.5,12.1-2.8,18.2-4.1c2.6-0.6,5.3-0.8,5.4-4.7c1.3,3.3,0.2,6.3-0.3,9.1c-0.7,4.6-0.3,9.2-0.5,13.8c-0.1,1.3,0,2.8,1.8,2.6
			c2.6-0.2,0.5-1.9,0.6-2.7c0.2-5.4,0.1-10.7,0.1-16.1c0-1.8,0.6-2.2,2.5-2.2c8.5,0.4,16.8,1.5,25.1,2.9c2.2,0.4,3,1.2,3,3.3
			c-0.1,4.5-0.1,9,0,13.5c0.1,2.7-1.2,3.4-3.6,3.4C252.9,61.1,247.7,61.1,241.6,61.1L241.6,61.1z"/>
		<path fill="#FFFFFF" d="M398.6,49c-0.1-1.5,0.6-2.9,1.3-4.6c5.2,5.5,8.1,12.1,11,18.7c2.7,6.1,2.5,6.2-4,8.8
			c-3.4,1.4-7.3,2.3-9.5,5.6c-0.8,1.3-3.4,2.1-1.6,4.5c0.6,0.9-0.8,0.8-1.4,0.8c-1.5,0-3-0.1-4.5,0c-8.3,0.7-16,4.3-24.1,5.7
			c-1.9,0.4-3.6,0.5-4.8-1.6c-3.5-6.4-7.1-12.8-10.7-19.2c-1.4-2.5-1.5-3.8,2.1-4.4c6.7-1.2,13.1-3.8,19.5-6c3-1.1,5.4,1,8,2.9
			c-0.8-1.6-0.6-2.9,1.1-2.5c2.7,0.6,2-1,1.9-2.4c-0.1-2.4-1.2-4.6-0.7-7c0.1-0.6,0.1-1.3,0.9-1.4c0.8-0.1,1,0.6,1.3,1.1
			c0.1,0.1,0.1,0.2,0.2,0.3c0.8,1.7,0,4.5,2.3,4.8c1.6,0.2,3.4-1.3,5.2-1.9c2.2-0.8,4.2-2.2,6.6-2.2c-0.6,2.2-2.7,2.3-4.3,3
			c-2.5,1.2-5,2.1-7.5,3.2c-1,0.5-1.3,1.5-1.1,2.5c0.4,1.5,1.4,0.9,2.4,0.7c2.3-0.4,4.6-0.1,7-0.8C402.3,55.8,402.5,55.4,398.6,49
			L398.6,49z M378.3,64.3c-4-4.6-9.2-5-15-2.2c-1.1,0.5-2.4,0.7-3.5,1.1c-5.1,1.6-6.4,4.7-4,9.5c0.1,0.2,0.4,0.2,0,0
			C363.3,68.5,371.2,67,378.3,64.3L378.3,64.3z"/>
		<path fill="#FFFFFF" d="M268.7,492.4c0-4.9,1.1-9.6,0.9-14.5c-0.1-1.9,0.9-3.6,3.2-3.1c4.7,1.1,9.5,0.6,14.2,0.5
			c5.8-0.2,11.4,1.1,17.1,0.9c1.9-0.1,2.7,0.9,2.6,2.7c-0.4,6.8-1,13.7-0.8,20.5c0.1,2.1-1.4,2.6-3.2,2.8c-4.9,0.4-9.7-0.3-14.5-1
			c-4.1-0.6-8.3-0.6-12.4-1.1C268.8,499.2,268.7,499.6,268.7,492.4L268.7,492.4z"/>
		<path fill="#FFFFFF" d="M54.6,273.6c0.4,2.8-2.7,4.5-3.1,7.6c-1,8.1-3.8,15.9-4.4,24.1c-0.1,1.9-1.5,3.6-1.7,5.6
			c-0.1,1.1-1.2,1.4-2.4,1c-5.1-1.4-10.3-2.7-15.3-4.6c-1.6-0.6-2.2-1.5-1.8-3.1c2.8-10.5,4.1-21.5,7.9-31.8
			c0.2-0.6,0.3-1.2,0.6-1.8c2.7-5.8,2.7-5,7-3.3c3.5,1.4,7.4,2.3,11.1,3.1C54.2,270.9,54.8,271.6,54.6,273.6L54.6,273.6z"/>
		<path fill="#FFFFFF" d="M502.9,111.2c-5.3,1.8-10.1,0.5-14.8-0.1c-2.7-0.3-5.5-0.1-8.1-1c-1.3-0.5-2.3,0.2-2.2,1.6
			c0.1,3.2-0.3,6.4-0.8,9.7c-0.3,2.1,0.4,2.7,2.8,2.4c3.9-0.4,8-0.1,12-0.2c5.3-0.1,5.5-0.4,5-5.4c-0.3-3.2,0.5-3.7,3.6-2.9
			c1.9,0.5,2.4,1.2,0.9,2.7c-1.1,1-1,2.1-0.7,3.4c1,4.6,1.9,9.2,2.9,13.9c0.6,2.8-2.7,7.9-5.4,8.5c-5.3,1.3-10.7,0.7-16,0.5
			c-3.2-0.2-4.2-3.3-4.3-6.1c-0.1-3.1,0.2-6.2,0.4-9.4c-1.7,2.5-0.2,5.7-2.6,8.4c-1.3-5.3-1.9-10.4-1.2-15.3
			c0.9-6.1,0.3-12.2,0.6-18.2c0.1-3,0.5-4.2,4.1-3.5c5.2,1,10.7-0.2,16,1c1.1,0.3,2.7,0.3,2.7,1.6
			C497.7,106.5,498.3,109.9,502.9,111.2L502.9,111.2z"/>
		<path fill="#FFFFFF" d="M49,202.6c0.4-5,0.9-11.6,1.6-18.1c0.2-2,0.9-3.6,3.7-2.5c6.3,2.5,12.9,3.4,19.5,4.6
			c3.1,0.6,5,1.1,4.4,5.2c-1.1,7.2-1.9,14.5-1.6,21.9c0.1,1.5-0.5,2-2.2,2.1c-3.4,0.1-6.6-1.3-9.9-1.7c-3.1-0.4-6.1-1.3-9.1-1.9
			C51.1,211.1,49,208,49,202.6L49,202.6z"/>
		<path fill="#FFFFFF" d="M75.7,224.9c-0.2,5.3-0.9,10.6-0.8,16c0.1,3.4-1.7,4.7-5.2,3.9c-6.6-1.6-13.3-3.1-19.9-4.5
			c-1.9-0.4-2.6-1.6-2.2-3.2c1.5-6.6,1-13.3,2.1-19.9c0.4-2.4,1.4-3.1,3.4-2.7c6.8,1.1,13.6,2.4,20.5,3.6c1.7,0.3,2.3,1.3,2.2,2.8
			C75.7,222.2,75.7,223.6,75.7,224.9L75.7,224.9z"/>
		<path fill="#FFFFFF" d="M326.7,45.4c2.1-1.3,4.1,0.2,6.1,0.3c2.5,0,3.4-0.5,3.1-3.4c-0.5-5.7-1.9-10.9-4.7-15.9
			c-0.5-0.9-1.4-2.5,0-3.3c1.7-0.9,2.1,1,2.6,1.9c1.3,2.1,2.7,4.3,3.4,6.6c1,3.5,3.5,4.3,6.5,4.3c3.6,0,7.2,0.6,10.7,1.2
			c1.9,0.3,2.6-0.2,2.6-2c0-3.7,0.1-7.5,0-11.2c-0.1-2.4-1.6-3.1-3.8-3.2c-3.3-0.1-6.6,0.5-10.8-0.8c3.7-2,7.1-0.5,10-1.8
			c1-0.5,3,0.4,2.9-1.5c-0.1-1.7-1.8-1.8-3.2-1.8c-1.9-0.1-3.8,0.1-6.2-2.2c5.8,0.8,10.8-0.7,15.1,2.8c1.1,0.9,2.5,1.1,3.9,1
			c2.1-0.1,4.2,0.2,6.6,0.8c-1-2.5-4-2.9-3.9-5.9c5.3,1,10.3,2.7,14.9,5.3c2.2,1.2,1.6,3.1-0.1,4.2c-3.2,2-5.2,5-7.4,7.9
			c-1.4,1.9-3.1,4.1-5.4,2.7c-2.4-1.4-1.7-4.6-0.5-6.3c1.5-2.1,0.2-2-1-2.3c-2.2-0.5-4.4-0.9-6.6-1.3c-1.8-0.3-2.4,0.8-2.4,2.5
			c0,3.6,0.1,7.2,0,10.9c0,2,1,2.5,2.8,2.6c4,0.4,7.9,0.9,11.8,1.5c0.9,0.1,2.3-0.1,2.3,1.3c0,1.7-1.5,1.5-2.5,1.4
			c-3.1-0.2-5.9,0-9.2-1.5c-3.7-1.7-8.4-1.8-12.8-1.4c-0.9,0.1-1.4,0.6-1.3,1.5c0.1,1.1,1,0.9,1.7,0.9c4,0.2,7.9,1.1,11.9,0.8
			c1.9-0.2,2.3,0.7,2,2.5c-1.1,5.6-2.1,6.2-7.9,4.9c-4.4-1-8.8-1.6-13.1-2.7c-2.4-0.6-3.1,0.1-2.8,2.3c0.2,1.4-0.3,2-1.6,1.4
			c-3.8-1.9-7.8-3.1-12-3.6C327.9,46.5,327,46.3,326.7,45.4L326.7,45.4z"/>
		<path fill="#FFFFFF" d="M456.4,416.4c-2.3-0.5-3.4-2.4-5.1-3.4c-4.5-2.7-8.2-6.5-12.3-9.6c-2.1-1.6-3-3.1,0-5.1
			c4.3-2.8,5.6-8.1,8.5-12.1c1.2-1.7,2.2-3.6,3.1-5.5c1.8-3.7,1.7-3.7,4.7-0.8c3.9,3.8,8.3,7.1,12.7,10.3c1.4,1,2.7,1.8,1.6,3.9
			c-3.4,6.3-6.7,12.7-10.2,19C458.7,414.4,458.2,416.3,456.4,416.4L456.4,416.4z"/>
		<path fill="#FFFFFF" d="M498.6,405.4c-2.1-0.9-4.2-1.7-6.3-2.6c-1.8-0.8-2.6-1.9-1.8-4.1c2.2-6.7,4.9-13.3,6.5-20.2
			c0.5-2.2,1.7-3,3.6-1.2c1.8,1.7,4,2.5,6.4,2.9c2,0.3,2.5,1,1.8,3c-5.1,15.2-9.6,30.5-13,46.2c-0.5,2.1-1.6,2.6-3.5,2
			c-1.8-0.6-3.6-1-5.4-1.5c-4.7-1.3-5.1-2-3.6-6.4c2-5.7,4-11.5,5.8-17.3c0.8-2.8,2-3.2,4.5-1.8C495,405,496.5,406.1,498.6,405.4
			L498.6,405.4z"/>
		<path fill="#FFFFFF" d="M470.7,390.5c-0.7-0.4-1.5-0.7-2-1.1c-4.5-3.7-9-7.4-13.5-11.1c-2-1.6-2.8-3-0.6-5.4
			c4.1-4.7,6.8-10.3,9.8-15.8c1.1-2.1,2.1-2.3,4-1.2c4.9,3,9.9,5.7,15.4,7.3c2,0.6,2.3,1.5,1.3,3.2c-4.2,7.4-8.4,14.7-12.5,22.1
			C472.1,389.4,471.9,390.5,470.7,390.5z"/>
		<path fill="#FFFFFF" d="M191.1,511.2c-0.4-2.1-2-3.6-1.4-6c0.5-2.1-3.5-4.7-7-4.4c-5.8,0.5-11.7,0.8-17.5,0.6
			c-3.7-0.1-7.4-0.4-11.2-0.8c-2.7-0.3-4.1,0.7-4.8,3.3c-0.6,2-1.1,4.1-3.2,6.2c-0.5-3.2-1.2-5.9-0.3-8.6c1.7-5.2,3.3-10.4,3.1-16
			c-0.1-4,3.5-3.6,5.8-3.2c4.9,0.8,9.7,0.6,14.5,0.6c3.6,0,7.2-0.6,10.8-0.7c4.9,0,5.9,1,6.7,5.8c0.3,1.8,0.5,3.7,0.9,5.5
			c0.2,0.9,0.2,2.1,0.7,2.4c3.3,2.1,2.4,6,4.1,8.8C193.8,507.1,193.9,509.2,191.1,511.2L191.1,511.2z M179.4,498.6
			c1.2,0,2.3,0.1,3.4,0c0.9-0.1,2.4,0.3,2.3-1.1c0-1.3-0.3-2.9-1.8-3.4c-0.8-0.3-1.7-0.2-2.6-0.2c-4.8-0.2-9.6,1.2-14.5,0.8
			c-1.3-0.1-2.6,0-2.7,1.8c-0.1,1.4,0.2,2.6,1.8,2.8c1.4,0.2,2.8,0.2,3.1-1.7c0.2-0.9,0.1-2.2,1.8-1.3
			C173.1,497.7,176.1,498.9,179.4,498.6L179.4,498.6z M154.8,493.9c-2.5-0.3-3.4,1.4-3.4,3.4c0,2.3,2,1.1,3.1,1.3
			c1.6,0.2,3.2,0,4.8,0.5c1.9,0.7,2.3-1,2.7-2.3c0.5-1.7-0.6-2.1-2-2.2C158.2,494.5,156.5,494.1,154.8,493.9L154.8,493.9z"/>
		<path fill="#FFFFFF" d="M47.5,139.8c1.7-4.9,3.9-9.7,5.1-14.6c1.6-6.9,7.8-9.5,11.1-14.8c0.8-1.2,1.7-0.4,2.5,0.2
			c2.4,1.6,4.9,2.9,7.6,3.9c2.1,0.7,2.9,1.7,1.7,4.1c-3.9,8-7.7,16.1-11.4,24.2c-1.4,3.1-3.3,3.6-6.3,2.5c-3.4-1.3-6.7-2.7-9.7-4.7
			L47.5,139.8L47.5,139.8z"/>
		<path fill="#FFFFFF" d="M39.7,335c-1,5.5-1,5.5-6.6,4.1c-3.4-0.8-6.7-2-10.1-2.6c-2.5-0.5-2.7-1.9-2.4-3.8c1.4-7.7,3-15.4,4.5-23
			c0.3-1.4,1-1.4,2.2-1.1c4.5,1.4,9,2.8,13.5,4.2c1.7,0.5,2.8,1.6,2.7,3.5c0,4.6-0.4,9.3-1.8,13.6C41.2,331.5,39.9,333,39.7,335
			L39.7,335z"/>
		<path fill="#FFFFFF" d="M130.9,400.5c0.5,0.2,0.9,0.3,1.2,0.6c5.7,4.2,11.5,8.3,17.2,12.5c2.4,1.7,1.9,2.9-0.7,4.1
			c-5,2.3-10.3,3.6-15.5,5.4c-1.2,0.4-2.7,0.5-1.4,2.4c0.4,0.6,1.2,1.6-0.1,2.2c-1,0.4-2.1,1.2-3.2,0.4c-5-3.9-10.3-7.4-14.4-12.4
			c-0.7-0.9-0.6-1.7,0.5-2.5c5.2-3.9,10.3-7.8,15.4-11.7C130.3,401.2,130.6,400.8,130.9,400.5L130.9,400.5z"/>
		<path fill="#FFFFFF" d="M520.2,277.9c-1.3,5.4-2.3,10.6-2.9,15.9c-0.1,0.9-0.8,1.1-1.7,1.1c-8.2,0-16-2.5-24.1-3.7
			c-2.6-0.4-3.6-1.8-2.4-4.5c1.4-3.2,1.7-6.7,2.3-10.1c0.3-1.9,1.1-2.8,3.3-2.3c2.7,0.7,5.6,1.2,8.3,1.8c1.3,0.3,2.6,1,3.2-1.1
			c0.3-1,1.5-0.7,2.3-0.5c3.1,0.4,6.1,0.9,9.2,1.3C519.2,276.1,520.2,276.4,520.2,277.9L520.2,277.9z"/>
		<path fill="#FFFFFF" d="M239.8,471.7c-1-0.4-1.5-0.7-2-1c-1.3-0.7-3-1.6-2.4-3.3c0.7-1.8,2.5-1,3.9-0.7c3.7,0.9,7.4-0.1,11.1,1
			c1.9,0.6,2.6,1.2,1.9,3c0,0.1-0.1,0.2-0.1,0.4c-0.7,4.7-3.5,7-8.3,7c-5.6,0-8.7,2.8-9.1,8.3c-0.1,1.1-0.5,2.2-0.8,3.2
			c-0.2,0.7-0.7,1-1.4,1c-0.7-0.1-1.1-0.6-1.2-1.2c-0.4-2.3-0.9-4.6-0.9-7c0.1-5.1-2.5-7.6-7.6-8c-3.4-0.2-6.7,0.4-9.9,1.5
			c-2.6,0.9-3.4,0.1-3.6-2.7c-0.2-3.5,0.8-6,3.8-7.8c1.6-0.9,3.2-2,4.6-3.2c1.6-1.4,3.2-1.7,5.1-1c1.3,0.5,2.6,1.1,3.9,1.1
			c4.4-0.1,5.8,1.6,4.4,5.9c-0.7,2.1,1.6,2.6,3.1,3C235.9,471.7,237.6,471.6,239.8,471.7L239.8,471.7z"/>
		<path fill="#FFFFFF" d="M440,419.3c-0.1,1.3-1.2,2.1-2.2,2.8c-5.2,3.8-9.1,8.8-12.9,13.9c-1.1,1.5-2.4,2.2-3.7,1.1
			c-3.9-3.3-8.2-6-11.8-9.6c-2.3-2.3-1.4-3.8,0.1-5.2c4-3.9,8.4-7.4,12.3-11.5c3.1-3.3,5.5-2.4,8.3,0.1c2.7,2.4,5.6,4.5,8.5,6.7
			C439.2,418.1,439.8,418.4,440,419.3L440,419.3z"/>
		<path fill="#FFFFFF" d="M52,400.6c-0.4-2.3,1.5-2.8,3-3.1c13.4-2.3,25.9-7.6,39-10.8c4.9-1.2,9.5-3.7,14.1-5.8
			c4.4-2,4.4,2.2,6,4.1c1.9,2.2-0.5,2.6-1.6,3.4c-1.1,0.8-2.4,1.4-3.5,2.1c-2.1,1.5-3.9,3.4-4.9-1.2c-0.6-2.8-4.5-2.5-6.5,0.4
			c-0.7,1-0.7,1.9-1.8,0.4c-0.6-0.8-1.4-0.3-1.9,0.3c-0.7,0.8-0.1,1.2,0.5,1.8c3.6,3.5,3.5,3.5-1.1,5.9c-4,2.1-7.8,4.4-11.6,6.8
			c-2.8,1.7-4.3,1.1-5-2.1c-0.4-1.9-0.6-5.1-2-5.3c-2.3-0.4-5.2,0.5-7.3,1.7c-4.1,2.3-8.6,3.8-12.4,6.7c-1.2,0.9-1.9,0.2-2.2-0.9
			C52.5,403.6,52.3,402.1,52,400.6L52,400.6z"/>
		<path fill="#FFFFFF" d="M474.2,72.6c-2.7-2.9-5.4-5.9-8-8.8c-0.6-0.7-1.8-1.3-0.8-2.5c1-1.1,1.8-0.1,2.6,0.5c3.2,2.2,6,5.1,11,6.5
			c-5-8.6-13.6-13.2-17.4-21.7c1.5-0.6,2,0.3,2.5,0.9c6,6.2,12.4,11.8,19.3,17.1c3.3,2.5,3.2,3.7-0.1,6.3c-2.9,2.3-5.8,4.7-9.1,6.4
			c-1.7,0.9-2.9,1.2-4.7-0.2c-3.3-2.7-6.3-5.5-9.2-8.6c-4-4.3-8.8-7.7-12.5-12.4c-3.6-4.6-3.5-6.7,1.2-10.3c1-0.7,1.6-0.4,2.3,0.2
			c3.5,3,7,6,10.5,8.9c1.5,1.3,2,2.7,0,3.8c-2,1.1-1.3,1.8-0.1,2.9C465.7,65.2,469.2,69.7,474.2,72.6L474.2,72.6z"/>
		<path fill="#FFFFFF" d="M60.6,424c-5.2,0.9-10.4,1.7-15.6,2.7c-0.9,0.1-2,0.6-2.2-0.5c-0.3-1.3,1.1-1,1.9-1.2
			c9.6-2.4,19.2-4.9,28.9-7.2c0.8-0.2,1.7-0.2,2.6-0.4c1.1-0.2,2.3-0.8,2.4,1.1c0.1,1.6-1.1,1.6-2.3,1.8c-3.8,0.5-7.6,1-11.4,1.5
			c-1.5,0.2-2.5,0.2-1.3,2.2c2.5,3.9,3.3,8.5,4.5,13c0.6,2.2-0.2,3.6-2.5,4.1c-5.6,1.2-11.2,2.3-16.7,3.6c-1.8,0.4-2.5-0.7-2.6-1.8
			c-0.7-4.6-1.4-9.3-1.8-14c-0.2-2.3,2-2,3.5-2.3C52.2,425.9,56.5,425.4,60.6,424L60.6,424z"/>
		<path fill="#FFFFFF" d="M473.7,465.3c3.3,1.3,6.8,2,9.5,4.3c0.8,0.7,1,1.4,0.1,2.1c-7.6,5.7-13.7,13.3-22.7,17.3
			c-3.2,1.4-5.7,4.4-8.6,6.5c-3.4,2.5-4.1,2.2-5.3-1.7c-1.2-4,0-7.4,3.6-10.1c6.3-4.8,13.1-8.9,19.1-14.2c1-0.9,1.7-1.8,2.3-2.8
			C472.3,466,472.7,465.2,473.7,465.3L473.7,465.3z"/>
		<path fill="#FFFFFF" d="M237.7,518.7c-0.3,2.5-0.5,4.9-0.8,7.4c-0.3,2.2-2,2.3-3.7,2.2c-8.2-0.5-16.3-1-24.5-1.5
			c-1.6-0.1-2.5-0.9-2.1-2.4c1-3.4,0.2-6.9,1.3-10.3c0.5-1.5,1.2-2.1,2.6-2c7.8,0.6,15.6,1.3,23.4,1.8
			C237,514.2,238.2,515.7,237.7,518.7L237.7,518.7z"/>
		<path fill="#FFFFFF" d="M405.9,455.2c-3.3-2-6.9-3.5-9.8-6.1c-1.1-1-2.1-2.1-3.2-3.2c-1.9-2-3.4-3.2,1-4.5c3.5-1,5.7-4.7,8.1-7.5
			c1.6-1.9,5.5-2.7,3.7-6.7c-0.2-0.5,0.7-1.1,1.5-0.2c3.9,4.2,8.6,7.5,13.2,10.8c1.4,1,1.6,1.9,0.4,2.9c-5.1,4.2-9.9,8.8-14,13.9
			C406.6,454.8,406.2,455,405.9,455.2L405.9,455.2z"/>
		<path fill="#FFFFFF" d="M48.8,397.3c1-2,2.7-1.9,4.2-2.4c1.7-0.6,3.4-1.6,1.5-3.8c-0.2-0.3-0.5-0.7-0.5-1
			c-0.1-5.7-4.1-10.1-5-15.5c0-0.1-0.1-0.2-0.1-0.4c-0.7-6.4-2.6-12.7-1.9-20.1c1.9,3,1.8,5.7,2.4,8.2c1.4,6.2,3.4,12.2,5.4,18.2
			c0.6,1.7,1,3.3,0.4,5.1c-0.3,0.8-1.7,3,1.3,1.9c0.1,0,0.4,0.4,0.4,0.6c-0.1,6,2.8,2.2,4.8,1.5c4.4-1.5,8.7-3.9,13.6-3.6
			c2.2,0.1,3.6-1.3,5.2-2.5c-4-2.6-3.9-7.4-6.5-10.6c-0.2-0.2-0.1-0.9,0.1-1.1c2-2,4.7-1.9,7.2-2.4c1.7-0.4,2.7,0.3,3.3,1.6
			c1.9,3.9,2.7,7.8-0.4,12.1c6.7-3.7,13.4-5.9,20.6-6.6c1.2-0.1,2.4-0.2,2.7,1.2c0.3,1.2-1,1.2-1.8,1.4
			c-12.4,3.5-24.4,8.3-36.6,12.4c-5.5,1.8-11.2,3.2-16.6,5.5C51.5,397.6,50.3,398.2,48.8,397.3L48.8,397.3z"/>
		<path fill="#FFFFFF" d="M48.2,140.6c2.3,3,5.6,4.5,9.1,5.5c2.5,0.7,3.7,1.7,2.5,4.8c-1.9,5.2-5,9.7-7.2,14.7
			c-0.7,1.8-1.9,1.7-3.3,1c-3.7-1.8-7.4-3.5-11.2-5.2c-1.8-0.8-1.9-2-1.1-3.6c2.9-5.9,5.7-11.8,8.6-17.7c0.5-0.9,1-1.5,1.8-0.3
			C47.7,140.1,48,140.4,48.2,140.6L48.2,140.6z"/>
		<path fill="#FFFFFF" d="M152.4,461c0.1,2-0.8,3.1-2.6,3.6c-3.3,0.9-6.7,1.9-10,2.8c-1.8,0.5-2.6-0.1-3.1-2
			c-1.6-5.7-1.8-11.7-4.4-17.2c-0.9-1.8-0.5-3,1.6-3.6c3.8-1.1,7.6-2.4,11.3-3.6c1.2-0.4,2.4-0.6,2.8,1.2
			C149.4,448.5,150.9,454.7,152.4,461L152.4,461z"/>
		<path fill="#FFFFFF" d="M349.5,481.6c0,6.2-3,9.3-9.2,9.3c-0.9,0-1.7,0-2.6,0c-9.7-0.1-8.6-1.3-7.9-9.7c0.2-2.4,0.4-4.7,0.4-7
			c0-2.4,1-3.4,3.3-3.2c4.6,0.3,9.2,0.6,13.8,0.8c1.6,0.1,2.2,1,2.2,2.4C349.5,476.6,349.5,479.1,349.5,481.6L349.5,481.6z"/>
		<path fill="#FFFFFF" d="M400.2,472.5c-0.9,5.9-2,11.6-4,17c-0.5,1.5-1.7,1-2.8,0.8c-6.1-1.1-12.2-2.2-18.3-3.2
			c-1.4-0.2-1.9-0.9-2-2.2c0-1.4,0.2-2.7,0.5-4c0.5-3.1-0.7-7.6,1.9-8.9c2.3-1.2,6.1,0.8,9.3,1.3c3.2,0.5,6.4,0.9,9.6,1.3
			C396.4,474.9,398.5,474.6,400.2,472.5L400.2,472.5z"/>
		<path fill="#FFFFFF" d="M78,420.6c2.6,0.7,5.4,1,8.3,0.7c1.6-0.2,1.8,1.1,2.1,2.1c1,3.6,2,7.2,2.8,10.8c0.5,1.9-0.5,2.8-2.4,2.7
			c-5.9-0.2-11.7,0.5-17.1,3c-0.9,0.4-1.9,0.5-2.2-0.5c-1.2-4.6-2.8-9.2-2.9-14.1c0-2.2,1.2-3.3,3.4-3.5
			C72.7,421.4,75.2,421,78,420.6L78,420.6z"/>
		<path fill="#FFFFFF" d="M135.5,81.6c-0.1,0.4,0,0.6-0.1,0.6c-3.7,3.5-7.2,7.2-11.4,10.1c-0.6,0.4-1.2,0-1.7-0.4
			c-4-3.3-8.5-6.1-11.4-10.5c-1-1.4-1-2.3,0.2-3.5c2.7-2.6,5.3-5.2,7.8-7.9c1.4-1.4,2.5-2.2,4.3-0.4c3.7,3.6,7.1,7.7,11.4,10.8
			C135,80.6,135.2,81.2,135.5,81.6L135.5,81.6z"/>
		<path fill="#FFFFFF" d="M425.8,82.4c4,1.3,7.2,0.9,9.9-1.7c2-1.9,3.9-1.4,5.6,0.3c5.6,5.7,12.5,9.8,18.6,14.8c3.6,3,3.6,3.4,0,6.1
			c-0.2,0.2-0.5,0.3-0.6,0.5c-2,5.8-4.1,1.9-6.4,0.2c-7.3-5.4-14.6-10.7-21.8-16.1C429.5,85.3,426.9,85.5,425.8,82.4L425.8,82.4z"/>
		<path fill="#FFFFFF" d="M263.5,517.9c-0.1,3.2-0.6,6.1-1,9.1c-0.3,2.3-1.4,2.9-3.5,2.7c-5.4-0.5-10.9-1.2-16.3-1.3
			c-3.6,0-4.4-1.7-3.8-4.6c0.5-2.2,0.6-4.4,0.6-6.7c0-1.8,0.9-3.1,2.8-2.7c5.6,1.2,11.2,0.1,16.8,0.7
			C260.8,515.4,263.4,515,263.5,517.9L263.5,517.9z"/>
		<path fill="#FFFFFF" d="M528,320.6c-1.7,5-3.5,10.1-5.3,15.3c-0.4,1.3-1.4,1.2-2.5,0.9c-5-1.1-9.8-2.6-14.5-4.7
			c-1.8-0.8-2.2-1.7-0.7-3.3c2.8-3.1,4.5-6.8,6.1-10.6c0.9-2.3,1.9-3.8,4.9-2c3,1.7,6.6,2.1,10.1,2.5
			C527.1,318.7,528.5,318.5,528,320.6L528,320.6z"/>
		<path fill="#FFFFFF" d="M68.7,379c1.7,1.5,3.5,1.4,5.4,0.5c1-0.5,1.7-0.3,2,0.7c0.3,0.8,0,1.4-0.8,1.8c-3.3,1.8-6,0.4-8.6-1.5
			c-2.4-1.8-4.2-4-3.3-7.3c0.5-1.8,1.8-3.2,3.6-3.4c2.7-0.3,2.4-2.1,2.1-3.8c-0.3-1.5-1.1-1.8-2.4-0.9c-1.3,1-2.3,3.5-4.2,2.3
			c-1.8-1.2-0.7-3.6-0.8-5.6c1.8,0,0.6,2.9,2.7,2.3c1.4-0.4,2.3-1.4,2.9-2.7c0.6-1.4,1.7-1.9,3.1-2.4c4.3-1.6,8.3-3.9,11.7-7.1
			c4.5-4.2,9.2-8.3,13.9-12.5c1.7,1.8,0.7,3.2-0.8,4.3c-2.5,1.9-5,3.6-7.5,5.6c-1.6,1.3-3.6,3-3.3,5.1c0.3,2.2,2.8,2.4,5,2.9
			c-1.3,2.1-2.8,1.8-4.2,0.9c-2.5-1.6-4.4-1.4-6.9,0.3c-2.5,1.7-5.6,2.6-9.1,4.1c4.9,0.8,8.9,0.2,12.9-1.1c1.7-0.5,3.1-0.8,4.3,0.9
			c3.3,4.6,5,9.8,6.3,15.2c-0.3,0.1-0.5,0.3-0.8,0.4c-1.3-2.2-2.8-4.4-4-6.6c-1.8-3.3-4.4-3.9-7.9-3.1c-3.7,0.8-7.2,2-10.6,3.5
			c-1,0.4-2,1.1-2.8,1.8c-0.6,0.5-1,1.3-0.6,2c0.5,0.9,1.3,0.2,2,0c1.1-0.4,2-1.1,3.1-1.2c1.9-0.3,3.4,0.7,3.4,2.6
			c0.1,1.9-1.9,0.9-2.9,1.3C71,378.5,69.6,377.4,68.7,379L68.7,379z"/>
		<path fill="#FFFFFF" d="M480.4,191.3c0,0.9-0.9,1.2-1.4,1.6c-2.7,2.1-6.1,2.7-9.2,4c-1.6,0.7-1.9-0.8-2.4-1.7
			c-3-5.1-5.9-10.3-9-15.3c-0.8-1.4-0.3-2,0.8-2.7c2.8-1.8,5.6-3.7,8.4-5.6c1.3-0.9,2.3-0.6,3,0.8c3.2,6,6.4,12.1,9.6,18.1
			C480.4,190.8,480.4,191,480.4,191.3L480.4,191.3z"/>
		<path fill="#FFFFFF" d="M93.6,483.9c1.9,0.8,3.4,1.4,4.9,1.9c1.9,0.7,4,1.6,4.5-1.6c0.1-0.5,0.4-1.2,0.9-1
			c2.4,1.3,4.7,2.7,6.9,4.3c1.5,1.1,0.2,2.6-0.2,3.7c-2.3,6.4-2.4,6.4-8.4,3.3c-3.6-1.9-7.6-3.1-10.7-6c-2.1-2-3,1-4.9,1.7
			c0.1-2-0.5-3.2-2.7-3.5c-1.6-0.2-3.2-1.4-4.7-2.3c-0.6-0.4-1.6-1.1-1.5-1.5c0.8-5.5-4.6-3.5-6.6-5.5c-1.4-1.3-5.5-0.8-4.4-3.3
			c1.2-2.8,3.8,0.2,5.7,0.7c1.7,0.5,3.2,1.3,4.9,1.9c0.8,0.3,1.9,0.9,2.4-0.6c1.4-4.6,3.4-2.4,5.4-0.5c0.4,0.4,0.8,0.9,1.1,1.3
			c0.3,1.9-3.5,0.9-2,2.5c1.5,1.6,4.1,2.8,6.4,2.4c2.2-0.5-0.9-2.1,0.1-3.4c3.1-0.7,4.1,2.3,6.2,3.4
			C96.2,483.2,94.9,483.2,93.6,483.9L93.6,483.9z"/>
		<path fill="#FFFFFF" d="M549.2,235c-0.4,2.9-2.1,3.4-3.6,3.8c-2.7,0.6-3.6,2.2-3.3,4.8c0.3,3,0.6,5.9,0.7,8.9
			c0.1,1.8-0.3,2.6-2.6,2.3c-3.2-0.4-6.5-0.3-9.7-0.2c-2.8,0.1-3.9-1.3-3.9-3.8c0-4.2,0-8.5,0-12.7c0-1.9,0.8-2.8,2.7-2.7
			c0.9,0,1.7,0,2.6,0C537.7,235.3,543.3,237.1,549.2,235L549.2,235z"/>
		<path fill="#FFFFFF" d="M500,330.1c3.1,2.8,7.1,3.1,10.7,4.5c3.1,1.2,6.4,1.9,9.7,2.7c1.5,0.4,2,1,1.7,2.6c-0.6,3.1-1.8,6-2.8,8.9
			c-0.5,1.6-1.8,2-3.3,1.5c-5.1-1.8-10.3-2.7-15.6-3.6c-1.7-0.3-2.3-1.4-2.1-3C498.9,339.3,499.4,334.8,500,330.1L500,330.1z"/>
		<path fill="#FFFFFF" d="M514.6,251.6c-0.7-5.4-1.4-10.8-2.2-16.1c0-0.3-0.2-0.6-0.6-0.8c0.9,5.5,1.6,10.9,1.9,16.4
			c0.2,3.1-0.7,4.5-4.2,4.4c-9.9-0.3-8.3,1.1-8.4-8.3c-0.1-4.1,0.2-8.2-0.1-12.3c-0.2-3.2,1.1-4.2,4.2-4c2.2,0.2,4.5,0.2,6.7,0
			c1.8-0.2,2.6,0.4,2.4,2.2c-0.5,6.1,1.2,12.1,0.7,18.2C515,251.3,514.8,251.5,514.6,251.6L514.6,251.6z"/>
		<path fill="#FFFFFF" d="M526.6,225.8c0.2-2.2,0.3-4.5,0.5-6.7c0.3-2.9,2.1-3.8,4.7-3.2c2.7,0.7,5.4,0.7,8.1,0.6
			c2.9-0.1,3.5,1.5,3,3.8c-0.5,2.2-0.5,4.4-0.6,6.7c-0.2,2.9,0.7,4.3,3.8,3.9c2.3-0.3,4.4,0.6,6.3,1.8c0.8,0.5,1.3,1.3,0.6,2.2
			c-0.5,0.7-1.3,1-1.9,0.3c-2-2.6-4.9-1.8-7.3-1.4c-3.9,0.6-7.7,0.5-11.5,0.6c-5.2,0-5.5-0.3-5.5-5.6c0-1,0-2,0-3L526.6,225.8
			L526.6,225.8z"/>
		<path fill="#FFFFFF" d="M176,90.3c-0.9-0.4-1.7-0.7-2.5-1.1c-4.6-2.7-8.6-6.2-12.3-10.1c-1.6-1.7-0.8-2.7,0.9-3.2
			c3.2-1,6.3-2.4,9.2-4c1.4-0.8,2.6-0.5,3.8,0.3c3.5,2.2,7.4,3.5,11.2,5c1.9,0.7,2.8,1.4,1,3.3c-2.9,2.9-6.4,5.1-8.8,8.5
			C178,89.6,176.8,89.9,176,90.3L176,90.3z"/>
		<path fill="#FFFFFF" d="M174.9,91.1c-2.2,3.2-6.2,3.4-8.7,6c-1.6,1.7-3.6,3.9-5.4,3.9c-1.5,0-3-2.9-4.7-4.4c-2.3-2-5-3.6-6.9-6.2
			c-1.2-1.6-1.1-3,0.7-4.1c0.1-0.1,0.2-0.1,0.3-0.2c3.2-2.3,6.5-6.3,9.9-5.8c3.4,0.5,6.3,4.5,9.3,7.1
			C171.1,88.9,172.7,90.2,174.9,91.1L174.9,91.1z"/>
		<path fill="#FFFFFF" d="M445.6,111.6c2.8,0,2.6-2.4,3-4c0.5-2.2-1.7-1-2.5-1.7c-3.1-2.5-6.2-4.9-9-7.7c-2.8-2.9-5.8-5.3-9.4-7.2
			c-0.9-0.4-2.5-0.8-1.6-2.3c0.8-1.4,2.1-1.1,3.2-0.2c2.4,1.9,5,3.8,7.3,5.8c3.9,3.5,8,6.7,12.6,9.3c2.9,1.7,3.2,5.7,6.6,6.7
			c0.2,0.1,0.3,1,0.2,1.4c-2,5.3-2,11.2-4.7,16.4c-1.2,2.3-2.4,2.1-4.1,1.1c-0.1-0.1-0.2-0.1-0.3-0.2c-2.4-1.6-6.9-3.4-6.8-4.6
			c0.4-3.6,2.7-7,4.3-10.5c0.2-0.5,0.5-1.1,0.7-1.6L445.6,111.6L445.6,111.6z"/>
		<path fill="#FFFFFF" d="M98.5,92.6c1.1-5.4,5.8-7.8,9.3-11.2c1.3-1.3,2.8,0.6,3.7,1.6c2.8,3,5.3,6.2,8.5,8.8
			c1.6,1.3,1.7,2.6,0.1,4c-1,0.9-1.9,1.9-2.9,2.9c-5.5,5.5-6.6,5.6-12.5,0.2c-1.9-1.7-3.7-3.7-5.5-5.6
			C99.1,93.4,98.5,92.6,98.5,92.6z"/>
		<path fill="#FFFFFF" d="M132.6,111.9c-2-0.2-3.9-1.1-5.2-3c-1.2-1.9,0.6-2.9,1.3-4.3c0.2-0.5,0.7-1.1,1.2-1.4
			c5.7-3.3,10.8-7.4,15.6-11.8c0.6-0.5,1.3-0.8,2-0.2c2.7,2.1,5.5,4.3,8.1,6.5c1,0.8,1.3,1.7-0.5,2.4c-5.7,2.4-10.8,6.1-15.9,9.6
			C137.3,111.1,135,111.3,132.6,111.9L132.6,111.9z"/>
		<path fill="#FFFFFF" d="M0,193.1c2.2-1.6,3.9-0.5,5.7-0.1c11.5,2.4,21.6,7.9,31.6,13.8c3.3,2,6.8,3.6,9.8,6.1c1,0.8,2.5,2,0.5,2.7
			c-4.8,1.6-9.1,5.5-14.8,3c-1.5-0.7-3.5-1.2-3.7-2.8c-0.4-4.1-3.5-4-6.2-4.5c-7.1-1.4-14.2-2.6-21.3-3.9c-0.6-0.1-1.2-0.3-1.4-1.6
			c10.9-0.9,21.4,6.7,32.6,2.2C22.4,201.3,12.5,194.4,0,193.1L0,193.1z"/>
		<path fill="#FFFFFF" d="M320.4,472.8c-1.7,0-3.4,0-5,0c-0.6,0-1.2-0.3-1.3-1.1c-0.1-1,0.5-1.3,1.3-1.4c4-0.5,8,0.2,11.8,1.2
			c2,0.5,2,3.4,2,5.2c0,3.6-0.5,7.2-0.7,10.7c-0.1,1.4-0.9,1.9-2.2,2c-4.1,0.2-8.1-0.7-12.2-1.1c-1.5-0.1-2.1-0.8-1.4-2.8
			c0.9-2.5,1.5-5.3,1.1-8c-0.5-3.5,1.2-4.7,4.5-4.3c0.7,0.1,1.5,0,2.2,0L320.4,472.8L320.4,472.8z"/>
		<path fill="#FFFFFF" d="M414.8,493.3c-5.3-0.6-9.8-1.2-14.4-1.7c-1.8-0.2-2.5-1.3-2-3.1c0.3-1,0.5-1.9,0.7-2.9
			c1.7-6.9,5.8-9.2,12.5-7.1c0.8,0.3,1.7,0.5,2.5,0.8c3.6,1.3,4.9,3.9,4,7.7c-0.2,1-0.4,2-0.4,2.9
			C417.7,492.4,416.9,493.8,414.8,493.3L414.8,493.3z"/>
		<path fill="#FFFFFF" d="M454.6,153.9c0.6,0.4,1.2,0.7,1.5,1.2c3.1,4.3,7.7,6.9,11.6,10.3c2.2,1.9,2.1,3.2,0.2,4.8
			c-2.6,2.2-5.5,3.8-8.7,4.9c-1.5,0.6-2.6,0.1-3.5-1.2c-2.3-3.4-4.7-6.7-6.9-10.1c-2.3-3.7-2-4.7,1.7-7.3
			C451.8,155.7,453.2,154.8,454.6,153.9L454.6,153.9z"/>
		<path fill="#FFFFFF" d="M490.5,208.1c-2.6,3.3-6.7,4.2-10,6.1c-1,0.6-2.1,1.1-3-0.1c-2.6-3.6-5.3-7.1-6-11.5
			c-0.2-1.5-2.8-3.1-0.6-4.6c2.8-1.9,5.8-4.1,9-4.1c1.7,0,3.7,2.9,5,4.9c1.6,2.6,3.1,5.3,4.9,7.8C489.9,207,490.1,207.4,490.5,208.1
			L490.5,208.1z"/>
		<path fill="#FFFFFF" d="M313.6,28.2c-4.7-0.3-8.3-1.8-12.2-1.5c-1.4,0.1-1.1-1.1-1-1.9c0.6-3.5,1.5-7,2-10.6c0.3-2,1.3-2.6,3-2.4
			c4,0.4,8.1,1,12.1,1.5c1.9,0.2,1.6,1.2,1.3,2.6c-0.7,2.6-1.4,5.3-1.4,8C317.3,27.3,315.9,28.5,313.6,28.2L313.6,28.2z"/>
		<path fill="#FFFFFF" d="M85.9,319.3c-2.1-0.2-1.9-2.8-3.8-2.9c-0.1,0.2-0.3,0.4-0.4,0.6c-0.5,1.5,1,4.2-1.1,4.5
			c-1.5,0.2-1.6-2.7-2.2-4.3c-0.7-2-1.1-4.1-3.5-0.8c-0.9-2.6-0.2-5.7-3.3-6.8c-0.5-0.2-0.4-0.7-0.1-1.3c2.1-3.5,0.5-6.8-0.7-10
			c-1-2.6-2-5.2,1-7.3c1.4-1,2.4-1,3.4,0.5c2,2.9,4,5.7,6.2,8.4c2.1,2.6,2.7,5.2,0.9,8.2c-1.4,2.3,0.2,4.1,1.2,5.8
			C84.5,315.6,85.8,317.1,85.9,319.3L85.9,319.3z"/>
		<path fill="#FFFFFF" d="M389.3,445.7c1.2-0.2,1.7,0.5,2.4,1.1c3.5,3,7,6,11.2,8.1c2.1,1.1,2.1,1.9,0.2,3.4
			c-2.3,1.7-4.2,3.9-6.2,5.9c-1,1-1.9,1.4-3.2,0.3c-3.5-3.1-7.1-6.2-10.8-9.2c-2.3-1.9-1.9-3.3,0.1-5
			C384.9,448.4,386.7,446.5,389.3,445.7L389.3,445.7z"/>
		<path fill="#FFFFFF" d="M283.9,20.8c0.6-1.8,0.5-4.4,0.7-7c0.2-2.4,1.5-3.6,4.2-3.5c3,0.1,5.9,0.5,8.9,0.7
			c2.6,0.2,3.3,1.4,2.9,3.6c-0.5,3.1-1,6.1-1.5,9.2c-0.4,2.2-1.6,3.1-4,2.6c-2.8-0.6-5.6-1.1-8.5-1.2
			C284.1,25.1,283.5,23.8,283.9,20.8L283.9,20.8z"/>
		<path fill="#FFFFFF" d="M99.1,93.4c1.7,4.4,5.4,7.1,9,9.6c2.5,1.7,2,2.9,0.2,4.6c-2,1.8-3.7,4.6-6,5.4c-3,1-4-3.1-6.3-4.3
			c-1.3-0.7-2.4-1.7-3.6-2.6c-3.8-2.8-3.7-3-0.6-6.3c1.5-1.6,2.5-3.6,3.5-5.6c0.7-1.4,1.4-2.4,3.1-1.5
			C98.7,92.9,98.9,93.1,99.1,93.4L99.1,93.4z"/>
		<path fill="#FFFFFF" d="M430.4,97.5c2-0.2,3,0.3,3.8,1.5c1,1.3,2,2.6,3.4,3.4c2.8,1.7,3,3.2,0.5,5.4c-3.1,2.9-6,6-9.1,8.9
			c-0.7,0.7-1.7,2-2.7,0.5c-2.1-3.2-5.6-4.8-8.1-7.6c-3.8-4.2-3.6-5.7,1.4-7.8C423.4,100.3,427.2,98.8,430.4,97.5L430.4,97.5z
			 M430.6,108.3c-0.2-0.7-0.3-1.3-0.6-1.9c-0.8-1.5,0.2-4.3-2-4.6c-2.9-0.4-5.5,1.3-8,2.7c-1.2,0.7,0.1,1.8,0.8,2.4
			c1.6,1.3,3.3,2.6,5.1,3.7c0.8,0.5,1.2,2.3,2.6,1.4C429.8,111.1,430.4,109.7,430.6,108.3z"/>
		<path fill="#FFFFFF" d="M126.5,428.9c-5.2,2.1-10,4-14.8,6c-1.6,0.6-2.3-0.3-2.6-1.7c-0.8-3.8-1.5-7.5-2.2-11.3
			c-0.4-2.2,1.3-2.8,2.7-3.9c1.6-1.2,3-1.1,4.4,0.1C117.9,421.5,122,425,126.5,428.9L126.5,428.9z"/>
		<path fill="#FFFFFF" d="M270.9,11.3c0.9,3.5,0.7,6.2,0.1,8.8c0.5-3.1,2.6-6,0.6-9.3c-0.9-1.5,0.1-2.4,1.6-2.5
			c0.8-0.1,1.7,0.2,2.5,0.4c2.5,0.8,6.1-1.3,7.6,1.4c1.5,2.6-0.1,6,0,9.1c0.1,1.3-0.5,2.7-0.7,4c-0.2,1.4-1,2-2.3,1.9
			c-0.9-0.1-1.7-0.4-2.5-0.5c-3-0.2-7.4,0.4-8.3-1.7C268.3,19.7,269.8,15.7,270.9,11.3L270.9,11.3z"/>
		<path fill="#FFFFFF" d="M354,453.4c-2.4-4.1-5-4.7-8.3-2.2c-1.3,1-2.3,0.5-3-0.9c-0.8-1.8-0.3-3.3,1.3-4.2c1.9-1,3.8-1.7,4.3-4.2
			c0.2-0.9,1-1.2,1.7-0.7c6.9,4,15.5,3.7,22,8.7c1.5,1.1,4.5,1.8,2.8,5c-1.7,3.2-3.7,3.6-5.6,0.3c-2.2-3.7-5.3-5.2-9.3-6
			C355.3,448.4,355.3,448.2,354,453.4L354,453.4z"/>
		<path fill="#FFFFFF" d="M468.7,343.9c-1.3-4.6-3.9-7.9-2.9-12.2c0.4-1.6-0.7-2.3-2.3-1.8c-2.6,0.9-2.7-0.4-2.2-2.4
			c1.5-6,4.7-11.2,7-16.8c0.6-1.4,1.9-1.2,2.9-0.7c1.5,0.7,1.9,1.9,1,3.4c-2,3.6-4.8,6.9-5.7,10.6c4.8-0.1,1.4,5.4,4.4,6.4
			c1.5-0.4,1.6-2.4,2.9-3.4c0.5-0.4,1-0.8,1.7-0.4c0.5,0.3,0.5,0.9,0.3,1.3C473.3,332.9,472,338.4,468.7,343.9L468.7,343.9z"/>
		<path fill="#FFFFFF" d="M515.2,251.2c1.4,4.9,0.8,10.1,1.4,15.1c0.2,1.4-1,1.8-2.3,1.9c-2.1,0.2-4.2-0.3-6.3-0.7
			c-7.2-1.2-7.1-1.2-6.9-8.5c0.1-2.7,1.1-3.8,3.6-3.1c1.9,0.5,3.7,0.3,5.6,0.5c3.9,0.5,4.9-1.3,4.3-4.8
			C514.8,251.5,515,251.3,515.2,251.2L515.2,251.2z"/>
		<path fill="#FFFFFF" d="M492.4,186c-1.4-3.5,0.3-4.3,3.3-3.9c3.9,0.5,7.7-0.8,11.5-0.8c2.5,0,3.7,1,3.6,3.6c0,0.2,0,0.5,0,0.7
			c0.2,6.1-0.6,6.9-6.8,5.8c-2.2-0.4-4.4-0.7-6.7-0.5C493.5,191.2,491.3,190.3,492.4,186L492.4,186z"/>
		<path fill="#FFFFFF" d="M156.2,441.1c-0.4-0.1-2.9,1.1-3.2-0.9c-0.3-1.9,2.3-1.8,3.6-2.4c6.6-2.6,13.9-2.7,20.3-6
			c0.8-0.4,1.4-0.3,1.9,0.4c0.5,0.8,0.4,1.8-0.4,2.4c-3.9,3.3-1.6,6,0.6,8.9c3.9,4.9,4,10.8,0.6,15.5c-0.8,1.1-1.9,0.7-2-0.1
			c-0.4-2.2-1.9-4.5-0.2-6.7c2-2.6,1.9-5.4,0.1-7.6c-2.1-2.6-3.8-6.5-8.4-5.6c-2.1,0.4-4.1,1-6.2,1.4
			C161.2,440.9,159.3,441.7,156.2,441.1L156.2,441.1z"/>
		<path fill="#FFFFFF" d="M289.6,58.3c0.8-2,0.9-4.2,3.4-5.2c1.8-0.7,1.9-2.6,2.1-4.5c0.4-3.6,1.1-3.8,4.1-2c3.2,2,5.4,4.2,4,8.5
			c-0.6,1.7-0.1,3.7-0.1,5.6c0,1,0.1,2.2-0.4,2.9c-1.5,2.2-3.6,4.7-6.1,4c-1.6-0.4-0.6-3.5-0.2-5.4c0.2-0.7,0.1-1.5,0.2-2.2
			c0.1-4,0.1-4-3.6-2.3C291.9,58.2,290.9,58.8,289.6,58.3L289.6,58.3z"/>
		<path fill="#FFFFFF" d="M104.8,167.3c-0.4-5.6,0-11-2.6-15.4c-3-5.1-1.9-9.2,1.5-13.2c0.1-0.1,0.1-0.2,0.2-0.3
			c1.3-1.6,1.9-5.3,4.5-3.8c2.1,1.2-0.7,3.6-1.7,5.1c-1.7,2.6-0.7,4.3,0.7,6.4C111.4,152.3,110.4,162,104.8,167.3L104.8,167.3z"/>
		<path fill="#FFFFFF" d="M82.9,59.1c0-3-0.7-4.7-4-3.6c-1.4,0.5-1.9-1.1-2-2.1c-0.1-1.5,0.2-3,1.7-3.8c0.5-0.3,1.4,0,1.8-0.4
			c5.2-4.5,8.1-0.9,11.1,3c2.1,2.7,2.3,6.1,1.1,8.5c-1.6,3.3-3.8,6.5-6.9,9.1c-1.3-2.1,0.2-3.4,0.8-4.7c1.4-3,2-6.1,2.1-9.3
			c0-0.7,0-1.6-0.9-1.8c-0.8-0.2-1.4,0.5-1.8,1.1C85.1,56.3,85.3,58.3,82.9,59.1L82.9,59.1z"/>
		<path fill="#FFFFFF" d="M474.3,231.9c-2.4,0.7-3,4.3-6.6,3.5c2.4-2.6,3.3-5.2,3.1-8.6c-0.2-2.7,2.7-2.8,4.8-2.5
			c3.3,0.5,5.3,2.7,4.1,4.9c-1.5,2.7-1.3,4.6,0.9,6.6c0.3,0.3,0.7,0.9,0.6,1.3c-1.2,6.5-0.5,13.2-1.3,19.8c-0.1,0.6-0.3,1.2-1.4,1.5
			C476.7,249.6,479,240.2,474.3,231.9L474.3,231.9z"/>
		<path fill="#FFFFFF" d="M508.9,166.9c0.4,3.9,1.1,7.3,1.2,10.8c0.1,1.8-0.4,2.7-2.1,2.6c-4.4-0.1-8.7,0.4-13,0.8
			c-1.1,0.1-2.8,0.5-3.2-1.1c-0.4-1.6,0.8-2.6,2.1-3.1C499.3,174.5,503.7,170.7,508.9,166.9L508.9,166.9z"/>
		<path fill="#FFFFFF" d="M230.5,0c1.2,3.1-0.6,6.9,2.3,9.5c-4.1,5.4,1.8,5,4,6.7c0.2,0.1,0.1,0.4,0.3,0.9c-1.4,0.9-3.1,0.7-4.6,0.4
			c-2.8-0.6-4.8-0.3-5.2,3c-0.1,0.4-0.5,0.9-0.9,1c-0.8,0.2-0.9-0.6-1.2-1.1c-1-1.9-0.8-3.9-0.6-5.9c0.2-2.5-0.5-3.9-3.2-3.7
			c-2.6,0.1-2.6-1.1-1.6-3c1.6-2.9,5-4.1,7.5-2.4c1.7,1.1,2.4,0.6,2.4-1.4C229.8,2.8,229.3,1.3,230.5,0L230.5,0z"/>
		<path fill="#FFFFFF" d="M56.6,324.7c-0.2-2.5,0.6-3.8,2.1-4.3c1.7-0.6,2.4,0.7,3.2,1.9c3.3,5.3,4.5,11.5,6.9,17.2
			c0.6,1.5-0.7,2.2-1.6,3c-0.9,0.8-1.7,0.1-2.2-0.6C60.3,336.8,58.3,330.4,56.6,324.7L56.6,324.7z"/>
		<path fill="#FFFFFF" d="M166.1,34.3c-1.8-0.4-4-0.9-5.9-2.1c-0.6-0.3-1.5-0.6-1.1-1.6c0.2-0.7,1-0.8,1.6-0.7
			c2.8,0.5,5.3,1.3,7.9-1.2c1.2-1.1,5.2,2.2,5.4,4.2c0.2,1.8-0.6,4.6,3,2.5c1.3-0.7,2.6,0.7,2.6,1.9c0.1,1.6-0.8,2-1.9,0.5
			c-2.9,4.2-6.3-0.6-9.7,0.5c-3.4,1.1-6.9-1.5-10.4-2.2c-0.7-0.1-2.3,0.6-2.2-1.1c0.1-1.5,1.4-1.5,2.6-1.5
			C160.8,33.5,163.3,34.9,166.1,34.3L166.1,34.3z"/>
		<path fill="#FFFFFF" d="M445,112.2c-2.7,2.3-3.4,5.9-5.4,8.8c-1.4,2.2-2.4,2.7-4.6,1.1c-4.5-3.1-4.8-4-1.4-8.3
			c0.9-1.2,2.1-2.1,3.1-3.3c4.4-5.2,5.6-5,8.9,1L445,112.2L445,112.2z"/>
		<path fill="#FFFFFF" d="M490.7,170.9c-0.8-3.4,1.3-5.2,4.7-5.6c3.2-0.4,6.5-1.6,9.7-0.1c1.9,0.8,2.5,2,0.4,3.5
			c-3,2.1-5.9,4.5-9.1,6.3C491.4,177.9,490.7,177.3,490.7,170.9L490.7,170.9z"/>
		<path fill="#FFFFFF" d="M410.6,111.7c3.3,1.4,7.1,1.3,10.2,3.7c9.9,7.5,21.5,11.9,31.8,18.6c1.1,0.7,3.1,1,2.2,2.8
			c-0.9,1.7-2.6,0.4-3.6-0.3c-5.2-3.1-10-6.8-15.4-9.6c-7.1-3.6-13.9-7.6-21.1-11.2c-1.4-0.7-3.1-0.9-4.6-1.4
			c-0.7-0.2-2.1,0.3-1.8-1.1C408.5,112.3,409.4,111.7,410.6,111.7L410.6,111.7z"/>
		<path fill="#FFFFFF" d="M392.3,83.4c1.6,0.2,3.5,1.3,5.4,2.1c2.8,1.1,5.5,2.2,8.4,3.1c2.7,0.9,2.9,2.4,2.1,4.9
			c-1,3.1-2.7,0.8-3.7,0.5c-5.6-2-11.1-4.3-16.7-6.5c-0.9-0.4-2.2-0.5-2.2-1.6c0.1-1.2,1.2-1.8,2.5-1.9
			C389.4,83.8,390.6,83.6,392.3,83.4L392.3,83.4z"/>
		<path fill="#FFFFFF" d="M98.1,149.9c0,0.1,0.1,1.1,0,2.1c-0.2,1.3-1,2.4-2.3,2.5c-1.2,0.1-1.5-1-1.9-2c-1.2-3.2-2.9-6.1-5.5-8.3
			c-1.2-1.1-2.6-2.3-0.8-4c1.6-1.5,3.3-3.1,5.5-1.4C96.4,141.3,98.7,144.5,98.1,149.9L98.1,149.9z"/>
		<path fill="#FFFFFF" d="M92.9,42.6c1.1-1,2.2-1.5,2.5-2.3c1.2-3,2.9-3.7,5.8-2.2c3,1.5,5.2,3.4,4.2,7.3c-0.5,1.9-1.1,3.9-1,5.8
			c0.2,3.8-1.7,3.7-4.3,2.8c1.7-4.3,1.2-5.6-3.1-6.8c-2.3-0.7-4.7-1.1-7.5-1.7c1.5-1.4,2.7-1.1,4-0.8c2.1,0.5,4.2,0.3,6-1.1
			c0.6-0.5,1.2-1,0.7-1.9c-0.5-0.8-1.2-0.7-2-0.4C96.6,41.8,95.3,43.3,92.9,42.6L92.9,42.6z"/>
		<path fill="#FFFFFF" d="M429.8,470.9c0.2-1.6,0.6-2.9-1.4-3.1c-0.2,0-0.6-0.7-0.5-0.8c2-3.7-1.4-3.4-3.1-4.3
			c-1.3-0.7-3-1.3-2.7-3.1c0.3-1.5,1.6-2.6,3-3.2c1.8-0.8,2.3,1,2.9,2.1c2.1,3.6,4.2,7,8.1,9c1,0.5,2,1.6,1.6,3.1
			c-0.4,1.5-1.7,1.6-3,1.6c-0.9,0-1.7,0.1-2.6,0.3C429.6,473.1,429.6,473.2,429.8,470.9L429.8,470.9z"/>
		<path fill="#FFFFFF" d="M387.1,519c1-4.7,1.9-9.4,3-14c0.6-2.7,1.3-5.3,2.1-7.9c0.6-2,0.1-3-2.2-3.2c-2.9-0.2-5.8-0.8-8.8-2
			c2.3-1.5,4.2-0.3,6.1,0c6.2,0.9,12.3,2,18.5,3c1,0.2,2.2,0.2,1.9,1.6c-0.3,1.4-1.5,1.1-2.5,0.9c-2.2-0.4-4.4-0.7-6.6-1.3
			c-3-0.8-4.5-0.1-5,3.2c-0.8,5.9-2.4,11.6-4.4,17.2c-0.3,0.9-0.7,1.8-1.1,2.7C387.8,519.1,387.5,519.1,387.1,519L387.1,519z"/>
		<path fill="#FFFFFF" d="M176.3,46.3c0.6-3.2,1.8-5.7,4.8-6.6c1-0.3,1.9-0.8,2.4-1.6c2-2.9,4.3-2.5,6-0.1c1.3,1.8,1.4,0.9,2-1.1
			c1.1,4.1,0,7.2-0.2,10.2c0,0.8-2.9,0.8-4,2.2c-0.6,0.7-6.2-1.8-6.2-2.7c-0.1-0.9-0.1-1.8,0.6-2.4c0.8-0.6,1.3,0,2,0.3
			c2.2,1.2,5.3-0.6,5.5-3.1c0-0.8,0-1.6-0.9-1.8c-1.2-0.4-2.4-0.3-3.5,0.6C182,42.3,178.7,43.7,176.3,46.3L176.3,46.3z"/>
		<path fill="#FFFFFF" d="M531.3,316.1c-5,0-9.6-5.3-8.2-10c0.6-2.1,2.7-3.8,3.4-6.1c0.2-0.5,1.3-0.9,1.5-0.3c0.7,2,1.5,3.3,3.9,3.4
			c0.5,0-1,1.6-1.5,2.5c-1,1.5-4.9,1-3.1,4.3c1,1.8,2.7,2.9,4.7,3.5c0.9,0.3,2.2,0.5,1.9,1.8C533.6,316.3,532.3,316,531.3,316.1
			L531.3,316.1z"/>
		<path fill="#FFFFFF" d="M327,517.2c-0.2,1.3,0.3,2.5-0.7,3.1c-1.2,0.7-2.1-0.5-2.9-1.2c-2.7-2.2-3-5.5-3.6-8.7
			c-0.1-0.3,0.2-1,0.2-1c3.9,0.5,3.6-3.2,5.1-5c0.5-0.6,1-1.2,1.9-0.8c0.7,0.3,0.7,1,0.7,1.6c0,0.7,0,1.5-0.1,2.2
			C326.7,510.8,325.8,514.1,327,517.2L327,517.2z"/>
		<path fill="#FFFFFF" d="M162.4,469.1c-1.6-0.1-2.8,0.1-3-1.3c-0.1-1.2,0.6-1.9,1.7-2.1c7.7-1.4,15.1-4,22.9-5
			c1-0.1,1.8-0.1,2.2,0.9c0.4,1-0.3,1.3-1.1,1.5C177.4,465.3,169.5,466.6,162.4,469.1L162.4,469.1z"/>
		<path fill="#FFFFFF" d="M79.5,168.2c1.3,2.8,2.8,5,5.5,6.6c2.4,1.4,0.1,2.9-0.8,4.2c-0.9,1.5-2,2.7-3.9,1.3
			c-0.8-0.6-1.6-1.3-2.5-1.6c-3.1-1-3.2-0.9-1-3.5c0.1-0.2,0.4-0.5,0.4-0.6C74,171.2,79.2,170.7,79.5,168.2L79.5,168.2z"/>
		<path fill="#FFFFFF" d="M159.4,464.5c-2.7,0.1-3.9-1.5-4.3-3.3c-1.7-6.3-3.2-12.7-4.7-19.1c-0.2-0.8-0.4-2,0.7-2.2
			c1.2-0.3,1.3,1.1,1.4,1.8c1.5,5.8,3,11.5,4.1,17.3c0.5,3,1.5,3.3,3.3,1.3c2.6-2.9,3.6,0,4.9,1.3c0.8,0.8,0.1,1.3-0.7,1.5
			C162.4,463.7,160.8,464.2,159.4,464.5L159.4,464.5z"/>
		<path fill="#FFFFFF" d="M78.3,96.2c1.3-2.3,0.2-4.4-1.6-6.4c-1.7-1.9-0.1-3.4,1.1-4.5c1.5-1.3,2,0.5,2.7,1.4
			c0.8,0.9,1.6,2.1,2.6,2.6c2.4,1.2,2.6,1.9,0,3c-1.4,0.6-1,1.4,0.1,2.1c1.8,1.3,1.7,2.3-0.7,2.7c-0.4,0.1-0.9,0.4-1.3,0.7
			c-0.6,0.6-0.3,2.4-1.8,1.6C78.5,99,78.2,97.7,78.3,96.2L78.3,96.2z"/>
		<path fill="#FFFFFF" d="M453.6,441.8c-1.1,1.8-3.3,3.2-3.5,5.8c0,0.4-1.1,0.1-1.6-0.3c-1.8-1.3-2.6-3.7-4.8-4.6
			c0.8-1.8,1.6-3.6,2.5-5.3c0.6-1.1,1.5-0.9,2.5,0C450.2,438.9,453.2,438.6,453.6,441.8L453.6,441.8z"/>
		<path fill="#FFFFFF" d="M147.4,70.1c-2.1,0.2-3.2-0.5-3.1-2.7c0.1-2.6-0.2-5.2-1.4-7.6c-0.7-1.5-0.5-2.5,1.4-3
			c2-0.5,1.8,0.8,2.1,2c0.6,2.4,1.4,4.7,3.3,6.5c0.9,0.8,1.8,1.9,1.1,3.2C150,69.9,148.7,70.3,147.4,70.1L147.4,70.1z"/>
		<path fill="#FFFFFF" d="M335.9,512.6c-1.2,2.7-0.9,4.6,1.8,5.7c0.6,0.3,1.3,1,0.8,1.8c-0.4,0.7-1.1,0.4-1.6,0.1
			c-3.3-1.7-3.1,0.5-3.1,2.7c0,1.4,0.3,3.5-1.8,3.5c-1.9,0-2.4-1.8-2.5-3.6C329.3,518.5,331.7,514.4,335.9,512.6L335.9,512.6z"/>
		<path fill="#FFFFFF" d="M282.7,180.2c-1,10.5-4.2,17.6-13.4,20.7c-5.7,1.9-9.1-1.3-7.8-7.2c1.1-4.8,2.3-9.6,3.6-14.3
			c1.3-4.8,4.8-7.4,9.6-8.3C278.8,170.3,282.8,174.9,282.7,180.2L282.7,180.2z"/>
		<path fill="#FFFFFF" d="M232.9,174.5c1.7,0.1,3.5,0,5.2,0.5c3.3,1,6,3.1,6.3,6.6c0.3,3.8-1,7.5-4.2,9.8c-4.5,3.1-9.7,3.7-15,3.1
			c-3.1-0.4-6-3.7-6.6-7.3c-0.9-5,0.4-8.3,3.9-10.4C225.7,175,229.2,174.4,232.9,174.5L232.9,174.5z"/>
		<path fill="#FFFFFF" d="M336.2,201.4c-0.1-3.3,1.2-5.1,4.2-5.9c4.1-1.1,7.8-0.7,10.7,2.4c3.8,4.1,4.5,9,2.2,13.4
			c-2.4,4.8-6.8,5.6-10.7,2C338.4,209.3,336.2,205.3,336.2,201.4L336.2,201.4z"/>
		<path fill="#FFFFFF" d="M280.1,214.9c-4,0-5.4-1.8-5.4-6.3c0.1-4.2,2.2-6.8,5.7-6.9c3.1-0.1,6.8,3.3,6.8,6.2
			C287.2,211.7,283.9,214.9,280.1,214.9L280.1,214.9z"/>
	</g>
</g>
</svg>
