<?xml version="1.0" encoding="utf-8"?>
<!-- Generator: Adobe Illustrator 26.3.1, SVG Export Plug-In . SVG Version: 6.00 Build 0)  -->
<svg version="1.1" id="Layer_2_00000124876268702095273450000003713761789039732625_"
	 xmlns="http://www.w3.org/2000/svg" xmlns:xlink="http://www.w3.org/1999/xlink" x="0px" y="0px" viewBox="0 0 257.8 322.6"
	 enable-background="new 0 0 257.8 322.6" xml:space="preserve">
<g id="Layer_1-2">
	<g>
		<path fill="#FFFFFF" d="M59.8,148.1c-5.4,3.9-8.3,9.3-12,14.3c-9.7,13.2-19.3,26.5-29,39.8c-3.1,4.2-8.9,5.7-13.2,3.5
			c-3.9-1.9-6.6-9.5-5.3-14.3c1.6-5.8,6-9.8,9.3-14.4c8.8-12.2,18-24.2,27.1-36.2c5.8-7.7,11.5-15.6,17.4-23.3
			c5.7-7.4,13.6-11.3,22.5-12.9c10.6-1.9,20.8-0.4,30.4,4.4c5.5,2.7,9.4,7.2,13.4,11.6c5,5.6,9.6,11.5,14.5,17.3
			c5.5,6.5,11,13,17.2,20.3c-0.5-4.6,0.7-8.2,0.7-12c0-46,0-92,0-138c0-7.1,2.7-9.4,9.7-7.9c2,0.4,3.9,0.6,5.9,0.6
			c28.2,0,56.5,0,84.7,0h4.7c-3,3.4-5.6,6.4-8.2,9.4c-6.8,8-13.5,16-20.3,24c-1.6,1.9-1.3,3.1,0.4,4.9c7.8,8.3,15.3,16.7,22.9,25.1
			c1.4,1.5,2.7,3,4.3,4.7c-1.3,0.1-2.6,0.2-3.9,0.2c-26.1,0-52.2,0.1-78.4-0.1c-3.1,0-3.9,0.7-3.9,3.9
			c-1.5,59.3-0.3,118.6-0.7,177.9c0,4.8-2.9,8.2-7.2,8.8c-3.7,0.4-8.9-3.2-10-6.8c-0.9-2.8,0-5.5,0-8.3c0-16.6-0.3-33.2,0.1-49.9
			c0.1-4.7-1.3-7.9-4.8-10.4c-6.1-4.4-10.2-10.8-15.1-16.2c-5.8-6.3-11.6-12.7-16.5-19.9c-0.2-0.3-0.5-1-1.1-0.7
			c-0.4,0.2-0.6,0.5-0.5,1.2c0.2,2.2,0.3,4.5,0.3,6.7c0,51.7,0,103.5,0,155.2c0,5.1-2.7,9.6-6.8,11.2c-6.3,2.5-13-2.8-13.4-10.7
			c-0.2-4.1,0-8.2,0-12.4c0-25.1,0-50.2-0.1-75.4c0-2.6,0.7-5.1,0.8-7.7c0.1-1.9-0.4-2.7-2.5-2.6c-3.7,0.1-7.5,0.3-11.2,0
			c-3.1-0.2-3.6,0.9-3.6,3.8c0.1,31.6,0.1,63.2,0.1,94.9c0,5.9-2.3,9.1-7,10.2c-7,1.7-12.1-4.1-12.5-9.4c-0.1-0.9,0-1.7,0-2.6
			c0-51.1,0-102.2,0-153.3C59.2,153.9,59.6,151.2,59.8,148.1L59.8,148.1z"/>
		<path fill="#FFFFFF" d="M86.3,46.1c13.1-0.5,23.3,11.7,23,22.1c-0.3,13.7-10.8,24.1-24.4,24.3c-11.9,0.2-22-12.4-21.9-23.8
			C62.9,56.6,72.5,45.6,86.3,46.1z"/>
	</g>
</g>
</svg>
