<?xml version="1.0" encoding="utf-8"?>
<!-- Generator: Adobe Illustrator 26.3.1, SVG Export Plug-In . SVG Version: 6.00 Build 0)  -->
<svg version="1.1" id="Layer_1" xmlns="http://www.w3.org/2000/svg" xmlns:xlink="http://www.w3.org/1999/xlink" x="0px" y="0px"
	 viewBox="0 0 800 800" enable-background="new 0 0 800 800" xml:space="preserve">
<g>
	<path fill="#FFFFFF" d="M194.4,175.6c0,24.9,0.1,49.7-0.1,74.6c0,2.8,0.9,4.1,3.3,5.3c10.8,5.2,19.5,12.8,24.6,23.9
		c8,17.7,6.3,34.6-5.3,50.3c-8,10.9-19.2,16.7-32.5,18.7c-11.9,1.8-23.3,0-33.3-6.6c-12.8-8.4-21.6-19.9-23.6-35.6
		c-2-15.8,3.1-29.1,14-40.4c4-4.2,8.9-7.3,14-10c2.1-1.1,2.4-2.5,2.4-4.5c0-50.6,0.2-101.1-0.2-151.7c-0.1-10,9.7-16.4,16.9-16.7
		c9-0.4,18.2,6,19.6,14.9c0.2,1.1,0.2,2.3,0.2,3.5C194.4,126,194.4,150.8,194.4,175.6z M163,145.8c0,8.5,0,16.9,0,25.4
		c0,3.6-0.1,7.2,0,10.8c0.1,2.5,2.3,4.9,4.6,5.3c2.5,0.4,4.1-1,5.3-3.8c1-2.4-0.1-4.6-0.1-6.9c0.1-22.5,0.1-45.1,0.1-67.6
		c0-0.8,0-1.6,0-2.4c-0.1-2.4-1.4-3.9-3.5-4.6c-2-0.7-3.4,0.6-4.6,2.1c-1.5,2-1.8,4.4-1.8,6.9C163,122.5,163.1,134.2,163,145.8z"/>
	<path fill="#FFFFFF" d="M232.4,174.2c-4.3,0-8.6,0-13,0c-3.8,0-6.7-2.7-7-6.4c-0.3-3.6,2-6.7,5.8-6.8c9.4-0.3,18.7-0.2,28.1,0
		c3.5,0.1,5.7,3.6,5.5,7.7c-0.2,3.1-2.9,5.5-6.1,5.6C241.2,174.2,236.8,174.2,232.4,174.2z"/>
	<path fill="#FFFFFF" d="M228.2,207.3c3.7-0.2,8,0.2,12.4-0.5c2.6-0.4,5.5-0.2,7.8,1.3c2.7,1.8,3.5,4.7,2.8,7.6
		c-0.6,2.4-3.6,4.8-6.6,4.8c-5.5,0-11,0.5-16.4-0.3c-3-0.5-5.9,0.7-8.9,0.5c-5.1-0.4-8.6-5.3-6.6-9.9c1-2.2,2.6-3.6,5.2-3.5
		C221.1,207.4,224.4,207.3,228.2,207.3z"/>
	<path fill="#FFFFFF" d="M231.5,127.1c-4.4,0-8.8,0-13.2,0c-3.1,0-5.6-2.4-5.9-5.5c-0.3-3.9,1.8-6.7,5.1-7.4c2.1-0.4,4.1,0,6.1,0
		c7,0,14,0,21.1,0c3.9,0,6.4,2.7,6.4,6.7c0,3.6-2.5,6.1-6.4,6.1C240.4,127.1,236,127.1,231.5,127.1z"/>
	<path fill="#FFFFFF" d="M123.9,173.1c-4.3,0-8.7,0-13,0c-3.8,0-6.1-2.7-6.1-6.7c0-3.6,2.5-6.1,6.1-6.1c8.6,0,17.3,0,25.9,0
		c3.6,0,6.2,3.1,6.2,7c0,3.8-2,5.8-6.1,5.8C132.6,173.1,128.2,173.1,123.9,173.1z"/>
	<path fill="#FFFFFF" d="M127.8,212.6c-2.9,0-5.8,0.1-8.6,0c-4-0.1-6.3-2.9-6.2-7.2c0.1-3.7,2.5-6.1,6.4-6.1
		c5.8,0,11.5,0.2,17.3-0.1c3.1-0.1,6.4,2.5,6.8,6.3c0.4,3.4-3.2,6.9-6.7,7.1c-0.2,0-0.4,0-0.5,0
		C133.4,212.6,130.6,212.6,127.8,212.6z"/>
	<path fill="#FFFFFF" d="M129.6,115.9c1.7,0.2,3.8-0.3,5.9,0.3c4.2,1.1,6.1,3.6,5.8,7.7c-0.3,3.6-2.5,5.9-6.8,5.7
		c-5-0.2-10-0.2-15-0.5c-2.4-0.1-4.9-4.8-4.1-7.4c1.1-3.9,3.5-5.5,8.9-5.8C125.9,115.9,127.5,115.9,129.6,115.9z"/>
</g>
<g>
	<path fill="#FFFFFF" d="M602.4,71.9c11.4-0.3,22.2,1.2,33.1,2.5c12.3,1.4,24.2,4.4,35.8,8.3c15,4.9,29.2,11.5,42.4,20.2
		c9.3,6.2,18.1,12.9,26.4,20.5c3.1,2.8,6.2,5.6,9.1,8.7c2.5,2.6,3.6,5.7,2.1,8.9c-3.1,6.9-7.1,13.3-14.3,16.4
		c-3.2,1.4-6.6,1.2-9.5-1c-4.1-3.1-8.2-6.4-12.2-9.6c-6.9-5.4-14.1-10.5-21.7-14.8c-11.2-6.4-22.8-11.7-35.1-15.4
		c-10.7-3.3-21.7-5.5-32.9-6.7c-8-0.9-15.9-1.7-23.9-1.4c-10.3,0.3-20.6,1.3-30.8,3.2c-10.1,1.9-20,4.5-29.6,8.1
		c-10.5,3.9-20.4,8.9-30,14.7c-10.5,6.3-20,13.9-29.3,21.8c-5.3,4.5-11.6,3.9-16.6-1c-4-3.9-7.8-7.9-9.9-13.2
		c-2.1-5.2,0.7-8.9,4.2-12.1c5.3-4.9,10.7-9.6,16.3-14.2c8.9-7.2,18.4-13.5,28.4-19c12.2-6.8,25.2-12,38.6-16
		c10.3-3.1,20.8-5.4,31.6-6.6C583.9,72.8,593.3,71.5,602.4,71.9z"/>
	<path fill="#FFFFFF" d="M603.8,133.8c18-0.3,34.2,2.6,50.1,7.8c10.3,3.4,20.1,8,29.4,13.4c8.4,4.9,16.4,10.4,23.4,17.4
		c1.1,1.1,2.5,1.9,3.5,3.1c3.5,4.2,3.8,8.8,0.7,13.5c-3.3,4.9-7.3,9.3-11.6,13.2c-3.5,3.1-8.4,3.1-12.3,0.1
		c-8.9-6.9-17.9-13.6-28-18.7c-9.6-4.9-19.7-8.4-30.3-10.4c-8-1.5-16.1-2.6-24.3-2.6c-6.8,0-13.4,1-20.1,2.1
		c-12.8,2-24.8,6.2-36.3,12.1c-8.9,4.6-17.1,10.4-24.9,16.7c-4.2,3.4-8.7,4.3-13.7,0.8c-5.6-4-10.5-8.8-13.1-15.4
		c-1.5-3.8-0.6-7,1.6-10.1c2.8-4,6.7-6.9,10.5-9.9c8.7-7.1,18.2-12.9,28.2-17.8c13.7-6.7,28-11.2,43-13.5
		C587.9,134.2,596.4,133.2,603.8,133.8z"/>
	<path fill="#FFFFFF" d="M604.3,195c17.1,0.2,32.7,5.6,47.3,14.3c5.9,3.5,11.5,7.5,16.1,12.5c3.9,4.2,4.4,8.5,1.7,13.6
		c-3.3,6.3-8.4,11-13.9,15.2c-3.3,2.5-8.1,1.9-11.8-0.9c-5.1-3.9-10.2-7.8-16.1-10.4c-5.6-2.5-11.5-4.1-17.7-4.7
		c-14.5-1.5-27.3,2.7-39.5,10.2c-2.7,1.7-5.2,3.5-7.8,5.3c-4.3,2.9-8.8,3.1-13.1,0.4c-5.2-3.3-9.2-7.9-12.2-13.3
		c-3.3-6-1.6-11.4,2.9-16.1c5.6-5.8,12-10.4,19.2-14.1c5.2-2.7,10.3-5.3,15.8-7.1C584.7,196.8,594.3,194.9,604.3,195z"/>
	<path fill="#FFFFFF" d="M639.2,291.5c0.4,19.4-15.6,36.9-36.6,36.3c-18.7-0.6-35-14.3-35.1-35.7c-0.1-19.2,16.3-37,37-36.2
		C623.2,256.7,639.6,272.2,639.2,291.5z"/>
</g>
<g>
	<path fill="#FFFFFF" d="M687.9,569.4c0.3,13.3-4,26.9-9.2,40.4c-5.2,13.4-13,25.4-20.4,37.6c-8.1,13.4-16.6,26.4-25.7,39.1
		c-7.3,10.2-15,20.1-23.3,29.5c-0.1,0.1-0.1,0.1-0.2,0.2c-4,4.5-4,4.5-8.4,0.1c-6.7-6.7-12.3-14.4-18.2-21.8
		c-9.2-11.5-17.4-23.8-25.4-36.2c-7.7-11.9-15.2-23.9-21.7-36.5c-3.3-6.4-7.3-12.4-9.6-19.2c-2.4-7.2-4-14.5-4.8-22.1
		c-0.5-4.9-0.4-9.8-0.5-14.7c-0.3-12.2,3-23.7,7.7-34.8c4.1-9.7,10.3-18.1,17.7-25.6c11.3-11.4,25-18,40.6-21.1
		c8.3-1.7,16.6-2.2,24.9-1.6c13,0.9,25.3,4.5,36.4,11.4c15.3,9.4,26.4,22.6,33.5,39.1c3,7.1,4.9,14.7,5.9,22.4
		C687.9,559.8,687.6,563.9,687.9,569.4z M644.1,571.4c-0.9-21.8-18.2-38.5-40.7-38.4c-20.5,0.1-39.1,16.7-39,39.8
		c0.2,21.3,17.4,38.9,40.1,38.3C627.6,610.5,642.9,595,644.1,571.4z"/>
</g>
<g>
	<path fill="#FFFFFF" d="M261.3,571c0,45.7-0.1,91.4,0,137.1c0,11.9-10.6,19.7-19.6,19.6c-17.3-0.1-34.6,0-51.9,0
		c-4,0-8.1,0.5-12.1,0.4c-20-0.7-39.9-0.1-59.9-0.5c-5.8-0.1-10.2-3.6-13.8-7.9c-2.9-3.4-3.6-7.6-3.6-11.8c-0.1-22.6,0-45.2,0-67.8
		c0-68.2,0.1-136.5-0.1-204.7c0-10.1,9.6-19.5,19.3-19.4c40.9,0.2,81.8,0.1,122.7,0.1c7.5,0,15.2,5.1,18.2,12.6
		c0.6,1.5,0.6,3.1,0.6,4.7C261.3,479.2,261.3,525.1,261.3,571z M110.4,567.1c0,37.2,0,74.4,0,111.6c0,4.1,0,4.1,4,4.1
		c44.5,0,89.1,0,133.6,0c4.2,0,3.8-0.2,3.8-3.7c0-74.9,0-149.8,0-224.7c0-0.8,0-1.5,0-2.3c-0.1-0.8-0.4-1.1-1.3-1.1
		c-4.9,0-9.7-0.2-14.6-0.2c-17.6-0.1-35.2,0.8-52.8,0.5c-7.4-0.1-14.8-0.4-22.2-0.1c-7,0.3-14.1-0.1-21.1,0.1
		c-8.3,0.2-16.5-0.8-24.7-0.6c-4.6,0.1-4.6,0-4.6,4.5C110.4,492.6,110.4,529.9,110.4,567.1z M180.5,717.8c5.7-0.2,8.1-0.8,11.7-3.7
		c5.2-4.1,7.9-10.7,3.2-16.5c-6.3-7.8-17.6-10.3-26.1-3.7c-3.9,3-6.3,6.7-5.5,12.1C164.8,711.8,173.1,718.9,180.5,717.8z
		 M180.6,435.3c3.5,0,7.1,0,10.6,0c1.8,0,3-1.2,3.1-2.7c0.1-1.6-0.9-2.9-2.8-2.9c-7.1,0-14.1-0.1-21.2,0c-1.9,0-3,1.5-2.9,3.2
		c0,1.7,1.3,2.6,3.2,2.5C173.9,435.2,177.2,435.3,180.6,435.3z"/>
	<path fill="#FFFFFF" d="M180.5,712c-4.8,0.7-7.7-1.9-9.9-5.5c-1.7-2.8-0.8-6.1,1.8-8.1c4.7-3.5,12.6-3.1,16.8,0.9
		c2.7,2.6,2.1,8.2-1.3,10.7C185.7,711.6,183.3,712.5,180.5,712z"/>
</g>
</svg>
