<?xml version="1.0" encoding="utf-8"?>
<!-- Generator: Adobe Illustrator 26.3.1, SVG Export Plug-In . SVG Version: 6.00 Build 0)  -->
<svg version="1.1" id="Layer_2_00000142156526548044606200000013267178314982170770_"
	 xmlns="http://www.w3.org/2000/svg" xmlns:xlink="http://www.w3.org/1999/xlink" x="0px" y="0px" viewBox="0 0 451.2 362.7"
	 enable-background="new 0 0 451.2 362.7" xml:space="preserve">
<g id="Layer_1-2">
	<g>
		<path fill="#FFFFFF" d="M299.2,66.3c0,6.7-0.1,13.5,0,20.2c0.3,11-2.7,20.7-9.9,29.2c-5.5,6.4-10.1,13.5-15.2,20.3
			c-0.6,0.8-1.2,1.6-1.1,2.7c0.3,6.1-0.7,12.2,0.6,18.3c0.3,1.3,0.2,2.7,0.1,4.1c-0.5,11.2,0.5,22.4,0.9,33.6
			c0.6,14.6,1,29.1,1.5,43.7c0.6,17.5,0.9,35.1,1.6,52.6c0.4,11.5,0.4,22.9,0.5,34.4c0.1,14.5-7.3,24.3-20,30.5
			c-4.2,2-8.7,3.7-13.1,5.4c-3.6,1.4-7.4,1.7-11,1c-5.9-1-11.7-0.6-17.5-0.6c-10.7,0.1-19.3-4.6-27.3-11.1
			c-7.9-6.3-11.7-15.1-11.5-24.5c0.3-10.3-0.7-20.7,0.9-30.9c0.2-1,0.2-2,0.1-3c-0.5-15.7,1.3-31.3,1.7-47
			c0.3-13.1,0.8-26.1,1.5-39.2c1.2-21.6,2.4-43.2,2.2-64.9c0-2.7-0.2-4.4-1.9-6.8c-7.6-10.3-16.3-19.8-22.5-31
			c-1.7-3-2.7-6.1-2.7-9.6c0-15.1,0.4-30.2-0.1-45.3c-0.3-8.5,2.9-15,8.3-20.7c5.8-6.2,10.8-13,16-19.6c3.7-4.7,8.2-8.3,14.8-8
			c7.6,0.3,11.2,4.6,10.4,12.1c-0.5,4.2-0.2,8.5-0.2,12.7c0,11.5,0,23,0,34.5c0,1,0,2,0,3c0.3,6.2,0.9,6.7,7.1,6.7
			c10.9,0,21.7-0.1,32.6,0.1c3.2,0,3.9-1.1,4-4.1c0.7-17.7,0.7-35.4,0.7-53.1c0-4.5,1.6-8,5.8-10c4.6-2.2,9.2-2.8,13.7,0.5
			c4.6,3.2,8,7.5,11.1,12c5,7.1,11.4,13.1,15.8,20.7c1.4,2.5,2,5,2,7.8C299.2,50.6,299.2,58.5,299.2,66.3L299.2,66.3z M188.5,29.8
			c-1.8,2.4-3,4.2-4.5,5.9c-6.6,7.8-11.5,16.3-10,27.1c1.1,7.8,0.7,15.7,0.6,23.5c0,1.8,0.6,3.4,1.6,4.9c5.8,9,11.6,18,17.2,27
			c1.6,2.6,3.2,5.3,4.5,8.2c3.9,8.4,4.3,17.1,4.1,26.4c-0.5,29.6-1,59.3-2.5,88.9c-0.5,10.9-1.2,21.9-1.4,32.8
			c-0.3,15.8-1.7,31.6-1.7,47.4c0,8.9,5.9,16.3,14.6,18.4c10.1,2.5,20.4,2,30.5,1.1c11.5-1,18.1-9.7,18.1-21.4
			c0-17.4-0.6-34.9-1.4-52.3c-0.5-11.7-0.9-23.4-1.5-35c-0.7-13.2-2.1-26.3-2.1-39.4c0-17.9-2.1-35.9-0.1-53.7
			c0.6-5.5,1.6-11.1,4.8-15.9c5.8-9,11.7-17.9,17.3-27c1.6-2.6,4.1-4.9,4-8.5c-0.2-11.4-0.1-22.7-0.1-34.1c0-2.8-0.8-5.4-1.9-7.9
			c-2.5-6-7.3-10.3-10.8-15.4c-1,3.2-1,6.3-1,9.5c0,9.9-0.1,19.7,0,29.6c0.1,10.2-10.9,19.8-19.4,19.4c-12.7-0.6-25.5-0.8-38.2,0
			c-10.8,0.7-21-12.3-20.9-21.3C188.6,55.4,188.5,43,188.5,29.8L188.5,29.8z"/>
		<path fill="#FFFFFF" d="M24.4,194.8c0-23.2,0-46.4,0-69.7c0-1.8,0.3-3.6-1.7-4.9c-9-6.1-14.6-15-18.4-24.8
			c-8-20.7-4.9-40.1,9.9-56.6c8.2-9.1,18.9-14.8,31.5-16.1c2.7-0.3,3.2,1.1,3.1,3.3c-0.1,6.5,0.2,13-0.1,19.5
			c-0.2,5.3,0.8,10.4,0.8,15.6c0,1.5,0.4,2.1,2.1,2.1c4.4-0.2,8.7-0.3,13.1-0.1c3.1,0.2,3.8-1.2,3.8-4c-0.1-10.6-0.1-21.2,0-31.8
			c0-4,0.4-4.2,4.4-3.5c21,3.8,38.2,22.7,41.6,43.4c3.3,20.5-2.9,38.3-18.8,52.3c-0.2,0.2-0.3,0.4-0.6,0.5c-7.4,2.6-7.5,8.4-7.5,15
			c0.2,43.1,0.1,86.2,0.1,129.2c0,4.7-4.2,7.2-8.3,5.1c-1.7-0.9-0.9-2.6-0.8-3.7c0.2-14.3-0.6-28.6,0.4-42.8
			c0.8-11.6-1.3-23.2-0.6-34.7c0.4-8,0.2-15.9-0.1-23.8c-0.3-10.6,1.2-21.1,0.8-31.8c-0.2-4.6,0-4.6-4.4-3.4c-2.5,0.7-5,1.3-7.6,1.8
			c-1.6,0.3-2.5,1-2.5,2.6c0,1,0,2,0,3c0,45.7,0,91.4-0.1,137.1c0,3.4,1,4.7,4.3,5.9c14.4,5.4,25.3,14.7,29,30.1
			c4,16.7-2.6,35.7-19.9,45c-11.3,6.1-23.1,8-35.1,2.5c-14.1-6.5-23.8-17.1-25.7-32.8c-1.8-15.3,3.7-28.1,16.1-37.6
			c3.7-2.8,7.7-5.1,11.9-6.9c1.4-0.6,1.7-1.2,1.8-2.7c1.4-47.7,0.3-95.3,0.7-143c0-2.5-0.5-4-3.3-4.2c-2.1-0.2-4.1-0.9-6.1-1.5
			c-5-1.6-5-1.6-5,3.7c0,15.5,0,31,0,46.4c0,28.6,0,57.2,0,85.8c0,5.1-1.8,6.4-6.9,5.2c-2.2-0.5-1.8-2.1-1.8-3.5
			c0-9.7,0-19.5,0-29.2C24.4,222.8,24.4,208.8,24.4,194.8L24.4,194.8z M58.1,80.7c-5.9,0-11.7-0.2-17.6,0.1c-3.7,0.2-5-0.9-4.9-4.8
			c0.2-12,0.1-24,0.1-35.9c0-0.9,0.6-2.2-0.6-2.7c-0.9-0.4-1.5,0.7-2.2,1.1c-5.6,3.5-9.9,8.2-13.5,13.7c-6,9.2-8.1,19.2-6.4,30.2
			c1.6,10.7,7.1,19.1,14.8,26c10.4,9.3,23,12.3,36.7,10.6c10.9-1.3,21-5.2,28.1-13.8c7.9-9.4,12.1-20.1,10.7-32.9
			c-1.5-14.4-9.1-24.6-20.1-33c-1.3-1-2-0.7-2,1c-0.2,4.1-0.6,8.2-0.7,12.3c-0.1,7.7-0.2,15.5,0,23.2c0.1,3.7-0.8,5.2-4.8,4.9
			C69.8,80.5,63.9,80.7,58.1,80.7L58.1,80.7z M82.1,318.1c1-12.9-10-23.2-23.6-23.1c-15.1,0.1-25.2,10.7-25,24.9
			c0.2,12.8,9.8,23.1,24.8,23.2C71,343.1,82.8,333.3,82.1,318.1L82.1,318.1z"/>
		<path fill="#FFFFFF" d="M403.3,197.6c0,24,0.1,47.9-0.1,71.9c0,3.7,1.1,5.3,4.6,6.2c11.7,3.1,19.9,10.6,26.1,20.8
			c4,6.5,5.7,13.6,5.9,20.9c0.2,9.8-2.7,19-9,26.6c-9.3,11.4-21.6,17.2-36.3,16.8c-13.8-0.4-24.9-6.4-33.6-17.4
			c-11.2-14-11.7-29.3-4.9-44.9c4.5-10.3,13-17.5,23.5-21.8c2.8-1.1,3.8-2.4,3.8-5.4c-0.1-48.2-0.1-96.5-0.1-144.7
			c0-1.4,0.1-2.8,0-4.1c-0.2-2.4,0.8-3.5,3.2-3.3c4.6,0.2,9.2-0.2,13.8,0.6c2.5,0.5,3,1.5,3,3.7c-0.1,8.5,0,17,0,25.5
			C403.3,165.1,403.3,181.4,403.3,197.6L403.3,197.6z M395.8,297.3c-11.4-0.2-21,9.1-20.7,20.8c0.3,11.7,10,19.9,20.7,19.8
			c11.8-0.1,19.9-8.6,20.3-20.9C416.5,304.5,405.7,296.9,395.8,297.3z"/>
		<path fill="#FFFFFF" d="M426.5,193.3c0,23.8,0,47.7,0,71.5c0,1.5,0.8,3.7-1.1,4.4c-2.3,0.9-4.9,0.6-7.4,0.1
			c-0.7-0.1-0.6-0.9-0.6-1.5c0.7-16,0.2-31.9,0.3-47.9c0.1-32.6,0-65.2,0-97.8c0-2.2-0.2-4.4,0.4-6.7c0.6-2.4-1.3-3.9-2.9-5.3
			c-2.3-2-2.2-3.8-0.5-6.1c4.8-6.4,9.4-12.8,15.6-17.9c2.6-2.1,3.6-4.4,2.8-7.8c-1.1-4.8-0.3-9.7-0.4-14.6c0-2-0.6-3.5-2-5
			c-3.7-3.8-7.4-7.7-11-11.7c-3.4-3.7-3.8-8.6-4.2-13.3c-0.2-2.4-1-3.4-3.3-4.2c-12-3.9-24-3.1-35.9,0.3c-2,0.6-3.3,1.6-3.5,3.8
			c-0.9,10.7-8.3,17.8-14.5,25.5c-1.5,1.9-2.5,3.5-2.4,6c0.1,5,0.1,10,0,15c-0.1,2.3,0.8,3.6,2.6,4.9c6.9,4.7,11.6,11.6,16.9,17.8
			c1,1.2,0.6,2.3-0.3,3.4c-5.8,6.5-5.9,14.3-5.9,22.5c0.3,45.3,0.1,90.6,0.1,136c0,2.8,0,5.2-4,5.1c-4.6-0.1-4.8-0.1-4.8-4.8
			c0-44.9,0-89.9,0-134.8c0-3.7,1.1-7.4,0.8-11.2c-0.1-1.6-0.4-3-2.1-3.5c-3.2-1-5.2-3.4-6.5-6.3c-3.2-7.1-7.9-13.2-11.7-19.9
			c-2.3-4-3.9-8-3.7-12.7c0.3-6.6-0.5-13.2,0.7-19.8c0.2-1.2,0.4-2.4,0.9-3.6c3.9-8.1,8.8-15.6,14.3-22.6
			c6.2-7.9,15.7-10.8,24.8-13.5c11.3-3.5,23.1-3.1,34.2,0.3c13.7,4.2,24.3,12.5,31.7,25.4c7.8,13.5,7.6,27.5,6,41.9
			c-0.4,3.5-2.4,6.5-4.3,9.4c-2.9,4.6-5.7,9.3-8.4,14.1c-1.8,3.2-4.3,5.5-7.7,6.7c-2.8,1-3.6,2.8-3.5,5.7
			C426.6,144.8,426.5,169,426.5,193.3L426.5,193.3z"/>
		<path fill="#FFFFFF" d="M417.7,64.4c-0.4,0.6-0.8,1.3-1.2,2.1c-4.3,7.2-10.2,13.1-15.3,19.6c-0.5,0.7-1.2,1.3-1.6,2
			c-1.7,2.7-3,2.5-5,0.1c-4.8-5.5-9.9-10.8-14.9-16.2c-1.8-2-3.6-4.1-5.3-6.2c-1.5-1.8-1.1-2.9,1.4-2.9c13.2,0,26.4,0,39.6,0
			C416.2,63,417.4,62.6,417.7,64.4L417.7,64.4z"/>
		<path fill="#FFFFFF" d="M237.7,281.2c0,14.7-0.1,26.6,0.1,38.6c0.1,3.4-1,4.7-4.5,4.5c-2.1-0.1-4.2,0.4-6.3,0.7
			c-3,0.4-4.2-0.8-4.1-3.9c0.1-12.6,0.6-25.2-0.1-37.8c-1.3-24.9,0.1-49.9-0.8-74.8c-0.3-9.3-0.3-18.7-0.6-28
			c-0.1-3-0.8-5.4-4.4-6.3c-4.5-1.1-7-5.1-10-8.1c-1-1-0.7-1.8,0.8-1.9c0.5,0,1,0,1.5,0c13,0,26,0,38.9,0c1,0,2.3-0.4,2.8,0.5
			c0.7,1.3-0.8,1.9-1.5,2.7c-2.4,2.5-5.3,4.5-8.3,6.3c-2,1.2-2.9,2.7-2.8,5.2c0.2,6.2,0,12.5,0.1,18.7
			C239,226.3,237.2,255.1,237.7,281.2L237.7,281.2z"/>
		<path fill="#FFFFFF" d="M227.6,132.4c-4.4,0-8.7-0.1-13.1,0c-2.1,0-3-0.4-2.9-2.9c0.3-6.3,0.2-12.7,0.1-19.1
			c0-2.3,0.8-3.4,3.2-3.4c9.1,0.1,18.2,0.1,27.3,0c2,0,3.1,0.7,3,2.8c-0.3,6.6,0.6,13.2-0.7,19.7c-0.4,2.1-1.2,2.7-3.1,2.7
			C236.8,132.4,232.2,132.4,227.6,132.4L227.6,132.4z"/>
	</g>
</g>
</svg>
