<?xml version="1.0" encoding="utf-8"?>
<!-- Generator: Adobe Illustrator 26.3.1, SVG Export Plug-In . SVG Version: 6.00 Build 0)  -->
<svg version="1.1" id="Layer_2_00000081635414774186222930000014668517990397037958_"
	 xmlns="http://www.w3.org/2000/svg" xmlns:xlink="http://www.w3.org/1999/xlink" x="0px" y="0px" viewBox="0 0 456.5 337.3"
	 enable-background="new 0 0 456.5 337.3" xml:space="preserve">
<g id="Layer_1-2">
	<path fill="#FFFFFF" d="M455.8,163c0,41.7-0.3,83.5,0.2,125.2c0.2,14-10.6,20.4-20.7,20.5c-30.6,0.1-61.2,0.1-91.9,0.1
		c-22.2,0-44.5,0-66.7-0.1c-2.6,0-3.2,0.8-3.1,3.2c0.1,3.6,0,7.2,0,10.9c0,8.7-5.4,14.4-14.1,14.5c-18.7,0.2-37.5,0.1-56.2,0
		c-7.9,0-14.9-7.3-15-15.2c0-3.4-0.1-6.8,0-10.1c0.1-2.2-0.7-3.3-3-3.2c-1.1,0.1-2.2,0-3.4,0c-53.2,0-106.5-0.2-159.7,0.1
		C8.5,309,0,299,0,286.7c0-21.1,0-42.2,0-63.4c0-56.7-0.1-113.4,0.1-170.1c0-8.7,0.4-17.4,0.7-26c0.3-8.6,8.9-16.6,17.7-16.7
		c13.4-0.1,26.7-0.1,40.1,0c2.5,0,4.2-0.2,5.5-3.1c2.2-5,9.4-8,14.9-7.3c8,0.9,16.1,1.6,24.1,2.2c15.3,1.1,30.5,2.3,45.8,2.9
		c8.5,0.3,17,0.3,25.4,1c12.4,0.9,24.7,2.4,36.2,7.8c7.8,3.7,13.5,9.7,19.2,15.8c0.8,0.8,1.1,2.2,2.4,0.4
		c9.5-12.9,23.1-18.8,38.2-21.9c8-1.7,16.1-1.6,24.1-2.1c16.4-1.1,32.8-1.3,49.2-3c10.1-1,20.3-1.5,30.5-2.4
		C377.6,0.4,381,0,384.5,0c5.6,0,9.7,2.4,11.5,7.8c0.9,2.5,2.2,2.8,4.4,2.8c12.2-0.1,24.5,0,36.7,0c9.7,0,18,7.2,19.2,16.9
		c0.4,2.8-0.7,5.6-0.7,8.5C455.8,78.3,455.8,120.7,455.8,163L455.8,163z M219.6,252.2c0.1-1.3,0.2-2.2,0.2-3c0-63,0-125.9,0-188.9
		c0-1.5-0.1-3-0.6-4.4c-4.4-12.6-13.2-20.6-26.1-23.8c-10.8-2.7-21.9-3.1-32.9-3.8c-10.1-0.6-20.1-0.8-30.2-1.6c-14-1.2-28-2-42-3
		c-3.1-0.2-3.7,0.4-2.8,3.3c0.4,1.4,0.1,3,0.1,4.5c0,67.7,0,135.4,0,203.2c0,1,0,2,0,3c0,1.3,0.4,2,1.8,1.3
		c6.2-2.9,12.7-2.2,19.3-2.1c22.5,0.3,45,0.1,67.5,0.1c3.9,0,7.7,0.6,11.5,1.3C197.6,240.7,209,244.9,219.6,252.2L219.6,252.2z
		 M374.3,131c0-34.9,0-69.7,0-104.6c0-2,0.3-3.8-2.8-3.4c-7.9,1.2-15.8,1.5-23.7,2.4C333.2,27,318.6,27.5,304,29
		c-11.2,1.1-22.6,1.5-33.8,3.1c-8.3,1.2-15.1,5.3-20.3,11.5c-5.8,6.8-7.9,15.1-7.9,24c0,59.1,0,118.2,0.1,177.3
		c0,2.2-1.1,5.2,0.7,6.3c1.4,0.8,3.6-1.6,5.4-2.6c1-0.5,2.1-0.8,3.1-1.3c11.4-6.6,23.9-9.9,37-10.1c21.7-0.2,43.5-0.1,65.2-0.1
		c1.4,0,2.8,0.2,4.1-0.1c4.3-1.3,8.4-0.2,12.5,1c4.3,1.3,4.3,1.3,4.3-3C374.3,200.2,374.3,165.6,374.3,131L374.3,131z M21.5,159.8
		c0,40.7,0,81.5,0,122.2c0,4,2,5.9,6,5.9c56.2,0,112.5,0,168.7,0c7.4,0,10.9,2.7,12.8,9.9c1.2,4.4,0.6,8.9,0.7,13.4
		c0.1,6.8,0,6.8,6.5,6.7c10.4,0,20.7,1.1,31,0.9c3.9-0.1,5-1.2,4.7-5c-0.3-3.5-0.2-7,0-10.5c0.5-9.9,4.3-16.4,16.4-16.3
		c5.7,0.1,11.4,0.9,17.2,0.9c34.7-0.1,69.5,0,104.2,0c13.2,0,26.5,0,39.7,0c2.1,0,4,0.2,4-3c-0.2-8.1,0-16.2,0.7-24.3
		c0.6-7.5-0.8-14.9-0.8-22.4c0.5-55.5-0.8-110.9,0.7-166.4c0.3-10,0-20,0-30c0-11.9,0-11.5-11.9-10.2c-4.7,0.5-4.9,2.4-4.9,6
		c0.1,76.4,0.1,152.7,0.1,229.1c0,1.2-0.1,2.5,0,3.7c0.1,2.2-0.7,2.8-2.9,2.3c-7.5-1.8-15-3.3-22.5-5.1c-17.6-4.2-35.1-8.3-53.4-7.8
		c-13.4,0.3-26.7,0.1-40.1,0c-5.9,0-11.7,0.5-17.4,1.6c-14.4,2.7-27.1,8.9-37.7,19.1c-0.9,0.9-2.2,1.7-1.9,3.4
		c1.1,6.1,0.3,12.2,0.5,18.3c0.1,4.8-0.5,5.7-5.2,5.5c-4.7-0.2-9.4-0.5-14.1,0.1c-1.4,0.2-3-0.1-2.9-2c0.4-5.6-1.7-11-0.3-16.7
		c0.6-2.8,1.4-6.3-1.4-8.8c-7-6.4-14.8-11.5-23.6-14.9c-11.2-4.2-22.9-5.5-34.8-5.5c-10.6,0-21.3,0.4-31.9-0.1
		c-19.5-0.8-38.5,1.8-57.3,6.3c-10,2.4-20.1,4.5-30.2,6.9c-2.8,0.7-3.7-0.2-3.6-2.9c0.1-1.2,0-2.5,0-3.7c0-74.7,0-149.5,0-224.2
		c0-3.3,1.5-7.7-0.7-9.7c-1.9-1.6-6.2-0.5-9.4-0.6c-5.1,0-5.1,0-5.1,5.2C21.5,78.1,21.5,119,21.5,159.8L21.5,159.8z M59,137.2
		c0,33.5,0,67,0.1,100.5c0,1.8-1.6,5.2,2.2,5.2c4.1,0.1,2.4-3.4,2.4-5.4c0.1-64.7,0.1-129.5,0.1-194.2c0-3-0.3-6,0.6-8.9
		c0.5-1.5,0.2-3-2-3.1c-2.1-0.1-3.5,0.3-3.3,2.8c0.1,1,0,2,0,3C59.1,70.5,59.1,103.8,59,137.2L59,137.2z"/>
</g>
</svg>
